<svg version="1.2" xmlns="http://www.w3.org/2000/svg" viewBox="0 0 750 500" width="750" height="500">
	<title>5498789-ai</title>
	<style>
		.s0 { fill: #263238 } 
		.s1 { fill: #c27461 } 
		.s2 { fill: #ff725e } 
		.s3 { fill: #7d4336 } 
		.s4 { fill: #455a64 } 
		.s5 { opacity: .3;fill: #000000 } 
		.s6 { fill: #ffcfb4 } 
		.s7 { fill: #ff9d64 } 
		.s8 { fill: #824e44 } 
		.s9 { fill: #ffbf9d } 
		.s10 { fill: #5b342f } 
		.s11 { fill: #000000 } 
		.s12 { fill: #ff9a6c } 
		.s13 { fill: #ebebeb } 
	</style>
	<g id="Characters">
		<g id="&lt;Group&gt;">
			<path id="&lt;Path&gt;" class="s0" d="m229.9 474.5l5.6-41.2 119.5-5.7 8.5 47z"/>
			<path id="&lt;Path&gt;" class="s1" d="m380.4 291.7q34.8 31.1 38.7 38.7c6.1 11.6 3.4 20.9-0.9 26.3-3.2 3.9-15.8 3.2-21.7 1.5-8.5-2.4-12.8-8.3-18.7-14.9l-35.9-39.8z"/>
			<path id="&lt;Path&gt;" class="s2" d="m359.8 261.3q14.5 3.2 34.3 50.3l-30.8 20.1q-9.4-19.6-9.6-21.6z"/>
			<g id="&lt;Group&gt;">
				<g id="&lt;Group&gt;">
					<g id="&lt;Group&gt;">
						<g id="&lt;Group&gt;">
							<g id="&lt;Group&gt;">
								<g id="&lt;Group&gt;">
									<g id="&lt;Group&gt;">
										<g id="&lt;Group&gt;">
											<g id="&lt;Group&gt;">
												<path id="&lt;Path&gt;" class="s1" d="m412.4 285.4l-25.1 0.5-2-24.5q-11.3-7.8-13-11.8l-7.4-24.5q0.9-3 5-0.4 3.9 2.7 4 9l3.8 4.8 0.9-5.3-3.8-16.9q-3-12.1-0.8-11.7c2.3 0.4 4.3 3.4 5.6 8.6q1.3 5.2 2.9 11.8 0.7 2 1-2c0.4-4-3.8-18.3-3.9-20.5-0.1-2.1-2-7 0.8-8q2.9-1 4.1 5.9l6.3 21.1q-1-9.2-1.1-10.8c-0.2-1.6-1.4-6.3-1.6-9.1-0.1-2.8 0.7-4.7 2-5.1q2.3-0.7 3.2 1.3l3.6 18.9q1.3 8.8 1.7 9.2 0.3 0.4 1.5-4.6l-0.3-6.5q-1.7-8.6 0.3-9.8 2-1.2 2.8 0.4l3 15.8 1 19.1-0.4 14.9z"/>
											</g>
										</g>
									</g>
								</g>
							</g>
						</g>
					</g>
					<g id="&lt;Group&gt;">
						<g id="&lt;Group&gt;">
							<g id="&lt;Group&gt;">
								<g id="&lt;Group&gt;">
									<path id="&lt;Path&gt;" class="s3" d="m397.6 246.4c-0.1 0.1-1.3-1.1-3.3-2.8-2-1.7-5.2-4-9.2-3.8-1.8 0-3.4 0.6-4.5 1.6l-0.5 0.4-0.3-0.5c-1.6-2.1-3.4-4-4.4-5.3-1.1-1.3-1.6-2.2-1.5-2.3 0.1 0 0.8 0.7 2 1.9 1.2 1.2 2.9 2.8 4.8 5.2l-0.8-0.1c1.3-1.2 3.2-2 5.2-2 2.1-0.1 4.2 0.5 5.8 1.4 1.7 0.9 2.9 1.9 3.9 2.9 2 1.9 2.9 3.3 2.8 3.4z"/>
								</g>
							</g>
						</g>
					</g>
				</g>
				<path id="&lt;Path&gt;" class="s1" d="m391.1 340.8l-5.3-76.5 21.3-6.6 15.4 83.1z"/>
			</g>
			<g id="&lt;Group&gt;">
				<g id="&lt;Group&gt;">
					<g id="&lt;Group&gt;">
						<g id="&lt;Group&gt;">
							<path id="&lt;Path&gt;" class="s0" d="m304 137.3c-2.5-2.7-2.9-7-1-10.1 1.8-3.1 5.8-4.8 9.4-3.9 4.4-3.1 10.9-2.6 14.8 1.1 3.2-1.7 7.4-1.5 10.5 0.4 3.1 2 5.1 5.6 5.1 9.3 3.7-0.4 7.5 1.9 9 5.3 1.5 3.4 0.6 7.7-2.1 10.2 3.9 1.5 6.3 6.3 5.1 10.3-1.1 4.1-5.6 6.9-9.7 6.2"/>
						</g>
					</g>
				</g>
				<g id="&lt;Group&gt;">
					<g id="&lt;Group&gt;">
						<g id="&lt;Group&gt;">
							<path id="&lt;Path&gt;" class="s1" d="m325 235.4l-0.9 17.3c-7.1 13.4-24.9 16.5-36.1 6.3l-12.4-11.1 3.2-78.6c-0.6-20.4 10.8-37.7 31.2-37.7l1.9 0.1c19 1.2 33.9 16.7 34.4 35.7 0.3 17.6 0.5 37.2-0.1 46.6q-1.4 19.6-21.2 21.4z"/>
						</g>
						<g id="&lt;Group&gt;">
							<g id="&lt;Group&gt;">
								<g id="&lt;Group&gt;">
									<g id="&lt;Group&gt;">
										<g id="&lt;Group&gt;">
											<g id="&lt;Group&gt;">
												<path id="&lt;Path&gt;" class="s3" d="m324.8 240.2q-19.6 0.6-24.8-13.8 12.7 9 25.2 9z"/>
											</g>
										</g>
									</g>
								</g>
							</g>
						</g>
						<g id="&lt;Group&gt;">
							<g id="&lt;Group&gt;">
								<g id="&lt;Group&gt;">
									<g id="&lt;Group&gt;">
										<g id="&lt;Group&gt;">
											<g id="&lt;Group&gt;">
												<g id="&lt;Group&gt;">
													<g id="&lt;Group&gt;">
														<g id="&lt;Group&gt;">
															<ellipse id="&lt;Path&gt;" class="s0" cx="334.8" cy="183.8" rx="2.8" ry="2.7"/>
														</g>
													</g>
												</g>
											</g>
										</g>
									</g>
								</g>
							</g>
						</g>
						<g id="&lt;Group&gt;">
							<g id="&lt;Group&gt;">
								<g id="&lt;Group&gt;">
									<g id="&lt;Group&gt;">
										<g id="&lt;Group&gt;">
											<g id="&lt;Group&gt;">
												<g id="&lt;Group&gt;">
													<g id="&lt;Group&gt;">
														<g id="&lt;Group&gt;">
															<g id="&lt;Group&gt;">
																<path id="&lt;Path&gt;" class="s0" d="m341.5 176.7c-0.4 0.3-2.4-1.4-5.4-1.5-3-0.2-5.3 1.2-5.6 0.8-0.2-0.2 0.2-0.8 1.2-1.5 1-0.6 2.7-1.2 4.5-1.1 1.9 0.2 3.5 0.9 4.3 1.7 0.9 0.8 1.2 1.4 1 1.6z"/>
															</g>
														</g>
													</g>
												</g>
											</g>
										</g>
									</g>
								</g>
							</g>
						</g>
						<g id="&lt;Group&gt;">
							<g id="&lt;Group&gt;">
								<g id="&lt;Group&gt;">
									<g id="&lt;Group&gt;">
										<g id="&lt;Group&gt;">
											<g id="&lt;Group&gt;">
												<g id="&lt;Group&gt;">
													<g id="&lt;Group&gt;">
														<g id="&lt;Group&gt;">
															<ellipse id="&lt;Path&gt;" class="s0" cx="307.3" cy="183.8" rx="2.8" ry="2.7"/>
														</g>
													</g>
												</g>
											</g>
										</g>
									</g>
								</g>
							</g>
						</g>
						<g id="&lt;Group&gt;">
							<g id="&lt;Group&gt;">
								<g id="&lt;Group&gt;">
									<g id="&lt;Group&gt;">
										<g id="&lt;Group&gt;">
											<g id="&lt;Group&gt;">
												<g id="&lt;Group&gt;">
													<g id="&lt;Group&gt;">
														<g id="&lt;Group&gt;">
															<g id="&lt;Group&gt;">
																<path id="&lt;Path&gt;" class="s0" d="m311.9 175.5c-0.3 0.3-2.4-1.3-5.4-1.5-3-0.2-5.3 1.2-5.6 0.8-0.1-0.2 0.3-0.8 1.3-1.4 1-0.7 2.6-1.3 4.5-1.1 1.9 0.1 3.4 0.9 4.3 1.6 0.8 0.8 1.1 1.5 0.9 1.6z"/>
															</g>
														</g>
													</g>
												</g>
											</g>
										</g>
									</g>
								</g>
							</g>
						</g>
						<g id="&lt;Group&gt;">
							<g id="&lt;Group&gt;">
								<g id="&lt;Group&gt;">
									<g id="&lt;Group&gt;">
										<g id="&lt;Group&gt;">
											<g id="&lt;Group&gt;">
												<g id="&lt;Group&gt;">
													<g id="&lt;Group&gt;">
														<g id="&lt;Group&gt;">
															<path id="&lt;Path&gt;" class="s0" d="m321.5 198.4c0-0.1 1.9-0.4 4.9-0.6 0.8 0 1.6-0.1 1.7-0.6 0.2-0.6 0-1.4-0.4-2.3q-0.9-2.9-1.9-6c-2.6-8.5-4.5-15.5-4.2-15.6 0.4-0.1 2.8 6.7 5.5 15.2q0.9 3.2 1.8 6c0.2 0.9 0.7 1.9 0.2 3.1-0.2 0.5-0.8 0.9-1.3 1-0.5 0.1-1 0.1-1.3 0.1-3.1 0-5-0.1-5-0.3z"/>
														</g>
													</g>
												</g>
											</g>
										</g>
									</g>
								</g>
							</g>
						</g>
						<g id="&lt;Group&gt;">
							<g id="&lt;Group&gt;">
								<g id="&lt;Group&gt;">
									<g id="&lt;Group&gt;">
										<g id="&lt;Group&gt;">
											<g id="&lt;Group&gt;">
												<g id="&lt;Group&gt;">
													<g id="&lt;Group&gt;">
														<g id="&lt;Group&gt;">
															<path id="&lt;Path&gt;" class="s0" d="m312.6 200c0.4 0 0.3 3.2 2.9 5.7 2.7 2.5 6.2 2.3 6.2 2.8 0 0.2-0.9 0.6-2.3 0.5-1.5 0-3.5-0.6-5.2-2.1-1.6-1.5-2.2-3.4-2.2-4.8-0.1-1.4 0.3-2.1 0.6-2.1z"/>
														</g>
													</g>
												</g>
											</g>
										</g>
									</g>
								</g>
							</g>
						</g>
						<g id="&lt;Group&gt;">
							<g id="&lt;Group&gt;">
								<g id="&lt;Group&gt;">
									<g id="&lt;Group&gt;">
										<g id="&lt;Group&gt;">
											<path id="&lt;Path&gt;" class="s0" d="m313.4 163.8c-0.3 0.8-3.3 0.2-6.9 0.4-3.5 0.2-6.4 1-6.9 0.3-0.1-0.4 0.4-1.1 1.6-1.8 1.2-0.8 3-1.4 5.2-1.5 2.1-0.1 4 0.3 5.3 0.9 1.2 0.6 1.9 1.3 1.7 1.7z"/>
										</g>
									</g>
								</g>
							</g>
						</g>
						<g id="&lt;Group&gt;">
							<g id="&lt;Group&gt;">
								<g id="&lt;Group&gt;">
									<g id="&lt;Group&gt;">
										<g id="&lt;Group&gt;">
											<path id="&lt;Path&gt;" class="s0" d="m340.9 167.9c-0.6 0.7-2.6-0.2-5.1-0.3-2.5-0.3-4.6 0.2-5-0.6-0.2-0.3 0.1-1 1.1-1.6 0.9-0.6 2.5-1 4.2-0.9 1.7 0.2 3.1 0.9 4 1.6 0.8 0.8 1.1 1.5 0.8 1.8z"/>
										</g>
									</g>
								</g>
							</g>
						</g>
						<g id="&lt;Group&gt;">
							<g id="&lt;Group&gt;">
								<g id="&lt;Group&gt;">
									<g id="&lt;Group&gt;">
										<path id="&lt;Path&gt;" class="s0" d="m344.9 158.3q-4.4-12.6-10.2-15.8c-6.9-3.8-10.4 3.8-17.1 1.5-6.7-2.3-13.4-6-20.6-1.2-8 5.4-4.7 9.6-5.6 18.3-4 35-11 44.6-11.9 27.9-0.1-1.8-5-3.6-5.3-11.3-0.4-10-0.1-22.1 2.6-29 2.2-5.8 5.8-9.7 12.2-13.9 10-6.6 23.2-6 32.1-4.5 8.9 1.4 25.5 12.7 23.8 28z"/>
									</g>
								</g>
							</g>
						</g>
						<g id="&lt;Group&gt;">
							<g id="&lt;Group&gt;">
								<g id="&lt;Group&gt;">
									<g id="&lt;Group&gt;">
										<path id="&lt;Path&gt;" class="s1" d="m280.5 203.2c0 0.4-13.5 2.8-13.2-10.6 0.2-7.5 4.4-9.4 8.1-9.5 3-0.1 5.4 2.4 5.4 5.5-0.1 5.6-0.3 14.4-0.3 14.6z"/>
									</g>
								</g>
							</g>
						</g>
						<g id="&lt;Group&gt;">
							<g id="&lt;Group&gt;">
								<g id="&lt;Group&gt;">
									<g id="&lt;Group&gt;">
										<path id="&lt;Path&gt;" class="s3" d="m277.3 198.7c-0.4 0.3-1.2 0.6-2.2 0.3-1.9-0.6-3.2-3.1-3.2-5.8 0-1.4 0.3-2.7 0.9-3.7 0.5-1.1 1.4-2 2.5-2.1 0.5 0 0.9 0.2 1.3 0.4 0.3 0.3 0.4 0.6 0.5 0.9 0.1 0.5-0.2 0.8-0.2 0.7-0.1 0 0-0.2-0.2-0.6-0.1-0.4-0.6-0.8-1.3-0.7-0.8 0.1-1.4 0.8-1.8 1.7-0.5 1-0.8 2.1-0.8 3.4 0 2.4 1.1 4.7 2.5 5.2 0.7 0.3 1.4 0.2 1.8 0 0.4-0.1 0.6-0.3 0.6-0.3 0.1 0 0 0.3-0.4 0.6z"/>
									</g>
								</g>
							</g>
						</g>
					</g>
					<g id="&lt;Group&gt;">
						<g id="&lt;Group&gt;">
							<g id="&lt;Group&gt;">
								<path id="&lt;Path&gt;" class="s0" d="m283.3 162.3c-1.4 2-4.5 2.5-6.5 1.2-2-1.4-2.7-4.3-1.5-6.4-2.7 0.5-5.2-2.4-5-5.1 0.2-2.8 2.4-5.1 4.9-6.3-1.5-3-1-6.9 1.2-9.4 2.3-2.6 6-3.6 9.2-2.6 1.7-3.4 5.1-6 8.8-6.6 3.8-0.6 7.9 0.7 10.5 3.4 2.5-3.9 7.4-6.1 11.9-5.4 4.6 0.8 8.5 4.5 9.6 9 3.6-1.3 8.1 0.4 10 3.8 0.4 0.8 0.7 1.7 0.4 2.5-0.5 1.5-2.6 1.8-4.2 1.5-1.6-0.4-3.3-1-4.8-0.2-1.5 0.9-1.8 2.9-2.2 4.6-0.4 1.8-1.4 3.8-3.1 3.8-1 0-1.9-0.6-2.9-0.8-1.7-0.4-3.5 0.7-4.7 2-1.3 1.3-2.3 2.8-3.9 3.7-1.5 0.9-3.9 0.8-4.8-0.7-1.2 3.7-5.3 6.2-9.2 5.6-1.1-0.2-2.4-0.6-3.2 0.2-0.6 0.7-0.5 1.8-0.7 2.7-0.5 2.1-2.9 3.1-5 2.8-2.1-0.3-3.9-1.6-5.5-2.9"/>
							</g>
						</g>
					</g>
					<g id="&lt;Group&gt;">
						<g id="&lt;Group&gt;">
							<g id="&lt;Group&gt;">
								<g id="&lt;Group&gt;">
									<path id="&lt;Path&gt;" class="s4" d="m327.1 138q0 0 0 0.3 0 0.2-0.1 0.7c-0.2 0.6-0.5 1.5-1.2 2.5-0.6 1-1.6 2.1-3.1 3-1.5 0.9-3.4 1.5-5.6 1.2l0.3-0.2c0.3 1.1 0.1 2.5-0.5 3.6-0.6 1.2-1.5 2.2-2.5 3.2-0.5 0.5-0.9 1-1.6 1.4-0.6 0.4-1.4 0.6-2.1 0.7-1.6 0.1-3.2-0.5-4.3-1.8l0.6-0.1c-0.5 2.6-2.2 5.2-4.7 6.7-1.3 0.8-2.9 1.3-4.5 1.1-1.5-0.1-2.9-0.6-4.2-1.2l0.3-0.1c-0.8 1.6-2 3-3.4 3.9-1.4 1-3.2 1.5-4.7 1-3.1-0.8-5.1-3.6-5.3-6.1l0.2 0.2c-1.6 0.8-3.3 0.7-4.6 0.4-1.3-0.3-2.4-1-3.1-1.6-0.7-0.7-1.2-1.3-1.4-1.7q-0.3-0.7-0.3-0.7c0.1-0.1 0.4 1 1.8 2.2 0.8 0.6 1.8 1.2 3.1 1.5 1.3 0.3 2.9 0.3 4.4-0.5l0.2-0.1 0.1 0.3c0.2 2.3 2.1 4.9 5 5.6 1.4 0.5 3 0 4.3-0.9 1.3-0.9 2.4-2.2 3.2-3.7l0.1-0.3 0.3 0.1c1.3 0.6 2.6 1.1 4.1 1.2 1.4 0.1 2.8-0.3 4.1-1.1 2.3-1.4 3.9-3.8 4.4-6.3l0.1-0.7 0.4 0.6c0.9 1.1 2.4 1.6 3.7 1.5 0.7 0 1.4-0.2 1.9-0.5 0.6-0.4 1-0.9 1.5-1.4 1-0.9 1.9-1.9 2.5-3 0.6-1.1 0.7-2.3 0.4-3.3v-0.3h0.3c2 0.3 3.9-0.3 5.3-1.1 1.5-0.8 2.5-1.9 3.1-2.8 1.4-2 1.4-3.4 1.5-3.4z"/>
								</g>
							</g>
						</g>
					</g>
				</g>
			</g>
			<g id="&lt;Group&gt;">
				<g id="&lt;Group&gt;">
					<path id="&lt;Path&gt;" class="s2" d="m356.5 411.5l5.2 41.1q-1.9 0.3-128.9 5.7l4.4-114.2 0.4-22.4 7.2-67.9q21.1-8 30.8-11.1 8.1 12.1 27.4 11.8 19-0.3 21.4-7.2l25.2 9.1q10.2 4.1 12.7 6.8l-4.9 52.2-1.4 14.2z"/>
					<path id="&lt;Path&gt;" class="s5" d="m350.1 296.9l-0.9 26-15.1 11.8-14.6-11.9v-26.7z"/>
				</g>
			</g>
			<path id="&lt;Path&gt;" class="s5" d="m356.2 359.1l-0.3 7.2q-9.3 5.9-26.6 12.9-14 5.7-94.2 20.2l0.3-9.5z"/>
			<path id="&lt;Path&gt;" class="s1" d="m248.3 293l10 55.6 80.1-5.3-3.6 26.3q-103.8 34.2-115.3 13.8c-10-17.6-2.7-83.1-0.3-97.9q3.7-23.1 21.8-26z"/>
			<path id="&lt;Path&gt;" class="s2" d="m216 288.6q3.8-30.3 32.8-36.2l13.9 84.6h-50.7q0.1-17.7 4-48.4z"/>
			<g id="&lt;Group&gt;">
				<path id="&lt;Path&gt;" class="s0" d="m218.4 337q0 0 0.2-0.1 0.3 0 0.7 0 0.9 0 2.5 0c2.3 0 5.5-0.1 9.5-0.1 8 0 19.1-0.1 31.4-0.1l-0.2 0.3q-0.1-1-0.2-2.1c-1.1-12.7-2-24.3-2.7-32.7-0.4-4.2-0.6-7.5-0.8-9.9q-0.1-1.7-0.2-2.7 0-0.4 0-0.7 0-0.3 0-0.3 0 0 0 0.3 0.1 0.3 0.1 0.7 0.1 1 0.3 2.7c0.2 2.4 0.5 5.7 0.9 9.9 0.8 8.4 1.8 19.9 2.9 32.7q0.1 1.1 0.2 2.1v0.2h-0.3c-12.3 0-23.4 0-31.4 0-4-0.1-7.2-0.1-9.5-0.1q-1.6-0.1-2.5-0.1-0.4 0-0.7 0-0.2 0-0.2 0z"/>
			</g>
			<g id="&lt;Group&gt;">
				<path id="&lt;Path&gt;" class="s0" d="m359.8 285.6c0 0 0 0.6 0 1.7 0 1.1-0.1 2.7-0.2 4.7-0.2 4-0.6 9.5-1.2 15.5-0.5 6-1.1 11.5-1.6 15.4-0.2 2-0.5 3.6-0.6 4.7-0.2 1.1-0.3 1.7-0.3 1.7 0 0 0-0.6 0.1-1.7q0.2-1.8 0.4-4.7c0.4-4 0.9-9.5 1.5-15.5 0.6-6 1.1-11.5 1.4-15.4q0.2-2.9 0.3-4.7c0.1-1.1 0.2-1.7 0.2-1.7z"/>
			</g>
			<g id="&lt;Group&gt;">
				<path id="&lt;Path&gt;" class="s0" d="m263.5 276.4c0 0-0.2-0.4-0.6-1q-0.5-1.1-1.4-2.6c-1.2-2.2-2.9-5.3-5.4-8.1-2.6-2.9-5.6-4.7-8-5.4-2.4-0.8-4-0.6-4-0.8 0 0 0.4 0 1.1 0 0.7 0 1.7 0.1 3 0.4 2.5 0.7 5.6 2.5 8.3 5.4 2.6 2.9 4.2 6.1 5.4 8.3 0.5 1.2 0.9 2.1 1.2 2.7 0.3 0.7 0.4 1.1 0.4 1.1z"/>
			</g>
			<path id="&lt;Path&gt;" class="s5" d="m256.2 337h6.5l-3.5-40.9 6.5 42q-8.9 2.2-8.8 2.7z"/>
		</g>
		<g id="&lt;Group&gt;">
			<path id="&lt;Path&gt;" class="s6" d="m417.2 344.6q-0.2 33.7-3.9 41.4-3.6 7.7-28.6 13.9l-21.2-1.4 17.5-23.3 7.2-9 1.6-21.6z"/>
			<g id="&lt;Group&gt;">
				<g id="&lt;Group&gt;">
					<g id="&lt;Group&gt;">
						<g id="&lt;Group&gt;">
							<path id="&lt;Path&gt;" class="s6" d="m450.9 273.4v-9.6c0.1-5.7 0.1-10.4 0.1-11q-19.3-2.1-20.5-21.3c-0.5-9.2-0.1-28.4 0.5-45.7 0.6-18.6 15.4-33.6 34-34.5l1.8-0.1c20 0.2 30 17.5 29.2 37.5l-1.2 84z"/>
						</g>
					</g>
				</g>
				<g id="&lt;Group&gt;">
					<g id="&lt;Group&gt;">
						<g id="&lt;Group&gt;">
							<path id="&lt;Path&gt;" class="s7" d="m450.9 252.8q12.2 0.1 24.6-8.6-5.4 14.3-24.6 13.5z"/>
						</g>
					</g>
				</g>
				<g id="&lt;Group&gt;">
					<g id="&lt;Group&gt;">
						<g id="&lt;Group&gt;">
							<path id="&lt;Path&gt;" class="s0" d="m463.1 194.5c0.8-0.7 2.3-1.4 4.3-1.9 1.9-0.4 3.7-0.5 4.8-0.3 1.1 0.2 1.6 0.5 1.5 0.6-0.3 0.3-2.9-0.1-6 0.7-3.1 0.7-5 2.1-5.4 2-0.2-0.1 0-0.5 0.8-1.1z"/>
						</g>
					</g>
				</g>
				<g id="&lt;Group&gt;">
					<g id="&lt;Group&gt;">
						<g id="&lt;Group&gt;">
							<ellipse id="&lt;Path&gt;" class="s0" cx="467.9" cy="201.5" rx="2.6" ry="2.5"/>
						</g>
					</g>
				</g>
				<g id="&lt;Group&gt;">
					<g id="&lt;Group&gt;">
						<g id="&lt;Group&gt;">
							<path id="&lt;Path&gt;" class="s0" d="m449.5 216.7c-0.4 0-0.8 0.1-1.3-0.1-0.5-0.1-1.1-0.5-1.3-1-0.4-1.1 0-2.1 0.3-3q0.8-2.8 1.8-5.8c2.7-8.3 5.2-15 5.5-14.9 0.4 0.1-1.6 6.9-4.3 15.2q-1 3.1-1.9 5.9c-0.3 0.9-0.6 1.7-0.4 2.2 0.1 0.5 0.9 0.6 1.6 0.7 3 0.2 4.8 0.5 4.8 0.6 0 0.2-1.8 0.3-4.8 0.2z"/>
						</g>
					</g>
				</g>
				<g id="&lt;Group&gt;">
					<g id="&lt;Group&gt;">
						<g id="&lt;Group&gt;">
							<path id="&lt;Path&gt;" class="s0" d="m466.1 181c1.1-0.5 2.8-0.9 4.6-0.8 1.8 0.1 3.4 0.7 4.5 1.4 1 0.6 1.4 1.3 1.3 1.6-0.4 0.7-2.9-0.1-6-0.3-3-0.2-5.6 0.3-5.9-0.5-0.1-0.3 0.4-0.9 1.5-1.4z"/>
						</g>
					</g>
				</g>
				<g id="&lt;Group&gt;">
					<g id="&lt;Group&gt;">
						<g id="&lt;Group&gt;">
							<path id="&lt;Path&gt;" class="s0" d="m435.4 186.3c1.1-0.6 2.7-1 4.5-1 1.8-0.1 3.5 0.3 4.5 0.8 1 0.5 1.5 1 1.4 1.3-0.4 0.6-2.9 0.1-5.9 0.2-3 0-5.5 0.6-5.9 0-0.1-0.3 0.4-0.8 1.4-1.3z"/>
						</g>
					</g>
				</g>
				<g id="&lt;Group&gt;">
					<g id="&lt;Group&gt;">
						<g id="&lt;Group&gt;">
							<path id="&lt;Path&gt;" class="s6" d="m495.1 203.2c0.3-0.1 13.8-4.4 13.6 9.4-0.1 13.8-13.9 10.8-14 10.4q0-0.4 0.4-19.8z"/>
						</g>
					</g>
				</g>
				<g id="&lt;Group&gt;">
					<g id="&lt;Group&gt;">
						<g id="&lt;Group&gt;">
							<path id="&lt;Path&gt;" class="s7" d="m499 217.8c0.1 0 0.2 0.2 0.6 0.4 0.4 0.2 1.1 0.3 1.8 0.1 1.5-0.6 2.8-2.9 2.8-5.3 0.1-1.3-0.2-2.5-0.6-3.5-0.4-1-1-1.7-1.8-1.8-0.7-0.2-1.2 0.2-1.4 0.6-0.2 0.4-0.1 0.7-0.2 0.7 0 0-0.3-0.3-0.2-0.8 0.1-0.3 0.3-0.6 0.6-0.9 0.3-0.2 0.8-0.4 1.3-0.3 1.1 0.1 2 1.1 2.5 2.1 0.5 1.1 0.9 2.5 0.8 3.9-0.1 2.8-1.6 5.4-3.6 5.9-0.9 0.2-1.7-0.1-2.2-0.4-0.4-0.3-0.4-0.6-0.4-0.7z"/>
						</g>
					</g>
				</g>
				<g id="&lt;Group&gt;">
					<g id="&lt;Group&gt;">
						<g id="&lt;Group&gt;">
							<path id="&lt;Path&gt;" class="s0" d="m435.6 193.7c1-0.1 2.7 0 4.6 0.7 1.9 0.6 3.4 1.5 4.3 2.2 0.9 0.7 1.1 1.1 0.9 1.2-0.3 0.1-2.4-1.5-5.4-2.5-3-1-5.4-0.8-5.7-1.1-0.2-0.2 0.3-0.4 1.3-0.5z"/>
						</g>
					</g>
				</g>
				<g id="&lt;Group&gt;">
					<g id="&lt;Group&gt;">
						<g id="&lt;Group&gt;">
							<ellipse id="&lt;Path&gt;" class="s0" cx="440.6" cy="201.2" rx="2.6" ry="2.5"/>
						</g>
					</g>
				</g>
				<g id="&lt;Group&gt;">
					<g id="&lt;Group&gt;">
						<g id="&lt;Group&gt;">
							<path id="&lt;Path&gt;" class="s0" d="m405.5 168c0.2-0.8 0.8-1.4 1.5-1.8 1.5-0.8 3.2-0.7 4.9-0.7 4.2 0.1 8.3-0.9 12-2.7-1.2-0.6-2.4-1.5-3.4-2.5-2.1-2.2-3.2-5.4-2.2-8.2 0.2-0.6 0.6-1.1 1.1-1.3 0.8-0.2 1.6 0.7 2.1 1.3 1.9 2.3 3.7 3.2 6.6 3 1.8-0.1 3.6-0.5 5-1.3q0.1-0.1 0.2-0.2 1-1 2-2 0 0 0 0c5.1-4.7 9.4-8 13.8-9.6 6.4-2.4 17.1-3.2 23.7-1.3 6.6 1.9 12.5 7.5 13.2 14.3 3.8-3.1 9.4-2.9 13.9-0.9l0.1-0.1c5.1 1.9 7.8 7.4 9.2 12.6q0.1 0.4 0.2 0.8c1.6 2.8 3.9 5.2 6.6 6.8 0.5 0.3 1 0.7 1.1 1.3 0 0.5-0.5 1-0.9 1.3-1.3 0.8-2.7 1.4-4.2 1.6q0.7 1.8 1.6 3.6c0.6 1 1.2 2.1 0.7 3.1-0.4 0.8-1.4 1.1-2.3 0.9-0.8-0.1-1.6-0.6-2.3-1.1q0.8 2.1 1.6 4.1c-1.8 0.3-3.7 0.1-5.5-0.5-1.2 4.8-2.6 10.9-3.9 14.2-2.1-0.1-4.1-0.6-5.4 0.5-1.8 1.6-2.7 4.5-5.6 3.3-1.5-0.6-2.8-3.8-3.3-5.3-3-10.2-3.8-21.1-2.4-31.7-2-2.3-4.5-4.2-7.2-5.5l0.2 0.2c-5.3-2-11.3-4-16.4-1.6-4 1.9-6.4 5.9-9.5 9.1-5.7 6-12.5 9.1-20.9 9.3-0.9 5.7-0.4 13.1-0.8 18.4l-4.8-8.8v0.1q-0.5-1-0.9-2l-0.1-0.2c-0.5-1-0.9-2.1-1.5-3.1q0 0 0 0.1c-3 2.5-7.2-1.6-4.8-4.7q0.7-0.9 1.7-1.6c-1.4 1.3-3.4 1.8-5.1 1.2-1.8-0.6-3.1-2.4-2.9-4.2 0.1-1.2 1.1-2.3 2.2-2.8-2.4 0.2-4.8-0.4-6.8-1.6-1.3-0.8-2.6-2.1-2.1-3.8z"/>
						</g>
					</g>
				</g>
				<g id="&lt;Group&gt;">
					<g id="&lt;Group&gt;">
						<g id="&lt;Group&gt;">
							<path id="&lt;Path&gt;" class="s4" d="m482 158.7c1.1 1.3 2.4 3.5 2.9 6.5 0.3 1.5 0.5 3.2 0.4 4.9 0 1.8-0.2 3.7-0.3 5.7-0.2 2-0.4 4.1-0.3 6.2q0 1.6 0.3 3.3c0.2 1.1 0.5 2.2 1.2 3 0.6 0.7 1.4 1 2.3 0.8 0.8-0.1 1.6-0.5 2.2-1.1 1.1-1.3 1.5-3 1.9-4.6l0.1-0.7 0.3 0.6c0.6 1.5 1.2 2.9 2.1 4 0.9 1.1 2.1 1.9 3.4 2 0.6 0.1 1.3 0 1.8-0.2 0.5-0.3 0.9-0.7 1.2-1.2 0.6-0.9 0.6-2.1 0-2.8l0.2-0.2c1.4 1.7 2.8 2.7 3.9 3.2q0.8 0.4 1.2 0.6 0.4 0.2 0.4 0.2 0 0-0.4-0.1-0.5-0.1-1.3-0.5c-1.1-0.6-2.6-1.5-4-3.2l0.2-0.2c0.3 0.4 0.5 0.9 0.6 1.5 0 0.6-0.2 1.2-0.5 1.7-0.3 0.5-0.7 1-1.4 1.3-0.6 0.3-1.3 0.4-1.9 0.3-1.4-0.2-2.8-1-3.7-2.1-1-1.2-1.6-2.7-2.2-4.1h0.4c-0.4 1.5-0.7 3.4-2 4.8-0.6 0.6-1.5 1.1-2.5 1.3-0.9 0.1-2-0.2-2.6-1-0.8-1-1.1-2.1-1.3-3.2q-0.3-1.7-0.3-3.4c-0.1-2.1 0.1-4.2 0.3-6.2 0.1-2 0.3-3.9 0.4-5.7 0-1.7-0.1-3.4-0.4-4.8-0.5-3-1.7-5.2-2.8-6.5-1.1-1.2-1.9-1.7-1.8-1.8q0.8 0.5 2 1.7z"/>
						</g>
					</g>
				</g>
				<g id="&lt;Group&gt;">
					<g id="&lt;Group&gt;">
						<g id="&lt;Group&gt;">
							<path id="&lt;Path&gt;" class="s4" d="m423 175.7c1.7 0.8 4.5 1.6 8 1.5 3.5-0.2 7.7-1.3 11.5-4 3.8-2.6 7.2-6.5 10-11.1 1.4-2.2 2.6-4.6 4-6.8 1.3-2.1 2.7-4.2 4.5-5.7 1.7-1.6 3.7-2.8 5.8-3.3 1-0.3 2-0.3 3-0.2 1 0 1.9 0.3 2.7 0.6 1.7 0.6 3 1.6 4 2.6 1 1 1.7 2.1 2.1 3 0.4 0.9 0.6 1.6 0.7 2.1q0 0.4 0 0.6 0.1 0.2 0 0.2c0 0 0-1.1-0.9-2.9-0.4-0.8-1.1-1.9-2.1-2.8-0.9-1-2.2-1.9-3.9-2.5-0.8-0.3-1.7-0.5-2.6-0.6-1 0-2 0-2.9 0.3-2 0.5-4 1.6-5.6 3.2-1.7 1.5-3.2 3.5-4.5 5.7-1.3 2.1-2.5 4.5-3.9 6.8-2.9 4.5-6.3 8.5-10.2 11.1-3.9 2.8-8.1 3.9-11.7 4-3.5 0.1-6.4-0.8-8.1-1.7-0.5-0.2-0.8-0.4-1.2-0.6q-0.5-0.3-0.8-0.6-0.2-0.2-0.4-0.3-0.2-0.1-0.2-0.2c0.1 0 0.9 0.7 2.7 1.6z"/>
						</g>
					</g>
				</g>
				<g id="&lt;Group&gt;">
					<g id="&lt;Group&gt;">
						<g id="&lt;Group&gt;">
							<path id="&lt;Path&gt;" class="s4" d="m421.6 167c0.9 0.4 2 0.7 3.2 1 1.2 0.3 2.5 0.5 4 0.6 1.4 0.1 2.8 0 4.1-0.1 1.2-0.2 2.3-0.4 3.2-0.7 1.8-0.5 2.9-1 2.9-0.9q0.1 0-0.7 0.4c-0.5 0.2-1.2 0.5-2.1 0.8-0.9 0.3-2 0.6-3.3 0.8-1.3 0.2-2.7 0.2-4.1 0.2-1.5-0.1-2.9-0.4-4.1-0.7-1.3-0.3-2.4-0.7-3.2-1.1-0.9-0.4-1.6-0.8-2-1.1q-0.7-0.5-0.7-0.5c0-0.1 1 0.6 2.8 1.3z"/>
						</g>
					</g>
				</g>
				<g id="&lt;Group&gt;">
					<g id="&lt;Group&gt;">
						<g id="&lt;Group&gt;">
							<path id="&lt;Path&gt;" class="s7" d="m464.7 225.7c0 1.2-0.3 2.4-1.1 3.4q-0.7 0.8-1.6 1.2c-2.6 1.2-5.7-0.2-6.6-2.8l-1-3q2.6-1 9.6-3c0.2 1.3 0.6 2.8 0.7 4.2z"/>
						</g>
					</g>
				</g>
				<g id="&lt;Group&gt;">
					<g id="&lt;Group&gt;">
						<g id="&lt;Group&gt;">
							<g id="&lt;Group&gt;">
								<path id="&lt;Path&gt;" class="s0" d="m454.4 224.5c-0.1-0.3 4.1-1.8 9.4-3.5l0.5-0.1 0.1 0.5q0.1 0.1 0.1 0.2c0.3 1.4 0.6 2.8 0.6 4.1 0.1 1.2-0.3 2.5-1 3.3-1.3 1.5-2.7 1.6-2.7 1.5 0-0.1 1.2-0.5 2.2-1.9 1.1-1.5 0.6-4-0.1-6.8q0-0.1 0-0.2l0.6 0.4c-5.3 1.6-9.7 2.7-9.7 2.5z"/>
							</g>
						</g>
					</g>
				</g>
			</g>
			<g id="&lt;Group&gt;">
				<g id="&lt;Group&gt;">
					<g id="&lt;Group&gt;">
						<path id="&lt;Path&gt;" class="s4" d="m413.8 433l2.5-88.4-27.8 0.4q6.1-46.7 9.3-54.8 3.2-8.3 20.9-16.9l32.2-12.1q-0.6 8 18.3 8.3 19.4 0.3 27-13.7l30.4 6.5 7.9 62.4 0.6 34.4 7.5 115.5-135.8 0.6z"/>
					</g>
				</g>
			</g>
			<g id="&lt;Group&gt;">
				<path id="&lt;Path&gt;" class="s0" d="m417.2 303.7q0 0 0.1 0.6 0 0.7 0.1 1.7c0.1 1.6 0.1 3.7 0.1 6.5 0.1 5.4 0 12.9-0.3 21.2-0.3 8.2-0.6 15.7-0.9 21.1-0.1 2.7-0.2 4.9-0.3 6.4q-0.1 1.1-0.2 1.8 0 0.6 0 0.6-0.1 0-0.1-0.6 0-0.7 0.1-1.8c0-1.6 0.1-3.7 0.2-6.4 0.1-5.5 0.4-12.9 0.7-21.2 0.2-8.2 0.4-15.7 0.5-21.1 0-2.7 0-4.9 0-6.5q0-1 0-1.7 0-0.6 0-0.6z"/>
			</g>
			<path id="&lt;Path&gt;" class="s4" d="m525.6 263.2q13.7 1.4 21 11c6.7 8.8 19.7 36.5 19.3 37.2q-0.3 0.7-30.5 20.5l-7.5-13.8z"/>
			<g id="&lt;Group&gt;">
				<path id="&lt;Path&gt;" class="s0" d="m532.3 276.8q0 0 0.1 0.5 0 0.6 0.1 1.6c0.1 1.3 0.2 3.2 0.3 5.5 0.2 4.7 0.4 11.2 0.5 18.4 0.1 7.2 0.2 13.7 0.4 18.4 0 2.3 0.1 4.2 0.1 5.6q0.1 0.9 0.1 1.5 0 0.5-0.1 0.5 0 0 0-0.5-0.1-0.6-0.2-1.5c-0.1-1.3-0.2-3.2-0.3-5.6-0.2-4.7-0.4-11.2-0.5-18.4-0.1-7.2-0.2-13.7-0.4-18.4 0-2.3-0.1-4.1-0.1-5.5q0-0.9-0.1-1.6 0-0.5 0.1-0.5z"/>
			</g>
		</g>
		<g id="&lt;Group&gt;">
			<g id="&lt;Group&gt;">
				<path id="&lt;Path&gt;" class="s8" d="m343.3 394.9v-2.6l31.2-7.2 28-4.4 3.2 17.8q-10.6 4-16.8 4.7c-6.2 0.8-21.1-1.7-23.6-3.5q-2.4-1.9-2.6-2.7-9.3 2.3-12.1 2.6-2.8 0.4-7.3-2.6z"/>
				<path id="&lt;Path&gt;" class="s6" d="m362.7 361.2h14.1l12.5 2.9 5 11.9q3.9 2 5.5 4.4c1.6 2.4-0.7 4.1-4.5 4q-5 0-8.5-5.2c-1.2 3.9-6.4 15-7.5 16.5-1.2 1.5-3.1 0.5-4.8-0.8q-1.8-1.3 1.4-10.7v-4.1l-1.4 2.4q-2.2 8.8-2.6 16-0.4 7.2-6.4 2.6-1.7 1-4.7 0-3-0.9-1.5-18.6l-1.2 2.6q-1.7 7.4-2.6 9.4c-1 2.1-2.6 1.7-4 0.2q-1.3-1.5 1.2-12.2z"/>
				<path id="&lt;Path&gt;" class="s9" d="m339.1 361.2l33.8 1.3 19 3.8q7.8 6.1 8.4 7.6 1.2 2.9-2.4 4.3l-10-6.3h-20.7q7.7 1.3 10.4 1.7c2.6 0.4 6.4 2 6.7 3.9 0.3 1.8-29 7-34.4 5.7q-5.5-1.3-17.4-8.4z"/>
			</g>
			<g id="&lt;Group&gt;">
				<path id="&lt;Path&gt;" class="s1" d="m343.6 343.1q33.8 5.6 34.5 6.6 0.8 0.9 9.5 10.7 13 4.5 11.3 7.4-1.7 2.8-5.5 1.1 5.3 8.3 2.8 10c-2.4 1.7-5.1 0.6-6.9-1.9q-1.9-2.4-7.4-11.5 4.5 18.5 2.3 19c-2.3 0.6-5.9 0.8-7.4-3.9q-1.5-4.7-1.9-7.4l-7.1-11.8q2.8 21.6 1.1 23.4-4.3 1.4-5.9-2.3-1.5-3.8-3.5-12.4l-3.6-9.5-0.4 6q3 11.2 1.1 11.9c-1.8 0.8-4.3 0-5.6-2.5-1.3-2.6-2.8-5.6-3.4-8q-0.4-1.5-2.4-6.5l-7.1-1z"/>
				<g id="&lt;Group&gt;">
					<path id="&lt;Path&gt;" class="s3" d="m385.2 357.5c0.1-0.1 2.1 2.6 4.5 5.9 2.3 3.4 4.1 6.2 4 6.2-0.1 0.1-2.1-2.5-4.5-5.9-2.3-3.3-4.1-6.1-4-6.2z"/>
				</g>
				<g id="&lt;Group&gt;">
					<path id="&lt;Path&gt;" class="s3" d="m373.9 351.3c0.1-0.1 0.7 0.7 1.6 1.9 0.9 1.2 2.1 3 3.2 5 1.1 2 2 3.9 2.6 5.3 0.6 1.4 0.9 2.3 0.8 2.3 0 0.1-0.5-0.8-1.1-2.1-0.7-1.4-1.7-3.2-2.8-5.3-1.1-2-2.2-3.7-3-5-0.8-1.3-1.3-2.1-1.3-2.1z"/>
				</g>
				<g id="&lt;Group&gt;">
					<path id="&lt;Path&gt;" class="s3" d="m364 352.3c0-0.1 0.6 0.2 1.2 0.9 0.6 0.7 1.3 1.9 1.8 3.2 0.4 1.4 0.6 2.7 0.7 3.6 0.1 0.9 0.1 1.5 0 1.5 0 0-0.2-0.5-0.3-1.4-0.2-0.9-0.5-2.2-0.9-3.5-0.4-1.3-1.1-2.4-1.6-3.1-0.5-0.8-1-1.1-0.9-1.2z"/>
				</g>
				<g id="&lt;Group&gt;">
					<path id="&lt;Path&gt;" class="s3" d="m352 353.3c0 0 0.5 0.1 1.2 0.6 0.7 0.5 1.6 1.3 2.1 2.5 0.6 1.2 0.8 2.3 0.7 3.2 0 0.8-0.2 1.3-0.2 1.3-0.2 0 0.2-2.1-0.9-4.3-1.1-2.2-3-3.2-2.9-3.3z"/>
				</g>
			</g>
		</g>
		<g id="&lt;Group&gt;">
			<path id="&lt;Path&gt;" class="s5" d="m414.9 391.4l118.2-38.1 7.9 35.8-32.3 6.7q-91.7 6.7-94.1 6.7z"/>
			<path id="&lt;Path&gt;" class="s8" d="m402.5 380.7l84.8-19.5q77.3-45.1 78.5-45.8 1.3-0.8-6 45.8-49.2 25.9-63.4 29.3-7.7 1.8-93.3 8.9z"/>
			<g id="&lt;Group&gt;">
				<g id="&lt;Group&gt;">
					<g id="&lt;Group&gt;">
						<g id="&lt;Group&gt;">
							<path id="&lt;Path&gt;" class="s0" d="m611.4 195.5c5.2-5.7 18-4.7 21-0.9 4.4-2.3 10.6-0.2 12.7 4.4q6.8 1.5 13.6 3.1c2.3 0.5 4.7 1.1 6.5 2.7 1.7 1.5 2.5 4.5 1 6.3 4.8 1.3 6.6 8.5 3 11.9 2 2 1.5 5.8-0.8 7.4 3.7 4.5 6.6 9.7 8.6 15.2 0.8 2.3 1.5 4.9 0.6 7.2-0.9 2.3-3.9 3.8-5.9 2.4 1.4 1.9 1.5 4.5 0.2 6.5 2.3 0.1 3 3.6 1.4 5.3-1.6 1.6-4.2 1.8-6.5 1.7-2.3-0.1-4.7-0.2-6.6 1.1 0 0.7 0.3 1.1 0.7 1.5 3.9 3.2 5 8.7 2 12.9q-0.4 0.5-0.8 1c-1.3 1.9-4.7 3.6-6.7 4.6-5.2 2.7-8.3 2.1-14.1 2.9 1.5 3.8-8 12-18.7 3.7-21.6 5.6-37.1 7.6-59.4 7.5-3.2 0-7-0.5-8.4-3.4-2.6 0.7-5.3-0.5-7.2-2.4-1.9-1.9-3.1-4.4-4.2-6.8-5.5-1.5-9.7-6.9-9.9-12.6-3.7-2.9-6-7.5-6.3-12.2-5.3-1.7-8.2-8.7-5.6-13.6 1.2-6.6 3.5-12.9 6.8-18.7-3.7-0.8-5-5.8-3.5-9.2 1.6-3.4 4.9-5.5 8.1-7.5-2.8 0.7-5.1-2.7-4.4-5.5 0.7-2.7 3.1-4.6 5.6-6 3.5-2.1 7.4-3.8 11.3-4.9 1.4-4.8 7.5-10.2 12.1-12.3 18.2-8.4 30.9-10.5 53.8 6.7z"/>
						</g>
					</g>
					<g id="&lt;Group&gt;">
						<g id="&lt;Group&gt;">
							<path id="&lt;Path&gt;" class="s8" d="m560.6 229.5c1.6-12.4 10.8-27.3 23.2-25.2l38.3 12.3c3.8 0.6 6.4 4 6.1 7.8l-6.5 83.3c-0.8 10.9-9.2 19.7-20 21-13.8 1.7-26-9.2-25.7-23.2 0.1-5.7 0.1-10 0.1-10q-15.8-3.6-17.8-24.7c-1-10.5 0.6-27.4 2.3-41.3z"/>
						</g>
					</g>
					<g id="&lt;Group&gt;">
						<g id="&lt;Group&gt;">
							<g id="&lt;Group&gt;">
								<g id="&lt;Group&gt;">
									<g id="&lt;Group&gt;">
										<g id="&lt;Group&gt;">
											<g id="&lt;Group&gt;">
												<g id="&lt;Group&gt;">
													<g id="&lt;Group&gt;">
														<g id="&lt;Group&gt;">
															<g id="&lt;Group&gt;">
																<g id="&lt;Group&gt;">
																	<g id="&lt;Group&gt;">
																		<g id="&lt;Group&gt;">
																			<g id="&lt;Group&gt;">
																				<g id="&lt;Group&gt;">
																					<g id="&lt;Group&gt;">
																						<g id="&lt;Group&gt;">
																							<g id="&lt;Group&gt;">
																								<ellipse id="&lt;Path&gt;" class="s0" cx="570.3" cy="246.8" rx="2.7" ry="2.6"/>
																							</g>
																						</g>
																					</g>
																				</g>
																			</g>
																		</g>
																	</g>
																</g>
															</g>
														</g>
													</g>
												</g>
											</g>
										</g>
										<g id="&lt;Group&gt;">
											<g id="&lt;Group&gt;">
												<g id="&lt;Group&gt;">
													<g id="&lt;Group&gt;">
														<g id="&lt;Group&gt;">
															<g id="&lt;Group&gt;">
																<g id="&lt;Group&gt;">
																	<g id="&lt;Group&gt;">
																		<g id="&lt;Group&gt;">
																			<g id="&lt;Group&gt;">
																				<g id="&lt;Group&gt;">
																					<g id="&lt;Group&gt;">
																						<g id="&lt;Group&gt;">
																							<g id="&lt;Group&gt;">
																								<g id="&lt;Group&gt;">
																									<path id="&lt;Path&gt;" class="s0" d="m564.9 237.2c0.9-0.6 2.4-1.2 4.2-1.1 1.8 0.1 3.3 0.9 4.2 1.6 0.9 0.7 1.2 1.4 1 1.5-0.3 0.3-2.4-1.3-5.2-1.4-2.9-0.2-5 1.2-5.3 0.8-0.2-0.2 0.1-0.8 1.1-1.4z"/>
																								</g>
																							</g>
																						</g>
																					</g>
																				</g>
																			</g>
																		</g>
																	</g>
																</g>
															</g>
														</g>
													</g>
												</g>
											</g>
										</g>
									</g>
									<g id="&lt;Group&gt;">
										<g id="&lt;Group&gt;">
											<g id="&lt;Group&gt;">
												<g id="&lt;Group&gt;">
													<g id="&lt;Group&gt;">
														<g id="&lt;Group&gt;">
															<g id="&lt;Group&gt;">
																<g id="&lt;Group&gt;">
																	<g id="&lt;Group&gt;">
																		<g id="&lt;Group&gt;">
																			<g id="&lt;Group&gt;">
																				<g id="&lt;Group&gt;">
																					<g id="&lt;Group&gt;">
																						<g id="&lt;Group&gt;">
																							<g id="&lt;Group&gt;">
																								<ellipse id="&lt;Path&gt;" class="s0" cx="596.7" cy="247.9" rx="2.7" ry="2.6"/>
																							</g>
																						</g>
																					</g>
																				</g>
																			</g>
																		</g>
																	</g>
																</g>
															</g>
														</g>
													</g>
												</g>
											</g>
										</g>
										<g id="&lt;Group&gt;">
											<g id="&lt;Group&gt;">
												<g id="&lt;Group&gt;">
													<g id="&lt;Group&gt;">
														<g id="&lt;Group&gt;">
															<g id="&lt;Group&gt;">
																<g id="&lt;Group&gt;">
																	<g id="&lt;Group&gt;">
																		<g id="&lt;Group&gt;">
																			<g id="&lt;Group&gt;">
																				<g id="&lt;Group&gt;">
																					<g id="&lt;Group&gt;">
																						<g id="&lt;Group&gt;">
																							<g id="&lt;Group&gt;">
																								<g id="&lt;Group&gt;">
																									<path id="&lt;Path&gt;" class="s0" d="m593.1 239.5c0.9-0.6 2.5-1.2 4.3-1.1 1.8 0.1 3.3 0.9 4.1 1.6 0.9 0.7 1.2 1.4 1 1.5-0.3 0.3-2.3-1.3-5.2-1.4-2.9-0.2-5 1.2-5.3 0.8-0.1-0.2 0.2-0.8 1.1-1.4z"/>
																								</g>
																							</g>
																						</g>
																					</g>
																				</g>
																			</g>
																		</g>
																	</g>
																</g>
															</g>
														</g>
													</g>
												</g>
											</g>
										</g>
									</g>
									<g id="&lt;Group&gt;">
										<g id="&lt;Group&gt;">
											<g id="&lt;Group&gt;">
												<g id="&lt;Group&gt;">
													<g id="&lt;Group&gt;">
														<g id="&lt;Group&gt;">
															<g id="&lt;Group&gt;">
																<g id="&lt;Group&gt;">
																	<g id="&lt;Group&gt;">
																		<g id="&lt;Group&gt;">
																			<g id="&lt;Group&gt;">
																				<g id="&lt;Group&gt;">
																					<g id="&lt;Group&gt;">
																						<g id="&lt;Group&gt;">
																							<g id="&lt;Group&gt;">
																								<path id="&lt;Path&gt;" class="s0" d="m575.5 261.3c-0.4-0.1-0.8-0.1-1.2-0.3-0.5-0.1-1-0.6-1.2-1.1-0.3-1.1 0.2-2.1 0.6-2.9q1.1-2.6 2.4-5.5c3.5-7.8 6.6-13.9 6.9-13.8 0.4 0.1-2.2 6.5-5.7 14.3q-1.4 2.9-2.6 5.5c-0.4 0.8-0.7 1.6-0.6 2.1 0.1 0.5 0.8 0.7 1.5 0.9 2.9 0.5 4.7 0.9 4.6 1.1 0 0.1-1.8 0-4.7-0.3z"/>
																							</g>
																						</g>
																					</g>
																				</g>
																			</g>
																		</g>
																	</g>
																</g>
															</g>
														</g>
													</g>
												</g>
											</g>
										</g>
									</g>
									<g id="&lt;Group&gt;">
										<g id="&lt;Group&gt;">
											<g id="&lt;Group&gt;">
												<g id="&lt;Group&gt;">
													<g id="&lt;Group&gt;">
														<g id="&lt;Group&gt;">
															<g id="&lt;Group&gt;">
																<g id="&lt;Group&gt;">
																	<g id="&lt;Group&gt;">
																		<g id="&lt;Group&gt;">
																			<g id="&lt;Group&gt;">
																				<g id="&lt;Group&gt;">
																					<g id="&lt;Group&gt;">
																						<g id="&lt;Group&gt;">
																							<path id="&lt;Path&gt;" class="s10" d="m576.1 295.5q14 1.8 28.4-5.7-7.6 13.9-28.4 10.7z"/>
																						</g>
																					</g>
																				</g>
																			</g>
																		</g>
																	</g>
																</g>
															</g>
														</g>
													</g>
												</g>
											</g>
										</g>
									</g>
								</g>
							</g>
						</g>
						<g id="&lt;Group&gt;">
							<g id="&lt;Group&gt;">
								<g id="&lt;Group&gt;">
									<g id="&lt;Group&gt;">
										<g id="&lt;Group&gt;">
											<g id="&lt;Group&gt;">
												<g id="&lt;Group&gt;">
													<g id="&lt;Group&gt;">
														<g id="&lt;Group&gt;">
															<g id="&lt;Group&gt;">
																<g id="&lt;Group&gt;">
																	<g id="&lt;Group&gt;">
																		<g id="&lt;Group&gt;">
																			<g id="&lt;Group&gt;">
																				<path id="&lt;Path&gt;" class="s0" d="m593.3 227.6c1.3-0.4 3.1-0.6 5.2-0.3 2 0.4 3.7 1.2 4.7 2 1.1 0.8 1.5 1.6 1.3 1.9-0.5 0.7-3.2-0.5-6.6-1-3.3-0.6-6.2-0.4-6.4-1.2-0.1-0.4 0.5-1 1.8-1.4z"/>
																			</g>
																		</g>
																	</g>
																</g>
															</g>
														</g>
													</g>
												</g>
											</g>
										</g>
									</g>
								</g>
							</g>
						</g>
						<g id="&lt;Group&gt;">
							<g id="&lt;Group&gt;">
								<g id="&lt;Group&gt;">
									<g id="&lt;Group&gt;">
										<g id="&lt;Group&gt;">
											<g id="&lt;Group&gt;">
												<g id="&lt;Group&gt;">
													<g id="&lt;Group&gt;">
														<g id="&lt;Group&gt;">
															<g id="&lt;Group&gt;">
																<g id="&lt;Group&gt;">
																	<g id="&lt;Group&gt;">
																		<g id="&lt;Group&gt;">
																			<g id="&lt;Group&gt;">
																				<path id="&lt;Path&gt;" class="s0" d="m566.4 227.2c0.9-0.7 2.3-1.2 3.9-1.1 1.7 0 3.1 0.6 3.9 1.3 0.9 0.7 1.2 1.3 0.9 1.7-0.5 0.6-2.5-0.1-4.8-0.1-2.4-0.1-4.5 0.4-4.9-0.2-0.2-0.4 0.1-1 1-1.6z"/>
																			</g>
																		</g>
																	</g>
																</g>
															</g>
														</g>
													</g>
												</g>
											</g>
										</g>
									</g>
								</g>
							</g>
						</g>
					</g>
					<g id="&lt;Group&gt;">
						<g id="&lt;Group&gt;">
							<path id="&lt;Path&gt;" class="s0" d="m551.1 239.4c0.2-3.3 1.3-6.6 3.6-8.9 1.2-1.3 2.8-2.3 3.9-3.7 2.4-3 2.2-7.3 3.2-11.1 1.4-4.8 5.2-8.8 10-10.4 3.9-1.3 8.3-1.1 12.1-3 2.7-1.3 4.8-3.8 7.6-5 5.5-2.4 11.8 0.5 16.9 3.6 0.9 4.1-1.7 7.6-4.3 11-2.5 3.3-6.6 5.4-10.8 5.6-3.3 0.2-7.1-0.6-9.4 1.7-2.5 2.4-1.6 6.7-3.6 9.5-2.9 3.9-9.4 2.3-13.6 4.7-3.3 1.8-4.8 5.7-6.5 9.1-1.7 3.4-4.6 6.9-8.4 6.7-0.5-3.3-1-6.5-0.7-9.8z"/>
						</g>
					</g>
					<g id="&lt;Group&gt;">
						<g id="&lt;Group&gt;">
							<path id="&lt;Path&gt;" class="s0" d="m600.1 208.2c9.5 0 19.1 1.9 27.9 5.5 2.6 1.1 5.3 2.5 6.8 4.9 1.3 2.2 1.4 4.8 1.3 7.3-0.2 7.8-3.5 17.3-6.6 24.5l-9.9 5.7c-7.5-1.9-3.8-14.9-3.3-21.4-5.3-2.4-8.8-8-8.8-13.7-4.2-2.8-7.1-7.7-7.4-12.8z"/>
						</g>
					</g>
					<g id="&lt;Group&gt;">
						<g id="&lt;Group&gt;">
							<g id="&lt;Group&gt;">
								<g id="&lt;Group&gt;">
									<g id="&lt;Group&gt;">
										<g id="&lt;Group&gt;">
											<g id="&lt;Group&gt;">
												<path id="&lt;Path&gt;" class="s8" d="m619.8 253.3c0.3-4.5 5.8-5.3 9.7-2.9 2 1.3 3.6 3.8 3.2 8.6-0.9 12.6-13.4 9-13.4 8.7 0-0.2 0-9.2 0.5-14.4z"/>
											</g>
										</g>
									</g>
								</g>
							</g>
						</g>
					</g>
					<g id="&lt;Group&gt;">
						<g id="&lt;Group&gt;">
							<g id="&lt;Group&gt;">
								<g id="&lt;Group&gt;">
									<g id="&lt;Group&gt;">
										<g id="&lt;Group&gt;">
											<g id="&lt;Group&gt;">
												<g id="&lt;Group&gt;">
													<path id="&lt;Path&gt;" class="s10" d="m623.5 263.2c0.1-0.1 0.2 0.2 0.6 0.4 0.3 0.1 0.9 0.3 1.6 0.1 1.4-0.4 2.7-2.4 2.9-4.7 0.1-1.1 0-2.3-0.4-3.2-0.3-0.9-0.8-1.6-1.5-1.8-0.7-0.2-1.2 0.2-1.3 0.5-0.2 0.3-0.2 0.6-0.3 0.6 0 0-0.2-0.2-0.1-0.7 0.1-0.3 0.3-0.6 0.6-0.8 0.3-0.2 0.8-0.3 1.2-0.2 1 0.1 1.8 1.1 2.2 2.1 0.4 1.1 0.6 2.3 0.5 3.6-0.3 2.5-1.8 4.8-3.6 5.2-0.9 0.2-1.7-0.1-2-0.5-0.4-0.3-0.4-0.6-0.4-0.6z"/>
												</g>
											</g>
										</g>
									</g>
								</g>
							</g>
						</g>
					</g>
					<g id="&lt;Group&gt;">
						<g id="&lt;Group&gt;">
							<path id="&lt;Path&gt;" class="s4" d="m626.5 270.5c-0.8-0.4-1.3-0.9-1.5-1.3-0.1-0.2-0.1-0.4-0.1-0.5q-0.1-0.2-0.1-0.2c0 0 0.1 0.3 0.3 0.7 0.1 0.4 0.6 0.9 1.4 1.2 0.8 0.4 1.8 0.6 3.1 0.7q0.9 0 2-0.1c0.7-0.2 1.4-0.3 2.1-0.7h0.2v0.1c0.2 1.7 1.3 3.5 3.2 4.5 1.8 0.9 4.4 0.9 6.4-0.5l0.1-0.1 0.1 0.1c0.6 1 2.1 1.3 3.3 0.9 1.3-0.4 2.1-1.8 2.1-3.1 0.1-1.4-0.3-2.9-1.2-4.1-0.9-1.2-2-2.2-3.2-3.2l-0.2-0.2 0.2-0.1c1-0.5 1.6-1.6 1.9-2.7 0.2-1.2 0.1-2.4-0.3-3.6-0.9-2.3-3-4-5-5.6l-0.2-0.1 0.2-0.2c0.8-0.8 1.2-2.1 1.2-3.3-0.1-1.3-0.5-2.6-1.3-3.6-1.5-2-3.8-3.2-6-4.3l-0.1-0.1v-0.1c0.7-2.6 0-5.5-1.7-7.5-1.8-1.9-4.4-2.8-6.8-2.6h-0.3l0.1-0.2c0.5-2.2-0.3-4.4-1.5-5.9-1.3-1.6-3.2-2.6-5.1-2.6h-0.1v-0.2c0-2.2-1.2-4.1-2.7-5.3-1.5-1.3-3.4-1.8-5-1.6h-0.2v-0.1c0-1.2-0.4-2.2-0.9-3.1-0.5-1-1.1-1.8-1.8-2.4-1.3-1.2-2.9-1.8-4.2-1.9q-0.2 0-0.4-0.1-0.3 0-0.5 0c-0.3 0.1-0.5 0.1-0.8 0.1-0.5 0.1-0.9 0.2-1.2 0.3q-0.4 0.2-0.7 0.2-0.2 0.1-0.3 0.1 0 0 0.3-0.1 0.2-0.1 0.7-0.3c0.3-0.1 0.7-0.2 1.2-0.3 0.3-0.1 0.5 0 0.8-0.1q0.2 0 0.5 0 0.2 0 0.4 0c1.3 0.1 2.9 0.7 4.3 2q1.1 0.9 1.9 2.3c0.5 1 1 2.1 1 3.3l-0.2-0.1c1.8-0.3 3.7 0.3 5.3 1.5 1.6 1.3 2.8 3.3 2.8 5.6l-0.2-0.2c2 0.1 4 1.1 5.3 2.8 1.4 1.6 2.2 3.9 1.6 6.2l-0.2-0.3c2.6-0.2 5.3 0.8 7.1 2.8 1.8 2 2.6 5 1.9 7.8l-0.1-0.2c2.2 1.1 4.5 2.3 6.1 4.4 0.8 1.1 1.3 2.4 1.4 3.8 0 1.3-0.4 2.7-1.4 3.6v-0.3c1.1 0.8 2.1 1.7 3 2.6 0.9 1 1.7 2 2.1 3.2 0.5 1.2 0.6 2.5 0.3 3.8-0.2 1.2-1 2.3-2 2.9v-0.3c1.2 1 2.4 2.1 3.3 3.3 0.9 1.3 1.4 2.8 1.3 4.3-0.1 0.7-0.3 1.4-0.7 2.1-0.4 0.6-1 1-1.7 1.3-0.6 0.2-1.4 0.3-2 0.1-0.7-0.1-1.3-0.6-1.7-1.1h0.2c-2 1.5-4.7 1.5-6.6 0.5-2-1.1-3.1-2.9-3.3-4.7l0.1 0.1c-0.7 0.4-1.5 0.5-2.2 0.6q-1.1 0.2-2 0.1"/>
						</g>
					</g>
					<g id="&lt;Group&gt;">
						<g id="&lt;Group&gt;">
							<path id="&lt;Path&gt;" class="s4" d="m673.7 255c0.3-0.5 0.6-1.3 0.6-2.5 0.1-1.1-0.1-2.5-0.9-3.8-0.9-1.3-2.5-2.6-4.5-2.9h-0.1v-0.1c0.5-1.9 0.2-4.1-1-6.1-0.6-1-1.4-1.9-2.4-2.6-0.9-0.7-2.2-1.1-3.4-1.6-0.6-0.3-1.2-0.6-1.7-1.1-0.5-0.4-0.9-1-1.2-1.7-0.6-1.3-0.7-2.7-1.4-3.9-1.3-2.5-4.3-4.2-7.3-3.8l-0.2 0.1v-0.3c0.5-2.7-0.4-5.9-2.4-8.1-2.1-2.3-5.3-3.4-8.2-3.1h-0.2v-0.2c0.4-3.6-1.5-7.1-4.4-8.6-2.9-1.6-6.4-1.3-8.8 0.3l-0.1 0.1-0.1-0.1c-1.2-1.3-2.7-2.1-4.2-2.7-1.5-0.6-3-1-4.5-1.2-2.8-0.4-5.4-0.1-7.4 0.3-2 0.5-3.5 1.1-4.5 1.7-0.9 0.6-1.4 0.9-1.4 0.9q0.1-0.1 0.3-0.3c0.3-0.1 0.6-0.4 1.1-0.7 0.9-0.6 2.4-1.3 4.4-1.8 2.1-0.4 4.7-0.7 7.6-0.3 1.4 0.1 2.9 0.5 4.5 1.1 1.5 0.6 3.1 1.4 4.4 2.8l-0.2-0.1c2.5-1.6 6.1-1.9 9.1-0.3 3 1.6 5 5.2 4.6 8.9l-0.2-0.2c3-0.3 6.3 0.9 8.5 3.3 2.1 2.3 3 5.5 2.5 8.4l-0.2-0.2c3.2-0.5 6.3 1.3 7.6 3.9 0.7 1.3 0.9 2.8 1.4 4q0.4 0.9 1.1 1.6c0.5 0.4 1.1 0.7 1.7 1 1.1 0.5 2.4 0.9 3.4 1.7 1 0.7 1.9 1.6 2.5 2.7 1.1 2 1.4 4.3 1 6.2l-0.1-0.1c2.1 0.3 3.6 1.6 4.5 3 0.9 1.4 1.1 2.8 1 4-0.1 1.1-0.5 1.9-0.7 2.5q-0.3 0.5-0.5 0.7c0 0 0.2-0.3 0.4-0.8z"/>
						</g>
					</g>
					<g id="&lt;Group&gt;">
						<g id="&lt;Group&gt;">
							<path id="&lt;Path&gt;" class="s4" d="m552.1 256.2c-0.1-0.3-0.3-0.7-0.7-1-0.4-0.4-0.9-0.6-1.5-0.8-0.6-0.2-1.4-0.4-2-0.8-0.7-0.5-1.2-1.3-1.5-2.2-0.3-0.9-0.4-1.9-0.3-3 0-1 0.2-2.1 0.2-3.3 0.1-2.3-0.9-4.7-1.5-7.4-0.3-1.4-0.4-2.8-0.1-4.3 0.1-0.7 0.4-1.5 0.8-2.1 0.4-0.7 1-1.3 1.7-1.7 1.4-0.8 3-1 4.5-1.5 0.8-0.2 1.5-0.5 2.2-0.9 0.6-0.5 1.1-1.1 1.5-1.9 0.7-1.4 0.9-3.2 1.4-4.8 0.2-0.9 0.5-1.8 0.9-2.5 0.5-0.8 1.3-1.5 2.1-1.8 1.2-0.4 2.5-0.3 3.6-0.4 1.2-0.1 2.3-0.5 3-1.5 0.6-0.9 0.9-2 1.3-3.1 0.4-1.1 1-2.1 1.7-2.9 1.5-1.7 3.7-2.7 5.8-2.7 2.2 0 4.2 0.8 5.6 2.2h-0.2c1.6-3.5 4.8-5.7 7.8-6.5 1.5-0.4 3-0.4 4.4-0.2 1.3 0.1 2.5 0.5 3.5 1.1 2 1 3 2.5 3.6 3.5 0.3 0.6 0.5 1 0.6 1.3q0.1 0.2 0.1 0.3 0 0.1 0 0.1 0 0 0-0.1-0.1-0.1-0.2-0.3c-0.1-0.3-0.3-0.7-0.6-1.2-0.6-1-1.7-2.4-3.6-3.5-1-0.5-2.2-0.8-3.5-1-1.3-0.2-2.7-0.1-4.2 0.3-2.9 0.8-6 2.9-7.6 6.4l-0.1 0.2-0.2-0.2c-1.4-1.3-3.3-2-5.3-2-2.1 0-4.2 0.9-5.6 2.5q-1.1 1.2-1.6 2.9c-0.4 1-0.7 2.2-1.4 3.2-0.4 0.5-0.9 0.9-1.4 1.1-0.6 0.3-1.2 0.4-1.8 0.4-1.2 0.1-2.4 0.1-3.5 0.5-0.8 0.3-1.5 0.8-1.9 1.6-0.5 0.7-0.7 1.5-0.9 2.3-0.5 1.7-0.7 3.4-1.5 5-0.4 0.8-0.9 1.5-1.6 2-0.7 0.5-1.5 0.8-2.3 1-1.6 0.4-3.1 0.7-4.5 1.4-1.3 0.8-2 2.2-2.3 3.6-0.3 1.4-0.2 2.8 0.1 4.1 0.6 2.7 1.5 5.1 1.5 7.5 0 1.2-0.2 2.3-0.3 3.4-0.1 1 0 2 0.3 2.9 0.2 0.8 0.7 1.6 1.4 2 0.6 0.5 1.3 0.7 1.9 0.9 0.7 0.2 1.2 0.4 1.6 0.8 0.4 0.3 0.6 0.7 0.7 1.1 0.2 0.7-0.1 1-0.1 1 0 0 0.3-0.4 0-1z"/>
						</g>
					</g>
					<g id="&lt;Group&gt;">
						<g id="&lt;Group&gt;">
							<path id="&lt;Path&gt;" class="s4" d="m528 236.9q0.1-0.3 0.3-0.7 0.5-1 1.3-2.8c0.6-1.1 1.2-2.6 2.2-4.3 0.9-1.6 2.2-3.4 4.3-4.6 1.1-0.5 2.3-0.9 3.5-1.4 1.1-0.5 2.3-1.2 2.9-2.5 0.6-1.2 0.6-2.7 1.1-4.1 0.3-0.7 0.7-1.4 1.4-1.9 0.6-0.4 1.4-0.7 2.1-0.9 0.8-0.3 1.5-0.5 2.2-0.8 0.7-0.4 1.2-1 1.6-1.7 0.7-1.4 0.8-3.1 1.1-4.7 0.2-0.9 0.4-1.8 1-2.5 0.5-0.8 1.3-1.3 2.2-1.4 1.9-0.4 3.6 0.2 5.4 0 0.8-0.1 1.6-0.6 2.2-1.2 0.6-0.6 1.1-1.3 1.6-2 0.4-0.8 0.9-1.5 1.4-2.2 0.6-0.7 1.2-1.4 2.1-1.7 0.8-0.4 1.7-0.4 2.5-0.4 0.9 0.1 1.7 0.3 2.5 0.5 1.6 0.4 3.1 0.8 4.6 0.5 1.5-0.3 2.9-1 4.1-1.8 1.3-0.7 2.5-1.5 3.9-2 2.7-0.9 5.4-0.7 7.7-0.1 2.3 0.7 4.1 1.9 5.5 3.1 1.5 1.3 2.4 2.6 3 3.8q1 1.8 1.3 2.8 0.1 0.4 0.2 0.7 0.1 0.3 0.1 0.3 0 0-0.1-0.3-0.1-0.2-0.3-0.7-0.3-1-1.3-2.7c-0.7-1.2-1.6-2.5-3-3.7-1.4-1.2-3.2-2.4-5.5-3-2.3-0.6-4.9-0.8-7.5 0.1-1.3 0.5-2.5 1.3-3.8 2-1.3 0.8-2.6 1.6-4.2 1.9-1.6 0.3-3.2-0.1-4.8-0.5-1.6-0.4-3.3-0.8-4.8-0.2-0.7 0.4-1.4 0.9-1.9 1.6-0.5 0.7-0.9 1.4-1.4 2.2-0.5 0.7-1 1.5-1.6 2.1-0.7 0.7-1.5 1.1-2.5 1.3-1.8 0.2-3.6-0.4-5.3-0.1-0.8 0.2-1.6 0.6-2 1.3-0.5 0.7-0.7 1.5-0.9 2.3-0.3 1.7-0.4 3.4-1.2 4.9-0.4 0.8-1 1.4-1.7 1.8-0.8 0.4-1.5 0.6-2.3 0.8-0.7 0.2-1.4 0.5-2 0.9-0.6 0.4-1 1.1-1.3 1.7-0.5 1.4-0.5 2.9-1.1 4.2-0.3 0.6-0.8 1.2-1.4 1.6-0.5 0.4-1.1 0.7-1.7 1-1.2 0.5-2.4 0.8-3.4 1.4-2.1 1.1-3.4 2.9-4.3 4.4-1 1.7-1.7 3.1-2.3 4.3q-0.8 1.8-1.3 2.7-0.2 0.5-0.4 0.7-0.1 0.3-0.1 0.3 0 0 0.1-0.3z"/>
						</g>
					</g>
					<g id="&lt;Group&gt;">
						<g id="&lt;Group&gt;">
							<path id="&lt;Path&gt;" class="s4" d="m540.7 224.3c-0.5 0.3-1.1 1.1-1.2 2.2 0 0.5 0.2 1.1 0.3 1.8 0.2 0.7 0.4 1.4 0.3 2.3 0 0.8-0.4 1.6-0.9 2.4-0.5 0.8-1.1 1.5-1.6 2.4-0.5 0.9-0.8 1.9-0.4 3 0.4 1 1.2 1.9 1.6 3.1 0.4 1.2 0.1 2.5-0.4 3.7-0.5 1.2-1.3 2.3-1.7 3.5-0.3 0.6-0.4 1.3-0.5 1.9q0 1 0.5 2c0.5 1.2 1.5 2.3 2.3 3.6 0.4 0.6 0.8 1.2 1.1 2 0.2 0.7 0.3 1.5 0.2 2.3-0.2 1.5-1.1 2.9-1.6 4.3-0.3 0.7-0.5 1.4-0.5 2.2 0 0.7 0.2 1.4 0.5 2.1 0.7 1.3 1.7 2.4 2.6 3.5 1 1.2 1.9 2.4 2.3 3.8 0.4 1.4 0.6 2.7 1.2 3.9 0.3 0.6 0.6 1.1 1.1 1.5 0.5 0.4 1.1 0.7 1.7 0.9 0.6 0.2 1.2 0.4 1.8 0.7q0.8 0.4 1.5 1c0.9 0.9 1.5 1.9 2.1 2.9 0.5 0.9 1 1.9 1.6 2.7 1.1 1.7 2.7 2.7 4.2 3.3 1.5 0.5 2.9 0.6 4.1 0.5 2.2-0.3 3.3-1.1 3.3-1q-0.2 0.2-0.8 0.4c-0.5 0.3-1.4 0.6-2.5 0.7-1.2 0.2-2.6 0.1-4.2-0.4-1.5-0.5-3.1-1.7-4.3-3.4-0.6-0.8-1.1-1.7-1.7-2.7-0.6-0.9-1.2-1.9-2-2.7q-0.7-0.6-1.5-1.1c-0.5-0.2-1.1-0.4-1.7-0.6-0.6-0.2-1.2-0.5-1.8-0.9-0.5-0.4-0.9-1-1.2-1.6-0.7-1.3-0.9-2.7-1.3-4-0.4-1.3-1.2-2.5-2.1-3.6-1-1.1-2-2.2-2.7-3.6-0.4-0.7-0.6-1.5-0.6-2.3 0-0.8 0.3-1.6 0.5-2.3 0.6-1.5 1.5-2.8 1.6-4.3 0.3-1.5-0.4-2.8-1.2-4-0.8-1.2-1.8-2.3-2.4-3.7-0.3-0.6-0.4-1.4-0.4-2.1 0-0.7 0.2-1.4 0.4-2 0.5-1.3 1.3-2.4 1.8-3.6 0.5-1.1 0.8-2.3 0.4-3.4-0.4-1.1-1.2-2.1-1.5-3.1-0.5-1.1-0.2-2.4 0.3-3.2 0.5-0.9 1.2-1.7 1.7-2.4 0.5-0.8 0.9-1.6 0.9-2.3 0.1-0.8-0.1-1.6-0.3-2.2-0.1-0.7-0.3-1.3-0.2-1.9 0.1-1.2 0.7-2 1.3-2.3 0.3-0.1 0.5-0.1 0.7-0.1q0.2 0 0.2 0c0 0.1-0.3-0.1-0.9 0.2z"/>
						</g>
					</g>
					<g id="&lt;Group&gt;">
						<g id="&lt;Group&gt;">
							<path id="&lt;Path&gt;" class="s0" d="m674 255.2c0.6-0.1 1.6-0.4 2.6-1.1 1-0.7 2.1-1.9 2.6-3.6 0.5-1.7 0.4-4-0.9-5.8-0.7-1-1.6-1.8-2.5-2.6-0.9-0.9-1.9-1.8-2.4-3.2-0.5-1.3-0.3-2.8 0.3-4.2 0.5-1.4 1.2-2.7 1.7-4.1 0.9-2.9 0.8-6.4-0.8-9.4-1.5-3-4.5-5.4-8-6.2h-0.3l0.2-0.3c0.5-0.7 0.9-1.6 1-2.5 0.2-1 0.1-2-0.1-2.9-0.2-0.9-0.6-1.9-1.2-2.7q-0.8-1.2-2-2.2c-2.4-1.8-5.3-2.8-8.1-3.4-2.8-0.6-5.7-0.8-8.4-0.5h-0.2v-0.2c0-3.3-2-6.3-4.7-7.6-1.4-0.7-2.9-1-4.3-0.9-1.4 0-2.8 0.6-4.1 1-0.6 0.2-1.3 0.4-2 0.4-0.7 0.1-1.4-0.1-2-0.3-1.3-0.4-2.4-1.1-3.4-1.7-1-0.6-2.1-1.2-3.1-1.5q-1.6-0.5-3.1-0.5c-2 0-3.8 0.5-5.2 1.3-1.4 0.7-2.4 1.7-3.1 2.5-0.8 0.8-1.2 1.6-1.5 2.1-0.2 0.5-0.3 0.8-0.3 0.8q0-0.3 0.3-0.8c0.2-0.6 0.6-1.3 1.4-2.2 0.7-0.9 1.7-1.8 3.1-2.6 1.4-0.8 3.2-1.4 5.3-1.3q1.5 0 3.2 0.4c1.1 0.4 2.1 0.9 3.1 1.6 1.1 0.6 2.1 1.3 3.4 1.7 0.6 0.1 1.2 0.2 1.9 0.2 0.6 0 1.3-0.2 1.9-0.4 1.3-0.4 2.7-1 4.2-1 1.5-0.1 3 0.2 4.4 0.9 2.9 1.3 4.9 4.5 5 7.9l-0.2-0.2c2.7-0.2 5.6-0.1 8.5 0.5 2.8 0.6 5.8 1.6 8.2 3.5q1.3 1 2.2 2.3c0.5 0.9 0.9 1.8 1.2 2.8 0.2 1 0.3 2 0.1 3-0.2 1-0.5 2-1.1 2.8l-0.1-0.3c3.6 0.8 6.6 3.3 8.2 6.3 1.6 3.1 1.8 6.7 0.8 9.7-0.5 1.5-1.2 2.8-1.8 4.1-0.5 1.3-0.7 2.8-0.2 4 0.4 1.3 1.4 2.2 2.3 3.1 0.9 0.8 1.8 1.7 2.5 2.6 1.3 2 1.4 4.3 0.9 6-0.5 1.8-1.7 3-2.7 3.7-1.1 0.7-2.1 1-2.7 1.1q-0.7 0.1-1 0.1c0 0 0.3 0 1-0.2z"/>
						</g>
					</g>
					<g id="&lt;Group&gt;">
						<g id="&lt;Group&gt;">
							<path id="&lt;Path&gt;" class="s0" d="m537.3 215.1q0-0.3 0-0.7 0.1-0.9 0.3-2.7c0.1-1.2 0.3-2.7 0.6-4.3 0.3-1.7 0.8-3.6 1.7-5.5 0.9-2 2.3-4 4.2-5.7 1-0.8 2.1-1.5 3.4-2 1.2-0.5 2.6-0.7 4-1.1 1.3-0.3 2.7-0.8 3.9-1.6 1.2-0.9 2.2-1.9 3.2-3.1 1-1.2 1.9-2.4 3.1-3.5 1.1-1.2 2.4-2.2 3.9-2.9 3-1.4 6.3-1.7 9.4-1.8q4.6 0 8.8 0.6c5.6 0.7 10.5 2.4 14.3 4.3 3.9 2 6.5 4.3 8.2 6q0.6 0.6 1.1 1.1 0.4 0.6 0.7 1 0.3 0.3 0.4 0.5 0.2 0.2 0.2 0.2 0 0-0.2-0.2-0.2-0.2-0.5-0.5-0.3-0.4-0.7-0.9-0.5-0.5-1.1-1.1c-1.7-1.7-4.4-3.9-8.2-5.8-3.8-1.9-8.7-3.6-14.2-4.3-2.8-0.4-5.8-0.5-8.8-0.5-3.1 0.1-6.3 0.4-9.2 1.8-1.5 0.6-2.8 1.6-3.9 2.7-1.1 1.1-2 2.4-3 3.5-1 1.2-2.1 2.3-3.3 3.2-1.3 0.9-2.7 1.4-4 1.7-1.4 0.3-2.8 0.6-4 1-1.2 0.5-2.3 1.2-3.3 2-1.9 1.6-3.2 3.6-4.1 5.5-0.9 1.9-1.4 3.8-1.8 5.4-0.3 1.7-0.5 3.1-0.7 4.3q-0.2 1.7-0.3 2.7 0 0.5-0.1 0.7 0 0.3 0 0.3 0 0 0-0.3z"/>
						</g>
					</g>
					<g id="&lt;Group&gt;">
						<g id="&lt;Group&gt;">
							<path id="&lt;Path&gt;" class="s10" d="m592 270.5c-0.5 0.6-1.3 1-2.2 1.2-1 0.1-2.1 0.1-3-0.4-0.8-0.3-1.4-0.9-1.8-1.6-1-1.3-0.9-3.2 0.2-4.5 1.1-1.2 3.1-1.6 4.7-1 1.5 0.7 2.6 2.3 2.7 4 0.1 0.8-0.1 1.6-0.6 2.3z"/>
						</g>
					</g>
					<g id="&lt;Group&gt;">
						<g id="&lt;Group&gt;">
							<g id="&lt;Group&gt;">
								<g id="&lt;Group&gt;">
									<g id="&lt;Group&gt;">
										<g id="&lt;Group&gt;">
											<g id="&lt;Group&gt;">
												<g id="&lt;Group&gt;">
													<g id="&lt;Group&gt;">
														<g id="&lt;Group&gt;">
															<g id="&lt;Group&gt;">
																<path id="&lt;Path&gt;" class="s0" d="m591.6 264.1c0 1.3-0.5 3.2-2.1 4.8-1.5 1.5-3.5 2.1-4.9 2.2-1.4 0-2.3-0.3-2.2-0.5-0.1-0.5 3.3-0.4 5.9-2.9 2.5-2.4 2.2-5.6 2.7-5.6 0.2-0.1 0.6 0.7 0.6 2z"/>
															</g>
														</g>
													</g>
												</g>
											</g>
										</g>
									</g>
								</g>
							</g>
						</g>
					</g>
				</g>
			</g>
			<path id="&lt;Path&gt;" class="s2" d="m650.1 349.8v124.8h-118.9l11.4-45.1-2.3-27.1q-6-18.7-6-23.4c0-11.9 0.6-25.3 3.1-35.6q4.3-17.4 24.9-34.6l13.7-2.2q0.9 5.8 12.2 7.7 14.6 2.3 33.6-9l24.5 9.3z"/>
			<path id="&lt;Path&gt;" class="s2" d="m513.3 389.1l-17.3-43.2 49.6-34.5 16.7-2.6-4.3 61.2z"/>
			<g id="&lt;Group&gt;">
				<path id="&lt;Path&gt;" class="s0" d="m539.2 397.3q-0.1 0-0.3-0.6c-0.2-0.4-0.5-0.9-0.8-1.7-0.7-1.6-1.5-3.9-2.2-6.8-1.6-5.8-2.4-14.2-1.6-23.4 0.9-9.1 2.9-17.3 4.3-23.1 0.8-2.9 1.4-5.2 1.9-6.8q0.3-1.2 0.5-1.9 0.2-0.6 0.3-0.6 0 0-0.2 0.6-0.1 0.8-0.4 1.9c-0.4 1.7-1 4.1-1.7 6.9-1.4 5.9-3.3 13.9-4.1 23.1-0.9 9.1-0.1 17.4 1.3 23.2 0.7 2.9 1.5 5.2 2.1 6.8 0.2 0.8 0.5 1.4 0.7 1.8q0.2 0.6 0.2 0.6z"/>
			</g>
			<g id="&lt;Group&gt;" style="opacity: .3">
				<path id="&lt;Path&gt;" class="s11" d="m541 333.2c-4.3 12.4-6.5 26.3-6.4 39.5l-1.1 0.7c-3.9-13.3-0.5-28.3 7.5-40.2z"/>
			</g>
			<path id="&lt;Path&gt;" class="s5" d="m573 366.3l40.7 68 15.8-26.1 20 11.2q0.6 9.9-2.7 16.5c-3.2 6.6-8.7 23.6-23.3 22.4-14.7-1.1-19.9-4.6-29.4-16.2q-9.4-11.5-26.5-74.6z"/>
			<g id="&lt;Group&gt;">
				<g id="&lt;Group&gt;">
					<path id="&lt;Path&gt;" class="s8" d="m589.4 372.2l27.5 35.1 4-11.5 36.3 6.4q-11.4 32.7-18.3 43.6c-6.8 10.9-28.3 13-38.8-6.6q-12.5-23.1-29.8-63.5z"/>
					<path id="&lt;Path&gt;" class="s8" d="m597.5 377.5q-3 2.7-6.7 6.1l-16.6 0.4q-1.4 0-4-7.2-2.5-7.2-4.5-18.7l-1.1-16.7q0-4.9 3.7-3.6 2.3 0.8 3.7 13.7 0.1-15.6 1.6-17.5 1.7-2.1 3.9-0.9 1.7-4.2 3.4-4.2 1.8-0.1 2.2 5.6 1.6-1.6 2.8-0.5 3.3 3.2 7.1 31.9-0.9-5.6 1.1-8.5 2-3 3.2 0.4l2.6 12.1c0.7 2.8-0.3 5.7-2.4 7.6z"/>
					<g id="&lt;Group&gt;">
						<path id="&lt;Path&gt;" class="s10" d="m628 423.6q0 0-0.2-0.5-0.3-0.6-0.8-1.5-0.5-0.9-1.2-2.2c-0.6-0.9-1.2-1.8-1.9-2.9-2.9-4.2-7.2-9.7-12.1-15.7-5-6-9.5-11.4-12.7-15.3-1.6-2-2.9-3.6-3.7-4.8q-0.6-0.8-1-1.3-0.3-0.5-0.3-0.5 0.1 0 0.4 0.4 0.4 0.5 1.1 1.3c0.9 1.1 2.2 2.7 3.8 4.6 3.2 3.9 7.8 9.3 12.8 15.3 4.9 6 9.2 11.5 12 15.8 0.7 1.1 1.3 2.1 1.8 2.9q0.7 1.4 1.2 2.3 0.4 1 0.6 1.6 0.3 0.5 0.2 0.5z"/>
					</g>
					<g id="&lt;Group&gt;">
						<path id="&lt;Path&gt;" class="s2" d="m642.3 313.6q19.8 4 24.7 26.4 4.6 20.6 3.2 64.5l-53.9-9.5 13.1-74.9z"/>
						<g id="&lt;Group&gt;">
							<path id="&lt;Path&gt;" class="s0" d="m623.9 349.3q0 0 0 0.3 0 0.2-0.1 0.7-0.1 0.9-0.4 2.6c-0.3 2.4-0.9 5.7-1.5 9.8-1.4 8.3-3.3 19.7-5.4 32.3l-0.2-0.3q0.9 0.2 1.8 0.3c13 2.4 24.9 4.5 33.5 6.1 4.2 0.8 7.6 1.4 10.1 1.9q1.7 0.3 2.7 0.5 0.5 0.1 0.7 0.2 0.3 0 0.3 0 0 0.1-0.3 0-0.2 0-0.7-0.1-1-0.1-2.7-0.4c-2.5-0.4-6-1-10.2-1.7-8.6-1.6-20.4-3.6-33.5-5.9q-0.9-0.2-1.8-0.4h-0.2v-0.3c2.2-12.6 4.1-24 5.5-32.3 0.7-4.1 1.3-7.4 1.7-9.7q0.3-1.7 0.5-2.7 0.1-0.4 0.2-0.6 0-0.3 0-0.3z"/>
						</g>
						<g id="&lt;Group&gt;">
							<path id="&lt;Path&gt;" class="s0" d="m627 342.1c-0.1 0 0.1-0.4 0.4-1.2 0.3-0.9 0.7-2 1.3-3.5 1.3-2.8 3.1-6.8 6.5-10.2 1.7-1.7 3.6-3 5.5-3.8 1.9-0.9 3.7-1.4 5.2-1.7 1.6-0.3 2.8-0.4 3.7-0.4 0.9 0 1.3 0 1.3 0.1 0.1 0.1-1.9 0-4.9 0.7-3 0.6-7.1 2.1-10.4 5.5-3.4 3.3-5.2 7.2-6.5 10q-1 2-1.5 3.3c-0.4 0.8-0.6 1.3-0.6 1.2z"/>
						</g>
					</g>
				</g>
				<g id="&lt;Group&gt;">
					<path id="&lt;Path&gt;" class="s10" d="m577.2 354c-0.1 0-0.2-1.2-0.3-3.1-0.1-1.8-0.2-4.5-0.2-7.4 0-2.9 0.1-5.5 0.3-7.4 0.2-1.9 0.4-3 0.5-3 0.1 0 0 1.2-0.1 3.1-0.1 1.8-0.2 4.5-0.2 7.3 0.1 2.8 0.1 5.4 0.1 7.4 0 1.9 0 3.1-0.1 3.1z"/>
				</g>
				<g id="&lt;Group&gt;">
					<path id="&lt;Path&gt;" class="s10" d="m582.7 334.7c0 0 0.1 0.9 0.1 2.5 0.1 1.5 0.1 3.6 0.3 6 0.1 2.3 0.2 4.4 0.3 6 0.2 1.5 0.2 2.5 0.1 2.5 0 0-0.2-1-0.4-2.5-0.2-1.5-0.4-3.6-0.6-6-0.1-2.4-0.1-4.5 0-6 0-1.6 0.1-2.5 0.2-2.5z"/>
				</g>
			</g>
		</g>
		<g id="&lt;Group&gt;">
			<g id="&lt;Group&gt;">
				<path id="&lt;Path&gt;" class="s2" d="m209.3 260.5c-1.8 7.6-3.4 23.6-6.5 30.8-3.1 7.3-1 2.5-8.4 5.3-1.7-8.8 0-18 2.5-26.6 2.4-8.7 5.6-17.2 7.1-26.1 2.2-13.5 0.1-27.9-6.8-39.9-6.8-11.9-18.4-21.2-31.8-24.4l4.2-3.7c6.4 0.6 11.6 1.8 17.5 5.4 5.6 3.4 9.8 7.1 14 12.1 5.9 6.8 8.1 16.5 9.4 25.4 1.8 12.2 1.8 29-1.2 41.7z"/>
				<g id="&lt;Group&gt;">
					<g id="&lt;Group&gt;">
						<path id="&lt;Path&gt;" class="s0" d="m199.8 288.6c-1.1 3.1-5.5 12.6-5.5 13.7l-61.9 0.1-9.4-3.4q-8.9-52.4-6.5-69.1c3.9-27 10.7-56.6 49.2-53.8q26.3 5.4 37.6 22.9c6.6 10.3 2.2 61.6-3.5 89.6z"/>
						<path id="&lt;Path&gt;" class="s0" d="m205 291.3q0 0 0 0v0.1q0 0 0-0.1z"/>
					</g>
					<path id="&lt;Path&gt;" class="s9" d="m200.6 216.7c0.6 13.8 1 27.8-1.1 38q-4.3 20.4-20.3 22.2c0 0-0.1 3.1-0.6 10.5q0 6-0.8 12.8c0 0.6-0.3 1.1-0.4 1.9q-0.2 0.9-0.9 2.2c-6.6 12.1-23.8 13-32.1 2l-3.7-4.8c-3.4-4.6-4.6-9.6-4.5-15.3l-0.3-84.9c0.1-3.7 3.1-6.8 6.9-7l26-10.5 2.4 2.3c15.4 0 28.6 11.5 29.4 30.6z"/>
					<g id="&lt;Group&gt;">
						<g id="&lt;Group&gt;">
							<g id="&lt;Group&gt;">
								<g id="&lt;Group&gt;">
									<g id="&lt;Group&gt;">
										<g id="&lt;Group&gt;">
											<g id="&lt;Group&gt;">
												<g id="&lt;Group&gt;">
													<g id="&lt;Group&gt;">
														<g id="&lt;Group&gt;">
															<g id="&lt;Group&gt;">
																<g id="&lt;Group&gt;">
																	<g id="&lt;Group&gt;">
																		<g id="&lt;Group&gt;">
																			<g id="&lt;Group&gt;">
																				<ellipse id="&lt;Path&gt;" class="s0" cx="163.9" cy="229.4" rx="2.6" ry="2.5"/>
																			</g>
																		</g>
																	</g>
																</g>
															</g>
														</g>
													</g>
												</g>
											</g>
										</g>
									</g>
								</g>
							</g>
						</g>
						<g id="&lt;Group&gt;">
							<g id="&lt;Group&gt;">
								<g id="&lt;Group&gt;">
									<g id="&lt;Group&gt;">
										<g id="&lt;Group&gt;">
											<g id="&lt;Group&gt;">
												<g id="&lt;Group&gt;">
													<g id="&lt;Group&gt;">
														<g id="&lt;Group&gt;">
															<g id="&lt;Group&gt;">
																<g id="&lt;Group&gt;">
																	<g id="&lt;Group&gt;">
																		<g id="&lt;Group&gt;">
																			<g id="&lt;Group&gt;">
																				<ellipse id="&lt;Path&gt;" class="s0" cx="190.1" cy="230.3" rx="2.6" ry="2.5"/>
																			</g>
																		</g>
																	</g>
																</g>
															</g>
														</g>
													</g>
												</g>
											</g>
										</g>
									</g>
								</g>
							</g>
						</g>
						<g id="&lt;Group&gt;">
							<g id="&lt;Group&gt;">
								<g id="&lt;Group&gt;">
									<g id="&lt;Group&gt;">
										<g id="&lt;Group&gt;">
											<g id="&lt;Group&gt;">
												<g id="&lt;Group&gt;">
													<g id="&lt;Group&gt;">
														<g id="&lt;Group&gt;">
															<g id="&lt;Group&gt;">
																<g id="&lt;Group&gt;">
																	<g id="&lt;Group&gt;">
																		<g id="&lt;Group&gt;">
																			<g id="&lt;Group&gt;">
																				<g id="&lt;Group&gt;">
																					<path id="&lt;Path&gt;" class="s0" d="m197.9 222.1c-0.3 0.4-2.3-1.2-5.1-1.3-2.9-0.2-5 1.1-5.3 0.8-0.2-0.2 0.2-0.8 1.1-1.4 1-0.6 2.5-1.2 4.3-1.1 1.8 0.1 3.2 0.8 4.1 1.5 0.8 0.8 1.1 1.4 0.9 1.5z"/>
																				</g>
																			</g>
																		</g>
																	</g>
																</g>
															</g>
														</g>
													</g>
												</g>
											</g>
										</g>
									</g>
								</g>
							</g>
						</g>
					</g>
					<g id="&lt;Group&gt;">
						<g id="&lt;Group&gt;">
							<g id="&lt;Group&gt;">
								<g id="&lt;Group&gt;">
									<g id="&lt;Group&gt;">
										<g id="&lt;Group&gt;">
											<g id="&lt;Group&gt;">
												<g id="&lt;Group&gt;">
													<g id="&lt;Group&gt;">
														<g id="&lt;Group&gt;">
															<g id="&lt;Group&gt;">
																<g id="&lt;Group&gt;">
																	<g id="&lt;Group&gt;">
																		<g id="&lt;Group&gt;">
																			<g id="&lt;Group&gt;">
																				<g id="&lt;Group&gt;">
																					<path id="&lt;Path&gt;" class="s0" d="m169 222.4c-0.4 0.3-2.1-1.4-4.9-1.9-2.9-0.4-5.1 0.7-5.4 0.3-0.1-0.2 0.3-0.7 1.3-1.3 1-0.5 2.6-0.9 4.3-0.6 1.8 0.3 3.2 1.2 3.9 1.9 0.8 0.8 1 1.5 0.8 1.6z"/>
																				</g>
																			</g>
																		</g>
																	</g>
																</g>
															</g>
														</g>
													</g>
												</g>
											</g>
										</g>
									</g>
								</g>
							</g>
						</g>
					</g>
					<g id="&lt;Group&gt;">
						<g id="&lt;Group&gt;">
							<g id="&lt;Group&gt;">
								<g id="&lt;Group&gt;">
									<g id="&lt;Group&gt;">
										<g id="&lt;Group&gt;">
											<g id="&lt;Group&gt;">
												<g id="&lt;Group&gt;">
													<g id="&lt;Group&gt;">
														<g id="&lt;Group&gt;">
															<g id="&lt;Group&gt;">
																<g id="&lt;Group&gt;">
																	<g id="&lt;Group&gt;">
																		<g id="&lt;Group&gt;">
																			<g id="&lt;Group&gt;">
																				<path id="&lt;Path&gt;" class="s0" d="m179 243.2c-0.1-0.2 1.7-0.4 4.6-0.6 0.7-0.1 1.4-0.2 1.6-0.7 0.2-0.5-0.1-1.3-0.4-2.2q-0.9-2.6-1.9-5.6c-2.5-8-4.4-14.6-4.1-14.7 0.4-0.1 2.7 6.3 5.3 14.3q0.9 3 1.8 5.7c0.2 0.8 0.7 1.8 0.2 2.9-0.2 0.5-0.7 0.9-1.2 1-0.5 0.1-0.9 0.1-1.3 0.1-2.9 0-4.6-0.1-4.6-0.2z"/>
																			</g>
																		</g>
																	</g>
																</g>
															</g>
														</g>
													</g>
												</g>
											</g>
										</g>
									</g>
								</g>
							</g>
						</g>
					</g>
					<g id="&lt;Group&gt;">
						<g id="&lt;Group&gt;">
							<g id="&lt;Group&gt;">
								<g id="&lt;Group&gt;">
									<g id="&lt;Group&gt;">
										<g id="&lt;Group&gt;">
											<g id="&lt;Group&gt;">
												<g id="&lt;Group&gt;">
													<g id="&lt;Group&gt;">
														<g id="&lt;Group&gt;">
															<g id="&lt;Group&gt;">
																<g id="&lt;Group&gt;">
																	<g id="&lt;Group&gt;">
																		<g id="&lt;Group&gt;">
																			<path id="&lt;Path&gt;" class="s12" d="m178.9 281.9q-20.7 0.9-26.9-13.7 13.3 8.9 27.2 8.7z"/>
																		</g>
																	</g>
																</g>
															</g>
														</g>
													</g>
												</g>
											</g>
										</g>
									</g>
								</g>
							</g>
						</g>
					</g>
					<g id="&lt;Group&gt;">
						<g id="&lt;Group&gt;">
							<g id="&lt;Group&gt;">
								<g id="&lt;Group&gt;">
									<g id="&lt;Group&gt;">
										<g id="&lt;Group&gt;">
											<g id="&lt;Group&gt;">
												<g id="&lt;Group&gt;">
													<g id="&lt;Group&gt;">
														<g id="&lt;Group&gt;">
															<g id="&lt;Group&gt;">
																<g id="&lt;Group&gt;">
																	<g id="&lt;Group&gt;">
																		<g id="&lt;Group&gt;">
																			<path id="&lt;Path&gt;" class="s12" d="m177.5 250.1c0.2 0.3 0.2 0.7 0 1-0.2 0.3-0.6 0.6-0.9 0.8-1.1 0.9-2.4 1.7-3.7 2-1.4 0.3-3 0-3.7-1.1-0.7-1-0.4-2.4 0.4-3.4 0.8-1 2.1-1.5 3.3-1.6 1.8-0.1 3.5 0.8 4.5 2.2"/>
																		</g>
																	</g>
																</g>
															</g>
														</g>
													</g>
												</g>
											</g>
										</g>
									</g>
								</g>
							</g>
						</g>
					</g>
					<g id="&lt;Group&gt;">
						<g id="&lt;Group&gt;">
							<g id="&lt;Group&gt;">
								<g id="&lt;Group&gt;">
									<g id="&lt;Group&gt;">
										<g id="&lt;Group&gt;">
											<g id="&lt;Group&gt;">
												<g id="&lt;Group&gt;">
													<g id="&lt;Group&gt;">
														<g id="&lt;Group&gt;">
															<g id="&lt;Group&gt;">
																<g id="&lt;Group&gt;">
																	<g id="&lt;Group&gt;">
																		<g id="&lt;Group&gt;">
																			<g id="&lt;Group&gt;">
																				<path id="&lt;Path&gt;" class="s0" d="m170.5 244.7c0.4 0 0.3 3.1 2.8 5.4 2.6 2.4 5.9 2.2 5.9 2.6 0 0.2-0.8 0.6-2.2 0.5-1.4 0-3.3-0.5-4.9-1.9-1.5-1.5-2.1-3.3-2.2-4.6 0-1.3 0.4-2 0.6-2z"/>
																			</g>
																		</g>
																	</g>
																</g>
															</g>
														</g>
													</g>
												</g>
											</g>
										</g>
									</g>
								</g>
							</g>
						</g>
					</g>
					<g id="&lt;Group&gt;">
						<g id="&lt;Group&gt;">
							<g id="&lt;Group&gt;">
								<g id="&lt;Group&gt;">
									<g id="&lt;Group&gt;">
										<g id="&lt;Group&gt;">
											<g id="&lt;Group&gt;">
												<g id="&lt;Group&gt;">
													<g id="&lt;Group&gt;">
														<g id="&lt;Group&gt;">
															<g id="&lt;Group&gt;">
																<path id="&lt;Path&gt;" class="s0" d="m171.7 211.3c-0.4 0.8-3.1 0-6.5-0.1-3.4-0.2-6.2 0.3-6.5-0.4-0.1-0.4 0.4-1 1.6-1.6 1.2-0.6 3-1 5-0.9 2.1 0.1 3.8 0.6 4.9 1.3 1.2 0.7 1.7 1.4 1.5 1.7z"/>
															</g>
														</g>
													</g>
												</g>
											</g>
										</g>
									</g>
								</g>
							</g>
						</g>
					</g>
					<g id="&lt;Group&gt;">
						<g id="&lt;Group&gt;">
							<g id="&lt;Group&gt;">
								<g id="&lt;Group&gt;">
									<g id="&lt;Group&gt;">
										<g id="&lt;Group&gt;">
											<g id="&lt;Group&gt;">
												<g id="&lt;Group&gt;">
													<g id="&lt;Group&gt;">
														<g id="&lt;Group&gt;">
															<g id="&lt;Group&gt;">
																<path id="&lt;Path&gt;" class="s0" d="m197.5 209.9c-0.5 0.6-2.5-0.1-4.8-0.3-2.4-0.2-4.4 0.2-4.8-0.5-0.2-0.3 0.1-0.9 1-1.5 0.9-0.6 2.4-1 4-0.9 1.6 0.2 3 0.8 3.8 1.5 0.8 0.7 1 1.4 0.8 1.7z"/>
															</g>
														</g>
													</g>
												</g>
											</g>
										</g>
									</g>
								</g>
							</g>
						</g>
					</g>
					<path id="&lt;Path&gt;" class="s0" d="m132.4 205.8q6.8-14.5 7.2-14.9 0.5-0.4 29.3-8.5l4.6 1.4q-11.4 10-14.2 22.3-8.3 36-22.9 31.4z"/>
					<g id="&lt;Group&gt;">
						<g id="&lt;Group&gt;">
							<g id="&lt;Group&gt;">
								<path id="&lt;Path&gt;" class="s9" d="m138.6 251.6c0 0.4-14.3 2.5-13.5-11.5 0.6-10.3 7.9-10.3 11.9-9.5 1.5 0.4 3.1 4.1 3 5.6-0.2 5.3-1.3 15.1-1.4 15.4z"/>
							</g>
						</g>
					</g>
					<g id="&lt;Group&gt;">
						<g id="&lt;Group&gt;">
							<g id="&lt;Group&gt;">
								<g id="&lt;Group&gt;">
									<path id="&lt;Path&gt;" class="s12" d="m134.1 246.7c-0.4 0.3-1.3 0.6-2.2 0.2-2-0.7-3.3-3.4-3.3-6.2 0.1-1.5 0.5-2.8 1.1-3.9 0.6-1.1 1.6-2 2.7-2 0.5-0.1 1 0.1 1.3 0.4 0.3 0.3 0.5 0.6 0.5 0.9 0.1 0.6-0.2 0.9-0.2 0.8-0.1 0 0-0.3-0.1-0.7-0.2-0.4-0.7-0.9-1.4-0.7-0.8 0-1.5 0.7-2 1.7-0.5 1-0.8 2.2-0.9 3.5-0.1 2.5 1.1 5 2.5 5.6 0.7 0.3 1.4 0.2 1.9 0.1 0.4-0.2 0.6-0.4 0.6-0.4 0.1 0.1 0 0.4-0.5 0.7z"/>
								</g>
							</g>
						</g>
					</g>
					<path id="&lt;Path&gt;" class="s0" d="m146.3 230.7c0-0.1 0.8-0.1 2.1-0.5 1.4-0.3 3.2-1.2 5.1-2.9 0.9-0.8 1.8-1.8 2.6-3q1.2-1.9 2.1-4.1c1.2-3.1 2-6.6 3-10.3 1-3.6 2.1-7.1 3.2-10.2 1.2-3.1 2.5-5.7 3.7-7.9 1.2-2.2 2.4-3.9 3.2-5 0.4-0.5 0.8-0.9 1-1.2q0.4-0.4 0.4-0.4 0 0-0.3 0.4c-0.2 0.3-0.6 0.8-0.9 1.3-0.9 1.2-2 2.8-3.2 5-1.1 2.2-2.4 4.9-3.5 7.9-1.2 3.1-2.2 6.6-3.2 10.2-1 3.7-1.8 7.2-3.1 10.3q-0.9 2.3-2.2 4.1c-0.8 1.3-1.7 2.3-2.7 3.1-1.9 1.7-3.8 2.5-5.1 2.9q-1.4 0.3-2.2 0.3z"/>
					<path id="&lt;Path&gt;" class="s4" d="m124.6 289q0-0.4 0-1c0.1-0.8 0.2-2 0.1-3.6 0-3.2-0.4-7.8-1.4-13.3q-0.8-4.2-1.7-9.1c-0.6-3.3-1.1-6.9-1.3-10.6-0.2-3.8-0.1-7.7 0.8-11.8 0.5-1.9 1.1-3.9 2-5.9 0.9-1.9 2-3.7 3.4-5.4 2.6-3.5 5.8-6.3 8.9-9 3.1-2.7 6-5.3 8.6-7.9 5.3-5.4 9.5-10.7 12.7-15.3 3.2-4.7 5.5-8.7 6.9-11.5q1.2-2.1 1.7-3.2 0.3-0.6 0.4-0.9 0.2-0.3 0.2-0.3 0 0-0.1 0.3-0.2 0.3-0.4 0.9-0.5 1.1-1.6 3.3c-1.5 2.8-3.7 6.8-6.9 11.5-3.2 4.7-7.3 10.1-12.6 15.4-2.6 2.7-5.6 5.3-8.7 8-3 2.7-6.2 5.5-8.8 8.9-1.3 1.7-2.5 3.5-3.4 5.4-0.8 1.9-1.5 3.9-1.9 5.8-0.9 4-1.1 7.9-0.9 11.7 0.2 3.7 0.7 7.2 1.3 10.5q0.9 4.9 1.6 9.1c1 5.6 1.4 10.2 1.4 13.4q0 3.2-0.3 4.9 0 0 0-0.3z"/>
					<path id="&lt;Path&gt;" class="s4" d="m120.1 290.3q0-0.3 0-0.9c0.1-0.9 0.1-2.1 0.1-3.7 0-3.2-0.4-7.7-1.5-13.3q-0.8-4.2-1.7-9.1c-0.5-3.3-1.1-6.8-1.3-10.6-0.1-3.7 0-7.7 0.9-11.7 0.4-2 1.1-4 2-5.9 0.9-2 2-3.8 3.3-5.5 2.7-3.5 5.9-6.3 9-9 3-2.7 6-5.3 8.6-7.9 5.3-5.3 9.5-10.7 12.7-15.3 3.2-4.7 5.4-8.7 6.9-11.5q1.1-2.1 1.7-3.2 0.3-0.6 0.4-0.9 0.2-0.3 0.2-0.3 0 0-0.2 0.3-0.1 0.4-0.3 0.9-0.6 1.2-1.6 3.3c-1.5 2.8-3.7 6.9-6.9 11.5-3.2 4.7-7.4 10.1-12.6 15.4-2.7 2.7-5.6 5.3-8.7 8-3.1 2.7-6.2 5.5-8.8 8.9-1.4 1.7-2.5 3.5-3.4 5.4-0.9 1.9-1.5 3.9-2 5.9-0.9 3.9-1 7.9-0.8 11.6 0.2 3.7 0.7 7.3 1.3 10.5q0.8 5 1.6 9.2c1 5.5 1.4 10.1 1.4 13.3q-0.1 3.2-0.4 4.9 0 0 0.1-0.3z"/>
				</g>
				<path id="&lt;Path&gt;" class="s0" d="m99.7 474.5q-1.3-11.7 6.2-31.3 6.1-16 13.3-24.8l97-6.4 7.5 62.5z"/>
				<g id="&lt;Group&gt;">
					<path id="&lt;Path&gt;" class="s13" d="m223.6 465.1q-46.3 12.8-121.4-13.1 2.2-15.8 17.4-46.4l-7.6-36.9-1.8-7.8-6.2 5.8-31.6 33.3 27.2 44.7-10.5 18-1.6 3c-20.2-15-46.4-52.5-47.2-55-1.6-2.7-4.6-9.3-1.4-17.9q4.1-11.3 32.4-52.6c4.1-6.3 18.5-28.4 27.3-36.7 8.5-8.1 35.3-13.7 37.1-13.7q12.3 22.7 31.2 18.5 11-2.4 11.1-17.2l21.1 3.3 16 26.9q1.4 32.7 0 54.3-1.4 21.6 8.5 89.5z"/>
					<g id="&lt;Group&gt;">
						<g id="&lt;Group&gt;">
							<g id="&lt;Group&gt;">
								<g id="&lt;Group&gt;">
									<path id="&lt;Path&gt;" class="s9" d="m129.5 442.2l12 3.2q-0.1 1.9-3.2 3.6l2.7 0.7c0.4 1-1.2 2.8-2.4 3q-1.3 0.2-14.3-0.4l-9.2 2.3 5.2-0.3 13.7 2.7-0.2 1.2q-1.1 4.2-15 2.2l-3.7 0.8q-15.3 6.4-18 6.4-2.8 0.1-8-4.9l8.8-15.4q1.3 0.5 3.6 0.4 2.2-0.1 5.5-3.2 1.5-1.3 4.4-4.9 9.5-5 10.8-5.7 1.3-0.7 14 2.7 1.1 2.7-6.7 5.6z"/>
								</g>
							</g>
						</g>
						<g id="&lt;Group&gt;">
							<g id="&lt;Group&gt;">
								<g id="&lt;Group&gt;">
									<g id="&lt;Group&gt;">
										<path id="&lt;Path&gt;" class="s12" d="m139.7 449c0 0-0.4-0.1-1.1-0.3-0.7-0.2-1.7-0.5-3-0.8-2.5-0.7-6-1.5-9.9-2.3-0.5-0.1-1-0.3-1.4-0.3q-0.7-0.1-1.3 0.1c-0.9 0.2-1.8 0.5-2.6 0.8-1.6 0.5-3.1 1.1-4.3 1.6-1.2 0.5-2.1 1-2.7 1.4-0.7 0.3-1 0.5-1 0.5 0 0 0.3-0.3 0.9-0.7 0.6-0.4 1.5-1 2.7-1.6 1.2-0.5 2.6-1.1 4.2-1.7 0.9-0.3 1.7-0.6 2.6-0.9q0.8-0.1 1.5-0.1c0.6 0.1 1 0.2 1.5 0.3 3.9 0.9 7.4 1.8 9.9 2.5 1.3 0.4 2.3 0.7 3 1 0.6 0.3 1 0.5 1 0.5z"/>
									</g>
								</g>
							</g>
						</g>
						<g id="&lt;Group&gt;">
							<g id="&lt;Group&gt;">
								<g id="&lt;Group&gt;">
									<g id="&lt;Group&gt;">
										<path id="&lt;Path&gt;" class="s12" d="m129.8 442.8c0 0.1-1-0.5-2.6-1-1.5-0.5-3.9-0.8-6.4-0.5-2.5 0.4-4.6 1.4-6 2.4-1.4 0.9-2.1 1.7-2.2 1.6 0 0 0.6-0.9 2-1.9 1.3-1.1 3.5-2.2 6.1-2.6 2.7-0.4 5.1 0.1 6.7 0.7 1.6 0.6 2.4 1.2 2.4 1.3z"/>
									</g>
								</g>
							</g>
						</g>
					</g>
					<path id="&lt;Path&gt;" class="s13" d="m341 360.9l-1 21-67.6-5.8-55.2-24h-12.8l-5.8-57.7 13.7 2.8 18.5 12.2 49.5 36.8z"/>
					<g id="&lt;Group&gt;">
						<path id="&lt;Path&gt;" class="s0" d="m216 400.9q0 0-0.1-0.8 0-1-0.1-2.5c-0.1-2.1-0.2-5.2-0.2-9-0.1-3.9-0.2-8.4-0.2-13.5 0-5 0.1-10.6 0-16.4 0-11.6-2.2-22-4-29.4-0.8-3.7-1.6-6.7-2.1-8.8q-0.4-1.5-0.6-2.4-0.2-0.8-0.2-0.8 0.1 0 0.3 0.8 0.3 0.9 0.7 2.4c0.6 2 1.4 5 2.3 8.7 1.8 7.4 4.1 17.8 4.1 29.5 0.1 5.9 0 11.4 0 16.4 0 5.1 0 9.6 0 13.5 0.1 3.7 0.1 6.8 0.1 9q0 1.5 0 2.4 0 0.9 0 0.9z"/>
					</g>
					<g id="&lt;Group&gt;" style="opacity: .3">
						<path id="&lt;Path&gt;" class="s11" d="m215.7 353.2c4.1-14.9-0.1-31.8-10.7-43.1 5.6 13.5 9.3 27.8 10.8 42.3"/>
					</g>
				</g>
				<path id="&lt;Path&gt;" class="s2" d="m174.9 176.5c-31 2.8-32.3 40.7-36.4 70.6q-5.9 42.7 25.4 51.9l-38.8-7.3q-21.3-8.6-21.1-32.2c0.1-23.5 3.8-52.4 28.6-74.3 21.3-19 40.3-10 42.3-8.7z"/>
				<path id="&lt;Path&gt;" class="s2" d="m206.6 294.7c-0.6 3.4-6.2-0.6-7.8 2.2-3 5.5-6.4 10.7-10.2 17.8-4.2 7.7-15.9 14.4-22.1 14.6-6.3 0.2-14.5-6-23.5-13.9-7.6-6.7-11.1-16-19.5-21.8-1.6-1.1-9.4 2.7-10.4 1.1-0.3-0.4-0.4-1.3-0.5-2.3-0.1-4.5 2-8.9 5.5-11.8l18.2-15c3.7 8.1 7.7 16.6 15.2 21.6 6.3 4.2 14.3 5.2 21.9 4.2 7.5-1 15.9-5.8 23.5-5.2 6.7 0.7 5.8 1.5 8.1 3.6 1.4 1.2 2 3.1 1.6 4.9z"/>
				<g id="&lt;Group&gt;">
					<path id="&lt;Path&gt;" class="s0" d="m104 334.3q0 0 0.2 0.7 0.2 0.8 0.5 2.1c0.5 1.8 1.1 4.4 1.9 7.6 1.6 6.4 3.7 15.3 5.9 25.1 2.2 9.9 4.1 18.8 5.4 25.3 0.6 3.2 1.1 5.9 1.4 7.7q0.2 1.3 0.3 2.1 0.1 0.7 0 0.7 0 0-0.1-0.7-0.2-0.8-0.4-2.1c-0.4-1.8-0.9-4.4-1.6-7.6-1.4-6.5-3.3-15.4-5.5-25.3-2.2-9.8-4.3-18.6-5.7-25.1-0.7-3.2-1.3-5.8-1.7-7.7q-0.3-1.3-0.5-2.1-0.1-0.7-0.1-0.7z"/>
				</g>
				<g id="&lt;Group&gt;">
					<path id="&lt;Path&gt;" class="s0" d="m205 293.7q0 0-0.2 0.1-0.2 0.2-0.6 0.4c-0.6 0.3-1.3 0.8-2.4 1.3-2.2 1.1-5.5 2.3-9.7 3.2-4.2 1-9.3 1.6-15 1.7-5.7 0.2-11.9-0.1-18.4-0.5-3.3-0.2-6.5-0.6-9.6-1q-4.5-0.8-8.7-1.8c-5.5-1.5-10.3-3.3-14.2-5.2-3.8-1.9-6.8-3.8-8.7-5.2-1-0.6-1.7-1.2-2.3-1.6q-0.3-0.3-0.5-0.5-0.2-0.1-0.2-0.1 0 0 0.2 0.1 0.2 0.2 0.6 0.4c0.5 0.3 1.3 0.9 2.3 1.6 2 1.3 4.9 3.1 8.8 4.9 3.9 1.9 8.7 3.7 14.1 5.1q4.2 1 8.7 1.8c3.1 0.4 6.2 0.7 9.5 1 6.5 0.4 12.8 0.7 18.4 0.5 5.7-0.1 10.8-0.6 14.9-1.5 4.2-0.9 7.5-2.1 9.7-3.1 1.1-0.4 1.9-0.9 2.5-1.2q0.3-0.2 0.6-0.3 0.2-0.1 0.2-0.1z"/>
				</g>
				<g id="&lt;Group&gt;">
					<path id="&lt;Path&gt;" class="s0" d="m145.6 297.8q-0.1 0-0.2-0.2-0.3-0.1-0.6-0.3-0.8-0.6-2.1-1.6c-0.9-0.7-1.9-1.6-3.2-2.6-0.6-0.5-1.2-1.1-1.9-1.7q-1.1-0.9-2.1-2c-2.9-2.8-6.3-6.4-9.1-11-2.8-4.5-4.8-10.3-5-16.5-0.3-6.3 1-12.1 2.3-17.3 1.4-5.2 2.9-9.8 4.1-13.6 1.2-3.9 2.2-7 2.8-9.2q0.5-1.5 0.8-2.5 0.1-0.4 0.2-0.6 0.1-0.2 0.1-0.2 0 0-0.1 0.2 0 0.3-0.1 0.7-0.3 0.9-0.7 2.5c-0.6 2.2-1.5 5.3-2.7 9.2-1.1 3.9-2.6 8.5-3.9 13.6-1.3 5.2-2.5 11-2.3 17.1 0.2 6.2 2.2 11.8 4.9 16.4 2.8 4.5 6.1 8.1 8.9 11q1.1 1 2.1 1.9c0.7 0.7 1.3 1.2 1.9 1.8 1.2 1 2.3 1.9 3.1 2.6q1.3 1.1 2.1 1.7 0.3 0.2 0.5 0.4 0.2 0.2 0.2 0.2z"/>
				</g>
				<g id="&lt;Group&gt;">
					<path id="&lt;Path&gt;" class="s0" d="m174.9 176.5c0 0.1-1.7 0.2-4.1 0.9-1.3 0.4-2.7 1-4.3 1.7-1.5 0.7-3.2 1.7-4.8 2.8-3.2 2.3-5.8 4.7-7.7 6.6-1.8 1.8-2.9 3.1-2.9 3-0.1 0 0.2-0.3 0.6-0.9 0.5-0.6 1.2-1.4 2.1-2.4 1.7-1.9 4.3-4.4 7.6-6.7 1.7-1.2 3.3-2.1 4.9-2.9 1.6-0.7 3.1-1.2 4.4-1.5 0.6-0.2 1.2-0.3 1.7-0.4q0.8-0.1 1.3-0.1c0.7-0.1 1.2-0.1 1.2-0.1z"/>
				</g>
				<g id="&lt;Group&gt;" style="opacity: .3">
					<path id="&lt;Path&gt;" class="s11" d="m123.9 244.4c-2.8 12-2.6 25.7 4.7 35.7l2.9 5.1c-9.7-6.2-13.4-18.9-13.2-30.4 0.2-11.5 4.3-22.5 8.4-33.2q3-8.1 6.1-16.3c0.7-1.7 3.3-1.1 3 0.8-0.1 0.9-0.3 1.9-0.6 2.8-3.1 12-8.5 23.4-11.3 35.5z"/>
				</g>
				<g id="&lt;Group&gt;">
					<path id="&lt;Path&gt;" class="s0" d="m205.6 296.5c-0.1-0.1 0.2-0.5 0.4-1.4 0.3-0.8 0.3-2.2-0.3-3.7-0.5-1.5-1.9-2.9-3.8-3.8-1.9-0.9-4.3-1.2-6.7-1-2.5 0.2-4.8 0.7-6.9 1.2-2.1 0.4-4 0.9-5.5 1.4-1.6 0.5-2.8 0.9-3.7 1.2-0.9 0.3-1.4 0.5-1.4 0.4 0 0 0.5-0.2 1.3-0.6 0.9-0.3 2.1-0.8 3.7-1.3 1.5-0.6 3.4-1.1 5.5-1.6 2.1-0.5 4.4-1 6.9-1.3 2.5-0.2 5 0.1 7 1.1 2 1 3.4 2.6 4 4.2 0.6 1.6 0.4 3 0.1 3.9q-0.2 0.6-0.4 1-0.2 0.3-0.2 0.3z"/>
				</g>
			</g>
			<g id="&lt;Group&gt;" style="opacity: .3">
				<path id="&lt;Path&gt;" class="s11" d="m195.3 298.3c-11.9 5.3-25.2 7.2-38 5.5-12.9-1.6-23.6-5.3-33.7-13.5q16.1 9.3 41.1 9.5 20.8 0.2 30.6-1.5z"/>
			</g>
		</g>
	</g>
</svg>