<svg version="1.2" xmlns="http://www.w3.org/2000/svg" viewBox="0 0 4069 2000" width="4069" height="2000">
	<title>10123-ai</title>
	<style>
		.s0 { fill: #0e2e35 } 
		.s1 { fill: #e25a44 } 
		.s2 { fill: #f47458 } 
		.s3 { fill: #f97f6b } 
		.s4 { fill: #f48c7f } 
		.s5 { fill: #f7a491 } 
		.s6 { fill: #3c8f7c } 
		.s7 { fill: #327f6b } 
		.s8 { fill: #9bc1f9 } 
		.s9 { fill: #96d9c9 } 
		.s10 { fill: #fbdfb3 } 
		.s11 { fill: #184655 } 
		.s12 { fill: #466eb6 } 
		.s13 { fill: #13375b } 
		.s14 { fill: #f8a492 } 
		.s15 { fill: #355389 } 
		.s16 { fill: #50bfa5 } 
		.s17 { fill: #b75742 } 
		.s18 { fill: #eab054 } 
		.s19 { fill: #f7cc7f } 
		.s20 { fill: #c8c6af } 
		.s21 { fill: #ffffff } 
		.s22 { fill: #215e4b } 
		.s23 { fill: #f7ada1 } 
	</style>
	<g id="Layer 1">
		<path id="&lt;Path&gt;" class="s0" d="m1763.4 1311.2h19.4l41.3 359.5h-19.4z"/>
		<path id="&lt;Path&gt;" class="s0" d="m2546.3 1670.7h-19.4l41.4-359.5h19.4z"/>
		<path id="&lt;Path&gt;" class="s0" d="m2724 1311.2h19.5l41.3 359.5h-19.4z"/>
		<path id="&lt;Path&gt;" class="s1" d="m1630.7 1319.1l15.9-328.1c1.7-36 27.2-65.2 56.9-65.2h1035.3c29.7 0 52.4 29.2 50.6 65.2l-15.9 328.1c-1.7 36-27.2 65.2-56.9 65.2h-1035.3c-29.7 0-52.4-29.2-50.6-65.2z"/>
		<path id="&lt;Path&gt;" class="s2" d="m1589.5 1319.1l15.9-328.1c1.7-36 27.2-65.2 57-65.2h1035.2c29.7 0 52.4 29.2 50.7 65.2l-15.9 328.1c-1.8 36-27.3 65.2-57 65.2h-1035.3c-29.7 0-52.3-29.2-50.6-65.2z"/>
		<path id="&lt;Path&gt;" class="s1" d="m1551.4 1340.5c1.3-25.9 19.5-46.8 40.8-46.8h1144.1c21.2 0 37.5 20.9 36.2 46.8-1.2 25.8-19.5 46.8-40.7 46.8h-1144.1c-21.3 0-37.5-21-36.3-46.8z"/>
		<path id="&lt;Path&gt;" class="s3" d="m1551.4 1340.5c1.3-25.9 19.6-46.8 40.9-46.8h1097.3c21.3 0 37.6 20.9 36.3 46.8-1.2 25.8-19.5 46.8-40.9 46.8h-1097.2c-21.4 0-37.6-21-36.4-46.8z"/>
		<path id="&lt;Path&gt;" class="s4" d="m2149.6 1017.3c-2.3-3.4 15.6-11.7 15.6-15.9 0-4.1-24.6 2.3-26.3-0.8-3.2-5.9 26.5-8.8 25.2-11.6-1.3-2.8-32.1-1.3-30.2-7.2 1.9-6 32 1.8 31.9-1.8-0.1-3.7-28.7-4.7-30.1-12.4-0.8-4.1 48.6 8.1 53 4.5 4.5-3.6-10.7-19.6-7.4-23.5 3.3-3.9 25.2 34.1 28.3 34.7 3.1 0.6 70 18 92.2 17.6 0.7-7.7 9.5-49.9 10.1-57.1 13.7 5.1 27.7 3.2 41.7 7.5-3.2 24.4-19.5 86.9-24.9 91.3-16.4 13.5-103.1-26.4-119.9-32.7-16.9-6.3-24.3-0.7-34.8-1.2-10.5-0.6-22.1 12.1-24.4 8.6z"/>
		<path id="&lt;Path&gt;" class="s5" d="m2907.1 994.7c0.4-1.7-0.6-5.1 0-6.8 11.2 1.7 28.9 18.2 29.9 16.3 1.2-2.4-2.3-8.8-3.8-10.7-1.5-1.9-3.1-4.3-4.6-6.2-1.6-1.9-1.4-4.6 0.8-6.6 2.2-2.1 9.9 4.2 12.2 6.8 6.9 8.4 20.8 34.2 22.6 37.1l126.7 38.2q9.7-37.4 16.8-71.6c5.8 3 10.6 4 13 1.3 4.9-5.4 32.6-26.8 57.1-48.7-4.8 38.8-14 78-19.2 97.1-11.7 42.9-35.6 96.5-44.8 96.4-10.4-0.2-156.7-74.3-156.7-74.3q-26.3-7.5-36.3-9.8c-8.9-1.9-16.8-6-22.3-9.1 7.1-15.8 5.5-32.4 8.6-49.4z"/>
		<path id="&lt;Path&gt;" class="s5" d="m2963.7 1024.8l-9.4 37.4c-6.3-1.8-22.4-6.3-31.3-8.4l14.6-50.2-0.5-2q-0.2-0.7-0.4-1.5c-0.9-2.6-2.6-5.5-3.5-6.6-1.5-1.9-3.1-4.3-4.6-6.2-1.6-1.9-1.4-4.6 0.8-6.6 2.2-2.1 9.9 4.2 12.2 6.8 6.7 8.1 20.1 32.8 22.4 36.8z"/>
		<path id="&lt;Path&gt;" class="s6" d="m3654.8 1293.3c1.9-17.4 4.3-35.2 12.4-50.8 9.8-18.9 27-32.5 42.1-47.5 28.2-28.1 49.9-62.7 62.9-100.3 10.1-29.1 15.1-60.1 29-87.5 8.5-16.8 20-31.8 29.6-48 22.8-38.1 35.2-83.2 66-115.1 5.9 38.7-5.8 79.8-31.3 109.5-7.6 8.8-16.4 16.8-22.2 27-10.5 18.4-9.5 40.8-10.7 62-2.3 39.8-13.6 79-32.6 114-20.2 37.1-49.4 70.2-60.3 111.2-8.1 30.6-5.7 65-22.9 91.6-1.9 2.9-4.1 5.8-4.5 9.2-0.3 1.9 0 3.8 0.3 5.7q0.6 3.7 1.2 7.4c3.9 25.1 8 57.1-13.6 75.8-14.9 13.1-34.2 13.3-44.9-3.9-10.8-17.5-9.8-42.9-9-62.5 1.3-32.7 4.8-65.4 8.5-97.8z"/>
		<path id="&lt;Path&gt;" class="s7" d="m3615.9 1273.1c8.4-29 21.4-56.7 28-86.2 6.3-28.7 6.3-58.3 6.4-87.6q0-48.2 0-96.5c0-20 0.1-40.1 3.4-59.8 7.1-42.5 29.1-81.7 32.9-124.6 1.6-18.6-0.3-37.3 1.8-55.8 1.1-10.6 3.8-21.4 8.7-30.8 5.3-10.1 19.8-9.6 24.6 0.7 10.7 23.2 17.5 48.3 13.2 73.2-2.6 14.9-9.1 28.9-13.9 43.2-21.5 64-10.1 134.8-26.7 200.1-5 19.8-12.6 39.1-13.5 59.5-2.1 48.7 34.3 93.2 30.9 141.8-2.7 39.9-31.4 72.9-43.4 111-6.8 21.3-8.2 44.1-15.4 65.2-5.6 16.5-18.7 36.5-38.9 31.5-19.2-4.8-13.4-20.5-12.6-35.4 2.9-50.8 0.2-100 14.5-149.5z"/>
		<path id="&lt;Path&gt;" class="s6" d="m3568.1 1303.6c0.8-15.1 3.4-30.3 1.2-45.3-1.7-12.6-6.8-24.5-10.4-36.8-6.7-22.9-8.4-47-10-70.9q-4.4-65.1-8.9-130.2c-4.6-67.4-9.2-135.1-21.8-201.5-3.5-18.4-7.5-38.4 0.8-55.2 1.8-3.6 5.2-7.3 9-6.2 2.6 0.9 4 3.8 4.9 6.5 27.6 74.9 38 155.6 68.8 229.2 7.4 17.7 15.9 35 19.8 53.8 4.5 22.5 2 45.7 1.4 68.7-0.8 32.9 2.4 66.1 11.5 97.7 4.7 16.6 11.1 32.8 13.7 49.8 3.3 21.3 0.5 42.9-1.5 64.3-3.9 41.1-5.2 82.5-4 123.8 0.8 24.3-19.7 23.6-33.3 8.7-9.5-10.4-9.4-21.9-12.6-34.8-10.7-42.7-31.2-75.4-28.6-121.6z"/>
		<path id="&lt;Path&gt;" class="s7" d="m3699.9 1365.6c18.2-29.2 54.3-45.7 65.9-78 2.9-8.2 4-17.1 7.7-25 7.9-17.7 26.1-27.7 44-35.8 2.5-1.1 5.3 0.7 5.3 3.4 0.1 4.4-2 8.5-5.6 10.9-13.7 9.3-24.2 23.5-28.8 39.4-5.6 19-3.2 39.7-10 58.2-5.8 15.5-17.7 28.2-23.2 43.8-5.1 14.2-4.6 29.8-7 44.7-2.4 15-9 30.8-22.7 37.1-49.7 22.9-37.3-79.9-25.6-98.7z"/>
		<path id="&lt;Path&gt;" class="s6" d="m3457.1 1250.1c-4.5-14.6-4.6-26-12.5-39.1-2.8-4.6-26.6-42.9-20.8-46.9 8.2-5.8 20.1-2 26.8 5.4 6.7 7.4 9.6 17.4 12.9 26.9 15 43.6 41.8 83.2 76.7 113.2 7.9 6.8 16.4 13.3 22.2 22 5.3 7.9 8.1 17.1 10.5 26.3 4.3 16.2 7.7 32.6 10 49.2 1 6.6 1.4 14.3-3.4 19-2.4 2.3-5.9 3.6-7.4 6.6-1.4 2.7-0.8 6 0 8.9 4.6 16.9 12.3 34.9 5.4 51-1.1 2.7-3 5.4-5.9 6-2 0.4-4.1-0.5-5.9-1.5-28.1-14.5-34.7-51.1-53-77-5.2-7.3-11.6-14-15.1-22.3-5.5-13-3.3-27.8-4.1-41.9-2.1-38.2-25.4-70.1-36.4-105.8z"/>
		<path id="&lt;Path&gt;" class="s7" d="m3521.2 1372.2c-5.2-13.4-10.5-27-12.2-41.3-1.9-15.9 0.6-32.2-2.1-47.9-3.5-20.3-15.3-38.2-21.2-57.9-4.2-14.2-5.2-29.2-7.8-43.9-7.2-41.8-26.9-82.8-21.3-124.9 1.3-9.1 5.4-19.8 14.5-21.4 8.2-1.4 15.7 6.1 17.9 14.2 2.1 8.1 0.5 16.6-0.1 25-1.6 23.3 5 47.1 18.5 66.1 12.9 18.3 31.7 32.1 43.3 51.2 14.3 23.5 16.2 52.2 23.5 78.7 14.5 52.8 50.9 98.8 57.5 153.1 2.6 21.6-2.5 47.8-22.4 56.5-57.7 24.9-75.1-73.7-88.1-107.5z"/>
		<path id="&lt;Path&gt;" class="s8" d="m3622 1439.2h9.2 123.1c9.1 0 15.8 8.4 13.7 17.3l-48.3 203.4c-1.5 6.3-7.1 10.8-13.6 10.8h-74.9-9.2-74.9c-6.5 0-12.1-4.5-13.6-10.8l-48.3-203.4c-2.1-8.9 4.6-17.3 13.6-17.3z"/>
		<path id="&lt;Path&gt;" class="s9" d="m1679.2 391.7c108.8 2.3 195.9 58.5 194.5 125.6-0.6 33.5-23.3 63.3-59.4 84.6l42.1 99.7-91.3-78.8c-27.3 8.1-58.2 12.3-90.9 11.6-108.8-2.3-195.9-58.5-194.6-125.6 1.4-67 90.7-119.5 199.6-117.1z"/>
		<path id="&lt;Path&gt;" class="s10" d="m2186.7 498.4c78.6-1.5 143 36.5 144 84.9 0.4 24.2-15 46.4-40.5 62.7l33.3 70.8-68.2-54.2c-19.4 6.6-41.6 10.5-65.1 11-78.6 1.4-143-36.6-144-85-0.9-48.3 62-88.8 140.5-90.2z"/>
		<path id="&lt;Path&gt;" class="s9" d="m2952.5 338.3c103.9 0.2 188 52.1 188 116.1 0 32-21.1 60.9-55.1 81.8l42.1 94.4-88.6-73.4c-25.9 8.2-55.3 12.8-86.5 12.8-103.8-0.2-188-52.1-187.9-116.1 0-63.9 84.2-115.7 188-115.6z"/>
		<path id="&lt;Path&gt;" class="s0" d="m3525 1329.3h18.4l39.3 341.4h-18.5z"/>
		<path id="&lt;Path&gt;" class="s0" d="m3202.4 1329.3h18.4l39.3 341.4h-18.4z"/>
		<path id="&lt;Path&gt;" class="s0" d="m3033.6 1670.7h-18.4l39.3-341.4h18.4z"/>
		<path id="&lt;Path&gt;" class="s1" d="m3207.7 1313l41.6-405.8c3-29.4 29.3-53.3 58.8-53.3h251.4c29.5 0 50.9 23.9 47.9 53.3l-41.6 405.8c-3 29.5-29.3 53.4-58.8 53.4h-251.4c-29.4 0-50.9-23.9-47.9-53.4z"/>
		<path id="&lt;Path&gt;" class="s2" d="m3137.9 1313l41.6-405.8c3-29.4 29.3-53.3 58.8-53.3h251.4c29.4 0 50.9 23.9 47.9 53.3l-41.6 405.8c-3 29.5-29.3 53.4-58.8 53.4h-251.4c-29.4 0-50.9-23.9-47.9-53.4z"/>
		<path id="&lt;Path&gt;" class="s1" d="m3107.3 1335.1c2.8-27.6 27.5-50 55.1-50h356.3c27.6 0 47.7 22.4 44.9 50-2.9 27.6-27.5 50-55.1 50h-356.4c-27.6 0-47.7-22.4-44.8-50z"/>
		<path id="&lt;Path&gt;" class="s2" d="m3018.3 1335.1c2.8-27.6 27.5-50 55.1-50h356.3c27.7 0 47.7 22.4 44.9 50-2.8 27.6-27.5 50-55.1 50h-356.3c-27.6 0-47.7-22.4-44.9-50z"/>
		<path id="&lt;Path&gt;" class="s11" d="m3200.2 868.1l-38.7 151.7 7.5 52.4-74.6-34.6c-1.8 7.9 31.1-125 52.8-154.7 16.9-22.9 39.4-32.6 42.7-32.2q0.9 0.1 10.3 17.4z"/>
		<path id="&lt;Path&gt;" class="s12" d="m3342.8 848.5q48 8.2 49.5 8.5-9.2 110.3-10.1 143.9-0.8 33.8 6.4 217.4l-241.6 12.7q3.8-58.8 4-86 1.4-199.9 38.9-294.3c24.4-7.8 55.5-8.7 76.8-8.8 22.7 0 53.7 2.7 76.1 6.6z"/>
		<g id="&lt;Group&gt;">
			<path id="&lt;Path&gt;" class="s13" d="m3283.8 636.3q29.4-21.8 45.8 11.1c-0.2-0.2 10.9-1 12.5-0.7 6.6 1.5 13.4 7.2 19.4 10.1 21.5 10.4 33 33 36.1 54.3 3.8 25.9-6.1 45.8-22.9 66-5 6-10.3 11.9-17.2 16-8.2 4.9-15.4 2-23.3 4.5-6.7 2.1-8.5 8.9-16.8 7.1-11.6-2.4-24.7-14.5-38.5-11.5-13.8 3-47.2-6-47.3-6.1-42.9-11.6-21.8-87.8-16.3-114.7 5.2-25.3 42-43 68.5-36.1z"/>
			<path id="&lt;Path&gt;" class="s5" d="m3323.7 760.7l-7.4 86.4q-14.5 31.5-54 25-20.5-3.4-13-21.1l4.4-15.6 8.2-28z"/>
			<path id="&lt;Path&gt;" class="s2" d="m3321.3 788.7c-16 27.8-46.8 42.4-67.7 46.9l8.3-28.2 61.8-46.7z"/>
			<path id="&lt;Path&gt;" class="s5" d="m3337.9 751c-9.5 52.6-63.7 70.5-82 68.2-18.4-2.2-34.1-41-28-78.1 2.5-15.5 6.2-29.4 9.6-40.5 7.9-25.3 39.4-38.5 65.5-26.5 27.3 12.6 40.7 44.4 34.9 76.9z"/>
			<path id="&lt;Path&gt;" class="s5" d="m3339.1 740.2c7.3 0.9 12.2 8.3 11.1 16.5-1.2 8.2-8.1 14.2-15.4 13.3-7.3-0.9-12.2-8.3-11-16.5 1.1-8.2 8-14.2 15.3-13.3z"/>
		</g>
		<path id="&lt;Path&gt;" class="s13" d="m3269.5 773q24.4 5.2 27.1 13.1c2.7 7.9 0.9 19.7-9.9 29.6-10.9 9.8-36.2 6.3-43.5 1.9-7.2-4.4-14.3-24.8-8.6-36.9q5.7-12.2 34.9-7.7z"/>
		<path id="&lt;Path&gt;" class="s5" d="m3278.8 789.2q0.7 8.9-2.4 10.8c-3 1.8-6.9 3.4-10.5 4-5.9 1-11.6-0.9-15.1-4.9q-0.5-0.6-0.9-1.2-2.9-4.3-4.1-12.1 9.8-3.1 15.7-2.6 5.9 0.4 17.3 6z"/>
		<path id="&lt;Path&gt;" class="s5" d="m3070.7 1035.5c-2-5.6 25.3-10 26.7-15.7 1.5-5.7-34.3-6.2-35.6-11.2-2.3-9.2 39.3-1.8 38.5-6.1-0.8-4.3-43.3-14-38.7-21.3 4.6-7.4 43 14.7 44.2 9.7 1.2-5-37.5-17.3-36.8-28.2 0.4-5.9 63.5 29.4 70.9 26.2 7.3-3.2-7.8-30.7-1.9-34.7 5.8-4.1 22.4 55.9 26.4 57.9 4 2 85.3 40.1 115.7 48 3.8-10.2 27-56.8 30.3-66.4 17 12.2 55.3 22.7 72.8 33.8-12.8 31.9-67.9 106.4-76.8 110.4-27.1 12.2-131.5-75.1-152.4-90-20.8-14.9-32.8-10.2-47-14.9-14.1-4.8-34.4 8.1-36.3 2.5z"/>
		<path id="&lt;Path&gt;" class="s14" d="m1616.9 1086.5c-9.8 2.5-27.8 13.7-31.4 10.5q-2-1-0.9-3.2c1.4-2.6 21.1-11.4 21.6-12.6q0.4-1.2-1.8-0.8-25.7 11.8-30.4 11.2c-3.9-0.6-4-4-2.2-5.9 1.8-1.8 25.6-10.3 25.5-12q-0.1-1.8-3.8-0.2-28.9 13-33.8 11.3c-4-1.5-2.5-4.9 1.4-7.2 3.8-2.4 31.6-12.9 32.4-15q0.8-2.1-3.2-0.6-30.6 11.5-33 11.4c-2.8 0-4.2-2.8-0.7-6.1 3.5-3.3 25-13.2 27-14.3 2.1-1.1 20.5-9.5 20.9-10.6 0.4-1.1-11.6 0-18.8-2.1-2.6-0.7-6.7-1.9-8.4-4.4-1.7-2.7 0.8-6.1 3.8-5.3 2.1 0.6 5 1.2 6.3 1 2.1-0.4 6.9-0.5 11-0.7 4.1-0.2 10.9-0.5 14.2-0.5 2.8 0 14.2 2.9 19.6 5.1 4.3 1.7 9.4 3.5 15.3 4.6 2.7 0.4 5.9 0.7 9.4 1q12.4-6 32.7-17.4 112.3-59.3 118.2-62.7l80.6-102.5 62.9 24.6q-91.3 108.6-97.4 113.1c-6.7 4.9-179.2 69.8-199.8 77.5-0.6 0.3-27.5 10.2-37.2 12.8z"/>
		<path id="&lt;Path&gt;" class="s15" d="m1880.3 891.6q-2.7 3.2-35.1 101.8l-44.1-46q21.8-47 46.3-88.9 26.3-44.8 41.8-47.7-6.1 77.6-8.9 80.8z"/>
		<path id="&lt;Path&gt;" class="s5" d="m1741.2 1598.6q2.3 39.2 2.4 39.3c0.8 5 4.3 17.3 4.3 21.8 0 17-80.8-14.4-62.7-21.9 1.6-0.7 10.2-5.9 10.8-11.7q0.8-8.9 2.9-26.9z"/>
		<path id="&lt;Path&gt;" class="s5" d="m1604.1 1598.6q2.3 39.2 2.4 39.3c0.8 5 4.3 17.3 4.3 21.8 0 17-80.8-14.4-62.7-21.9 1.6-0.7 13.9-2.9 14.4-8.7q0.8-8.9 2.4-36.5z"/>
		<path id="&lt;Path&gt;" class="s6" d="m1863.5 1263.6q-29.8 29.9-120.1 31.4l-79.6-4.1 5 53.3c1.9 20.2 0 40.5-5.6 59.9l-57.6 199.5q-2.3 2.5-48 0 1-357.5 14.7-387.7 13.8-30.1 101-27.9l193.1-0.8q26.9 46.4-2.9 76.4z"/>
		<path id="&lt;Path&gt;" class="s16" d="m2003.8 1287.4q-9.6 9.6-222.7 13.8l3 46.8c1.2 17.8-0.1 35.8-3.9 53.3-11.9 55.2-36.8 199.6-36.6 202.3q0.1 2.2-52.4 0-18.4-357.4-4.7-387.5 13.8-30.2 103.2-37.4l207.5-12.8q36.3 91.5 6.6 121.5z"/>
		<path id="&lt;Path&gt;" class="s12" d="m1889.2 810.8q30.1-2.6 84 4.1 34.3 1.7 44.6 6.3c15.2 6.8 44.7 14.7 32.8 84.2-8.4 49.7-31.6 214.5-43.4 298.1l-206.1-24.8c43.5-165.3 59.6-365.5 88.1-367.9z"/>
		<path id="&lt;Path&gt;" class="s5" d="m1958 750.2l19.4 65.1q-32.9 37.6-55.8 33.9-19.2-3.1-10.2-30.5 4.7-36.9-1-55.1-5.7-18.2 47.6-13.4z"/>
		<path id="&lt;Path&gt;" class="s2" d="m1950.2 773c-8.7 6.1-22.8 13.6-37 17.2 0-9.5-0.6-19.5-2.8-26.6-2.6-8.4 7.3-11.9 18.8-13.2q15.2-0.8 28.8-0.2l3.8 12.5c-2.4 3.6-8.7 8.2-11.6 10.3z"/>
		<g id="&lt;Group&gt;">
			<path id="&lt;Path&gt;" class="s5" d="m1962.6 648.4c1.5-0.6 17.3 79-1.8 102.3-19.2 23.4-58.7 33.2-74.1 16.7-17.1-18.3-21.7-104.6 8.8-129.4q30.5-24.7 67.1 10.4z"/>
			<path id="&lt;Path&gt;" class="s13" d="m1904.9 594.3c25 3.5 41.9 17.6 48.2 23.7 11.3 0.6 26.9 5.8 44.3 30.9 21.3 30.8 9.2 67.1-12.2 85.9q-21.4 18.8-19.8 38.9l-4.2-10.2c-3.1-7.7-4.7-16-4.4-24.3 0.2-5 1-10.4 2.7-14.9 4.7-12-12.8-18.6-18.2-28-4.1-7.2-5.4-24.2-11.9-36.2l-7.5-8.9q-16.8-11.5-32.2-7c-15.4 4.5-16.8-54.3 15.2-49.9z"/>
			<path id="&lt;Path&gt;" class="s5" d="m1952.7 692.3c5.7-0.3 10.6 7.5 11.1 17.3 0.4 9.8-3.8 18-9.5 18.2-5.6 0.3-10.6-7.5-11-17.3-0.5-9.8 3.7-17.9 9.4-18.2z"/>
		</g>
		<g id="&lt;Group&gt;">
			<path id="&lt;Path&gt;" class="s14" d="m1894.8 1120.8c-5.6 1.8-17.4 5.4-25.6 7.7-11.2 3.1-23.2 0.8-26.5 1.2-0.5 0-11.5 0.6-25.3-2.5q-11.8-2.7 0.6-5.8 22.8 0.8 22.5-1.1c-0.2-1.4-12.7-1.1-25.8-3.9-3.4-0.8-6.7-1.5-9.8-2.2-8-1.8-9.3-7.5-0.6-6.9 3.1 0.1 8.2 0.6 11.8 1.4 3.8 0.9 7.7 0.4 11 0.7 6.7 0.5 11.6 0.9 11.5 0.6-0.2-0.4 1.2-1.3-2.4-2.1-4.3-1.1-13.9-1.3-20.1-3.3q-3.5-1.2-10.9-3.2-10.8-5.2-10.7-6c0.4-4.1 8.7-2.7 13.3-0.4q3.6-0.2 11.4 2.2 16.8 1 16.9-1.5c0.1-1-10.1-2.9-19.9-6.5-9.1-3.2-17.7-8-17.4-10q0.6-3.3 11-0.8 7.2 2.1 9.7 2.6 2.8 0.7 11.6 1.8 30.5 2.6 30.5 0.2c-0.1-2.3-2.5-8.3-4.4-9.2-1.8-0.8-5.9-0.5-7.8-1.4-1.8-0.8-3.5-3.6-2.7-6q0.8-2.4 11.1-1.9 8.5 0.5 13.4 3.8c17.1 11.6 19.7 16.5 21.9 17.9z"/>
			<path id="&lt;Path&gt;" class="s5" d="m2093.1 1047.8q-1.6 9.2-50 26.3-123.1 37.4-130.8 39.8c-3.9 1.3-10.2 4.3-18.1 7.2l-1.1-34.9q40.3-16 136.5-66.9-0.2-5.8-10.8-54.6l56.4-17.3q19.5 91.1 17.9 100.4z"/>
		</g>
		<path id="&lt;Path&gt;" class="s15" d="m2021.3 994.8q-59.1-145.7-38.5-164.7c20.6-19 52.3-15.5 67 12.6q14.7 28 41.8 137.3z"/>
		<path id="&lt;Path&gt;" class="s5" d="m2131.1 1563.1q-4.2 45.9-1.5 60.9c0.4 2 1.2 4.5 2.2 7.3q2.8 8.4-5 34.1l-104.6 0.3c-5.7 0.1-1.9-3.5 2.7-6.9 7.6-5.4 13.7-9 37.9-20.3 1.6-0.7 7.3-4.2 9.4-5.5 5.3-3.1 10.6-8 15.1-13q7.6-8.2 8.8-48.7z"/>
		<path id="&lt;Path&gt;" class="s5" d="m2012.6 1487q-22.8 40-26.5 54.8c-0.5 1.9-0.8 4.6-1.1 7.5q-0.9 8.8-18.7 28.9l-95.3-43.1c-5.2-2.3-0.3-4 5.3-5.1 9.2-1.8 16.2-2.5 42.9-2.7 1.8-0.1 8.5-0.9 10.9-1.2 6-0.6 12.9-2.9 19.1-5.5q10.4-4.4 28.2-40.7z"/>
		<path id="&lt;Path&gt;" class="s13" d="m2348 750.9c3.9-28.1 28.9-51.6 55.8-60.6 85.3-28.5 132.7 77.8 201.2 102.2 20.5 7.2 42.2 11.6 62.2 20 3.3 9.1 4.9 18.6 4.7 27.8-0.4 10.2-2.2 19.9-5 29.2l-27.4-5.7 19.7 25.8c-13.5 28.1-35.6 52.9-57.3 76.5-30.6 32.3-67.3 53.9-107 69.2-25.1-25.3-46.9-55.4-68.8-82.9-26.3-33-50.9-68.2-66-107.8-11.3-29.7-16.6-61-12.1-93.7z"/>
		<path id="&lt;Path&gt;" class="s17" d="m1930.1 1526.1c22 18.2 42.5 22.6 54.8 23.3-0.8 8.8-7.7 36.8-10.6 35.5-23.9-10.9-46.2-15.6-114.1-47.9-2.4-1.1 1.7-9.4 4.2-10.5 6.7-3.1 63.3-0.1 65.7-0.4z"/>
		<path id="&lt;Path&gt;" class="s18" d="m2402.3 913.3q-6.7-2.8-25.3 79.8-16.4 9.4-80.6-8.5 19.2-97.9 60.1-111.7z"/>
		<path id="&lt;Path&gt;" class="s19" d="m2492.2 872.9q4.3 0.9 8.3 21.6l-5.2 75c-3.7 6.2-9.7 183.7-17.5 193.9-7.8 10.3-119.4 4.4-138.2-7.7-0.7-0.4-8-150.1-8.6-159.8-1.5-63.6 6.9-115.3 22.6-121.9 12.9-5.4 44.7-14.7 45.7-14.7 17-0.1 69.3 8.5 92.9 13.6z"/>
		<path id="&lt;Path&gt;" class="s5" d="m2445.1 819.3q-7.2 37.7-5.8 52.5c1.5 14.9-5.5 62.8-37 62.9-31.4 0.2-5.9-60.8-3-75.4q3-14.6 3.7-59.6z"/>
		<path id="&lt;Path&gt;" class="s2" d="m2402.3 822.3q0.5-12.3 0.7-22.6l42.1 19.6q-1.5 7.7-2.9 17.5c-18.5 3.7-31.9-3.1-39.9-14.5z"/>
		<path id="&lt;Path&gt;" class="s5" d="m2429.1 709.6q18.2 3.4 30 20.1c11.8 16.6 21.3 66.6-14.7 91.4-36 24.7-65.8-7.4-67.4-39.7-1.7-32.4 3.7-75.8 52.1-71.8z"/>
		<path id="&lt;Path&gt;" class="s5" d="m2370.1 754c4.5-2 10.9 2.6 14.3 10.3 3.4 7.7 2.6 15.6-1.9 17.6-4.5 2-10.9-2.7-14.3-10.4-3.5-7.6-2.6-15.5 1.9-17.5z"/>
		<path id="&lt;Path&gt;" class="s13" d="m2468 720.2q19.5 13.2 22.1 73.3-0.6-26-21.1-29.9-20.4-3.9-45.4-54.9 24.9-1.6 44.4 11.5z"/>
		<path id="&lt;Path&gt;" class="s5" d="m2476 762.1c5.8 1.6 8.5 9.8 6.2 18.3-2.4 8.5-9 14.1-14.7 12.5-5.8-1.6-8.5-9.8-6.2-18.3 2.4-8.5 9-14.1 14.7-12.5z"/>
		<path id="&lt;Path&gt;" class="s13" d="m2485.2 1124.9q57.4 129.6-53.9 172.5l-245.5-3.7q26.5 107.4-54.3 321.1l-46.7-0.3 7.1-254.7-30.7 21 55.1-165.4 221.8-46.7v-23.6z"/>
		<path id="&lt;Path&gt;" class="s11" d="m2180.8 1223.4c-15.8 9.5-57 102-62.6 114.7q-5.6 12.6-112 190.1l-53.5-20q122.6-312.8 138.9-325.4 16.4-12.6 246.5-14.1-141.6 45.3-157.3 54.7z"/>
		<path id="&lt;Path&gt;" class="s11" d="m3283.4 1038c54.5-163.4 99.9-191.3 114.9-178.2 38.2 33 5.1 135.1-28.1 212.4q-27.3-4.3-86.8-34.2z"/>
		<path id="&lt;Path&gt;" class="s14" d="m2562.3 1045.7q-20.6 32.2-156.4 26.3l-3.5-23.4c0.5 0 100.8-18.2 118.3-29l-38-61.9 38.6-32.3c0.1-0.7 58.6 92.9 41 120.3z"/>
		<path id="&lt;Path&gt;" class="s5" d="m2372.3 1080.9c-9.3 3.1-19.1 2.2-21.9 2.7-0.4 0-9.7 2.2-21.4 0.3q-10.1-1.7 0.2-4.9 19.2-0.4 18.9-2c-0.2-1.2-10.7-0.3-21.9-2-2.8-0.5-5.7-0.9-8.3-1.3-6.8-1.1-8.1-5.8-0.7-5.8 2.5 0 6.8 0.1 9.9 0.6 3.3 0.6 6.5 0 9.3 0 5.7 0.1 9.8 0.2 9.6 0-0.1-0.3 1-1.1-2-1.7-3.7-0.7-11.7-0.3-17-1.8q-3-0.8-9.4-2-10.1-3.3-10-3.9c0.2-3.5 8-3.3 12-1.7q3-0.2 9.6 1.3 14.2 0 14.2-2.1c0.1-1.7-33.8-8.5-33.4-11.9q0.4-2.8 10.6-1.3 6.2 1.5 8.3 1.8 2.4 0.4 9.8 0.9 25.7 0.6 25.6-1.3c-0.1-2-4.5-4.7-6.1-5.3-1.6-0.6-3.4-1.5-4.9-2.1-1.6-0.6-2.5-2.3-1.9-4.4 0.6-2.1 7.4-1 9.7-0.2 7.1 2.6 24.8 13.6 26.8 14.7 0.4 0.2 20.6-0.3 23.6-0.6l10.7 25.5c-1.4 0-40.6 5.4-49.9 8.5z"/>
		<path id="&lt;Path&gt;" class="s19" d="m2492.2 872.9q38.1 15.6 64 111.7-64.2 17.9-80.6 8.5-18.7-82.6-25.3-79.8z"/>
		<path id="&lt;Path&gt;" class="s11" d="m1685.4 1634.1q18.9 5.2 28.6 6.5c9.7 1.3 22.5-9.6 29.4-6.7q7.6 3.3 7.3 32.6-101.7 8.3-130.3-0.3c-11.3-3.4 26.2-20 65-32.1z"/>
		<path id="&lt;Path&gt;" class="s11" d="m1548.3 1634.1q18.9 5.2 28.6 6.5c9.7 1.3 22.5-9.6 29.4-6.7q7.6 3.3 7.3 32.6-101.7 8.3-130.3-0.3c-11.3-3.4 26.2-20 65-32.1z"/>
		<path id="&lt;Path&gt;" class="s5" d="m3130.5 1599.9q2.3 39.2 2.3 39.3c0.9 5 4.3 17.3 4.3 21.8 0 17-80.7-14.4-62.6-22 1.6-0.6 10.2-5.8 10.7-11.6q0.9-8.9 3-26.9z"/>
		<path id="&lt;Path&gt;" class="s5" d="m3002.2 1599.9q2.4 39.2 2.4 39.3c0.9 5 4.3 17.3 4.3 21.8 0 17-80.7-14.4-62.6-22 1.6-0.6 13.8-2.8 14.4-8.6q0.8-8.9 2.4-36.5z"/>
		<path id="&lt;Path&gt;" class="s18" d="m3268.7 1266.9q-29.7 30-120 31.4l-79.7-4 5 53.3c1.9 20.1 0 40.4-5.6 59.9l-57.5 199.4q-2.4 2.6-48 0 0.9-357.5 14.7-387.6 13.8-30.2 101-27.9l193-0.8q26.9 46.4-2.9 76.3z"/>
		<path id="&lt;Path&gt;" class="s19" d="m3376.4 1291q-9.5 9.6-206.1 11.5l3.1 46.8c1.2 17.8-0.2 35.8-3.9 53.3-11.9 55.2-36.8 199.5-36.7 202.3q0.1 2.2-52.4 0-21.3-342.3-7.5-372.5 13.8-30.2 313.6-65.2 19.7 93.9-10.1 123.8z"/>
		<path id="&lt;Path&gt;" class="s11" d="m3074.6 1635.4q19 5.2 28.7 6.5c9.7 1.3 22.5-9.6 29.4-6.7q7.5 3.3 7.2 32.6-101.6 8.3-130.2-0.3c-11.3-3.4 26.2-20 64.9-32.1z"/>
		<path id="&lt;Path&gt;" class="s11" d="m2946.4 1635.4q19 5.2 28.7 6.5c9.7 1.3 22.5-9.6 29.4-6.7q7.5 3.3 7.2 32.6-101.6 8.3-130.2-0.3c-11.3-3.4 26.2-20 64.9-32.1z"/>
		<path id="&lt;Path&gt;" class="s17" d="m2072.3 1632.6c27.5 7.4 48.1 2.8 59.6-1.6 2.8 8.3 8.2 36.7 5 36.7-26.3 0-48.5 4.9-123.7 3.8-2.7-0.1-2.3-9.3-0.6-11.4 4.9-5.6 57.6-26.3 59.7-27.5z"/>
		<path id="&lt;Path&gt;" class="s12" d="m3170.6 1178.2l58.5 11.2-80.9 15.3 1.1-14.1z"/>
		<g id="&lt;Group&gt;">
			<g id="&lt;Group&gt;">
				<path id="&lt;Compound Path&gt;" fill-rule="evenodd" class="s20" d="m2928.1 748.5c-1.3 0-3.7-1.1-6.7-9.5l-0.1-0.3-0.5-2.5c-0.1-3.2-2.2-79.7 19.3-94.1 4.6-3 9.9-3.2 15.6-0.6 5.9 2.7 9.8 6.8 11.5 12.2 4.6 15.4-9.1 37.7-21.2 57.4-6.9 11.3-13.5 22-13.6 27.3-0.1 5.9-0.7 9.6-3.6 10.1q-0.3 0-0.7 0zm-2.4-10.9c0.6 1.7 1.3 3.4 2 4.6 0.1-0.9 0.2-2.2 0.2-3.9 0.1-6.5 6.4-16.7 14.3-29.6 11-17.9 24.7-40.3 20.6-53.7-1.2-4.1-4.2-7.2-9-9.4-4.3-2-7.9-1.9-11.2 0.3-16.1 10.7-18 68.4-17.3 90z"/>
			</g>
			<g id="&lt;Group&gt;">
				<path id="&lt;Path&gt;" class="s20" d="m2924.3 1641.1c-4.7 0-8.5-4.9-8.5-10.9l1.2-882.5c0.1-6.1 3.9-10.9 8.6-10.9 4.7 0 8.5 4.9 8.5 10.9l-1.3 882.5c0 6-3.8 10.9-8.5 10.9z"/>
			</g>
			<path id="&lt;Path&gt;" class="s2" d="m2933.6 1673.1l-19.5-0.4c-3 0-5.4-2.6-5.2-5.7l3-37.2c0.3-2.8 2.6-4.9 5.4-4.9l14.6 0.3c2.8 0 5.1 2.2 5.2 5l1.9 37.3c0.2 3.1-2.3 5.6-5.4 5.6z"/>
			<path id="&lt;Path&gt;" class="s2" d="m2932.1 862.7l-15.1-0.2c-3.5-0.1-6.2-2.9-6.2-6.4l2-118.5c0-3.4 2.9-6.2 6.3-6.1l15.2 0.2c3.4 0.1 6.2 2.9 6.1 6.4l-2 118.5c0 3.4-2.9 6.2-6.3 6.1z"/>
		</g>
		<path id="&lt;Path&gt;" class="s5" d="m2923.9 1036.8c-0.4 4.8-4.5 8.6-9.3 8.8-9.2 0.2-24.4-1.1-26.4-12.6-2.9-16.6 14.9-48.7 20.1-44.9 5.2 3.7 23.2 34 18.6 39-2.7 2.9-2.7 6.1-3 9.7z"/>
		<path id="&lt;Path&gt;" class="s21" d="m2397.8 799.7l28.5 3.1q-1.9 11-14.5 10-15.3-1.3-14-13.1z"/>
		<path id="&lt;Path&gt;" class="s21" d="m1898.8 741.9q9.2-0.5 10.3 7.6l-20.8 1.5q-0.7-8.6 10.5-9.1z"/>
		<path id="&lt;Path&gt;" class="s22" d="m441.7 1503h-5.7c-1.9-19.4-5.7-40.8-12.3-63.1-25-84.6-14.1-95.6-56.4-148.4q-42.3-52.9-45.4-162.5-20.4-124.6 0-179.4c20.4-54.8 21.9-109.6 71.3-167.6q9.4 77.6 21.1 112.8c11.8 35.2 22.9 68.9 14.2 153.5-8.7 84.6-14.1 91.6-16.1 113.5-2 22 1.1 114.4-3.6 129.7-4.7 15.2 27.4 121 29.8 166.4 0.7 13.6 2 29.2 3.1 45.1z"/>
		<path id="&lt;Path&gt;" class="s6" d="m423.7 1503c-8.2-18.9-22.5-37.6-47.7-48.8-65.8-29.4-110.1-28.7-140.7-99.2-30.5-70.5-30.5-166.8-41.1-186.8q28.2-4.7 56.4 45.8c28.2 50.5 47.3 88.1 63.6 117.5 16.3 29.4 39.8 21.2 59.7 43.5 16.8 18.7 32.2 62.2 38.1 84.3 1.9 7.1 4.7 14.1 8.3 20.5 3.4 5.9 7.3 13 9.6 18.1 0.6 1.2 1.1 2.9 1.6 5.1z"/>
		<path id="&lt;Path&gt;" class="s22" d="m609.3 1168.9c4.7 60.3-33.7 55.6-35.2 94-1.6 38.3-51.7 103.3-74.9 149.6-12.1 24-16.6 60.7-18.1 90.5h-18.6c7.2-75.3 37.7-127.7 56-169.6 23.5-54.1 27-78.8 7-121-19.9-42.3 9.4-151.6-19-200.3-28.4-48.7-13.9-125.1-7.3-154.5 6.5-29.4-0.7-49.3-6.6-80.3q-5.8-31 6.6-75.9c1 38.3 30.2 90.8 51.4 124.5 21.1 33.7 61.1 125.3 56.4 166.8q-4.7 41.5-2.4 44.6c14.9 55.6 0 71.3 4.7 131.6z"/>
		<path id="&lt;Path&gt;" class="s6" d="m497.4 1454c-2.4 7.2-10.1 25.5-17.1 49h-11.5c5.2-29.9 14.2-64.5 29.4-84.3 30.5-39.9 91.6-57.2 98.6-86.1 7.1-29-0.7-115.9 43.9-164.5q-6.3 54.1 0 68.5c6.3 14.5 59.5 81.9 28.2 138.3-31.3 56.3-101.8 49.3-123.7 61.8-22 12.6-43.9 5.5-47.8 17.3z"/>
		<path id="&lt;Path&gt;" class="s6" d="m525.6 1193.9c0.8 58-44.7 79.9-43.9 112 0.8 32.1-9.4 66.6-18 92.4-5.4 16.4-2.4 61.9-1.5 104.7h-12.6c-3.1-31.5-6.6-76.8-5.5-96.9 1.6-27.4-10.9-49.3-12.5-97.1-1.6-47.7-11.7-90.8 9.4-151.1 21.1-60.3 17.2-132.4 105.7-198.9q15.7 70.4 3.9 108.8c-11.7 38.4-25.8 68.1-25 126.1z"/>
		<path id="&lt;Path&gt;" class="s7" d="m525.6 1193.9c0.8 58-44.7 79.9-43.9 112 0.8 32.1-9.4 66.6-18 92.4-5.4 16.4-2.4 61.9-1.5 104.7h-5.2q-0.7-9-1.4-14.6l-2.6-108.1q5.2-84.5 14.6-153.5 9.4-68.9 79.1-267.8 15.7 70.4 3.9 108.8c-11.7 38.4-25.8 68.1-25 126.1z"/>
		<path id="&lt;Path&gt;" class="s8" d="m435.9 1453.5h8.5 112.8c8.3 0 14.4 7.8 12.5 15.8l-44.2 186.5c-1.4 5.8-6.5 9.9-12.5 9.9h-68.6-8.5-68.6c-6 0-11.1-4.1-12.5-9.9l-44.2-186.5c-1.9-8 4.2-15.8 12.5-15.8z"/>
		<path id="&lt;Path&gt;" class="s10" d="m1245.2 615.5c0 46.3-60.8 83.8-135.8 83.9-22.6 0-43.8-3.3-62.5-9.3l-64.1 53.1 30.5-68.2c-24.6-15.1-39.9-36-39.9-59.1 0-46.2 60.9-83.8 135.9-83.9 75.1-0.1 135.9 37.3 135.9 83.5z"/>
		<path id="&lt;Path&gt;" class="s0" d="m614.1 1669.7h-17.8l37.9-329.5h17.8z"/>
		<path id="&lt;Path&gt;" class="s0" d="m776.9 1340.2h17.8l37.9 329.5h-17.8z"/>
		<path id="&lt;Path&gt;" class="s0" d="m925.3 1669.7h-17.8l37.9-329.5h17.8z"/>
		<path id="&lt;Path&gt;" class="s0" d="m1088.2 1340.2h17.8l37.9 329.5h-17.8z"/>
		<path id="&lt;Path&gt;" class="s1" d="m911.9 1376h-242.6c-28.4 0-53.9-23-56.8-51.4l-40.1-391.6c-2.9-28.4 17.8-51.5 46.3-51.5h242.5c28.5 0 53.9 23.1 56.8 51.5l40.1 391.6c2.9 28.4-17.8 51.4-46.2 51.4z"/>
		<path id="&lt;Path&gt;" class="s2" d="m979.2 1376h-242.6c-28.4 0-53.8-23-56.7-51.4l-40.1-391.6c-2.9-28.4 17.8-51.5 46.2-51.5h242.6c28.4 0 53.8 23.1 56.7 51.5l40.1 391.6c2.9 28.4-17.8 51.4-46.2 51.4z"/>
		<path id="&lt;Path&gt;" class="s1" d="m1011.7 1394.1h-343.8c-26.6 0-50.5-21.6-53.2-48.3-2.7-26.6 16.7-48.2 43.3-48.2h343.8c26.7 0 50.5 21.6 53.2 48.2 2.7 26.7-16.6 48.3-43.3 48.3z"/>
		<path id="&lt;Path&gt;" class="s2" d="m1097.6 1394.1h-343.9c-26.6 0-50.4-21.6-53.2-48.3-2.7-26.6 16.7-48.2 43.4-48.2h343.8c26.6 0 50.4 21.6 53.2 48.2 2.7 26.7-16.7 48.3-43.3 48.3z"/>
		<path id="&lt;Path&gt;" class="s4" d="m1013.8 1539q-42.8 51.3-43.1 55.7c-0.2 4.5 1.7 53.2 6.8 57.7 5.1 4.4 20.1 7.6 15.3 12.6-3.7 3.8-31.6 3-50.1 2-5.4-0.3-12.2-43.4-14.4-49.8-3.1-9.2-10.6-29.9-7.8-36.3 1.4-3.1 8-9.6 17.2-15.6q9.8-6.3 47.2-58.3z"/>
		<path id="&lt;Path&gt;" class="s19" d="m938.4 1565q28.7 80.9 39.9 84.8c3 1.1 17.3 3.7 20 10q0.8 1.9 0 8.3h-59.8q-7.6-35.6-10.6-51.3-15.9-38.3-14.1-41.7 1.8-3.5 24.6-10.1z"/>
		<path id="&lt;Path&gt;" class="s5" d="m1305.6 1539q34.4 70.8 42.3 79.5c4.7 5.3 10.1 10.5 15.5 13.8 2.2 1.3 8.1 5.1 9.8 5.8 25 12.1 31.3 15.9 39.1 21.7 4.8 3.5 8.7 7.3 2.8 7.2l-109-1.8q-4.8-1.9-9-9.8c-4.2-7.8 3.2-18.7 4.8-27q3.1-15.6-31.9-64.8z"/>
		<path id="&lt;Path&gt;" class="s19" d="m1425.2 1661.8c1.8 2.1 0.2 5.4-2.6 5.3-20-0.2-90.1-1.2-116.5-1.9-3.3 0-7.1-1.8-9.7-9.5-2.2-6.3 1.9-17.2 5-25.9 11.9 4.8 33.2 9.8 62 2.5 2.2 1.3 56.8 23.5 61.8 29.5z"/>
		<path id="&lt;Path&gt;" class="s13" d="m1068.2 1287.5c-3.2 0-160.7-22.9-165-25.1q-4.4-2.2-115.5-85.5l143.9-14.7q217.6 32.5 250.3 59.7 3.6 3 6.6 5.7c16 14.5 18.8 38.7 6.6 56.6-22.1 32.5-8.3 29.1-45.8 82.4q-44.5 63.1-139.1 181.1l-37.7-27.5q105.9-195 116.9-202.8 11-7.8 54.3-57.2-72.2 27.3-75.5 27.3z"/>
		<path id="&lt;Path&gt;" class="s15" d="m925.2 1169.6c42.6 12 222.8 74.2 234.9 87.3q12 13.1 166.1 312.7l-39.3 25.1q-143.2-169.4-146.5-182.5-3.3-13.1-32.8-94c-72.2 0-291.4 3.8-328.3-30.7q-36.9-34.4 11.1-117.9 92.1-12 134.8 0z"/>
		<g id="&lt;Group&gt;">
			<path id="&lt;Path&gt;" class="s13" d="m942.8 762.4c-0.2 18.2-9.2 111.5-21.2 142-5.1 13-27.5 39.2-59 65.2-67.3-9.9-114.2-37.2-146.7-68.6l10.7-21.3q-10.1 7.6-18.3 13.5c-19.2-20.3-32.9-41.8-42.4-61.2q8-9.5 20.6-24.8l-26 13.1c-4.4-10-7.6-19.2-10-26.9 15.8-11 28.2-15.7 52.2-25.4 100.1-40.4 74.7-104.5 150.4-114.6 26.8-3.6 49.1 6.1 67.4 26.7 22.6 25.4 22.5 53.9 22.3 82.3z"/>
			<path id="&lt;Path&gt;" class="s4" d="m979.9 1045.2q-58-5.6-68.2-19c-10.2-13.4 17.4-28.4 19.5-28.4 2.1 0 35.5 9.9 38.1 13.9q2.6 4 10.6 33.5z"/>
			<path id="&lt;Path&gt;" class="s4" d="m734.6 989.2q-2.6-1 39.7 13.2l-8.4 22.8q-28.8-35-31.3-36z"/>
			<path id="&lt;Path&gt;" class="s16" d="m964.8 1011.3c-15.5 4.4-35.7 13.9-51.2 18.1l-26.7-162.1q33.1-1.2 58.2 74.9c6.1 18.8 14.5 45.1 19.7 69.1z"/>
			<path id="&lt;Path&gt;" class="s9" d="m892.1 870.2c6.6 7.3 34.3 81.2 37.7 99.3q3.3 18.2 1.4 192.7-31 20.6-141.1 7 14.7-69.3 11.4-94.7c-3.4-25.4-56.6-181.8-38.3-201.8q18.3-20 64.5-17 57.7 7.3 64.4 14.5z"/>
			<path id="&lt;Path&gt;" class="s9" d="m709.8 995.2q11.1-91.2 29.7-114.8c18.5-23.5 40-32.3 55.9-11.1q15.9 21.3-22 136z"/>
			<path id="&lt;Path&gt;" class="s5" d="m876 776.4q-9.7 58.7-10.3 75.5c-0.6 16.8 23.4 78.5-10.8 70-34.2-8.5-42.4-57-38.9-73.6q3.3-15.8 8.9-61.3z"/>
			<path id="&lt;Path&gt;" class="s2" d="m824.9 787l51.1 1.4q-4.3 15.9-6.5 30.5c-29.9 13.2-46.8-12.6-47.1-12.8q1.1-8.4 2.5-19.1z"/>
			<path id="&lt;Path&gt;" class="s5" d="m915.4 762.9c-6.6 36.1-44.6 67.9-80.9 34.9-36.3-33.1-18.3-87.8-2.8-104.9q15.6-17 36.4-18.2c54.3 2.5 53.9 52.1 47.3 88.2z"/>
			<path id="&lt;Path&gt;" class="s5" d="m927.9 749.5c-1.6 9.4-7.2 16.3-12.7 15.4-5.4-0.9-8.5-9.2-6.9-18.7 1.6-9.4 7.3-16.3 12.7-15.4 5.4 1 8.5 9.3 6.9 18.7z"/>
			<path id="&lt;Path&gt;" class="s13" d="m874.3 674.5q-35.3 53.7-58.6 55.1-23.3 1.4-27.8 30.6 11.8-67.2 35.4-79.1 23.6-11.9 51-6.6z"/>
			<path id="&lt;Path&gt;" class="s5" d="m822.6 743.1c1.4 9.9-2.9 18.7-9.5 19.7-6.6 1-13.1-6.3-14.5-16.2-1.3-9.9 2.9-18.7 9.5-19.6 6.7-1 13.2 6.2 14.5 16.1z"/>
			<g id="&lt;Group&gt;">
				<path id="&lt;Path&gt;" class="s4" d="m782.7 784.6q-0.5-16 0.2-17.7 0.7-1.7 19.1-24 20.2-13.8 22-12c1.9 1.9-6.1 9.5-7.9 10.2-1.7 0.6-17 16.1-18 18-1 2-3.9 16.4-4.4 17-0.6 0.5-4.8 10.4-5.6 10.7q-0.7 0.2-5.4-2.2z"/>
				<path id="&lt;Path&gt;" class="s4" d="m789.6 767.3c-1.3 1.7-3.6 4.2-4 4.3-0.4 0.2-2.8-0.9-2.8-3.9-0.1-3.1 7.5-9.2 8.2-9.5q0 7.3-1.4 9.1z"/>
				<path id="&lt;Path&gt;" class="s4" d="m810.9 742.9c1.6-0.6 20.7-11.4 21.4-10.8 0.8 0.5 0.9 5.5-0.5 6.9q-1.4 1.5-1.4 1.5 0.2 2.7-2.1 4.5c-2.3 1.8-8.2 5.2-9.3 6.7-1.1 1.6-9.4 6.1-9.5 7q-0.1 0.9-7.3 14.6l4.7 6.5q5.2-4 7.8-6.3c2.6-2.2 7.7-6.6 12-6 4.2 0.6 5.1 3.8 5.1 3.9-0.1 0-7.3 3.7-8.3 4.7-1.1 1.1-8.8 8.8-9.7 11-1 2.1-2.9 9.9-6.1 12.9q-3.2 2.9-15.7 13.6l-7-21.5q7.2-30.4 7.4-31 0.3-0.5 18.5-18.2z"/>
				<path id="&lt;Path&gt;" class="s23" d="m801.5 738.7c-0.1 1.8-4.6 17.4-4.4 20.8 0.2 3.5-0.7 22-1.1 26.1-0.1 1.7 0.1 4.1 0.4 6.4 1 7.2-0.5 14.6-4.2 20.9q0 0 0 0-0.6 1.1-1.6 20.9-5.2 0.1-21.2-9.3 2.6-13 3-14.4c0.5-1.5 5.1-10.8 5.5-13.1 0.5-2.3 3.6-13.5 4.1-14.9q0.4-1.3 4.8-11.2 2.5-14.9 2.7-15.6c0.2-0.7 4.5-9 5.2-10.2q0.6-1.3 3.5-9.4c1.5-2.9 3.3 1.3 3.3 3z"/>
			</g>
			<g id="&lt;Group&gt;">
				<path id="&lt;Path&gt;" class="s4" d="m944.8 794.2c-0.7-0.4-3.4-10.8-3.9-11.4-0.5-0.6-1.2-15.4-1.9-17.4-0.7-2.1-13.6-19.6-15.2-20.5-1.6-0.9-8.4-9.6-6.3-11.2q2.1-1.6 20 15.1 15 24.7 15.4 26.5 0.4 1.8-2.4 17.6-5 1.7-5.7 1.3z"/>
				<path id="&lt;Path&gt;" class="s4" d="m946.2 765.5c0.6 0.4 7.2 7.6 6.7 10.6-0.5 3-3 3.7-3.4 3.5-0.3-0.2-2.3-3-3.3-4.9q-1.1-1.9 0-9.2z"/>
				<path id="&lt;Path&gt;" class="s4" d="m944.3 768.2q0.2 0.6 2.8 31.7l-10.1 20.2q-10.8-12.4-13.5-15.8c-2.7-3.4-3.5-11.3-4.1-13.6-0.6-2.3-7.1-11-8-12.2-0.9-1.2-7.5-5.9-7.5-6 0 0 1.3-3 5.6-3 4.3 0 8.7 5.1 11 7.7q2.2 2.6 6.7 7.4l5.7-5.8q-5.1-14.6-5.1-15.5c0-0.9-7.5-6.6-8.4-8.3-0.9-1.7-6.2-5.9-8.2-8q-2-2.1-1.4-4.8 0 0-1.2-1.7c-1.2-1.6-0.3-6.5 0.5-6.9 0.8-0.4 18.1 13 19.6 13.9q15.4 20.1 15.6 20.7z"/>
				<path id="&lt;Path&gt;" class="s23" d="m942.4 742.1q1.6 8.5 2.1 9.9c0.4 1.3 3.5 10.1 3.6 10.8q0 0.8 0.3 15.9 2.9 10.4 3.2 11.8c0.2 1.4 1.7 13 1.8 15.3 0 2.3 3.3 12.2 3.5 13.7q0.2 1.5 0.9 14.7-14.9 11.3-20.1 10.4-0.3-24-0.7-25.2-0.1 0-0.1 0c-2.7-6.8-3.1-14.3-1-21.3 0.6-2.2 1.2-4.6 1.3-6.2 0.2-4.2 2.1-22.6 2.8-26 0.6-3.4-1.5-19.5-1.3-21.2 0.2-1.7 2.6-5.6 3.7-2.6z"/>
			</g>
			<path id="&lt;Path&gt;" class="s5" d="m826.4 766.3c2.8-0.7 10.8 0.4 19.4 0 8.6-0.5 12.3 10.3 12.4 10.6 0.2 0.2-35.9 5.9-37.8 2.3q-2.8-5.4-3.4-8.2 6.5-4.1 9.4-4.7z"/>
			<path id="&lt;Path&gt;" class="s5" d="m915.2 764.9q-4.1 12.5-5.7 15.5c-1.5 3-16.8 0.1-16.3-0.8q0.4-0.9 2.7-10.2 0.1-8.6 6.8-9.2 6.8-0.6 12.5 4.7z"/>
			<path id="&lt;Path&gt;" class="s23" d="m791.3 822.1c-2.4 46-21.2 199-25.4 203.1-4.2 4.2-38.5 51-51.5 4.2q-13.1-46.9 57.9-218.7 21.4-34.6 19 11.4z"/>
			<path id="&lt;Path&gt;" class="s23" d="m956.9 820.2q56.7 158.7 41.8 205c-15 46.3-48.7-1.7-52.7-6.1-4-4.3-8-142.2-8.5-188.3q-0.5-46.1 19.4-10.6z"/>
			<path id="&lt;Path&gt;" class="s21" d="m882.5 784.4l-30.8-5.3q2.7-11.6 16.3-9.6 16.6 2.4 14.5 14.9z"/>
		</g>
		<path id="&lt;Path&gt;" class="s0" d="m317.5 1666h3428v11h-3428z"/>
	</g>
</svg>