<svg version="1.2" xmlns="http://www.w3.org/2000/svg" viewBox="0 0 448 252" width="448" height="252">
	<title>AI_Children Playing-ai</title>
	<style>
		.s0 { fill: #accdb6 } 
		.s1 { fill: #96b6a0 } 
		.s2 { fill: #83b3aa } 
		.s3 { fill: #b8dbc0 } 
		.s4 { fill: #ffc03c } 
		.s5 { fill: #f0ae31 } 
		.s6 { fill: #b6c063 } 
		.s7 { fill: #9c9b36 } 
		.s8 { fill: #ffc43b } 
		.s9 { fill: #f2b332 } 
		.s10 { fill: #7f6d5a } 
		.s11 { fill: #8b7261 } 
		.s12 { fill: #745f51 } 
		.s13 { fill: #f09d31 } 
		.s14 { fill: #f09f30 } 
		.s15 { fill: #ff9630 } 
		.s16 { fill: #886e5f } 
		.s17 { fill: #f56b40 } 
		.s18 { fill: #948274 } 
		.s19 { fill: #2c4758 } 
		.s20 { fill: #416373 } 
		.s21 { fill: #a3ae58 } 
		.s22 { fill: #aeb85e } 
		.s23 { fill: #efe6cf } 
		.s24 { fill: #dad5be } 
		.s25 { fill: #fff5e7 } 
		.s26 { fill: #e5decf } 
		.s27 { fill: #345a51 } 
		.s28 { fill: #273f39 } 
		.s29 { fill: #ff8d46 } 
		.s30 { fill: #cc4337 } 
		.s31 { fill: #a5362f } 
		.s32 { fill: #87ad9f } 
		.s33 { fill: #729f8e } 
		.s34 { fill: #fdd0bb } 
		.s35 { fill: #fec2a4 } 
		.s36 { fill: #345465 } 
		.s37 { fill: #2c4351 } 
		.s38 { fill: #ff9f45 } 
		.s39 { fill: #ff8743 } 
		.s40 { fill: #37414f } 
		.s41 { fill: #2c333e } 
		.s42 { fill: #c88864 } 
		.s43 { fill: #e7574e } 
		.s44 { fill: #acc346 } 
		.s45 { fill: #8ea43a } 
		.s46 { fill: #e4b094 } 
		.s47 { fill: #c49980 } 
		.s48 { fill: #f9b732 } 
		.s49 { fill: #dfa732 } 
		.s50 { fill: #ab3830 } 
		.s51 { fill: #274039 } 
		.s52 { fill: #ff9d93 } 
		.s53 { fill: #a8372f } 
		.s54 { fill: #f9d875 } 
		.s55 { fill: #fd9a3a } 
		.s56 { fill: #ffe05c } 
		.s57 { fill: #ffec96 } 
		.s58 { fill: #dbbe47 } 
		.s59 { fill: #ff903c } 
		.s60 { fill: #f38334 } 
		.s61 { fill: #fd5340 } 
		.s62 { fill: #e34b3a } 
		.s63 { fill: #896c5c } 
		.s64 { fill: #a98673 } 
		.s65 { fill: #755c4f } 
		.s66 { fill: #324f52 } 
		.s67 { fill: #4e7075 } 
		.s68 { fill: #fdf5e6 } 
		.s69 { fill: #604c41 } 
		.s70 { fill: #b69f35 } 
		.s71 { fill: #ffb975 } 
	</style>
	<g id="Layer 1">
		<g id="&lt;Group&gt;">
			<g id="&lt;Group&gt;">
				<path id="&lt;Path&gt;" class="s0" d="m0 0h448v252h-448z"/>
				<g id="&lt;Group&gt;">
					<path id="&lt;Path&gt;" class="s1" d="m12.9 119.9l53.9-21.8 140-16.3 172.3 5.4 68.9 12.5v43.8c-19.5-14.1-55.9-32.5-118.5-39.9q-107.7-12.7-316.6 16.3z"/>
					<path id="&lt;Path&gt;" class="s1" d="m448 252h-35.9c16.2-8.5 27.7-18.5 35.9-28.6z"/>
				</g>
				<g id="&lt;Group&gt;">
					<path id="&lt;Path&gt;" class="s2" d="m68.4 215l-35-4.5 27.2-13.1 20.4 9.8z"/>
					<path id="&lt;Path&gt;" class="s2" d="m228.6 188.4l-8.3 3.7-24.3-6.2 17.5-7.7z"/>
					<path id="&lt;Path&gt;" class="s2" d="m279.5 212.2l5.8 4.9-3.4 3.2-17.9-1.6z"/>
					<path id="&lt;Path&gt;" class="s2" d="m212.1 223.2l5.3 6.6-19.9 0.8 1-4.1z"/>
					<path id="&lt;Path&gt;" class="s2" d="m88.8 239.2l14-4.5 21.4 3.3-16 7.3z"/>
					<path id="&lt;Path&gt;" class="s2" d="m184.9 124.9l9.7 3.7-5.8 3.7-13.6-1.6z"/>
					<path id="&lt;Path&gt;" class="s2" d="m16.9 137.6l5.9 4.5-3.4 4.1-14.6-0.8 1-5.3z"/>
					<path id="&lt;Path&gt;" class="s2" d="m42.2 181l10.6-2.4 5.4 4.9-3.9 3.7z"/>
					<path id="&lt;Path&gt;" class="s2" d="m442.1 200.7l-15.5 4.9-8.8-4.1-3.3-7.4 18.9-4.9z"/>
					<path id="&lt;Path&gt;" class="s2" d="m311.6 113.9l11.6 0.8 1.5 2.9-15.6 1.6z"/>
				</g>
				<ellipse id="&lt;Path&gt;" class="s1" cx="364.5" cy="240.6" rx="37.1" ry="7.6"/>
				<ellipse id="&lt;Path&gt;" class="s1" cx="112.8" cy="183.3" rx="37.1" ry="7.6"/>
				<ellipse id="&lt;Path&gt;" class="s1" cx="246.8" cy="146" rx="24" ry="5.5"/>
				<path id="&lt;Path&gt;" class="s3" d="m0 0h448v112.3c-32-9.3-121.3-30.8-245.5-25.1-110.8 5.1-174.5 26.5-202.5 38.7z"/>
				<path id="&lt;Path&gt;" class="s4" d="m60.2 43.3l-60.2 10.9v-21.5c12.9-1.2 47.3-2.9 60.2 10.6z"/>
				<path id="&lt;Path&gt;" class="s5" d="m60.2 43.3l-18.4 3.3q1.2-1.3 2.2-2.8c1.7-2.4 0-5.6-2.8-7.3q-3.6-1.8-7.2-2.4c-6-0.6-11.8-1.5-17.5-2.2 15.3 0 34.7 2 43.7 11.4z"/>
				<path id="&lt;Path&gt;" class="s6" d="m448 47.7v64.6c-17.5-5.1-52.3-13.9-100.5-19.8-34.3-5-73.4-8.8-113.6-8.8-100.4-0.1-201.4 25.8-233.9 34.9v-74.5c24.7-3.6 98.2-12 161.5 1.3q101.3-27.2 183.1-1.8 57.3-8.3 103.4 4.1z"/>
				<path id="&lt;Path&gt;" class="s7" d="m146.2 40.2c0.4 1.5 0.8 2 1.8 3.3 2.5 3.2-4.9 3.3-7.1 3.1-5.8-0.7-11.5-2.2-17.2-3.5q-7.2-1.6-14.5-2.6c-1-0.1-2.1-0.4-2.1-1.2-0.1-0.5 0.4-0.9 0.9-1.2 1.6-0.9 3.5-1.4 5.4-1.2 0.7-1.8 2.6-3.3 4.8-3.7 2.2-0.4 4.6 0.3 6.1 1.7 0.9-0.5 2.1-0.5 3-0.1 1 0.4 1.6 1.1 2 2 1-0.5 2.3 0.1 2.5 1q1.6-0.5 3.3-1.1c0.8-0.2 1.9-0.3 2.2 0.3 0.7-1.3 2.7-1.7 4.3-1.2 2.1 0.6 4.2 2.6 4.6 4.4z"/>
				<path id="&lt;Path&gt;" class="s7" d="m294.9 31.1c0.6-2.7 4.8-4.1 7.5-2.6 0.7 0.4 1.3 0.9 2.1 1.3 1.5 0.9 4.2 1.3 3.9 2.9 0.4-3.1 5.3-5 8.3-3.3 0.6 0.4 1.2 0.8 1.9 1 0.7 0.2 1.5 0.1 2.2 0.2 1.3 0.2 2.3 1.2 2.4 2.3 0.1 0.5-0.1 1 0.2 1.4 0.5 1 2.2 0.8 3.5 0.7 1.3-0.1 3 0.9 2.2 1.7 2.2-0.5 4.5 0.5 6.1 1.9 1.5 1.4 2.5 3.2 3.7 4.8-4 0.1-7.8-1-11.5-2-11.5-3.3-23.5-6.5-35.7-5.6-2.3 0.2-6.9-0.6-4.1-3.1 0.5-0.5 3.6-0.8 4-0.9 1.2-0.2 1.7-1.4 3.3-0.7z"/>
				<path id="&lt;Path&gt;" class="s6" d="m448 47.7v64.6c-17.5-5.1-52.3-13.9-100.5-19.8-34.3-5-73.4-8.8-113.6-8.8-100.4-0.1-201.4 25.8-233.9 34.9v-74.5c24.7-3.6 98.2-12 161.5 1.3q101.3-27.2 183.1-1.8 57.3-8.3 103.4 4.1z"/>
				<g id="&lt;Group&gt;">
					<path id="&lt;Path&gt;" class="s8" d="m31.3 188.4c6.2-0.2 10.3 3.9 11.8 8.9 1 3.3 0.6 6.9-0.2 10.3-1.8 7.3-6.1 14.5-13.7 18.2-7.7 3.7-18.8 2.7-23.6-3.6-1.8-2.4-2.6-5.4-2.7-8.3-0.2-7.2 3.5-14.5 9.9-19.3 5-3.8 11.8-6 18.5-6.2z"/>
					<path id="&lt;Path&gt;" class="s9" d="m42.9 207.6c-1.8 7.3-6.1 14.5-13.7 18.2-7.7 3.7-18.8 2.7-23.6-3.6-1.1-1.4-1.8-3.1-2.2-4.8 2.1 3 5.1 5.4 9 6.5 13 3.9 26.4-4.2 28.8-15.5 1.2-5.2 1.9-10.9-0.4-15.6 1 1.3 1.8 2.8 2.3 4.5 1 3.3 0.6 6.9-0.2 10.3z"/>
					<path id="&lt;Path&gt;" class="s10" d="m30.7 198.8c-1.7 7.1-4.3 14.1-7 21 1.7-0.9 3.1-2.1 4.4-3.4 0.1-0.2 0.5 0 0.4 0.2-0.9 2.4-2.9 4-5.5 5q-1 2.5-1.9 5.1c-1.7 4.5-3.3 9-4.5 13.7-1 3.8-1.4 7.7-1.8 11.6h-2c0-4.7 0.9-9.4 2.3-14.1-2.1-2.5-2.8-6-3.4-9-0.5-2.8-0.7-5.8-0.2-8.6 0-0.2 0.3-0.1 0.3 0q0.3 2 0.5 3.9c0.4-2 1.2-4.2 2.3-5.8 0.2-0.2 0.6-0.2 0.6 0.1-0.1 1.5-0.6 2.9-1.1 4.4-0.4 1.3-0.8 2.7-1.5 4q0.3 1.6 0.6 3.2c0.6 2.3 1.6 4.5 2.2 6.7 1-3.3 2.1-6.5 3.3-9.6 1.6-4.3 3.3-8.4 5.1-12.6-0.3-1.5-0.4-3-1-4.4-0.6-1.4-1.4-2.8-1.9-4.2-1.3-3.3-0.9-6.5-0.4-9.9 0-0.1 0.2-0.1 0.2 0 0.1 4.4 0.8 8 2.8 12 0.5 1.1 1.2 2.4 1.4 3.8 1.9-4.4 3.8-8.8 5.5-13.2 0.1-0.1 0.3-0.1 0.3 0.1z"/>
				</g>
				<path id="&lt;Path&gt;" class="s8" d="m54.4 206.7c7.8-1.3 10.8 11.4 11.8 16.1 0.5 1.9 0.8 4 0.3 5.9-0.5 2.3-2 4.2-3.7 5.9-1.5 1.5-3.2 2.9-5.2 3.8-4 1.7-9.2 1.2-12.8-1-3.7-2.2-6-5.9-6.3-9.7-0.2-1.9 0.1-3.9 0.7-5.7 1.7-5.9 7.5-14 15.2-15.3z"/>
				<path id="&lt;Path&gt;" class="s9" d="m66.5 228.7c-0.5 2.3-2 4.2-3.7 5.9-1.5 1.5-3.2 2.9-5.2 3.8-4 1.7-9.2 1.2-12.8-1-2.4-1.4-4.2-3.5-5.3-5.8 4.3 4.1 12 5 17.9 1.6 8-4.4 8.8-12 6.3-18.9 1.3 3.2 2.1 6.5 2.5 8.5 0.5 1.9 0.8 4 0.3 5.9z"/>
				<path id="&lt;Path&gt;" class="s10" d="m55.9 224.5c-1.3 4.2-2.4 8.4-4 12.5-0.7 1.9-1.6 3.8-2.6 5.6-0.9 1.6-2 3.2-3.4 4.5q-0.8 2.5-2 4.9h-1.6q0.6-1.1 1.1-2.3c2.4-5.7 3.1-11.8 4.2-17.8 1.1-6.1 2.2-12.5 5.8-18.1 0.1 0 0.2 0 0.2 0.1-1.9 3.5-3.1 7.1-3.9 10.8-1.3 6.3-1.3 12.7-2.8 19q-0.1 0.3-0.2 0.7 0.9-1.2 1.6-2.5c1.1-1.9 1.9-3.8 2.7-5.8 1.5-3.9 2.7-7.9 4.7-11.6 0.1-0.1 0.2-0.1 0.2 0z"/>
				<g id="&lt;Group&gt;">
					<path id="&lt;Path&gt;" class="s7" d="m1.8 51.5c0.4 0 5.3-3.5 5.2-3.6-1.6-0.7-3.4-1.7-4.5-3 2.8-1.2 4.9-2.1 7.3-4.3-0.5-0.1-2.8-0.4-3.2-0.7 3.3-2 9.7-9.6 9.9-10.8 0.9 4.2 3.1 8.2 6.1 11.7-1-0.1-3.2 0.4-4.1 0.1 0.5 2.4 3.1 5 5.7 7.7-1.3 0.3-5.2 0.2-6.5 0.3 1.1 1.4 3.3 4.3 5 5.2-0.2-0.1-11.6 3.9-20.9-2.6z"/>
					<path id="&lt;Path&gt;" class="s11" d="m10.8 52.1q0 0 0-0.1c-0.6-1.2-0.9-2.6-0.9-3.9 0-0.1 0.1-0.1 0.2 0q0.3 1.7 0.9 3.3 0.7-1.9 1.2-3.9 0.1-0.3 0.2-0.6c-0.9-1.2-1.2-2.6-1-4 0 0 0.1 0 0.1 0 0.1 1.3 0.4 2.4 1 3.5 0.2-1.2 0.3-2.4 0.5-3.6 0.1-0.1 0.3 0 0.3 0.1q0 0.3-0.1 0.7 0.1 0 0.1 0.1c0.1 1.5-0.1 3.2-0.3 4.7q0.4-0.6 0.7-1.2c0.5-1.1 0.9-2.2 1.4-3.3 0 0 0.1 0 0.1 0.1-0.4 1.8-1.2 3.8-2.3 5.4q-0.3 2.6-0.8 5.2-0.6 2.8-1.4 5.6 0 0 0 0c-1.3 0.2-2.4 0.1-3.2-0.1 0.3-1.2 1-2.4 1.5-3.6q0.9-2.2 1.8-4.4z"/>
					<path id="&lt;Path&gt;" class="s12" d="m15.2 44c-0.4 1.8-1.2 3.8-2.3 5.4q-0.3 2.6-0.8 5.2-0.6 2.8-1.4 5.6 0 0 0 0-1.3 0.1-2.2 0c2.9-5.5 4.5-11.5 4.6-17.4q0.1 0 0.2 0.1 0 0.3-0.1 0.7 0.1 0 0.1 0.1c0.1 1.5-0.1 3.2-0.3 4.7q0.4-0.6 0.7-1.2c0.5-1.1 0.9-2.2 1.4-3.3 0 0 0.1 0 0.1 0.1z"/>
				</g>
				<g id="&lt;Group&gt;">
					<path id="&lt;Path&gt;" class="s7" d="m35.6 19.7q0.9 2.1 6.2 7.3l-2.4 0.1q1.3 1.8 6.6 5.1l-3.9 0.3q0.9 1.3 3.9 3.2l-20.6 1.1 6.5-3.7-5.1-0.3 6-5.5h-2.3z"/>
					<path id="&lt;Path&gt;" class="s11" d="m35.8 29.4l0.6-2.6 0.5 5.2 2.5-0.9-2.5 1.7 1.2 8h-4.2q1.3-2.6 1.6-10.7l-1.5-2.1z"/>
					<path id="&lt;Path&gt;" class="s12" d="m38.1 40.8h-1.6q0.4-2.2 0.1-4.5c-0.8-3.1-0.3-6-0.3-9l0.1-0.5 0.5 5.2 2.5-0.9-2.5 1.7z"/>
				</g>
				<g id="&lt;Group&gt;">
					<path id="&lt;Path&gt;" class="s13" d="m68.1 41.3c-1.5-0.7-1.6-2.3-1.3-3.6 0.3-1.5 1.4-2.9 3-3.4 1.6-0.6 3.7-0.1 4.5 1.3 0.3 0.7 0.3 1.5 0.1 2.2-0.2 1-0.6 2-1.4 2.8-1.2 1-3.4 1.4-4.9 0.7z"/>
					<path id="&lt;Path&gt;" class="s14" d="m57.5 41.2c-0.5-0.8-0.9-1.8-0.7-2.8 0.2-0.9 1.1-1.8 2.3-1.9q0.5 0 1 0.1c1 0.2 2 0.6 2.5 1.4 0.4 0.5 0.5 1.1 0.4 1.8-0.1 3.1-3.5 4.5-5.5 1.4z"/>
					<path id="&lt;Path&gt;" class="s13" d="m57.3 34.8c-1.5-1.8-1.9-4.1-1.2-6.2 0.2-0.5 0.5-1 0.9-1.5 0.7-0.8 1.9-1.2 3.1-1.3 1.2-0.2 2.4 0 3.5 0.2 2.7 0.6 5.3 1.8 6.4 3.9 0.8 1.6 0.5 3.5-0.6 4.9-3 3.9-9 3.6-12.1 0z"/>
					<path id="&lt;Path&gt;" class="s11" d="m66.3 38.6l3.8-2.1-3.5 4.6 0.5 13.2q-4.9 1.1-6.5-0.4l2.1-10.1-3.8-5.9 4.4 3.7 0.5-3-2.6-4.4 3.3 2.5v-3.5l2 0.7z"/>
					<path id="&lt;Path&gt;" class="s12" d="m67.1 54.3c-1.4 0.3-2.5 0.4-3.4 0.4 2.3-6.9 1.7-14.2 1.5-21.3l1.3 0.5-0.2 4.7 3.8-2.1-3.5 4.6z"/>
				</g>
				<path id="&lt;Path&gt;" class="s15" d="m284.6 0h163.4v42c-9.6-1.6-19.4-6.3-21.8-14.3-6.6 2.1-15-1.9-16.3-7.8-4 3.4-13.3 6.6-18.8 4.1-1.1 2.6-3.3 4.8-6.7 5.2-3.2 0.5-6.6-0.9-8.2-3.3-1 3.3-5.5 5.4-9.5 4.8-4-0.7-7.1-3.5-8.3-6.8-2.8 2.9-7.9 4-12 2.6-4-1.5-6.7-5.3-6.2-9-3 1.4-6.3 2.8-9.7 2.9-3.5 0-7.3-1.9-7.8-4.8-2.2 2.1-5.6 3.4-8.8 3-3.3-0.4-6.2-2.7-6.7-5.4-2.7 2.4-8.2 1.8-10.1-1.2-1-1.6-1-3.6-1.5-5.4-1.5-4.8-7-2.5-10-5.5q-0.6-0.6-1-1.1z"/>
				<path id="&lt;Path&gt;" class="s16" d="m448 78.3c-25-10.8-54.1-36.3-61.9-46.5q-9.5-12.3-54.6-29.5c9.4-1.9 30.5 6.7 38.5 10.4 8 3.7 25.5 13.5 24.8 11.1q-0.7-2.5-13.1-14.2l5.8-1.8q14.6 14.1 16 18.4c1.5 4.3 24.1 15.4 26.2 13.5q2.2-1.8-4.3-20.8l5.1 1.2q3.6 18.4 6.5 23.3c1.2 2.1 6 5 11 7.7z"/>
				<path id="&lt;Path&gt;" class="s16" d="m448 78.3c-25-10.8-54.1-36.3-61.9-46.5q-9.5-12.3-54.6-29.5c9.4-1.9 30.5 6.7 38.5 10.4 8 3.7 25.5 13.5 24.8 11.1q-0.7-2.5-13.1-14.2l5.8-1.8q14.6 14.1 16 18.4c1.5 4.3 24.1 15.4 26.2 13.5q2.2-1.8-4.3-20.8l5.1 1.2q3.6 18.4 6.5 23.3c1.2 2.1 6 5 11 7.7z"/>
				<path id="&lt;Path&gt;" class="s17" d="m373.2 7.8c-3.8-1.7-4.6-4.6-3.6-7.8q0 0 78.4 0v63c-6.6-1.1-12.8-3.4-17.5-7.4-0.5-0.4-4.7-3.6-3-4.4-1.8 0.8-4.3 0.6-5.9-0.6-1.6-1.2-2.2-3.2-1.5-4.9-2.2 0.8-4.8-0.7-5.2-2.7-0.4-1.9 1-3.9 3-5-1.3-0.8-1.2-2.7 0-3.6 1.2-0.9 3.1-1 4.5-0.4-1.3-2.1-1.2-4.8 0.4-6.8 1.6-2 4.5-3.2 7.3-3-1.9-1.3-3.9-2.6-5.1-4.4-1.3-1.8-1.7-4.2-0.4-6-4.6 1.5-10 1.1-14.2-1.2 0.4 2.8-1.3 5.8-4.2 7.2-1.5 0.7-3.5 1.3-5.2 1.4-1.6 0.1-3.3-0.9-4.7-0.1-2.1 1.2-5 0.9-7.4 0.2-2.7-0.8-5.5-2.7-5.1-5-2.8 1.2-6.6 0.8-8.9-1q-0.1-0.1-0.1-0.1c-2.3-1.9-2.9-5-1.6-7.4z"/>
				<path id="&lt;Path&gt;" class="s18" d="m448 78.3c-25-10.8-54.1-36.3-61.9-46.5q-9.5-12.3-54.6-29.5c1.6-0.3 3.6-0.4 5.8-0.1 9.4 3.2 20.9 7.4 28.4 10.5 14.5 6.2 27.6 20.9 50.2 38.7 9.8 7.7 21.7 13.9 32.1 18.5z"/>
				<g id="&lt;Group&gt;">
					<path id="&lt;Path&gt;" class="s19" d="m448 123.4c-22.1-11.3-80.7-31.2-215.4-29.1-148.3 2.4-212.6 26.1-232.6 35.7v-42.7q4.3 0.4 7.7 3 7.5-12.7 23.5-6.3 7.3-6.2 18.5 0 7-10.1 18.7-1.9 8.5-7.5 20.9-1.8 5.3-9.4 18.9-4.3 11.6-10.2 23.3-2.3 11.4-11.2 23.5-0.2 10.2-11.2 24.3-0.2 8.2-10.4 23-1.8 10.7-8.2 18.5 0.8 6.8-7.2 15.5-0.6 9.2-6.4 16-0.6 7.6-7 17.7 0.2 9.8-7 18 1.4 7.3-8.3 17.5-0.8 11.1-9.6 20.1 3.1 8.8-10.7 19.4-0.4 11.9-11.1 22.6 0.8 13.1-11.5 23.3 2.8 14.3-10.8 22.8 2.5 21.4-8.8 23.6 5.7c3.3-2.8 7.1-3.5 10.7-3.2z"/>
					<path id="&lt;Path&gt;" class="s20" d="m413.9 80.6q21.2-8.6 23.4 5.8 0.1-0.1 0.2-0.2l-8.8 29.2c-5.4-1.9-11.8-3.8-19.1-5.7z"/>
					<path id="&lt;Path&gt;" class="s20" d="m367.5 75.2q0.1 0.1 0.1 0.2c11.1-9.7 20.1-1 22.6 2l-2.1 27.5q-9.4-1.8-20.3-3.5z"/>
					<path id="&lt;Path&gt;" class="s20" d="m344.2 98.5q-8-0.8-16.8-1.6l-1.5-22.3q8.7-10 19.1 0 0.3-0.3 0.6-0.5z"/>
					<path id="&lt;Path&gt;" class="s20" d="m306.1 71.4l0.9 24.2q-8.1-0.5-16.7-0.8l-2.2-22.2q7.3-8.2 17.4-0.7 0.3-0.3 0.6-0.5z"/>
					<path id="&lt;Path&gt;" class="s20" d="m269.9 71.2l1.9 23.1q-8.5-0.1-17.5-0.1l-2.1-23.2q0.1 0 0.1 0.1c7.3-6.8 17-0.3 17.6 0.1z"/>
					<path id="&lt;Path&gt;" class="s20" d="m236.3 71.6l0.4 22.7q-2 0-4.1 0-3.8 0.1-7.6 0.2l-4.6-22.6q0.2 0.2 0.4 0.4c6.4-6.8 14.7-1.2 15.5-0.7z"/>
					<path id="&lt;Path&gt;" class="s20" d="m203 71l0.2 24.1q-11 0.4-21.3 1l-3-23.1q0.2 0.2 0.4 0.3 8.2-10.4 23-1.8 0.4-0.3 0.7-0.5z"/>
					<path id="&lt;Path&gt;" class="s20" d="m154.2 72.9l1.4 25q-11.7 0.9-22.3 2l-2.4-26.5q0.4 0.2 0.6 0.3c9.6-9.5 19.8-3 22.7-0.8z"/>
					<path id="&lt;Path&gt;" class="s20" d="m109.3 75.1l4.8 27q-10.3 1.3-19.6 2.8l-5.7-24.8q0.3 0.1 0.5 0.2 5.3-9.4 18.9-4.3 0.5-0.5 1.1-0.9z"/>
					<path id="&lt;Path&gt;" class="s20" d="m67.6 81.6l3.7 27.3q-8.4 1.6-15.8 3.3l-5.9-28.3q0.1 0.1 0.1 0.1c5.9-8.5 15.2-4 17.9-2.4z"/>
					<path id="&lt;Path&gt;" class="s20" d="m31.5 83.8l6.5 32.7c-8.3 2.3-15.3 4.6-21.2 6.6l-9.1-32.8q7.6-12.7 23.5-6.3 0.2-0.1 0.3-0.2z"/>
				</g>
				<g id="&lt;Group&gt;">
					<path id="&lt;Path&gt;" class="s21" d="m95.3 72.6q-6.4 1.4-10.6 2.1 4.5-0.5 10.6-2.1z"/>
					<path id="&lt;Path&gt;" class="s22" d="m126.1 53.3c4.1-7.1-2.4-11.4-11.6-14.1 15.7 1 31.6 3 46.9 6.2-8.3 13.2-47.1 23-66.1 27.2 10-2.7 24.5-8.3 30.8-19.3z"/>
				</g>
				<path id="&lt;Path&gt;" class="s22" d="m319.8 63.1c12.8-12.5 7.2-20.7-0.9-25.7 8.1 1.4 16.2 3.3 24.1 5.7q-4.8 10-23.2 20z"/>
				<path id="&lt;Path&gt;" class="s23" d="m120.3 15.2q8-6.2 12.4 1.2-0.7-7.4 12.4-10.4 13.1-3.1 18.9 9.2 16 0 12.4 6.1-3.7 6.2-80.1 3.1 4.4-10.5 24-9.2z"/>
				<g id="&lt;Group&gt;">
					<path id="&lt;Path&gt;" class="s24" d="m116.4 22.7q0.4-0.1 0.8-0.1-0.4-0.1-0.8 0.1z"/>
				</g>
				<path id="&lt;Path&gt;" class="s23" d="m30 10.6q-1.1-5.6 6.6-7.1 7.6-1.5 6.5 6.8 4.8-1.6 4.4 1.8c-0.4 3.4-29.5 3.4-32.4 0.9q-2.9-2.4 2.6-3 7.6-6.5 12.3 0.6z"/>
				<path id="&lt;Path&gt;" class="s23" d="m297.6 26.8q-34.2 2.8-36.4 1-2.2-1.9 4-3.1-5.1-7.4 2.9-9.2 8-1.9 11.3 2.7 3.6-5.8 7.6-2.1 4 3.7 1.9 7.7 8-4.6 8.7 3z"/>
				<path id="&lt;Path&gt;" class="s13" d="m90.5 43c-2.6-0.6-5-2.3-5.6-4.6-2.2-0.1-4.2-1.4-5.3-3-1.1-1.7-1.4-3.6-1.4-5.4 0-0.6 0-1.3 0.5-1.8 0.4-0.4 1.4-0.5 1.8 0-0.5-4.1 1.2-8.3 4.5-11.3 1.4-1.4 3.3-2.5 5.3-2.9 2.1-0.3 4.5 0.2 5.9 1.6 0.4-1.4 2.5-2 4.2-1.7 3.1 0.5 5.3 3.2 5.9 5.8 0.5 2.7-0.2 5.4-1 8.1 0.8-0.5 2-0.2 2.6 0.5 0.5 0.7 0.6 1.6 0.4 2.4-0.3 1.7-1.2 3.3-2.6 4.5 0.4-0.4 1.2-0.6 1.9-0.4 0.7 0.2-1.4 3.6-1.7 3.9-1 1.3-2.5 2.2-4.2 2.8-3.4 1.2-7.5 2.3-11.2 1.5z"/>
				<path id="&lt;Path&gt;" class="s11" d="m94.9 53.1q-5 3.3-10.9 0.2 8.2-11-0.2-20.3l6.3 6.8q1.1-4 0.6-13.6 1.3 0.9 3.2 8.4 1.5-2.9 4.8-6.1-2 2.9-4.4 10.9 2.7-3.6 9.4-7.2-13.7 11.3-8.8 20.9z"/>
				<path id="&lt;Path&gt;" class="s12" d="m94.9 53.1c-1.7 1.1-3.4 1.5-5.1 1.5 3.6-8.4 3.2-17.9 1-26.7q0-1.1-0.1-1.7 1.3 0.9 3.2 8.4 1.5-2.9 4.8-6.1-2 2.9-4.4 10.9 2.7-3.6 9.4-7.2-13.7 11.3-8.8 20.9z"/>
				<path id="&lt;Path&gt;" class="s7" d="m67.3 61q3.8 0.1 3.1 1.1-0.6 1-8 1.5 1.3 0.5-0.6 1.3c-2 0.9-12.5-0.2-13-1.3q-0.5-1.1 3.4-0.8-1.4-0.9-0.4-1.9 1.1-1 2.2 0.5-0.1-2.1 0.8-3.3 0.9-1.2 1.6 1.1 0.3-4.3 2.9-4.6 2.6-0.4 2.9 3.1 0.1-1.3 1.9-0.9 1.9 0.3 1.9 3.5 1.4-0.8 1.3 0.7z"/>
				<path id="&lt;Path&gt;" class="s7" d="m20.7 70.8q2.1 0.3 0.7 1.1c-1.5 0.8-10.9 2.3-11.2 1.8q-0.2-0.6 0.3-0.9-5.9 0.9-6.3 0-0.4-0.9 1.2-1-2-1.2-1.7-2.6 0.2-1.3 1.9-0.5 0.3-5.5 2.4-5.3 2.1 0.2 3.4 3 0.5-6 2.1-5.3 1.6 0.6 3.4 5.3 1.3-2.7 2.4-1.8 1 0.9-0.3 4.4 1.6-3.2 2.5-2 0.9 1.3-0.8 3.8z"/>
				<path id="&lt;Path&gt;" class="s7" d="m101 53.7q-0.4-0.6 0-1.3 0.4-0.7 2 0.8-0.7-2.5 0.2-3.1 1-0.7 2.8 1.6-0.1-0.6 0.4-1.5 0.5-0.9 1 0.9 0.2-2.5 1.6-3.3 1.4-0.9 1.2 2.9 0.5-1.6 1.6-0.9 1 0.6 1 1.6 0.4 1-3.1 2.2-3.6 1.2-10.5 1 0-0.9 1.8-0.9z"/>
				<path id="&lt;Path&gt;" class="s7" d="m41.7 42.1q-0.4-0.6 0.2-1 0.7-0.3 1.4 0.8 0.1-1.9 1.3-2.1 1.1-0.2 1.3 2.1 0.2-1.4 1.3-1.3c1 0.1 1.6 1.4 2.3 1.3q0.9-0.1 0.4 1.3-6.4-1.3-12.7 0.4 1.7-1.9 4.5-1.5z"/>
				<path id="&lt;Path&gt;" class="s7" d="m74.8 42.6q0.7-0.3 2 0.9-0.1-0.6 0.5-0.9 0.7-0.4 1.1 0.9 0.1-1.2 1.1-1.5 1.1-0.3 2 1.6 0.5-1.1 1.4 1.7-4-1.4-10.6-1.6 1.9-0.9 2.5-1.1z"/>
				<path id="&lt;Path&gt;" class="s7" d="m90.6 60.9c-0.3 0.4-0.9 0.6-1.5 0.5-0.3 0-0.4-0.3-0.1-0.4 0.3-0.2 0.5-0.5 0.6-0.8q-0.7 0.3-1.3 0.8c-0.2 0.1-0.6 0-0.5-0.2q0-0.6-0.1-1.1c-0.6 0.5-1.1 1.1-1.8 1.6-0.1 0.1-0.3 0-0.2-0.1 0.6-0.8 1.2-1.5 1.9-2.2 0.1-0.1 0.4-0.1 0.5 0.1q0.2 0.6 0.3 1.2 0.6-0.4 1.3-0.7c0.2 0 0.4 0.1 0.4 0.2q0.1 0.6-0.2 1 0.2 0 0.5-0.1c0.2-0.1 0.3 0.1 0.2 0.2z"/>
				<path id="&lt;Path&gt;" class="s7" d="m76.8 52.4c-0.4-0.4-0.9-0.7-1.3-1.1q0.1 0.5 0.2 0.9c0.1 0.1-0.2 0.3-0.3 0.2q-0.7-0.3-1.5-0.4c0.2 0.3 0.5 0.6 0.4 0.9-0.1 0.3-0.4 0.4-0.6 0.4q0.1 0 0.1 0.1c0.1 0.1-0.1 0.2-0.2 0.2-0.2-0.1-0.4-0.3-0.6-0.4-0.2-0.2 0-0.4 0.2-0.3q0.5 0.2 0.4-0.2 0.2-0.2 0-0.3c-0.1-0.2-0.3-0.3-0.4-0.4-0.1-0.2 0-0.3 0.2-0.3q0.9-0.1 1.8 0.2-0.1-0.5-0.2-0.9c-0.1-0.1 0.1-0.3 0.3-0.2 0.6 0.4 1.3 0.9 1.7 1.5 0.1 0.1-0.1 0.2-0.2 0.1z"/>
				<path id="&lt;Path&gt;" class="s7" d="m40.1 53c-0.8 0.2-1.6 0.3-2.5 0.3-0.1 0.1-0.2 0-0.2-0.1q0-0.3 0.1-0.4-0.7 0.2-1.3 0.6c-0.1 0.1-0.3 0-0.3-0.1q0-0.4 0-0.7c-0.2 0.3-0.5 0.5-1 0.7q0 0 0 0c0.6-0.3 0.9-0.7 1.1-1.3 0-0.1 0.3-0.1 0.3 0.1q0 0.4 0 0.9 0.7-0.5 1.6-0.8c0.2 0 0.4 0.2 0.3 0.3q-0.1 0.2-0.2 0.4c0.7-0.1 1.4-0.2 2.1-0.1 0.1 0 0.1 0.2 0 0.2z"/>
				<path id="&lt;Path&gt;" class="s7" d="m29.9 45c-0.6 0-1-0.3-1.3-0.6q-0.1 0.2 0 0.4c0 0.1-0.2 0.2-0.3 0.2q-0.3-0.1-0.6-0.2 0 0.1 0.1 0.2c0 0.1-0.1 0.2-0.2 0.2-0.4 0-0.9 0-1.3 0-0.2 0-0.2-0.2 0-0.2q0.5-0.1 1-0.1-0.1-0.2-0.3-0.3c0-0.2 0.1-0.4 0.3-0.3l0.8 0.2q0-0.3 0.1-0.6c0.1-0.1 0.3-0.2 0.4-0.1 0.4 0.4 1 0.7 1.3 1.1 0 0.1 0 0.1 0 0.1z"/>
				<path id="&lt;Path&gt;" class="s7" d="m8.4 79.6c-0.8 0.1-1.6 0.1-2.4 0.2-0.2 0-0.2-0.1-0.2-0.2 0.2-0.3 0.3-0.5 0.3-0.7q-0.4 0.1-0.9 0.4c-0.1 0.1-0.4 0-0.3-0.2q0.3-0.5 0.4-1.1-1.1 0.8-1.9 1.8c0 0.1-0.1 0-0.1 0 0.6-0.9 1.2-1.7 2.1-2.4 0.1-0.1 0.3 0 0.3 0.2q0 0.6-0.2 1.2 0.4-0.2 0.8-0.3c0.2 0 0.3 0.1 0.3 0.2q-0.1 0.4-0.3 0.8 1-0.1 2.1-0.1c0.1 0 0.2 0.2 0 0.2z"/>
				<path id="&lt;Path&gt;" class="s7" d="m63.8 72.7c-0.2 0.4-0.4 0.7-0.8 1 0 0-0.1-0.1-0.1-0.1 0.1-0.3 0.3-0.5 0.4-0.8q-0.6 0-1.2 0.2c-0.1 0.1-0.3 0-0.3-0.1q0.1-0.7 0.2-1.4-0.9 0.5-1.4 1.4c0 0.1-0.1 0.2-0.3 0.1q-0.5-0.2-0.8-0.6 0 0.6 0.4 1.2c0.1 0.1-0.1 0.2-0.2 0.1-0.5-0.6-0.7-1.1-0.6-1.8 0-0.1 0.3-0.2 0.4-0.1 0.2 0.4 0.5 0.6 0.9 0.8q0.5-1 1.8-1.6c0.1-0.1 0.3 0 0.3 0.1q-0.1 0.8-0.2 1.5 0.6-0.2 1.3-0.2c0.1 0 0.2 0.2 0.2 0.3z"/>
				<path id="&lt;Path&gt;" class="s7" d="m121 45.3c-0.4-0.1-0.8-0.3-1-0.6q-0.1 0-0.1 0 0 0 0 0c0.1 0.3 0 0.6 0 1q0 0.1-0.1 0.1-0.6 0-1.2 0 0.4 0.3 0.7 0.6c0.1 0.1 0.1 0.2-0.1 0.3q-0.5 0-1 0.1 0.7 0 1.3 0.2c0.1 0 0.1 0.1 0 0.1-0.7-0.1-1.4-0.1-2.1-0.1-0.1 0-0.1-0.1 0-0.2q0.7-0.3 1.5-0.4-0.4-0.4-0.8-0.7c-0.1-0.1 0-0.3 0.2-0.2 0.4 0 1.3 0.3 1.4-0.2 0.1-0.3 0-0.6 0.1-0.9q0-0.1 0.1-0.1c0.3 0.4 0.7 0.7 1.2 0.9 0.1 0 0 0.2-0.1 0.1z"/>
				<path id="&lt;Path&gt;" class="s7" d="m177.1 57.7c-0.5 0.6-0.7 1.3-1 2-0.1 0.2-0.3 0.1-0.3 0 0-0.7 0.2-1.3 0.6-1.8q-1.1 0.3-2 0.9c-0.2 0.1-0.4 0.1-0.4-0.1q0-0.7-0.1-1.5-1 0.7-1 1.8c0 0.2-0.2 0.3-0.4 0.1q-0.7-0.6-1.4-1.2c0.1 0.6 0 1.3-0.3 1.9-0.1 0.1-0.2 0-0.2-0.1 0.2-0.8 0.2-1.5-0.1-2.3-0.1-0.2 0.2-0.3 0.3-0.2q0.9 0.7 1.7 1.4c0.1-0.8 0.7-1.4 1.5-1.8 0.2-0.1 0.3 0 0.3 0.1q0.1 0.7 0.1 1.5c0.8-0.5 1.6-0.8 2.5-1 0.1 0 0.3 0.1 0.2 0.3z"/>
				<path id="&lt;Path&gt;" class="s7" d="m241.1 41.6c-1.2-0.1-2.2-0.8-2.8-1.6q-0.1 0.5-0.2 0.9c0 0.2-0.1 0.3-0.3 0.3q-1 0-2.1 0.1 0.4 0.3 0.6 0.7c0.1 0.1 0.1 0.3-0.1 0.4q-0.6 0-1.2 0.1 1.1 0.4 2.2 0.5c0.2 0.1 0.1 0.3 0 0.3-1.2 0.1-2.2-0.2-3.3-0.6-0.2-0.1-0.2-0.5 0.1-0.5q0.8-0.2 1.6-0.3c-0.2-0.2-0.5-0.5-0.9-0.6-0.2-0.2-0.1-0.5 0.2-0.5q1.3-0.1 2.6-0.1 0.1-0.8 0.2-1.6c0.1-0.3 0.5-0.4 0.7-0.1 0.5 1.2 1.6 1.8 2.8 2.3 0.2 0 0.1 0.3-0.1 0.3z"/>
				<path id="&lt;Path&gt;" class="s7" d="m280.9 47.6c-1.1 0.8-2.1 1.6-3.2 2.4-0.1 0-0.3-0.1-0.2-0.2 0.9-0.7 1.8-1.5 2.7-2.2q-1.3 0-2.5 0c-0.2 0-0.4-0.2-0.2-0.4q1.1-0.8 1.8-1.9c-1.4 0.2-2.5 0.8-3.3 1.8-0.1 0.2-0.4 0.2-0.5 0q-0.3-0.9-0.5-1.8c-0.5 0.9-1.1 1.7-1.8 2.4-0.1 0.1-0.3-0.1-0.3-0.2 0.7-1 1.4-1.9 1.9-3 0.1-0.2 0.4-0.2 0.5 0q0.3 1 0.6 2c0.9-1 2.3-1.6 3.8-1.7 0.2 0 0.3 0.2 0.2 0.3q-0.6 1.2-1.6 2.1 1.2 0 2.4 0.1c0.2 0 0.3 0.2 0.2 0.3z"/>
				<path id="&lt;Path&gt;" class="s7" d="m257.2 60.3c0 0.2-0.2 0.2-0.2 0.1-0.3-0.6-0.5-1.2-0.6-1.9q-1.1 0.7-2.2 1.3c-0.2 0-0.4 0-0.4-0.2-0.2-0.6-0.7-1.1-1.4-1.2 0 0.8 0 1.6-0.5 2.3-0.1 0-0.1 0-0.1 0-0.1-0.9 0.1-1.8 0.1-2.6-0.1-0.2 0.1-0.3 0.3-0.2 0.9 0.1 1.6 0.6 2 1.3q1.1-0.6 2.2-1.2c0.2-0.1 0.4 0 0.4 0.1 0.2 0.8 0.4 1.5 0.4 2.2z"/>
				<path id="&lt;Path&gt;" class="s7" d="m356.8 52.7c-0.1 1.4-0.9 2.8-2.4 3.4-0.2 0-0.2-0.1-0.2-0.2 1.1-0.9 1.9-1.7 2-2.8-0.4 0.1-0.9 0.2-1.4 0.1-0.2 0-0.3-0.1-0.3-0.2q0.5-1.1 0.9-2.1c-0.9 0.3-1.3 0.8-1.8 1.5-0.2 0.2-0.4 0.4-0.8 0.4-1.1 0.1-0.8-1.2-1.2-1.8-0.2 1.2-0.7 2.3-1.6 3.3-0.1 0.1-0.3 0.1-0.2 0 0.6-1.3 1.2-2.5 1.4-3.9 0-0.1 0.3-0.1 0.4-0.1 0.3 0.1 0.5 0.3 0.6 0.6 0.2 0.4 0.2 1.8 1 1.1 0.4-0.3 0.5-0.7 1-1 0.4-0.3 1-0.5 1.5-0.6 0.2 0 0.4 0.1 0.4 0.3q-0.5 1-1 2.1c0.5 0 0.8-0.1 1.3-0.3 0.1 0 0.4 0 0.4 0.2z"/>
				<path id="&lt;Path&gt;" class="s7" d="m388.6 48.5c-1.6-0.1-3.1-0.6-4.4-1.5q-0.1 1.2 0.7 2.3c0.1 0.2-0.1 0.4-0.3 0.3q-1.1-0.3-2.2-0.4c0.5 0.5 1 0.8 1.6 1.3 0.1 0.1-0.1 0.3-0.3 0.2-0.8-0.3-1.5-0.9-2.1-1.6-0.1-0.1 0-0.3 0.2-0.3q1.2 0 2.3 0.2-0.7-1.2-0.4-2.5c0-0.2 0.3-0.3 0.5-0.2 1.4 0.9 2.8 1.4 4.5 1.8 0.2 0.1 0.2 0.4-0.1 0.4z"/>
				<path id="&lt;Path&gt;" class="s7" d="m405.5 68.5c-0.6 0.8-0.7 1.5-1.1 2.3 0 0.2-0.3 0.1-0.3 0-0.1-0.6 0.1-1.2 0.4-1.8q-1.1 0.5-2.3 0.7c-0.2 0.1-0.4-0.1-0.3-0.2q0.3-0.8 0.6-1.5c-2 0-3.4 1.2-3.9 2.8 0 0.1-0.2 0.1-0.2 0 0.1-2 2.3-3.4 4.5-3.3 0.1 0 0.3 0.2 0.2 0.3q-0.3 0.7-0.5 1.4 1.3-0.4 2.5-1c0.2-0.1 0.5 0.1 0.4 0.3z"/>
				<path id="&lt;Path&gt;" class="s7" d="m351.1 66.8c-0.6-0.9-1.5-1.5-2.7-1.6q0.7 0.8 0.7 1.8c0.1 0.2-0.1 0.3-0.3 0.3q-1.1-0.3-2.2-0.3c0.6 0.4 1.2 0.9 1.4 1.6 0 0.1-0.2 0.2-0.3 0.1-0.6-0.6-1.1-1.2-1.9-1.7-0.2-0.1-0.1-0.4 0.1-0.4q1.4-0.1 2.7 0.2-0.2-1-0.9-1.7c-0.1-0.2 0.1-0.4 0.3-0.4 1.5 0 3 0.7 3.4 2 0 0.1-0.2 0.2-0.3 0.1z"/>
				<path id="&lt;Path&gt;" class="s7" d="m318.9 44.9c-0.9 0.7-1.7 1.3-2.7 2-0.1 0-0.2-0.1-0.1-0.2q1-0.9 2.1-1.8-1 0-1.9-0.4c-0.1-0.1-0.1-0.3 0-0.3q0.8-0.4 1.3-1.1-1.7 0.4-3 1.3c-0.2 0.1-0.4 0.1-0.5-0.1q0-0.6-0.3-1.1c-0.3 0.6-1.2 1-2 0.6-0.2-0.1-0.1-0.3 0.1-0.3 0.7 0.2 1.7-0.3 1.5-1.1-0.1-0.2 0.3-0.3 0.5-0.1q0.5 0.7 0.7 1.6 1.5-1 3.4-1.2c0.2-0.1 0.3 0.1 0.2 0.3q-0.4 0.8-1.3 1.3c0.6 0.2 1.2 0.2 1.9 0.2 0.2 0 0.3 0.3 0.1 0.4z"/>
			</g>
			<g id="&lt;Group&gt;">
				<g id="&lt;Group&gt;">
					<path id="&lt;Path&gt;" class="s25" d="m59.4 87.5c0.2 10.5-9.9 19-22.3 18.8-11.6-0.2-21.2-8.2-21.4-18.1-0.2-10.4 9.9-19 22.3-18.8 11.7 0.2 21.2 8.3 21.4 18.1z"/>
				</g>
				<g id="&lt;Group&gt;">
					<path id="&lt;Path&gt;" class="s26" d="m59.4 87.9c0 10.1-9.8 18.4-21.8 18.4-7 0-13.1-2.7-17.1-7 3.7 2.5 8.4 4 13.5 4 12.1 0 21.9-8.2 21.9-18.4 0-4.3-1.8-8.3-4.8-11.5 5.1 3.4 8.3 8.6 8.3 14.5z"/>
				</g>
				<g id="&lt;Group&gt;">
					<g id="&lt;Group&gt;">
						<path id="&lt;Compound Path&gt;" fill-rule="evenodd" class="s27" d="m49.3 92.2l-7.9 4.9h0.1c0 0.1-3 4.9-4.8 6.6l-0.2-0.1c1.9-1.7 4.8-6.5 4.8-6.6l0.1 0.1-6.4-5-6.6 0.1-3.9 6.1h-0.1c0.6 1.4 2.1 4.1 4.3 5.2l-0.1 0.1c-2.3-1-3.9-3.9-4.5-5.3h-4.5c-2.5-3-3.9-6.6-3.9-10.4q0-0.2 0-0.3l7.2-2.4c0-2 0.8-4.3 1.2-5.4l-3.7-3.4c2.8-2.9 6.6-5.1 10.9-6.2l4.7 1.8c2.5-0.1 5.2 0.1 6.9 0.2l1.6-1.8c5 1.4 9.2 4.3 11.9 8.1l-7.8 1.3c0 1.2-0.1 3.4-0.5 5.2l1.3 7 6.5-0.4v0.2zm-15.4-13.2l4 3.5 10.1 2c0.3-1.7 0.4-3.6 0.4-4.7h-0.1l-5.3-7.4c-1.7-0.2-4.4-0.3-6.9-0.2zm-5.4 12.9l6.4-0.1 2.6-9.3-3.9-3.5-9.3 0.8c-0.4 1.1-1.2 3.4-1.2 5.5z"/>
					</g>
				</g>
				<g id="&lt;Group&gt;">
					<path id="&lt;Path&gt;" class="s28" d="m59.4 88.2c-0.1 2.7-0.8 5.4-2.2 7.7l-3.1-4.3z"/>
				</g>
				<g id="&lt;Group&gt;">
					<path id="&lt;Path&gt;" class="s28" d="m37.6 102.4l3 3.7q-1.5 0.2-3 0.2c-4.4 0-8.4-1.1-11.8-2.9l0.8-1.4z"/>
				</g>
			</g>
			<g id="&lt;Group&gt;">
				<g id="&lt;Group&gt;">
					<path id="&lt;Path&gt;" class="s29" d="m88.8 69.9l-3.8 6.4q-7.3-3.6-6.1-10.2z"/>
				</g>
				<path id="&lt;Path&gt;" class="s30" d="m133.3 141.1q-15.5 30.7 7.9 35l-0.7 4.5q-28.7 0.6-28.9-23.7-20.9 2.2-16.8 19.6l-6.3-0.2q-11.4-20.9 8.3-24.3z"/>
				<path id="&lt;Path&gt;" class="s31" d="m95.4 152.4q0.9-0.3 1.4-0.4l36.5-10.9q-15.5 30.7 7.9 35l-0.6 3.8c-4.4-1.3-8.3-3.3-11.4-6.2-7.1-7.1-10-16.2-5.7-25.1-8.8 3-18.7 4.9-28.1 3.8z"/>
				<path id="&lt;Path&gt;" class="s32" d="m92.8 127.8q-10.8 14.7-24.9 13.4l-1.5-4.9q17.5-4.9 24.8-22 4.7 0.5 1.6 13.5z"/>
				<path id="&lt;Path&gt;" class="s33" d="m92.8 127.8q-10.8 14.7-24.9 13.4l-0.2-0.6c6.2-1.8 12-4.5 15.8-9.3 2.1-2.9 3.9-6.3 3.3-9.7q3-4.1 4.4-7.3 4.7 0.5 1.6 13.5z"/>
				<path id="&lt;Path&gt;" class="s34" d="m56.6 143.3q-1.1-0.5 1.3-2.4-0.1-4.7 1.1-5.3 1.3-0.6 7.4 0.7l1.5 4.9c-4.1 3.6-10.2 2.5-11.3 2.1z"/>
				<path id="&lt;Path&gt;" class="s35" d="m67.9 141.2c-0.8 0.7-1.7 1.2-2.6 1.6 0.6-2.6-0.6-5.6-3-7.2q2 0.2 4.1 0.7z"/>
				<path id="&lt;Path&gt;" class="s36" d="m113.3 111.5q0.8 9.6 20 29.6-15.3 10-36.5 10.9-12.4-14.9-4.8-37.2 8.2 2.1 21.3-3.3z"/>
				<path id="&lt;Path&gt;" class="s37" d="m133.3 141.1c-2.1 1.4-4.4 2.6-6.7 3.7l-13.1-18.9q-7.1-1.8-8-7c-4.3 1.9-10.9 1.8-14.9 1.4q0.7-3.3 1.4-5.5 8.2 2.1 21.3-3.3 0.8 9.6 20 29.6z"/>
				<path id="&lt;Path&gt;" class="s34" d="m133.7 104.5q-4.8 4-11.4 1-8 7.1-19.6 9.5l-1.6 2-1.7-1.5c-4.8 0.6-10.1 0.3-15.7-1.6q-21.1-7.3-11.8-21.2l13.8-23.6c10.8-4.6 41.9-2 48.4 8.3q6.6 10.4-0.6 18.6c2.1 1 4.9 4.4 0.2 8.5z"/>
				<path id="&lt;Path&gt;" class="s35" d="m133.7 104.5q-4.8 4-11.4 1-8 7.1-19.6 9.5l-1.6 2-1.7-1.5q-1.4 0.2-2.9 0.3c4.2-1.5 8.2-3.4 11.9-5.8 6.7-4 11.3-11.7 7.7-18.3-1-1.8-3.4-3.1-5.8-3.3 0.7-1.4 4.6-0.4 3.4-1.2-3.6-2.4-9.1-2.8-13.7-4.4 1.7-0.8 4.3-0.6 5.1-2.2-7.5 0.2-15.1-1.2-20.4-5.9 1.7-0.4 3.1-1 4.6-1.4-1.8-0.4-3.1-1.5-4.7-2.3l1.1-1.9c10.8-4.6 41.9-2 48.4 8.3q6.6 10.4-0.6 18.6c2.1 1 4.9 4.4 0.2 8.5z"/>
				<path id="&lt;Path&gt;" class="s38" d="m120.6 100q4.3-7.3-4.3-11l4.3-1.8q-10.2-2.5-12.7-5.3l6.5-1.9q-17.5-0.5-24.4-5.1l5.7-1.5q-13-2.7-18.5-8 17.9-3.1 31.7-2.4l-5.8-3q24.6-3.1 30.6 9.5l0.7-3.6q5.3 5.6 4.1 10.9 7.9 3.3 8.1 9.6l-5-0.8q1.9 8-5.9 12.2-5.2-4.5-11.5 0.6z"/>
				<path id="&lt;Path&gt;" class="s39" d="m141.6 85.6q1.9 8-5.9 12.2-5.2-4.5-11.5 0.6l-3.6 1.6q4.3-7.3-4.3-11l4.3-1.8q-2.8-0.7-5.8-1.7c3.7-1.1 7.4-2.5 10.8-4.1q-1 0-2.1-0.6c-5.3-2.5-10.3-4.7-15.8-6.5 5.5 0.6 10.8 0.6 16.3 0-2.2-0.6-3.6-1.8-5.3-2.6-3.1-1.6-6-3.4-9.3-4.1 5.7-0.2 11.5-0.8 17.2 0-0.7-1.8-2.4-3-4.1-4.2-1.2-1-2.3-2-3.5-2.9 6.1 1.1 12.1 3.6 14.7 9l0.7-3.6q5.3 5.6 4.1 10.9 7.9 3.3 8.1 9.6z"/>
				<path id="&lt;Path&gt;" class="s34" d="m152.2 125.4q8.5 2.7 6.1 6.8 0.2 2.9-2.4 2.8 0.3 1.8-2 1.9-2.3 0.1-3.5-2-1.8 0.6-2.9-0.3-1.1-1 1-4.9 2.4-1.1 3.7-4.3z"/>
				<path id="&lt;Path&gt;" class="s35" d="m158.3 132.2q0.2 2.9-2.4 2.8 0.2 1.1-0.9 1.7c0.2-3.4-1-6.9-4.1-9.1q0.9-1.1 1.3-2.2 8.5 2.7 6.1 6.8z"/>
				<path id="&lt;Path&gt;" class="s32" d="m152.2 125.4q-0.7 3.6-3.7 4.3c-14.8-8.4-33.4-1.8-38.4-8.2q-5-6.4 3.7-10.2 24.2 1.6 38.4 14.1z"/>
				<path id="&lt;Path&gt;" class="s40" d="m94.8 176.5q2.5 1.7 0.4 2.5-2 0.7 0 0.3l-12.9 0.8q-1.3-0.1-0.4-1.3 0.9-1.2 6.6-2.5z"/>
				<path id="&lt;Path&gt;" class="s41" d="m95.2 179.3h-0.7q-0.6 0.3 0.7 0z"/>
				<path id="&lt;Path&gt;" class="s41" d="m93.4 179.4q-0.9-1.5-1.5-3l2.9 0.1q2.5 1.7 0.4 2.5-0.6 0.2-0.7 0.3z"/>
				<path id="&lt;Path&gt;" class="s40" d="m141.2 176.1q2.3-0.7 3-0.2c0.7 0.5 1.4 10.7-1 10.3q-2.3-0.5-2.7-5.6z"/>
				<path id="&lt;Path&gt;" class="s41" d="m144.5 184.8c-1.1-1.7-2.5-3.4-3.9-4.9l0.6-3.8q2.3-0.7 3-0.2c0.5 0.4 1 6.2 0.3 8.9z"/>
				<path id="&lt;Path&gt;" class="s33" d="m152.2 125.4c-0.3 1.7-1.2 2.8-2.1 3.4-4.4-3.2-13.6-9.2-24.7-11.9-7.9-2-13.4-1.2-16.8 0q0.6-3.6 5.2-5.6 24.2 1.6 38.4 14.1z"/>
				<path id="&lt;Path&gt;" class="s31" d="m111.6 156.9q-20.9 2.2-16.8 19.6l-3-0.1c-1-3.7-1.8-9.3 0.8-13.7q4.3-7.3 19-5.8z"/>
				<path id="&lt;Path&gt;" class="s28" d="m103.4 93.1c-0.6 1.5-1.8 2.6-2.6 2.4-0.9-0.2-1.1-1.7-0.5-3.2 0.5-1.6 1.7-2.6 2.5-2.4 0.9 0.2 1.1 1.6 0.6 3.2z"/>
				<path id="&lt;Path&gt;" class="s28" d="m84.2 86.6c-0.6 1.6-1.7 2.6-2.6 2.4-0.8-0.2-1.1-1.6-0.5-3.2 0.6-1.5 1.7-2.6 2.6-2.4 0.8 0.2 1.1 1.7 0.5 3.2z"/>
				<path id="&lt;Path&gt;" class="s42" d="m128.8 104.5q-5.4-0.5-4.9-2.3c0.5-1.8 7.1-4.3 8.6-2.5 1.6 1.7-0.3 5-3.7 4.8z"/>
				<path id="&lt;Path&gt;" class="s43" d="m89.5 97.6q-3.2-3.1-5.2-2.6c-1.9 0.6 4.6 5.9 5.2 2.6z"/>
				<path id="&lt;Path&gt;" class="s39" d="m108.7 90.3c-0.6-2-4.2-3.3-5.2-4.5q-0.9-1.2 0.4-2.2 8.6 2.6 4.8 6.7z"/>
				<path id="&lt;Path&gt;" class="s39" d="m89 79.3q0.3 1.6-1.7 1.6c-1.9 0-3.7-1-5.7-0.5q1.2-3.9 7.4-1.1z"/>
				<path id="&lt;Path&gt;" class="s28" d="m78.9 99.9q3.7 6.2 11.7 3.1-1.8 4.3-5.8 4.5-4 0.2-5.9-7.6z"/>
				<g id="&lt;Group&gt;">
					<path id="&lt;Path&gt;" class="s25" d="m83.1 85.2c-0.2 0.3-0.6 0.4-0.8 0.3-0.3-0.1-0.3-0.4-0.1-0.7 0.2-0.3 0.5-0.5 0.8-0.4 0.2 0.1 0.3 0.4 0.1 0.8z"/>
				</g>
				<g id="&lt;Group&gt;">
					<path id="&lt;Path&gt;" class="s25" d="m102.1 91.5c-0.2 0.3-0.5 0.5-0.8 0.4-0.2-0.1-0.3-0.4-0.1-0.8 0.2-0.3 0.5-0.4 0.8-0.3 0.2 0.1 0.3 0.4 0.1 0.7z"/>
				</g>
				<ellipse id="&lt;Path&gt;" class="s25" cx="82.5" cy="87.8" rx=".3" ry=".3"/>
				<ellipse id="&lt;Path&gt;" class="s25" cx="101.6" cy="94.6" rx=".3" ry=".3"/>
			</g>
			<g id="&lt;Group&gt;">
				<path id="&lt;Path&gt;" class="s34" d="m287.6 110.2q3.8 1.3 1.6 3.3-0.1 1.4-1.2 1.9-0.5 2-3.4 1.2-2.3-0.2-2.9-1.3l1.1-4q3-3 4.8-1.1z"/>
				<path id="&lt;Path&gt;" class="s35" d="m284.8 113.7c0-0.1-0.1-0.4 0-0.5q-0.5-0.1-1-0.4c0.4 0 1-0.3 1.2-0.5q0.3-0.3 0.6-0.6c0 0 0 0.3 0 0.4q-0.1 0.2-0.1 0.4c0 0.1 0 0.4 0.1 0.5 0.3 0.4 0.8 0.1 1.1-0.1q0.1-0.1 0.2-0.2 0-0.1 0.1-0.2c0.2-0.4 0.4-0.8 0.6-1.2 0 0.4 0 0.7 0 1.1 0.1 0.4 0.3 0.8 0.7 1-0.5-0.1-0.9-0.1-1.3-0.1-0.4 0.1-0.8 0.4-0.9 0.7-0.2 0.4 0.2 0.9 0.6 1.1-0.4-0.2-0.7-0.3-1.2-0.4-0.4 0-0.9 0.2-0.9 0.6 0 0.4 0.1 1 0.5 1.1-0.6-0.2-1-0.7-1.1-1.2 0-0.4 0.1-0.8 0.3-1.1 0.1-0.1 0.4-0.2 0.5-0.4q0 0 0 0z"/>
				<path id="&lt;Path&gt;" class="s41" d="m289.4 108.2l-0.7-0.1c0-0.1 3.3-11.7 17.3-23.1 7.3-6 14-14.7 18-23.5 4.6-10 5.3-19.1 1.8-25.7-3.7-7-15.7-14.3-31.4-19-16.7-5.1-34.1-6.4-47.8-3.8-14.8 2.9-29.2 7.6-39.4 13.1-11 5.8-16.5 12.1-15.7 17.7 0.7 4.3 4.2 9.4 8.3 15.4 7.8 11.2 17.4 25.2 14.9 42.6l-0.7-0.1c2.5-17.1-7.1-31.1-14.8-42.2-4.1-6-7.7-11.2-8.4-15.6-0.9-5.9 4.6-12.3 16-18.3 10.3-5.5 24.7-10.3 39.6-13.2 13.8-2.7 31.4-1.3 48.2 3.8 7.7 2.3 14.7 5.3 20.2 8.6 5.7 3.4 9.7 7.1 11.6 10.7 3.6 6.8 3 16.1-1.7 26.3-4.1 8.8-10.9 17.6-18.2 23.6-13.9 11.3-17.1 22.7-17.1 22.8z"/>
				<path id="&lt;Path&gt;" class="s19" d="m286.3 109.6q0.4-2.6 2.6-1.9c2.2 0.6 1.1 2.3 0.1 3.1q-1.5-0.8-2.7-1.2z"/>
				<path id="&lt;Path&gt;" class="s19" d="m284.8 112.4l0.6-0.4q-0.2 0.8 0 1.2v0.5c-0.7 0.5-0.9 1-0.9 1.6q0 0 0 0-0.2 0.2 0.2 0.7c0.2 0.2 0.4 0.5 0.8 0.6-0.2 0.3-0.8 0.8-2.1 0.3q-1.7-0.6 1.4-4.5z"/>
				<path id="&lt;Path&gt;" class="s34" d="m229.4 89c-2.1 2.3-5.2 0.8-4.4-1.6q0.8-2.4 3.5-0.5z"/>
				<path id="&lt;Path&gt;" class="s34" d="m239.4 132.4c-0.8 0.8-0.4 3.4 0.4 5 0.7 1.6-3 3.3-4 3.4-0.9 0 0-1.2 0.2-2.4 0.3-1.2-2-1.9-3.7-3.8q-1.7-2 0.8-4.7z"/>
				<path id="&lt;Path&gt;" class="s35" d="m239.8 137.4c0.4 0.9-0.8 2-2 2.7 0.5-1.2 0.3-2.4-0.3-3.2q-1.2-1.2-1.7-3.9l-3.7-1.6q0.4-0.9 1-1.5l6.3 2.5c-0.8 0.8-0.4 3.4 0.4 5z"/>
				<path id="&lt;Path&gt;" class="s34" d="m263.3 134.3q-0.5 6.1-8.2 12.5-1.2 3.4-2.4 2.4c-1.2-1-0.1-3.6 1.3-6.7q1.5-3-1.4-7.8 3.5 0.6 10.7-0.4z"/>
				<path id="&lt;Path&gt;" class="s35" d="m263.3 134.3q-0.5 6.1-8.2 12.5-0.8 2.4-1.8 2.6c0.3-1.7 1.6-4 2.9-5.5q1.8-2 3.3-7h-5.8q-0.5-1.3-1.1-2.2 3.5 0.6 10.7-0.4z"/>
				<path id="&lt;Path&gt;" class="s44" d="m263.7 101q8.9 10 19.3 9.9 0 2.2-2.3 6.5-8.3 0-14.8-6.7 3.9 9.2 1.8 22.7-16.4 6.3-36.7-3.9 7.8-5.8 9.9-20-7.7 6.3-24 3l1.4-6.3q13.6 4 23.8-5.1z"/>
				<g id="&lt;Group&gt;">
					<path id="&lt;Path&gt;" class="s25" d="m280.7 117.4q-1.3 0-2.6-0.2c0.9-2.2 1.5-4.4 2.1-6.6q1.7 0.3 2.8 0.3 0 2.2-2.3 6.5z"/>
				</g>
				<g id="&lt;Group&gt;">
					<path id="&lt;Path&gt;" class="s25" d="m219.9 106.6q-0.7 3.1-1.4 6.2-1-0.2-1.6-0.3l1.4-6.3q0.8 0.2 1.6 0.4z"/>
				</g>
				<g id="&lt;Group&gt;">
					<path id="&lt;Path&gt;" class="s25" d="m267.7 133.4q-16.4 6.3-36.7-3.9 0.8-0.6 1.5-1.3c11.1 4.2 23.4 5.5 35.4 4.1q-0.1 0.7-0.2 1.1z"/>
				</g>
				<path id="&lt;Path&gt;" class="s45" d="m240.3 102.5q1.1-0.8 1.8-1.4l21.6-0.1q8.9 10 19.3 9.9c0 0.7-0.3 1.8-0.7 2.8-7.4-1.5-14.1-4.8-20.5-7.9-0.9 3-4.6 3.8-7.8 3.8-2.9 0-8.7 0.1-9.5-2.9-0.2-0.7-0.2-1.8-0.9-2.3-0.8-0.8-2-1.4-3.3-1.9z"/>
				<g id="&lt;Group&gt;">
					<path id="&lt;Path&gt;" class="s26" d="m259.1 102.8q2.9 7-6.8 4-9.5 2.6-5.8-4.7z"/>
				</g>
				<path id="&lt;Path&gt;" class="s35" d="m259.3 102.1c-1.1 4.4-3.7 4.1-7.8 4q-4-0.1-4.5-4z"/>
				<path id="&lt;Path&gt;" class="s46" d="m259.3 102.1c-0.9 3.7-2.9 4.1-5.9 4q0.8-0.4 1.5-0.9c-2.5 0-5-0.6-7.3-1.4q-0.5-0.9-0.6-1.7z"/>
				<g id="&lt;Group&gt;">
					<path id="&lt;Path&gt;" class="s19" d="m212.9 103.8c-0.5-1.1-0.7-3 1.6-2.8q2.4 0.2 1.5 2.6-1.3 0-3.1 0.2z"/>
					<path id="&lt;Path&gt;" class="s34" d="m218.4 106.3l-0.9 4.1q-1 0.8-3.3 0.2-3-0.2-2.5-2.2-0.9-0.8-0.2-2.2-1.1-2.6 3-2.5 2.5-1.2 3.9 2.6z"/>
					<path id="&lt;Path&gt;" class="s35" d="m215.4 107.9c0 0.2 0.2 0.4 0.3 0.5 0 0.4 0 0.8-0.2 1.1-0.4 0.5-1 0.8-1.6 0.8 0.4 0 0.8-0.5 0.9-0.9 0.2-0.3-0.1-0.7-0.6-0.8-0.4-0.1-0.8-0.1-1.2-0.1 0.5 0 1-0.3 1.1-0.8 0.1-0.3-0.2-0.7-0.5-0.9-0.4-0.2-0.8-0.3-1.2-0.4 0.4 0 0.8-0.3 1-0.6 0.2-0.4 0.4-0.7 0.6-1.1 0 0.5 0 0.9 0 1.3q0 0.1 0 0.2 0 0.2 0.1 0.3c0.1 0.2 0.4 0.8 0.9 0.5 0.2-0.1 0.2-0.3 0.3-0.5q0.1-0.2 0.2-0.4c0-0.1 0.1-0.3 0.1-0.3q0.1 0.3 0.2 0.7c0.2 0.3 0.5 0.8 0.9 0.9q-0.5 0.1-1 0c-0.1 0.1-0.3 0.3-0.3 0.5q0 0 0 0z"/>
					<path id="&lt;Path&gt;" class="s19" d="m215.1 111.3c-1.4-0.1-1.7-0.7-1.8-1 0.5 0 0.8-0.1 1-0.3q0.7-0.3 0.5-0.6 0 0 0 0c0.4-0.4 0.4-1.1 0-1.7l0.3-0.5q0.4-0.3 0.5-1l0.4 0.5q0.9 4.6-0.9 4.6z"/>
					<path id="&lt;Path&gt;" class="s47" d="m211.6 106.1c0.7 0.2 1.5 0.3 2.2 0q0 0 0 0 0-0.3 0-0.7 0.1-1 0.8-1.8c0.1-0.1 0.3 0.1 0.2 0.2-0.7 0.6-0.9 1.5-0.7 2.3 0 0.2 0 0.4 0.1 0.6 0.2 0.2 0.4 0.4 0.7 0.2 0.3-0.1 0.4-0.4 0.5-0.7q0.1-0.3 0.2-0.7c0-0.1 0.2-0.1 0.2 0.1-0.1 0.7 0.4 1.4 1.2 1.7 0.1 0.1 0 0.3-0.1 0.2-0.7-0.3-1.1-0.8-1.3-1.3q0 0.2-0.1 0.3c-0.1 0.2-0.2 0.5-0.4 0.7q0 0 0 0-0.1 0.3-0.2 0.6c1.1 1.2-0.2 2.9-2 2.5-0.1 0-0.1-0.2 0-0.2 1.6 0.3 2.7-1.1 1.8-2.2-0.6 0.7-2 0.7-3 0.6-0.1 0-0.1-0.2 0.1-0.2 1.1 0.1 2.8 0.2 3-1-0.2 0-0.5-0.2-0.7-0.3q-0.2-0.3-0.3-0.7c-0.7 0.3-1.5 0.2-2.3 0-0.1 0-0.1-0.2 0.1-0.2z"/>
				</g>
				<path id="&lt;Path&gt;" class="s48" d="m229.4 89q-8.8-8.2-3.4-17.2l-0.2-0.9q-9.1 2-7.8-6.6-10.2-2.2-2.7-12-5.4-10.1 1.6-10.6c7-0.6 10.7 6.1 10.8 9.4q6-1 7.5 2.8 1.4 3.9-1.1 5.5 5.3 0.8 2.7 7v2q8.1-2.7 13.8 1 16-8.4 30.9 0.5l3-1.1q-2.2-7.9 4.2-9 1.5-12 16.5-7.4 8.3-6.9 11.9-2.7 3.5 4.2-0.9 7.8 3.4 10.9-7.2 12.4-3.3 9.6-15.9 6.8l-2.4 2q-3.4 9.8-11.2 10.2-7.7 0.4-50.1 0.1z"/>
				<path id="&lt;Path&gt;" class="s49" d="m218 41.6c6.2 0.2 9.6 6.4 9.7 9.5q6-1 7.5 2.8 1.4 3.9-1.1 5.5 5.3 0.8 2.7 7v0.8c-2.9 0.6-5.8 0.9-8.7 1.3 3.1-1.1 6.2-2.9 5.2-6.1-2.1 0.6-4.3 1.2-6.4 0-1.9-1-2.9-4-1-5.9 0.5-0.2 1.5-0.2 1.5 0 0.4 0.6-0.5 0-0.5 0.2-0.3 1 0 2.1 0.9 2.3 2.9 0.4 3.4-2.5 2.9-4.3-0.5-1.2-2.6-2.4-3.8-1.6-2.2 1-5.1 1.2-6.3-0.2-1.1-1.2-2.1-2.6-1.4-4 0-0.4 1-0.2 1.7-0.2-1 0.4 0 1-0.3 1.6 2 0.8 5.1 0 3.6-2-1.4-2.5-3.6-4.9-6.2-6.7z"/>
				<path id="&lt;Path&gt;" class="s49" d="m247.3 89.1q-1.8 0-3.5 0c3.8-6 4.1-13.5 0.1-19.6-0.8-1.1-2.2-1.7-3.7-1.8 2.8-0.4 7-0.5 10.3 1.6q0.3 1.1 0.5 2.2c0.8 5.5 1.4 13.7-3.7 17.6z"/>
				<path id="&lt;Path&gt;" class="s49" d="m316.2 57.5q3.4 10.9-7.2 12.4-3.3 9.6-15.9 6.8l-2.4 2q-3.4 9.8-11.2 10.2c-1.5 0.1-4.3 0.1-7.9 0.2 5.6-2.5 10.4-6 13.7-10.8 0.7-1-0.5-3.4 0.2-3.8 2.6-1.6 3.8-2.6 4.3-5.4 0.5-1.9 3.4-2.3 5.5-1.5 0.5 0.2 1.2 1.1 0.5 1.7 0-0.4-0.7-0.2-0.7-0.6-2.4 1-1.9 4.2 0.5 4.8 2.6 0.4 7.4-0.6 5.9-3-0.4-0.8-1.9-2.9-1.2-4.1 1-1 2.4-0.6 3.9-0.6q-0.4 0-0.7 0c0.2 2.2 2.6 1.8 3.8 1 1.9-1 3.3-3.2 2.4-5.2-1.2 1.4-3.4 1.4-5.1 1-3.1-0.8-4.3-3.6-2.8-5.9 0.8-1.3 2.9-2.1 4.9-1.5-0.3 0.1-0.5 0.2-0.6 0.3-1.2 0.8 0 2.9 0.7 3.1 3.6 0.4 6.5-2.9 7.4-5.7 0.4-1.4 0.6-3.1-0.1-4.6 1.1 0.1 2.2 0.5 3 1.4q3.5 4.2-0.9 7.8z"/>
				<path id="&lt;Path&gt;" class="s34" d="m279.4 87.7q5.4-1.1 4.7 1.8-0.7 2.9-5.5 2.2c-0.7 2.7-2.4 5.2-4.8 7-11.3 8.6-31.4 7.4-41.3-1.9-5.7-5.3-5.7-12.1-1.3-17.6q4.4-5.5 20.6-6.1 29.6 0.5 27.6 14.6z"/>
				<path id="&lt;Path&gt;" class="s30" d="m293.1 76.7l-2.4 2q-6.7-4-9.2-8.8l3-1.1q3.4 4.5 8.6 7.9z"/>
				<path id="&lt;Path&gt;" class="s50" d="m293.1 76.7l-2.4 2q-2.5-1.5-5.1-3.8c1.1-0.6 1.9-1.3 2.4-2.2 1.4 1.3 3.1 2.7 5.1 4z"/>
				<path id="&lt;Path&gt;" class="s30" d="m236.8 68.4q-5.7 0.6-10.8 3.4l-0.2-0.9q4.9-4.4 10.4-4.4l0.6-0.2q0 0 0 0.1z"/>
				<path id="&lt;Path&gt;" class="s50" d="m236.8 66.3q0 0 0 0.1v2c-2.8 0.3-5.5 1.1-7.5 1.9q-0.6-0.6-0.9-1.4 4-2.4 7.8-2.4z"/>
				<path id="&lt;Path&gt;" class="s45" d="m261.8 135q4-8.1 4.1-24.3 3.9 9.2 1.8 22.7-2.9 1.1-5.9 1.6z"/>
				<g id="&lt;Group&gt;">
					<path id="&lt;Path&gt;" class="s26" d="m267.9 132.3q-0.1 0.7-0.2 1.1-2.9 1.1-5.9 1.6 0.6-1 1-2.3 2.5-0.1 5.1-0.4z"/>
				</g>
				<g id="&lt;Group&gt;">
					<path id="&lt;Path&gt;" class="s25" d="m268.3 123.1q-1.7 0.4-2.9 1.1-2.8-2.6-6.8 0.3-2.2-3.5-9.5-0.8-2.3-3.9-8.8-0.7c-0.8-1.3-1.8-1.9-2.8-2.2q0.6-1.2 1-2.4 1.9-0.6 3.4 1.5 4.3-2.1 8.8 1.3 4.6-2.6 8.3 0.1 3.5-2.5 6.7 0.4c0.7-0.8 1.5-1.2 2.4-1.5q0.1 1.5 0.2 2.9z"/>
				</g>
				<g id="&lt;Group&gt;">
					<path id="&lt;Path&gt;" class="s26" d="m268.3 123.1q-1.7 0.4-2.9 1.1-0.3-0.2-0.5-0.4 0.2-1.2 0.3-2.4 0.3 0.2 0.5 0.3c0.7-0.8 1.5-1.2 2.4-1.5q0.1 1.5 0.2 2.9z"/>
				</g>
				<g id="&lt;Group&gt;">
					<path id="&lt;Path&gt;" class="s25" d="m233.8 112.6q-1.7 0.4-3.3 0.6-0.5-0.5-1-0.8 2.6-2.3 0-3.6c0.8-0.8 1-1.5 0.9-2.1q1.2-0.3 2.4-0.6-0.3 1.1-0.8 2.1 2.5 0.6 0.6 3.8c0.6 0 1 0.3 1.2 0.6z"/>
				</g>
				<path id="&lt;Path&gt;" class="s25" d="m274.8 109q-0.8 1 0.5 2-3.2-0.4-1.8 3c-1.2 0-1.8 0.3-2.1 0.8q-1-0.6-1.9-1.2 0.6-0.8 1.8-1.2-1.5-2.1 1.3-2.9c-0.3-0.6-0.2-1.1 0.1-1.5q1 0.6 2.1 1z"/>
				<g id="&lt;Group&gt;">
					<path id="&lt;Path&gt;" class="s26" d="m274.8 109q-0.8 1 0.5 2c-0.7-0.1-1.2 0-1.5 0.2q-1.2-0.5-2.5-1 0.5-0.5 1.3-0.7c-0.3-0.6-0.2-1.1 0.1-1.5q1 0.6 2.1 1z"/>
				</g>
				<path id="&lt;Path&gt;" class="s45" d="m216.9 112.5l0.5-2.2q8.8 3.2 23.5-0.8-7.7 6.3-24 3z"/>
				<g id="&lt;Group&gt;">
					<path id="&lt;Path&gt;" class="s26" d="m233.8 112.6q-1.7 0.4-3.3 0.6-0.5-0.5-1-0.8 0.7-0.6 0.9-1.1 1.4-0.1 2.7-0.3-0.2 0.6-0.5 1c0.6 0 1 0.3 1.2 0.6z"/>
				</g>
				<path id="&lt;Path&gt;" class="s47" d="m289.1 113.5c-0.8 0-1.6-0.2-2.1-0.7q-0.3 0.3-0.6 0.5c-0.2 0.1-0.5 0.1-0.8 0-0.4 1.2 1.3 1.7 2.4 2 0.1 0 0 0.2-0.1 0.2-1-0.2-2.3-0.7-2.5-1.5-1.3 0.7-0.9 2.3 0.6 2.6 0.2 0 0.1 0.2 0 0.2-1.9-0.3-2.2-2.3-0.7-3q0-0.3 0.1-0.6 0 0 0-0.1c-0.1-0.1-0.1-0.4 0-0.6q0-0.2 0-0.4c-0.4 0.4-1 0.7-1.8 0.8-0.1 0-0.1-0.2 0-0.2 0.9-0.1 1.6-0.6 1.9-1.3 0.1-0.1 0.3 0 0.2 0.1q-0.1 0.3-0.1 0.7c-0.1 0.3-0.1 0.6 0.1 0.8 0.2 0.2 0.5 0.1 0.7 0 0.2-0.1 0.3-0.3 0.4-0.4 0.5-0.8 0.7-1.6 0.5-2.5 0-0.1 0.2-0.1 0.2 0q0.3 1-0.1 1.9-0.1 0.3-0.3 0.6 0 0 0 0c0.5 0.6 1.3 0.7 2.1 0.8 0.1 0 0.1 0.2-0.1 0.1z"/>
				<path id="&lt;Path&gt;" class="s35" d="m251.8 73.1q29.6 0.5 27.6 14.6 5.4-1.1 4.7 1.8-0.7 2.9-5.5 2.2c-0.7 2.7-2.4 5.2-4.8 7-4.5 3.4-10.3 5.3-16.3 5.7 3.5-1.7 20-6.9 17-17.8q-3.1-11.2-22.7-13.5z"/>
				<path id="&lt;Path&gt;" class="s51" d="m243.4 90.3c0 0.2-0.5 0.3-0.6 0-0.5-2.1-2.2-3.8-5-3.7-2.7 0.1-3.1 2.3-3.2 4.2 0 0.1-0.3 0.1-0.3 0-0.3-1.1-0.6-2.2-0.1-3.3 0.6-1.1 1.8-1.7 3.3-1.8 3-0.2 6 1.9 5.9 4.6z"/>
				<path id="&lt;Path&gt;" class="s51" d="m270.8 90.6c-0.1 0.1-0.3 0.1-0.3 0-0.5-2.2-1.4-4.5-4.7-4-1.2 0.2-2.3 0.8-3.2 1.5-0.9 0.8-1.2 1.7-1.8 2.6-0.2 0.2-0.6 0.1-0.6-0.2-0.1-2.5 3.4-4.6 6.2-4.8 3.4-0.3 5.1 2.3 4.4 4.9z"/>
				<path id="&lt;Path&gt;" class="s51" d="m241.9 80.4c-1.3 0.5-2.7 0.7-4 1.2-1.4 0.6-2.4 1.5-3.5 2.4-0.2 0.2-0.6-0.1-0.5-0.3 1.3-2 5.2-4.2 8-3.5 0.1 0 0.1 0.1 0 0.2z"/>
				<path id="&lt;Path&gt;" class="s51" d="m272 84.6c-0.8-1.1-1.7-2.2-3-3-1.1-0.7-2.5-0.8-3.7-1.4-0.2 0-0.1-0.3 0.1-0.3 1.5-0.3 3.2 0.5 4.3 1.3 1.3 0.8 2.3 1.9 2.6 3.3 0.1 0.1-0.2 0.2-0.3 0.1z"/>
				<path id="&lt;Path&gt;" class="s51" d="m256.7 101c-1.1 0.7-2.6 1.1-4.1 1.1-2.7 0-5.5-1.7-5.8-4.1-0.1-0.2 0.4-0.3 0.5-0.1 1 1.8 2.6 3.4 5.2 3.5 1.2 0 2.4-0.3 3.4-0.9 1.1-0.6 1.3-1.4 2-2.2 0.1-0.1 0.3 0 0.3 0.1 0.6 0.9-0.6 2-1.5 2.6z"/>
				<ellipse id="&lt;Path&gt;" class="s52" cx="235.4" cy="94.3" rx="2.8" ry="1.2"/>
				<ellipse id="&lt;Path&gt;" class="s52" cx="269.7" cy="95.6" rx="2.8" ry="1.2"/>
				<path id="&lt;Path&gt;" class="s30" d="m252.7 145.1q-0.6 2.7 1.1 2.8 0.8 0 1.3-1-0.4 2.7-2 2.8c-1.7 0-1.3-3.6-0.4-4.6z"/>
				<path id="&lt;Path&gt;" class="s53" d="m255.1 146.9q-0.4 2.7-2 2.8 0 0-0.1 0 0.6-0.9 0.8-1.8c0.1 0 0.9-0.1 1.3-1z"/>
				<path id="&lt;Path&gt;" class="s30" d="m235.4 140.9q-0.7-0.4 0.4-1.8 1.6 0.8 3.9-1.9c1.9 1.6-3.6 4.2-4.3 3.7z"/>
				<path id="&lt;Path&gt;" class="s53" d="m238 140.2q0.3-0.8 0.1-1.6 0.9-0.6 1.6-1.4c1.1 0.9-0.2 2.1-1.7 3z"/>
				<path id="&lt;Path&gt;" class="s54" d="m312.8 48.5q-3.6 0.6-7.6 3.9-15-4.6-16.5 7.4c-6.4 1.1-4.2 9-4.2 9q0.1-7.6 5.7-8.6-0.3-4.3 4.2-6.7 4.6-2.4 11.1-0.4c2.6-2.6 5.6-4 7.3-4.6z"/>
				<path id="&lt;Path&gt;" class="s54" d="m257.8 67.6q8.7-2.9 19.1 1l-5.3-0.9q4.3 0.8 6.5 2.5l-4.8-1.2q4.8 1.9 6.2 4-4.8-2.5-8.5-2.6l2.6 1.6-3.6-0.7 1.3 1.3q-4.5-1.2-9-1.3l2.6-0.2-3.1-0.9q2.9-0.3 4.7 0.2-3-1-7.7-0.9 3.6-1 7.8-0.2-4.9-1.6-11.6-0.2 4-1.9 9.7-1.2-2.8-1-6.9-0.3z"/>
				<path id="&lt;Path&gt;" class="s54" d="m234.1 71.2q2.8-1.4 7.5-0.9-2.3 0-6.4 1.5l4.7-0.1q-2.5 0.2-4.9 1.5l3.1 0.1q-4.4 0.4-8.2 4.1l0.6-2.4-3.3 3.8 1.8-4.3-3.3 4q-0.1-3.6 3.2-5.8l-1.9 1q3.1-4.2 9.9-4.5-1.2 0.2-2.8 2z"/>
				<path id="&lt;Path&gt;" class="s54" d="m218 64.3q-10.2-2.2-2.7-12-4.6-8.7 0.3-10.4c-1.2 1.8-2.6 5.4 1.4 9.9q-5 4.2-2.1 8 3 3.8 5.3 3.9-2 5.5 4.2 7.4c-2.5 0.1-7.3-0.3-6.4-6.8z"/>
			</g>
			<g id="&lt;Group&gt;">
				<path id="&lt;Path&gt;" class="s55" d="m326.8 30.9q-1.6-0.3 0.6-1.6-4.7 1.6-4.8-0.5-0.1-2 3.7-1.7-2.2-0.3-1-1.5 1.3-1.2 4.6 0.7c1.1 2.1-1.6 4.9-3.1 4.6z"/>
				<path id="&lt;Path&gt;" class="s17" d="m332.5 25c-1.4 1.6-4.3 3.2-6.6 3.4-0.1 0-0.1-0.1-0.1-0.1 1.1-0.6 2.3-1 3.4-1.6 1.1-0.6 2.1-1.3 3.1-1.8 0.1 0 0.2 0.1 0.2 0.1z"/>
			</g>
			<g id="&lt;Group&gt;">
				<path id="&lt;Path&gt;" class="s55" d="m263.5 232.7q-1.5-0.3 0.6-1.6-4.6 1.6-4.7-0.4-0.1-2.1 3.6-1.7-2.2-0.4-0.9-1.6 1.2-1.2 4.5 0.8c1.2 2-1.5 4.9-3.1 4.5z"/>
				<path id="&lt;Path&gt;" class="s17" d="m269.2 226.9c-1.4 1.6-4.2 3.1-6.6 3.4-0.1 0-0.1-0.2 0-0.2 1-0.6 2.2-1 3.3-1.6 1.1-0.5 2.1-1.2 3.2-1.8 0.1 0 0.2 0.1 0.1 0.2z"/>
			</g>
			<g id="&lt;Group&gt;">
				<path id="&lt;Path&gt;" class="s55" d="m412 183.6q-1.5-0.3 0.6-1.7-4.6 1.7-4.7-0.4-0.1-2 3.7-1.7-2.3-0.3-1-1.5 1.2-1.3 4.5 0.7c1.2 2-1.5 4.9-3.1 4.6z"/>
				<path id="&lt;Path&gt;" class="s17" d="m417.7 177.7c-1.3 1.6-4.2 3.2-6.5 3.4-0.2 0-0.2-0.1-0.1-0.2 1-0.6 2.3-1 3.4-1.5 1-0.6 2-1.3 3.1-1.8 0.1 0 0.2 0 0.1 0.1z"/>
			</g>
			<g id="&lt;Group&gt;">
				<path id="&lt;Path&gt;" class="s55" d="m341.6 47.5q-1.4 0.7-0.9-1.5-2.1 3.9-3.8 2.5-1.7-1.5 1.2-3.4-1.8 1-1.9-0.6-0.1-1.6 3.9-2.1c2.5 0.8 2.9 4.4 1.5 5.1z"/>
				<path id="&lt;Path&gt;" class="s17" d="m340.9 39.9c0.3 2-0.5 4.8-2 6.3-0.1 0.1-0.2 0-0.2 0 0.3-1.1 0.9-2.1 1.2-3.1 0.3-1.1 0.4-2.1 0.8-3.2 0 0 0.2 0 0.2 0z"/>
			</g>
			<g id="&lt;Group&gt;">
				<path id="&lt;Path&gt;" class="s55" d="m383.9 61.1q0.5 1.2-1.9 0.5 4.2 2.3 2.2 3.5-2 1.2-3.7-1.6 0.9 1.7-1 1.5-1.9-0.2-1.8-3.6c1.4-1.9 5.7-1.6 6.2-0.3z"/>
				<path id="&lt;Path&gt;" class="s17" d="m375 60.3c2.3 0.1 5.4 1.2 7 2.7 0 0.1-0.1 0.2-0.2 0.2-1.1-0.4-2.2-1.1-3.4-1.5-1.1-0.5-2.3-0.8-3.5-1.3-0.1 0 0-0.1 0.1-0.1z"/>
			</g>
			<g id="&lt;Group&gt;">
				<path id="&lt;Path&gt;" class="s55" d="m358.2 108.2q0.5 1.2-1.9 0.4 4.1 2.4 2.2 3.6-2 1.2-3.8-1.6 0.9 1.7-1 1.5-1.9-0.2-1.7-3.6c1.3-1.9 5.7-1.6 6.2-0.3z"/>
				<path id="&lt;Path&gt;" class="s17" d="m349.2 107.4c2.4 0.1 5.5 1.2 7 2.7 0.1 0.1 0 0.2-0.1 0.2-1.2-0.4-2.2-1.1-3.4-1.5-1.1-0.5-2.4-0.8-3.5-1.3-0.1 0-0.1-0.1 0-0.1z"/>
			</g>
			<g id="&lt;Group&gt;">
				<path id="&lt;Path&gt;" class="s55" d="m419.2 41.6q0.5 1.3-1.9 0.5 4.1 2.3 2.2 3.5-2 1.2-3.8-1.6 0.9 1.7-1 1.5-1.9-0.2-1.7-3.6c1.3-1.9 5.7-1.6 6.2-0.3z"/>
				<path id="&lt;Path&gt;" class="s17" d="m410.2 40.8c2.4 0.1 5.5 1.3 7 2.8 0.1 0 0 0.1-0.1 0.1-1.2-0.4-2.2-1-3.4-1.5-1.1-0.5-2.4-0.8-3.5-1.2-0.1-0.1-0.1-0.2 0-0.2z"/>
			</g>
			<g id="&lt;Group&gt;">
				<path id="&lt;Path&gt;" class="s55" d="m317.5 199q0.6 1.3-1.9 0.5 4.2 2.3 2.2 3.5-2 1.2-3.7-1.6 0.9 1.7-1 1.5-1.9-0.2-1.8-3.6c1.4-1.9 5.7-1.6 6.2-0.3z"/>
				<path id="&lt;Path&gt;" class="s17" d="m308.6 198.2c2.3 0.1 5.4 1.3 7 2.8 0 0-0.1 0.1-0.2 0.1-1.1-0.4-2.2-1-3.3-1.5-1.2-0.5-2.4-0.8-3.6-1.2 0-0.1 0-0.2 0.1-0.2z"/>
			</g>
			<g id="&lt;Group&gt;">
				<path id="&lt;Path&gt;" class="s34" d="m393.2 138.7q5 23.9-10.8 35.1-2.3 1.8-6.2-1.1-3.9-2.9-1.3-7.2 18-15.7 13.3-28.3 3.9-0.9 5 1.5z"/>
				<path id="&lt;Path&gt;" class="s35" d="m382.6 173.8q-1.8 1.4-4.8-0.3 0.6-0.6 1.3-1.3c5.7-5.8 9.8-11.9 11.7-19.5 0.8-3.4 0.6-7-1.9-9.5q0.3-3.8-0.5-6 3.9-0.9 5 1.5 5 23.9-10.8 35.1z"/>
				<g id="&lt;Group&gt;">
					<path id="&lt;Path&gt;" class="s56" d="m382.3 125.9q-1.7-7.8 0.8-11.1 2.4-3.3 14-6.9 13.1-0.3 18.3 4.1c5.2 4.3 8.6 13.1 7.5 16.3-1.2 3.3-11.4 17.2-15.1 18.2-3.7 1-8.1 2.2-11 0.5-2.9-1.6-7.7-6.6-9.7-7.2-1.9-0.5-6.1 1.4-7.1-0.1-1-1.5-1.1-7.4 2.3-13.8z"/>
				</g>
				<g id="&lt;Group&gt;">
					<path id="&lt;Path&gt;" class="s57" d="m388.3 118.1c0.7-1.2 0.3-1 0.5-1.8 0.2-1-0.1-3 2.1-2.9 1 0.1 1.9 0.8 2.8 0.6 0.7-0.1 1.1-0.7 1.2-1.2 0.1-0.6 0-1.2-0.2-1.7 1.3-0.5 2.7 0.4 3.4 1.5 0.6 1 0.7 2.2 1.1 3.3q-0.7-0.7-1.6-1.2c-0.3-0.1-0.5-0.2-0.8-0.2-0.3 0.1-0.5 0.4-0.3 0.6q-1.2-0.1-2.4 0.2c1.1 2 0.2 2.5 0.2 4.6-1.5-0.3-4.3-0.6-4.9 1.2-0.4 1.1 0.9 2.2 1.3 3.4 0.1 0.2 0.1 0.5-0.1 0.7-0.1 0.1-0.2 0.1-0.4 0.2q-1.6 0.4-3.2 0.8c0.4 0.3 0.7 0.7 0.8 1.1 0.1 0.5-0.2 1-0.7 1.1 0.7 0.8 1.6 1.4 2.6 1.9-1.4 0.9-2.3 2.2-2.5 3.6 0.9 0.1 1.8 0 2.6-0.2 0.4 0.6 0.1 1.3-0.5 1.8-0.5 0.5-1.3 0.8-2.1 0.9-1.3 0.3-2.7 0.5-4 0.4-0.3-2.1 0.7-4.3 2.5-5.8q-1.1-0.8-2.1-1.5c-0.3-0.2-0.5-0.4-0.6-0.7-0.2-0.2-0.1-0.5 0-0.8 0.7-2.1 2.1-4 4.1-5.4 0.2-0.1 0.4-0.3 0.4-0.5 0-0.2-0.2-0.4-0.4-0.5q-0.8-0.6-1.5-1.2c0.8-0.7 2.1-1.5 2.7-2.3z"/>
				</g>
				<path id="&lt;Path&gt;" class="s58" d="m407.8 146.5c-3.7 1-8.1 2.2-11 0.5-2-1.1-5.1-4-7.4-5.8l0.3-4.1 2.9 0.6-1.4-4.9 2-1.6 2 6.2 4.7-0.9-2.2-5.9 5.1 0.4-5.5-4 2.6-4.6 8 4.9 5.1-1.6-7.3-5.2-0.7-3.7 6.9 2.5-1.1-4-7.6-1.8 2.5-2.5-6.2 0.3-1.8-2.1 3.2-1.2c4.3 0.2 11.1 1.1 14.5 4 5.2 4.3 8.6 13.1 7.5 16.3-1.2 3.3-11.4 17.2-15.1 18.2z"/>
				<path id="&lt;Path&gt;" class="s34" d="m359 218.9l-2.7 5q0.5 6.8 0.8 9.1c0.2 2.4-3.7 6.6-4.7 6.3q-0.9-0.3 0.3-3.6-6.7-9.5-7.5-12.8-0.9-3.3 2.1-9.1 8.5-0.2 11.7 5.1z"/>
				<path id="&lt;Path&gt;" class="s35" d="m346 225c-0.4-0.8-0.7-1.5-0.8-2.1q-0.9-3.3 2.1-9.1 8.5-0.2 11.7 5.1l-2.7 5q0.5 6.8 0.8 9.1c0 0.9-0.4 1.9-1 3-2.5-3.2-4.4-6.6-4.5-10.5-1.9 0.1-3.8 0-5.6-0.5z"/>
				<path id="&lt;Path&gt;" class="s34" d="m386.9 216.6c-6.1 7.6-7.3 21.6-7.8 23.5-0.4 2-7.7 1.3-8.7 0.6q-1-0.7 4-2-3.8-5.8-3.9-18.7 7.5-5.6 16.4-3.4z"/>
				<path id="&lt;Path&gt;" class="s35" d="m386.9 216.6c-6.1 7.6-7.3 21.6-7.8 23.5-0.1 0.6-0.9 1-2 1.2-0.2-5.6 0.4-11.2 1.5-16.8-2.2 1.3-5 1.6-7.7 1.8q-0.3-3.5-0.4-6.3 7.5-5.6 16.4-3.4z"/>
				<g id="&lt;Group&gt;">
					<path id="&lt;Path&gt;" class="s59" d="m393.8 201.7q6.8 3.3 12.3 10.6-5.2-1-8.9 1.9c-1.7 3.6-5.3 4.5-10.2 4-4.8-0.5-2.9 2.9-10.2 5.1q-7.2 2.3-13.7-0.4c-6.3 4.1-11.9 1.5-16.2-0.4-4.4-1.9-7-0.5-11.8-1.6q-4.9-1.2-5.6-7.2 6-2.3 13.8-10.8 26.5 8.2 50.5-1.2z"/>
				</g>
				<g id="&lt;Group&gt;">
					<path id="&lt;Path&gt;" class="s60" d="m365.4 216.5c1.2 2.4 1.5 5.2 2.8 7.6q-3.1-0.4-5.1-1.2-0.1 0.1-0.1 0.1c0-2.3 0.6-4.5 2.4-6.5z"/>
				</g>
				<g id="&lt;Group&gt;">
					<path id="&lt;Path&gt;" class="s60" d="m350.6 212.8c-2.1 2.9-3.8 6.2-4.2 9.5-3.4-1.4-5.8-0.7-9.2-1.1 3-4.2 7.3-7.5 13.4-8.4z"/>
				</g>
				<g id="&lt;Group&gt;">
					<path id="&lt;Path&gt;" class="s60" d="m406.1 212.3q-5.2-1-8.9 1.9c-1.6 3.5-5.2 4.5-9.9 4-0.2-3.8-1.3-7.7-2.2-11.4-9.6 2.6-19.9 1.2-29.7 0.8-4.3-0.2-9.2-1.4-12.5-4.2q0.3-0.3 0.4-0.5 26.5 8.2 50.5-1.2 6.8 3.3 12.3 10.6z"/>
				</g>
				<path id="&lt;Path&gt;" class="s34" d="m346.7 183.1q-17.7 2.4-41.3-9.7-2.3-3.4 1.8-4.8 10.2 5.3 34.4 4.2 5.2 2.2 5.1 10.3z"/>
				<path id="&lt;Path&gt;" class="s35" d="m346.7 183.1q-17.7 2.4-41.3-9.7-2.3-3.4 1.8-4.8c2.5 1.4 6 2.3 9.7 2.9q0 0.1 0 0.1c-1 0.8-2.9 1.2-4.4 1.9 8.7 3.6 18.5 6.6 28.3 3.8 0.1-1.6-0.4-3-1-4.4q1.2 0 1.8-0.1 5.2 2.2 5.1 10.3z"/>
				<g id="&lt;Group&gt;">
					<path id="&lt;Path&gt;" class="s61" d="m374.4 165.7q14.6 8.8 19.4 36-24.7 12.7-50.5 1.2 4.2-7.1 0.8-29.2 20.8 2 30.3-8z"/>
				</g>
				<g id="&lt;Group&gt;">
					<path id="&lt;Path&gt;" class="s62" d="m393.8 201.7c-2.9 1.5-5.8 2.7-8.7 3.5q-0.1-14-8.5-27.9c-9.2 12.7-25.7 5.3-31.8 1.9q-0.4-3.3-0.7-5.5 20.8 2 30.3-8 14.6 8.8 19.4 36z"/>
				</g>
				<path id="&lt;Path&gt;" class="s34" d="m369.3 136c2.7 3.8 3.5 13.3-0.1 18.4q-3.6 5.1-5.2 13.6-4.6 3.6-9.9 1.8c-0.7-4-12.5-5.9-15.2-10.5-2.8-4.6-0.4-8.1-1.6-12.5q-1.7-5.8 1.8-11c9.2-9.8 27.5-3.6 30.2 0.2z"/>
				<path id="&lt;Path&gt;" class="s35" d="m369.2 154.4q-3.6 5.1-5.2 13.6c-1 0.8-2 1.3-3 1.7-0.3-3.2 0.4-6.3 1.8-9.2-1 0-2.2-0.2-1.9-1.2-2.4 0.4-4.3 2.2-6.7 1.4-4.8-1.6-8.4-4.8-10.8-8.7-2.1-3.8-4.5-7-5.7-11.1q-0.2-0.5-0.4-1.1 0.7-2.4 1.8-4c9.2-9.8 27.5-3.6 30.2 0.2 2.7 3.8 3.5 13.3-0.1 18.4z"/>
				<g id="&lt;Group&gt;">
					<path id="&lt;Path&gt;" class="s63" d="m370 128.9l1.4-0.5q-0.7-5 2.9-7 3.6-2.1 4.4 0.3 9.3-7.4 14-6.7 4.8 0.8 1.9 5.4c3.7-1.3 14.3-1.8 15.9 1.7q1.5 3.5-7.8 4.1 4 3.3 0.5 5.8-3.5 2.6-12 0.8-2.1 10.4-17.3 1l-1.7-0.3q3.9 11.6-1.4 19.3-5.4 7.7-10 4.4-4.9 5.8-13.9-0.8-7.9-5.1-10.6-15-7.5 10.1-11.8 10.4-4.2 0.3-2.6-4.4-20.5 11.9-24.4 4.5-3.9-7.4 7-11.8-4.6-2 0.4-5.2 5-3.2 14.2-3.1c-1.2-1.1-1.1-5 3.9-5.1q4.9-0.1 14.5 6.5l2-0.4q3.9-6.5 14.5-3 6.2-6.4 16-0.9z"/>
				</g>
				<g id="&lt;Group&gt;">
					<path id="&lt;Path&gt;" class="s64" d="m347.3 156.7q-0.3-0.2-0.4-0.3c-7.5-4.8-10.3-14-10.6-15 1.3-2.8 3.1-5.6 2.9-8.6h0.3c1-1.8 2.6-2.8 4.3-3.4-4.8 3.2-5.4 9.5-4.2 14.6 1.3 4.9 4 9.1 7.7 12.7z"/>
				</g>
				<g id="&lt;Group&gt;">
					<path id="&lt;Path&gt;" class="s64" d="m297.8 152.5q-0.2-0.3-0.3-0.6-3.9-7.4 7-11.8-4.6-2 0.4-5.2 5-3.2 14.2-3.1c-1.1-1-1.1-4.4 2.9-5-1.7 1.4-2.2 3.8-0.8 5.9-4.6 0.4-8.9 0.8-13.4 1.8-1.7 0.4-3.4 2-2.4 3.6 0.4 0.6 0.7 1.6 1.9 2-5 1.4-8.4 5.1-9.4 9.3q-0.4 1.6-0.1 3.1z"/>
				</g>
				<path id="&lt;Path&gt;" class="s65" d="m337.5 139.9l-1.2 1.5q-6 8.1-10.3 10c1.3-1.6 1.7-3.9 2.5-5 1-1.5 2-0.6 3.9-2.7 1.9-2.1-0.7-5.4-1.6-3.9-1 1.5-0.1 2.3-1.1 2.6q-0.9 0.4-1.3-2.5-1.1 3.4-3.5 3.5c-1.9 0.1-2-2.4-2-3.6 0 0.7-0.2 1.8-0.7 3.2-0.7 2.3-12.9 3.2-12.6 0.5q0.3-2.7 7-2.2-1.5-4.8 1.1-6.2 2.5-1.3 6.1-0.4-1.9-2.3-0.3-3.6c1.6-1.3 7.7 2.2 5.7-0.5-1.2-1.8-4.7-3.1-7.2-3.8q0.5-0.1 1-0.1 4.9-0.1 14.5 6.5l1-0.2q1.3 3.5-1 6.9z"/>
				<path id="&lt;Path&gt;" class="s65" d="m373.4 133.7l-1.2-0.2q3.9 11.6-1.4 19.3c-2.3 3.4-4.5 4.6-6.3 5 4.2-3.4 8.8-14.2 7-21.2-1.2-4.6-5.3-7.9-8.4-9.8q3.8 0.4 6.9 2.1l1.4-0.5q-0.1-0.4-0.1-1c0.3 0.7 1.1 3.1 2.1 6.3z"/>
				<path id="&lt;Path&gt;" class="s35" d="m336.3 149.6q0.9-1.7 2.6-0.8c1.7 0.9 2.4 6.3 1.2 7.6q-1.4 1.1-2.7 0.1 1.1-5.1-1.1-6.9z"/>
				<path id="&lt;Path&gt;" class="s46" d="m339.1 149.7q2.7 0.4 3.3 2.2 0.6 1.7-2.1 3.3 0-3.9-1.2-5.5z"/>
				<g id="&lt;Group&gt;">
					<path id="&lt;Path&gt;" class="s59" d="m363.1 165.4q2.1-0.1 12.6-0.8 2.8 13.9-12.6 17.4-15.4 3.4-21.5-9.2 4.3-2.9 12.3-5.5 4 0.2 9.2-1.9z"/>
				</g>
				<g id="&lt;Group&gt;">
					<path id="&lt;Path&gt;" class="s60" d="m369.1 179.6c1-3.8-0.5-8.5-2-11.8-6.7-0.2-13.3 1.5-20.2 2.2q3.6-1.6 7-2.7 4 0.2 9.2-1.9 2.1-0.1 12.6-0.8 2 9.8-6.6 15z"/>
				</g>
				<g id="&lt;Group&gt;">
					<path id="&lt;Path&gt;" class="s56" d="m308 170.7q-1.3 0.6 1.8 2.8-1.2 0.6-2.1 3.2-1 2.6-0.5 7.2-2.6 0-3.7-1.6 0.3 2-0.5 3.1-0.8 1.1-6.2 1.6-0.1-1.3-1.3-1.9c-1.1-0.5-6.8 0.6-8.5 0.6-1.8 0-10.2-4.7-12-6.7q-1.8-2.1-2-6.3c-1.4 1.2-3.4 0.3-2.5-0.5 0.8-0.9 1.1-7 2.5-10.1 1.5-3.2 7-8 10.9-8.2 3.9-0.3 6.3-2.5 11.3-2.5q5 0 17.3 10.4l1.8 10q-5-1.8-6.3-1.1z"/>
				</g>
				<g id="&lt;Group&gt;">
					<path id="&lt;Path&gt;" class="s57" d="m283.5 157.2c0.1-0.5 0.7-1.1 0.7-1.6 0.5 0.2 3.3 1.1 3.5 1.6 0.3 0.7-1.3 2.3-1.5 3.1-1.4-0.2-2.9-0.6-4.3-1q1.1 2.2 2.8 4.2-2.5-1.2-5.2-2c0.2 0.8 0.7 1.5 1.4 2q-0.9-0.2-1.9-0.4c0.1 0.4 0 0.9-0.2 1.3q2.8 2.1 5.6 4.1c-1.5 0.6-2.8 1.4-3.8 2.6 1.1 0.3 2.3 0.4 3.4 0.1-2.7 1.9-5.1 4-7.1 6.3q0.1-2.6 0.3-5.3c0-0.4 0-0.9-0.2-1.4-0.2-0.4-0.9-0.7-1.4-0.5 0.8-0.4 1.6-0.8 2.1-1.4 0.5-0.6 0.7-1.5 0.3-2.1-0.8-1-2.4-0.9-3.7-0.7 0.3-1.5 1-2.9 2.1-4.1-0.5 0-1 0-1.4 0.2 0.7-1.7 1.4-3.4 2.9-4.6 1.6-1.2 3.9-1.4 5.6-0.4z"/>
				</g>
				<g id="&lt;Group&gt;">
					<path id="&lt;Path&gt;" class="s66" d="m372.6 239q2.1 2.3 7 0.5 0.9 1.9-4.3 2.1-9.7 0.1-2.7-2.6z"/>
				</g>
				<g id="&lt;Group&gt;">
					<path id="&lt;Path&gt;" class="s66" d="m352.4 239.3q-0.9-0.3 0.3-3.6 0.5-2.5 1.8-3.3c1-0.7 2.1-0.4 2.5-0.1q0 0.4 0.1 0.7c0.2 2.4-3.7 6.6-4.7 6.3z"/>
				</g>
				<g id="&lt;Group&gt;">
					<path id="&lt;Path&gt;" class="s67" d="m352.4 239.3q-0.9-0.3 0.3-3.6 0 0 0-0.1c0.9-1.5 1.8-2.6 3-2.8 0.8 0 1.2 0.5 1.3 1-0.4 2.3-3.7 5.8-4.6 5.5z"/>
				</g>
				<path id="&lt;Path&gt;" class="s68" d="m362.9 176.8c-8.1 2.2-14.7-4-16.6-6.5q0.5-0.3 1.1-0.5c1.5 1.9 6.1 7 13.7 6.4 7.6-0.7 8.2-8.4 8.2-11.2q0.9-0.1 1.8-0.1c-0.1 2.7-1 9.9-8.2 11.9z"/>
				<g id="&lt;Group&gt;">
					<path id="&lt;Path&gt;" class="s65" d="m360.8 157.2c-0.7 0.8-1.5 1.4-2.3 1.8 1.7-3.2 1-13.4-4.7-21-3.8-5-7.5-7.4-9.9-8.6q4.5-1.4 10.1 0.4 0.1-0.1 0.2-0.1c4 8.8 6.2 25.6 6.6 27.5z"/>
				</g>
				<g id="&lt;Group&gt;">
					<path id="&lt;Path&gt;" class="s65" d="m402.7 126.2q4 3.3 0.5 5.8-3.5 2.6-12 0.8c-0.6 2.8-2.1 4.2-4.1 4.7q0.5-0.3 0.9-0.7c1.7-1.5 2.6-3.9 1.5-5.7 0.4-0.5 1.2-0.6 1.8-0.5 0.7 0.1 1.3 0.4 1.9 0.6 1 0.3 2.1 0.5 3.2 0.3 0.6 0 1.4-0.4 1.3-0.9 0-0.7-1.1-0.8-1.8-1.1-0.8-0.3-1.3-1-1.2-1.7 1.4 0.3 3 0 4-0.8 1-0.8 1.5-2.1 1.1-3.2-0.8-2.9-4.9-0.9-6.5 0.2 0.7-0.5-0.3-1.4-1-1.5-1-0.1-2.3 0.9-2.8 1.5-0.2 0.2-0.4 0.4-0.7 0.4-0.5 0-0.5-0.7-0.3-1.1 0.4-0.7 1.1-1.3 1.5-2 0.4-0.8 0.6-1.7 0-2.3-0.2-0.4-0.7-0.6-1.1-0.8-2.1-0.6-4.4 0.3-6.1 1.4-2.2 1.3-4.1 2.9-5.7 4.6 0.2-1.1-0.5-2.2-1.6-2.7-0.3-0.1-0.7-0.2-1.1-0.2q3.6-1.9 4.3 0.4 9.3-7.4 14-6.7 4.8 0.8 1.9 5.4c3.7-1.3 14.3-1.8 15.9 1.7q1.5 3.5-7.8 4.1z"/>
				</g>
				<g id="&lt;Group&gt;">
					<path id="&lt;Path&gt;" class="s58" d="m309.8 173.5q-1.2 0.6-2.1 3.2-1 2.6-0.5 7.2-2.6 0-3.7-1.6 0.3 2-0.5 3.1-0.8 1.1-6.2 1.6-0.1-1.3-1.3-1.9c-0.8-0.4-4.2 0.1-6.6 0.4l-3.3-4h3l-2.9-3.6 1.2-2.8 0.8 1.6 3.4 1.1-3.2-4.9 1.4-2.9 1.3 2.9 3.2 0.6 0.2-4.3-6-1.9 4.2-1.8-5.6-0.7 0.8-2.9 4.4 0.1-3.2-4.3 2.9-0.5 1.5 3.1 3.9 0.3-2-2.6 5.3 1.2-5.3-4.4 1.5-0.9-4.6 0.2 2.6-2 4 0.1q5.7 2.5 14.1 9.6l1.8 10q-5-1.8-6.3-1.1-1.3 0.6 1.8 2.8z"/>
				</g>
				<path id="&lt;Path&gt;" class="s69" d="m371.9 130.7c-1.4 0.2-2.8 0.2-4.1 0.4q-1.9 0.3-3.8 0.9c-2.6 0.8-4.9 2.1-7.4 3.2 0.1 0.1 0 0.2-0.2 0.2-1.2-0.3-2.2-1-3.4-1.2-1.3-0.3-2.6-0.3-3.9-0.3-2.9 0-5.8 0-8.7 0.6-0.2 0.1-0.3-0.2-0.1-0.3 3-0.7 6.3-0.8 9.4-0.8 1.3 0.1 2.7 0.1 3.9 0.4 0.9 0.2 2 0.5 2.7 1.1 2.1-1.5 4.8-2.6 7.4-3.4q2.1-0.7 4.3-1c1.3-0.2 2.6-0.4 3.9-0.1 0.1 0.1 0.1 0.3 0 0.3z"/>
				<path id="&lt;Path&gt;" class="s69" d="m372.2 132c-2.8 1.3-5.4 2.9-7.9 4.7q-1.7 1.2-3.2 2.6c-1 0.9-1.9 2-2.9 2.8 0.2 0.3-0.2 0.6-0.5 0.4-2.4-1.9-5.3-3-8.5-3.7-3.1-0.7-6.6-0.9-9.5-2-0.1-0.1-0.1-0.2 0-0.2 1.8 0.1 3.6 0.6 5.3 0.9 1.7 0.2 3.5 0.5 5.1 1 2.9 0.6 5.7 1.7 7.8 3.4 1.5-2.2 4-4.1 6.2-5.7q3.6-2.7 7.8-4.6c0.4-0.2 0.6 0.2 0.3 0.4z"/>
				<path id="&lt;Path&gt;" class="s69" d="m372.5 132.5c-0.4 3.8-2.2 7.5-4.4 10.8-1.2 1.9-2.5 3.6-3.9 5.4-1 1.3-2.1 2.9-3.9 3.7-0.2 0.1-0.4 0-0.4-0.2-1.5-1.2-2.6-2.6-4-3.9-1.5-1.3-3.1-2.5-4.9-3.5-1.8-0.9-3.7-1.7-5.6-2.5-2-0.9-4.2-1.7-6.2-2.8-0.1-0.1 0-0.4 0.2-0.3 2.2 0.7 4.3 1.7 6.4 2.6 2 0.9 4 1.7 5.9 2.7 1.7 1 3.3 2.1 4.7 3.4 1.3 1.2 2.8 2.5 3.8 3.9 3-2.3 5.2-5.6 7.2-8.6 2.2-3.3 4-6.9 4.6-10.7 0-0.3 0.5-0.3 0.5 0z"/>
				<path id="&lt;Path&gt;" class="s69" d="m357.5 159.2c-4.8-1.9-9-4.7-12.2-8.2-1.6-1.7-3-3.5-4.2-5.4-1.3-1.9-2.6-3.8-3.4-5.9-0.1-0.1 0.1-0.1 0.2 0 1.4 1.7 2.5 3.7 3.7 5.6 1.3 1.9 2.7 3.7 4.3 5.4 3.2 3.4 7.3 6 12 7.8 0.6 0.2 0.1 0.9-0.4 0.7z"/>
				<path id="&lt;Path&gt;" class="s69" d="m371 129.9c-0.6-0.1-1.1-0.4-1.7-0.6-0.8-0.1-1.5-0.1-2.3-0.1q-1.9-0.1-3.8 0c-2.9 0.1-5.5 0.6-8.1 1.7-0.2 0-0.3 0-0.3-0.1 0 0.1-0.2 0.3-0.3 0.2-4.8-1.5-11.3-0.7-15 2.4-0.1 0.1-0.3 0-0.2-0.1 1.4-1.9 4.3-2.6 6.8-3.1 2.7-0.5 6-0.8 8.6 0.4q0 0 0 0.1 0.1-0.1 0.1-0.1c2.5-1.4 5.7-1.8 8.6-1.9 1.6-0.1 3.2-0.1 4.8 0 1 0.1 2.4 0.2 3 1 0.1 0.1 0 0.2-0.2 0.2z"/>
				<path id="&lt;Path&gt;" class="s69" d="m372.5 144.2q-0.7 2.6-2.1 5.1-1.4 2.5-3.5 4.7-1.1 1.2-2.4 2.2c-0.7 0.6-1.5 1.3-2.4 1.6-0.3 0.2-0.5-0.1-0.3-0.4 0.6-0.7 1.6-1.2 2.4-1.9q1.1-0.9 2-1.8 2-2.2 3.5-4.6 1.5-2.5 2.3-5.2c0.5-1.7 0.5-3.4 1-5.1q0.1 0 0.1 0c0.4 1.8-0.1 3.7-0.6 5.4z"/>
				<path id="&lt;Path&gt;" class="s69" d="m337.7 135.3c-2.6-2.1-6.1-4.8-10-4.8-2.5 0-4.1 2-2.7 3.9 0.5 0.7 1.4 1.3 2.3 1.5q0.4 0.1 0.9 0.2 1.4-1 0.5-1.6c-0.2-0.3-0.6-0.4-0.9-0.6-0.2-0.2 0.1-0.4 0.3-0.3 0.8 0.3 1.8 1 1.6 1.9-0.1 0.8-1 1.1-1.9 1-2.3-0.3-4.3-2.2-3.7-4.2 0.6-2.3 3.7-2.4 6-1.8 3 0.8 5.8 2.5 8 4.4 0.3 0.3-0.1 0.6-0.4 0.4z"/>
				<g id="&lt;Group&gt;">
					<path id="&lt;Path&gt;" class="s61" d="m336.2 132.4q1.7-1.6 3.5-0.4 3.7 4.9 0.4 7.7-1.5 0.8-2.8 0.4 1.8-5.9-1.1-7.7z"/>
				</g>
				<g id="&lt;Group&gt;">
					<path id="&lt;Path&gt;" class="s62" d="m340.1 139.7q-1 0.5-2 0.5c1.3-1.2 2-2.7 1.5-4.5-0.2-1.1-1.3-2.4-2.7-2.7q-0.3-0.4-0.7-0.6 1.7-1.6 3.5-0.4 3.7 4.9 0.4 7.7z"/>
				</g>
				<g id="&lt;Group&gt;">
					<path id="&lt;Path&gt;" class="s61" d="m369.1 128.5q1.5-1.5 3.9-0.3c2.3 1.1 2.9 6.1-0.4 6.3q-1.8-4.2-3.5-6z"/>
				</g>
				<g id="&lt;Group&gt;">
					<path id="&lt;Path&gt;" class="s62" d="m373 134.4q0.2-0.3 0.3-0.7c1-2.3-0.5-4.6-2.8-5.9 0.7-0.1 1.5-0.1 2.5 0.4 2.2 1 2.8 5.6 0 6.2z"/>
				</g>
				<path id="&lt;Path&gt;" class="s69" d="m324 136.2c-2.1-0.9-4.9-1.1-7.2-0.7-1 0.2-2.1 0.4-2.8 1-1.1 0.9-1.1 2.3-0.5 3.4 0.9 1.7 3.9 4.2 6.1 2.6 1.2-0.8 1.9-2.2 0.6-3.2-1.3-1-3.9-0.9-3.3 1 0.1 0.1-0.1 0.2-0.3 0.1-0.7-0.5-0.4-1.5 0.3-2 1.1-0.6 2.5-0.3 3.5 0.3 2 1.4 1 3.9-1.3 4.7-2.4 0.8-5.3-1.6-6.2-3.3-1.1-2.1 0.1-4 2.5-4.7 3-1 6-0.5 8.7 0.8 0 0 0 0-0.1 0z"/>
				<path id="&lt;Path&gt;" class="s69" d="m334.7 137.4c-3.3-0.6-5.7 1.8-6.2 4.3-0.3 1.7 1.2 3.2 3.2 2.5 0.6-0.2 1.5-0.9 1.6-1.5 0.1-1.6-1.6-1-2.1-0.7-0.2 0.2-0.4 0.4-0.6 0.6-0.1 0.1-0.3 0-0.3-0.1 0.2-1.5 3.3-2 3.7-0.3 0.3 1.9-2.6 3.2-4.4 2.6-2.5-0.8-2-3.5-1-5.1 1.1-2 3.6-3.3 6.1-2.6 0.2 0.1 0.1 0.3 0 0.3z"/>
				<path id="&lt;Path&gt;" class="s69" d="m313.7 143.1c-1.9-0.8-4.2-1.2-6.2-0.4-1.8 0.7-2.8 2.2-2.3 3.8 0.6 1.8 2.5 3.8 4.9 2.9 1.1-0.4 2.3-1.8 0.9-2.6-1-0.5-2.3-0.5-3.1 0.3-0.1 0.1-0.3 0-0.3-0.2 0.3-1.9 5-1.1 4.8 0.8-0.4 2.3-3.9 3.2-5.9 1.7-2.1-1.5-3-4.4-1-6.2 2.3-2 5.7-1.5 8.3-0.4 0.3 0.1 0.1 0.3-0.1 0.3z"/>
				<path id="&lt;Path&gt;" class="s69" d="m376.7 124.8c-0.6 0.8-1.7 0.4-2-0.3-0.1-0.2 0.2-0.3 0.3-0.2q0.3 0.4 0.9 0 0.9 0 0.6-0.5c0-0.2-0.2-0.5-0.3-0.7-0.5-0.6-1.5-0.6-2.2 0.1-0.1 0.2-0.3 0.5-0.4 0.8-0.6 1.1-0.7 2.4-0.6 3.6 0.1 0.3-0.4 0.3-0.4 0-0.3-1.6 0-3.2 1.1-4.5 0.5-0.7 1.4-1.2 2.3-0.6 0.6 0.4 1.3 1.7 0.7 2.3z"/>
				<path id="&lt;Path&gt;" class="s69" d="m389 123.1c-0.2 1.1-1 2.3-2.4 2.6-1.2 0.1-2.4-0.4-2.8-1.4-0.4-0.7-0.2-1.9 0.8-2.3 0.8-0.3 1.7 0.3 1.5 1.1-0.1 0.2-0.5 0.1-0.5-0.1q-1.8-0.1-1.4 0.9 0.1 0.4 0.4 0.7c0.4 0.4 1 0.6 1.6 0.6 1.3 0 2.1-1.1 2.3-2.1 0.2-0.9 0.1-2.1-0.7-2.8-0.7-0.6-1.8-0.4-2.7-0.2-1.9 0.4-3 1.2-3.9 2.6-0.8 1.4-1.4 2.8-1.8 4.3-0.1 0.1-0.2 0.1-0.2 0 0.5-2.6 1.7-6.2 5-7.1 1.1-0.3 2.6-0.7 3.7 0 1.1 0.7 1.3 2.1 1.1 3.2z"/>
				<path id="&lt;Path&gt;" class="s69" d="m375.9 130.5c0 0.1 0.1 0.3 0.2 0.2 2.1-1.8 5.4-1.2 7.2 0.6 1.3 1.2 0.6 2.6-1.1 3.1-0.7 0.3-1.7 0.3-2.4-0.1q-0.3-0.2-0.5-0.4-0.5-0.6 0.1-1.1 0.2-0.6 0.8-0.3 0.5-0.1 0.7 0.3c0.2 0.1 0.4-0.1 0.3-0.2-0.8-1.5-3-0.3-2.7 1.1 0.6 2 3.9 1.7 5.3 0.6 3.8-3-5.3-7.7-7.9-3.8z"/>
				<path id="&lt;Path&gt;" class="s69" d="m396.1 130.9c-1.5 0.5-3.2 0.2-4.6-0.4-1.2-0.5-3.1-1.3-3.7-2.4-0.1-0.1 0.2-0.3 0.4-0.2 1.8 1.9 7.5 4.4 9.3 1.3 0.8-1.3-0.3-3.8-2.1-4.1-0.8-0.1-2.1 0.2-2.6 0.7-0.6 0.6-0.4 1.4 0.3 1.7 0.8 0.4 1.6-0.1 2-0.6 0.2-0.1 0.5 0 0.4 0.2-0.8 1.7-4.1 1.1-3.6-0.8 0.2-1 1.5-1.5 2.5-1.6 1.2-0.2 2.2 0.1 2.9 1 1.5 1.8 1.5 4.3-1.2 5.2z"/>
				<path id="&lt;Path&gt;" class="s69" d="m404.7 123.3c-0.2 0.9-1.8 1.5-2.7 1.1-0.7-0.3-1.1-1.2-0.3-1.6 0.1-0.1 0.2 0 0.2 0.1-0.4 0.9 0.7 1.4 1.6 0.9 0.9-0.5 0.5-1.3-0.1-1.8-1.1-0.9-2.8-0.8-3.6 0.4-0.1 0.1-0.5 0-0.3-0.2 0.5-0.9 1.8-1.4 3-1.2 1 0.2 2.4 1.3 2.2 2.3z"/>
				<path id="&lt;Path&gt;" class="s68" d="m402.2 207.9c-2.2 0.5-4.3 1.1-6.1 2.3-1.3 0.9-2 2-3 3-0.9 0.9-2.2 1.3-3.5 1.3-1.6 0-3.1-0.4-4.7-0.2-1.1 0.2-2.1 0.7-3 1.2-1.9 1.1-3.4 2.6-5.4 3.6-2.3 1.1-4.5 0.9-6.9 0.4-1.9-0.4-3.6-0.7-5.4 0-1.2 0.4-2.3 1-3.6 1.2-2.7 0.4-5.4-0.6-7.8-1.4-1.5-0.5-2.9-1-4.5-1.2-1.8-0.3-3.5-0.2-5.3-0.5-4.2-0.5-7.8-2.8-9.8-5.9q0.3-0.2 0.6-0.4c1.1 1.8 2.8 3.3 4.8 4.3 1.2 0.6 2.6 1.1 4 1.3 2 0.4 4 0.3 5.9 0.5 2.8 0.4 5.3 1.7 8.1 2.4 1.5 0.3 3 0.5 4.5 0.1 1.3-0.3 2.5-1.1 3.8-1.4 2.9-0.6 5.5 1 8.4 0.8 2.4-0.2 4.2-1.7 6-2.9 1.5-1.1 3.1-2.3 5.1-2.7 2.6-0.6 6 0.9 8-1 0.9-0.9 1.5-1.9 2.5-2.7 0.9-0.7 1.9-1.2 3-1.7q1.7-0.7 3.5-1.1 0.4 0.3 0.8 0.7z"/>
				<path id="&lt;Path&gt;" class="s70" d="m295.4 186.8c0.1 0.3-0.3 0.4-0.5 0.3-1-0.7-1.5-2.1-1.9-3.1q-0.9-1.8-1.6-3.7c-0.9-2.4-1.6-5-1.7-7.5-0.1-0.5 0.8-0.6 0.9-0.1 0.5 2.5 0.9 4.9 1.8 7.4q0.7 1.8 1.5 3.6c0.5 1 1.5 2.1 1.5 3.1z"/>
				<path id="&lt;Path&gt;" class="s70" d="m282.9 174.5c-1.5 1.1-2.9 2.2-4.1 3.6q-1.6 2.1-2.2 4.6c-0.1 0.4-0.8 0.2-0.7-0.2 0.7-3.2 3.1-6.8 6.7-8.3 0.2-0.1 0.5 0.1 0.3 0.3z"/>
				<path id="&lt;Path&gt;" class="s70" d="m280.9 168.1c-2.2 0-4.2 0-6.2 0.7-1.1 0.4-2.1 0.9-2.9 1.6-0.7 0.4-1.2 1.1-1.9 1.5-0.2 0.1-0.3-0.1-0.3-0.2 0.5-1.7 3-2.9 4.8-3.5 2-0.7 4.5-1 6.5-0.2 0.1 0 0.1 0.1 0 0.1z"/>
				<path id="&lt;Path&gt;" class="s70" d="m279.8 163.2c-1.7 0.2-3.4-0.4-4.9-1-1.4-0.6-3.3-1.6-3.8-2.9-0.1-0.1 0.1-0.2 0.3-0.1 0.6 0.3 1.1 0.7 1.6 1.1q1 0.7 2.1 1.2c1.5 0.7 3.1 1 4.7 1.5 0.1 0 0.1 0.2 0 0.2z"/>
				<path id="&lt;Path&gt;" class="s70" d="m285 159.3c-1.5-0.4-2.6-2-3.3-3.1-0.5-0.9-1.5-2.8-0.8-3.8 0 0 0.1 0 0.2 0 0.4 0.5 0.3 1.1 0.5 1.7q0.3 1 0.8 1.9 0.7 1 1.6 1.9c0.4 0.4 0.9 0.7 1.2 1.2 0.1 0.1-0.1 0.2-0.2 0.2z"/>
				<path id="&lt;Path&gt;" class="s70" d="m294.8 148.5c-0.5 0.4-1.2 0.6-1.8 1q-1 0.6-1.7 1.5c-1 1.1-1.4 2.3-1.7 3.6 0 0.2-0.2 0.1-0.2 0-0.1-1.4 0.5-2.9 1.5-4.1 0.9-0.9 2.3-2.2 3.8-2.2 0.1 0 0.2 0.2 0.1 0.2z"/>
				<path id="&lt;Path&gt;" class="s70" d="m311.9 159.1c-1.3 0.3-2.6 0.1-3.8 0.2q-2.1 0.2-4.2 0.6c-2.7 0.6-5.3 1.6-7.8 2.7 0 0-0.1-0.1-0.1-0.1 2.2-1.5 4.9-2.4 7.5-3.1q2.1-0.4 4.2-0.6c1.3-0.1 2.9-0.3 4.2 0.1 0.1 0 0.1 0.2 0 0.2z"/>
				<path id="&lt;Path&gt;" class="s70" d="m315.1 167.5c-1.3-0.6-2.4-1.5-3.8-2.1-1.5-0.6-3-0.9-4.6-1.1-0.3-0.1-0.2-0.4 0-0.4 1.7 0 3.3 0.3 4.8 0.9 1.4 0.6 3.1 1.3 3.9 2.5 0 0.2-0.1 0.3-0.3 0.2z"/>
				<path id="&lt;Path&gt;" class="s70" d="m309.8 182.9c-3.7-1.9-6.9-4.8-9-8-0.1-0.1 0.1-0.2 0.2-0.1 2.6 3 5.6 5.4 9.1 7.6 0.3 0.2 0 0.7-0.3 0.5z"/>
				<path id="&lt;Path&gt;" class="s70" d="m403.1 145.3q-0.3 1.9-0.9 3.7c-0.2 0.7-0.4 1.3-1.3 1.5-0.1 0.1-0.4 0-0.5-0.1q0-0.1 0-0.1c-0.1-0.1-0.1-0.2 0-0.3q0-0.1 0-0.1 0.1-0.1 0.3-0.1c0.7 0.2 1.6-4.8 1.7-5.4 0.4-2.1 0.4-4.2 0.4-6.4 0-0.3 0.6-0.3 0.7 0 0.3 2.4 0 5-0.4 7.3z"/>
				<path id="&lt;Path&gt;" class="s70" d="m415.7 140.6c-1.4-3.3-3.9-5.6-6.9-7.9-0.4-0.3 0.1-0.7 0.4-0.5 3.6 1.7 6.2 5 7.6 8.2 0.2 0.5-0.8 0.8-1.1 0.2z"/>
				<path id="&lt;Path&gt;" class="s70" d="m421.8 132.9c-1 0-1.7-0.4-2.6-0.7-1-0.2-2-0.3-3-0.5-0.2 0-0.1-0.3 0.1-0.3 1.6-0.2 4.6 0 5.6 1.3 0.1 0.1 0 0.2-0.1 0.2z"/>
				<path id="&lt;Path&gt;" class="s70" d="m424.9 123.5c-1.2-1.5-4.3-1.1-6.1-1-2.4 0-4.9 0.2-7.3 0.3-0.3 0-0.4-0.4-0.1-0.5 3-0.6 6-0.7 9-0.7 1.8-0.1 4.5-0.2 5.4 1.5 0.3 0.5-0.5 0.9-0.9 0.4z"/>
				<path id="&lt;Path&gt;" class="s70" d="m419 109.8c-0.3 0.1-0.2 0.2-0.4 0.3-0.2 0.1-0.3-0.1-0.3-0.2q0 0 0 0c-3.3 2.4-5.9 5.2-8.5 8.2-0.1 0.2-0.4 0.1-0.3-0.1 1.8-3.5 5.1-6.6 8.5-9q0.4-0.2 0.8 0 0.1 0.1 0.2 0.2c0.2 0.1 0.1 0.4 0 0.6z"/>
				<path id="&lt;Path&gt;" class="s70" d="m402.5 107.3q-0.2 1.5-0.3 3.1-0.2 1.4-0.2 2.9c0 0.8 0.3 1.6-0.1 2.4 0 0.1-0.2 0.1-0.3 0-0.5-0.7-0.3-1.6-0.3-2.4q0-1.5 0.1-2.9 0.1-1.4 0.4-2.6c0.1-0.9 0.2-1.9 0.8-2.7 0 0 0.1 0 0.1 0 0.2 0.8 0 1.5-0.2 2.2z"/>
				<path id="&lt;Path&gt;" class="s70" d="m397.3 114.7c-1.2-1.2-2.5-2.4-4-3.3-1.5-0.9-3.2-1.4-4.8-2.2-0.1 0-0.1-0.2 0.1-0.2 3.6 0 7.6 2.8 9.2 5.4 0.2 0.2-0.3 0.5-0.5 0.3z"/>
				<path id="&lt;Path&gt;" class="s70" d="m386.1 115.4c-1.2 0.3-2.5 0.4-3.8 0.6-1.1 0.2-2.3 0.5-3.5 0.6-0.2 0-0.2-0.3-0.1-0.4 2-1.1 5.1-1.4 7.4-1.1 0.2 0 0.2 0.3 0 0.3z"/>
			</g>
			<path id="&lt;Path&gt;" class="s42" d="m279.4 90.1q-0.6-0.3 0.1-0.6c0.6-0.3 2.7-1.1 3-0.3 0.3 0.7-0.5 1.8-3.1 0.9z"/>
			<path id="&lt;Path&gt;" class="s71" d="m111.6 62l2.7 2.1-21.4 1.2 4.2 0.9q-9.9 1.2-8.7 1.6c1.3 0.5 9.2 1.6 9.7 1.6q0.5 0-2 1.1l7.6 1.9q-4 2.1-3.4 2.9 0.5 0.8 7.3 2.3-5.8 0-13.9-2.8l4.9-2q-4-0.9-18.5-6.9 6.3-2.1 30.3-2.7l-3.6-2.8q3.4 0.1 10 0.6z"/>
			<path id="&lt;Path&gt;" class="s23" d="m190.1 52.1c-2.7-2.7-4.5-5.7-5-9.2-0.4-3.4 0.4-6.7 2.2-9.7 0 0 0-0.1-0.1 0-4.2 5.6-3.2 14.4 2.9 18.9 0 0.1 0.1 0 0 0z"/>
			<path id="&lt;Path&gt;" class="s23" d="m182.4 50c-1-1.6-1.9-3.2-2.2-5-0.3-1.9 0-3.7 0.5-5.6 0-0.1-0.1-0.1-0.1 0-1.7 3.3-1 7.9 1.7 10.7 0.1 0 0.2-0.1 0.1-0.1z"/>
			<path id="&lt;Path&gt;" class="s23" d="m330.2 56.1c-0.8 3.9-2 7.6-4.1 11.1-2.1 3.5-5 6.6-8.2 9.4 0 0.1 0 0.1 0.1 0.1 6.9-5.1 11.5-12.9 12.4-20.6 0-0.1-0.2-0.1-0.2 0z"/>
			<path id="&lt;Path&gt;" class="s23" d="m332.2 63.4c-1.7 4.6-4.8 8.8-8.6 12.3 0 0.1-0.1 0-0.1 0 3.6-3.8 6.4-7.9 8.6-12.3 0-0.1 0.2 0 0.1 0z"/>
			<path id="&lt;Path&gt;" class="s23" d="m229.4 137.5c-4-1-5.2-6.1-2.4-8.6 0 0 0.2 0 0.1 0.1-2.2 3-1 6.5 2.4 8.4 0.1 0 0 0.2-0.1 0.1z"/>
			<path id="&lt;Path&gt;" class="s23" d="m224 136.1c-1.7-1.3-2-3.6-1.2-5.4 0.1-0.1 0.2-0.1 0.2 0-0.7 2-0.1 3.7 1.2 5.3 0.1 0.1-0.1 0.2-0.2 0.1z"/>
			<path id="&lt;Path&gt;" class="s23" d="m272.6 134.9c-0.1 0.1-0.2 0-0.2 0 0-0.7 0.3-1.2 0.5-1.9q0.2-1.1 0.1-2.3c-0.1-1.6-0.8-3.2-1.8-4.5 0-0.1 0.1-0.1 0.1-0.1 1.2 1.3 2 2.7 2.2 4.3 0.2 1.3 0.2 3.4-0.9 4.5z"/>
			<path id="&lt;Path&gt;" class="s23" d="m276.9 135.2c-0.1 0.1-0.3 0.1-0.3 0 0.4-2.2 0.2-4.4-0.8-6.5 0-0.1 0.2-0.2 0.3-0.1 1.1 2.1 1.6 4.4 0.8 6.6z"/>
			<path id="&lt;Path&gt;" class="s23" d="m271.3 182.7c-3.3 1.2-5.8-2-6.9-4.1-1.7-3.2-2.8-6.8-2.6-10.2 0-0.3 0.4-0.3 0.4 0 0.2 2.9 0.7 5.7 2 8.5 1 2.3 3.2 6.5 7 5.6 0.1 0 0.2 0.1 0.1 0.2z"/>
			<path id="&lt;Path&gt;" class="s23" d="m267.3 187.3c-6.1-1-10-6.6-8.9-11.6 0.1-0.2 0.3-0.1 0.3 0-0.9 5 3.2 9.8 8.7 11.4 0.2 0 0.1 0.2-0.1 0.2z"/>
			<path id="&lt;Path&gt;" class="s23" d="m426.4 118.2c-0.2-0.2-0.6 0-0.5 0.3 2.3 4.2 3 8.6 1.9 13.2-1.1 4.4-3.9 8.3-7.8 11.4-0.1 0.1 0 0.2 0.1 0.1 8.7-5.3 11.7-17.1 6.3-25z"/>
			<path id="&lt;Path&gt;" class="s23" d="m431.1 122.9c-0.1-0.2-0.4-0.1-0.4 0 0.7 3.5 0.7 6.9-0.5 10.3-1.2 3.3-3.4 6.3-6.2 8.8-0.1 0.1 0 0.2 0.1 0.1 6.1-4.5 9.3-12.6 7-19.2z"/>
			<path id="&lt;Path&gt;" class="s23" d="m34.5 112c-5.1-0.9-10-2-14.1-4.8-3.7-2.5-6.1-5.9-7-9.8 0-0.2-0.3-0.1-0.3 0 0.9 8.7 11.9 14.4 21.3 14.8 0.2 0 0.2-0.2 0.1-0.2z"/>
			<path id="&lt;Path&gt;" class="s23" d="m20.4 111.3c-1.2-0.6-2.5-1.2-3.6-2-1.1-0.7-1.9-1.5-2.8-2.4-0.1-0.1-0.2 0-0.2 0.1 1.4 2 3.9 3.8 6.5 4.5 0.2 0 0.2-0.1 0.1-0.2z"/>
			<path id="&lt;Path&gt;" class="s23" d="m82.4 156c-2.4 2.2-4 5.2-3.8 8.2 0 0.1-0.1 0.1-0.1 0-0.4-3.1 0.9-6.2 3.8-8.3 0.1-0.1 0.3 0 0.1 0.1z"/>
			<path id="&lt;Path&gt;" class="s23" d="m77.5 156.8c-1.3 1.2-1.5 2.9-1.1 4.5 0 0.1-0.2 0.2-0.3 0.1-1-1.7-0.2-3.5 1.3-4.7 0.1 0 0.1 0 0.1 0.1z"/>
			<path id="&lt;Path&gt;" class="s23" d="m152.6 176.4c-0.5-2.5-4.5-5-7.5-4.8-0.1 0.1-0.2 0.2-0.1 0.2 1.6 0.4 3 0.7 4.3 1.5 1.4 0.9 2.2 2 3.1 3.2 0.1 0.1 0.3 0.1 0.2-0.1z"/>
			<path id="&lt;Path&gt;" class="s23" d="m156 173.6c-0.8-2.5-4.2-4.1-7-4.2-0.3 0-0.3 0.3-0.1 0.3 1.4 0.1 2.7 0.5 3.9 1.2 1.3 0.7 2 1.7 3 2.8 0 0.1 0.3 0 0.2-0.1z"/>
			<g id="&lt;Group&gt;">
				<path id="&lt;Path&gt;" class="s32" d="m123.3 129.5l-2.5-1.5 0.5-1.1q1 1.3 2 2.6z"/>
				<path id="&lt;Path&gt;" class="s32" d="m118 126.3l2.8 1.7-1.3 3-1.8-1z"/>
				<path id="&lt;Path&gt;" class="s32" d="m91.6 130.7l2 1.7-1.6 2.4-1.9-2.4z"/>
				<path id="&lt;Path&gt;" class="s32" d="m113.5 127.7l4.2 2.3-0.3 4-4.1-3.1z"/>
				<path id="&lt;Path&gt;" class="s32" d="m89.7 132l0.4 0.4-0.3 0.3q-0.1-0.3-0.1-0.7z"/>
				<path id="&lt;Path&gt;" class="s32" d="m94.9 130.6l2.5 2.8-0.7 1.6-3.1-2.6z"/>
				<path id="&lt;Path&gt;" class="s32" d="m98.6 130.7l3.1 1.7-1.4 4.2-2.9-3.2z"/>
				<path id="&lt;Path&gt;" class="s32" d="m109.9 128.4l3.4 2.5-0.2 2.3-4-2.4z"/>
				<path id="&lt;Path&gt;" class="s32" d="m106 128.9l3.1 1.9-1.2 4-3.2-3z"/>
				<path id="&lt;Path&gt;" class="s32" d="m102.6 129.9l2.1 1.9-0.8 1.8-2.2-1.2z"/>
			</g>
		</g>
	</g>
</svg>