<svg version="1.2" xmlns="http://www.w3.org/2000/svg" viewBox="0 0 410 225" width="410" height="225">
	<title>5498789-ai</title>
	<style>
		.s0 { fill: #f5f5f5 } 
		.s1 { fill: #ebebeb } 
		.s2 { fill: #263238 } 
		.s3 { fill: #ffffff } 
		.s4 { fill: #ff725e } 
		.s5 { fill: #c27461 } 
		.s6 { fill: #7d4336 } 
		.s7 { fill: #455a64 } 
		.s8 { opacity: .3;fill: #000000 } 
		.s9 { fill: #ffcfb4 } 
		.s10 { fill: #ff9d64 } 
		.s11 { fill: #824e44 } 
		.s12 { fill: #ffbf9d } 
		.s13 { fill: #5b342f } 
		.s14 { fill: #000000 } 
		.s15 { fill: #ff9a6c } 
	</style>
	<g id="Background Complete">
		<g id="&lt;Group&gt;">
			<g id="&lt;Group&gt;">
				<g id="&lt;Group&gt;">
					<path id="&lt;Path&gt;" class="s0" d="m298.1 95.5c1.4 0 2.7-0.5 3.8-1.4q-0.3 2.7-0.7 5.3-1.1 6.8-3.6 13.2-2.4 6.3-6.1 12.1-2.5 4.1-5.6 7.8-1.1 1.3-2.2 2.5-2.1 2.4-4.5 4.7-3.3 3.2-7.1 6.1-5.5 4.2-11.8 7.7-4 2.2-8.3 4.1c-13.2 5.8-28.3 9.1-44.3 9.1-9.5 0-18.6-1.1-27.2-3.3-7.5-1.8-14.7-4.4-21.3-7.7q-0.1-0.2-0.2-0.4c-2.1-3.7-2.2-9.2 2.3-11 0.8-0.4 1.8-0.6 2.5-1.1 2-1.6 0.4-4.8 2.4-6.3 1.1-0.9 2.8-0.8 4.2-1.3 2.5-1 3.3-3.6 3.1-5.9-0.2-2.2-1.1-4.4-0.8-6.7 0.5-3.4 3.8-6.9 1.9-9.9-2.1-3.5-8.1-2.9-12.4-4.5-5.9-2.1-7.8-8.2-11.7-12.5-3.4-3.8-11.6-8-17.7-6.9-4.5 0.9-6.1 3.1-6.5 5.8q-0.3-0.1-0.6-0.1c-1.7-0.2-3.6-0.2-4.5-1.4-1.1-1.3 0-3.2-1.1-4.5-0.6-0.7-1.6-1-2.4-1.5-0.8-0.4-1.5-1.3-1-2 0.4-0.6 1.5-0.8 2-1.3 0.4-0.5 0.4-1.1 0-1.6-1.7-1.6-3.6 1.8-4.6 2.6q-0.4 0.3-0.7 0.6 0.1-2.5 0.4-4.8 0.3-2.4 0.7-4.7 0 0 0 0c0.9-1.6 1.4-3.5 1.7-4.9 0.5-1.8 1.3-3.8 3-5 1.8-1.3 4.8-1.4 6.2 0.1 0.9 1.1 0.7 2.7 0.5 4q-0.5 2.7-1.1 5.5c-0.1 0.5-0.2 1.1 0.1 1.6 0.7 1.2 3 0.9 3.8-0.1 0.9-1 0.8-2.4 0.6-3.7-0.2-1.3-0.6-2.6 0-3.8 1.5-2.9 6.8-2.5 9.9-4.4 1.9-1.1 2.8-3.1 3.9-4.9 1.2-1.7 3.1-3.4 5.4-3.3 0.8 0 1.6 0.2 2.4 0.2 2.4-0.1 3.8-2.9 2.1-4.3-0.3-0.3-0.8-0.5-1-0.9-0.5-0.6 0-1.4 0.7-1.9 0.7-0.4 1.6-0.5 2.5-0.7q3-0.4 6.1-0.7c2.2-0.3 5.1-1.3 4.7-3.1-0.2-1.6-2.8-2.3-3.2-3.9-0.1-0.4-0.1-0.8-0.3-1.1-0.6-1-2.4-0.6-3.6-0.1-0.5-1.5-3-2.1-4.5-1.2-1.2 0.8-1.3 2.3-1.7 3.5-1 2.9-3.9 5.2-6.6 7.3-0.9 0.7-1.9 1.4-3.2 1.4-1.2 0.1-2.5-1-1.9-1.9 0.4-0.6 1.4-1 1.3-1.7-0.1-0.8-1.9-0.8-2.3-1.6 0.7-2.4 4.1-3.4 6.7-4.7 3.2-1.6 5.6-4.1 6.9-7 0.2-0.4 0.3-1 0.1-1.4-0.4-0.6-1.4-0.7-2.3-0.7-2 0-4.5 0.2-5.2 1.7-0.4 0.8-0.1 1.8-0.4 2.6-0.7 2.6-4.9 2.9-7.5 4.4-1 0.6-1.8 1.4-2.9 1.9-1.3 0.5-2.7 0.4-4 0.5q-0.4 0-0.7 0.1-1.3 1.4-2.4 2.8 1.1-1.4 2.4-2.8 1.3-1.7 2.8-3.2 1.8-1.8 3.6-3.5c3.6-3.4 7.6-6.4 11.8-9.2q1.1-0.7 2.2-1.4 1.3-0.8 2.7-1.6 1-0.6 2.2-1.2 0.3-0.2 0.7-0.4 1.1-0.6 2.2-1.1 1.1-0.6 2.3-1.1 1.1-0.6 2.3-1.1 0 0 0 0 1.2-0.5 2.4-1 1.2-0.5 2.3-0.9 1.4-0.5 2.8-1 1.1-0.4 2.3-0.8 0.1 0 0.1 0 1.3-0.4 2.5-0.8 0.1 0 0.1 0 1.2-0.4 2.5-0.7 1.6-0.4 3.1-0.8 1-0.2 1.9-0.4 1-0.3 2-0.4 2-0.5 4.1-0.8 0.9-0.1 1.8-0.2 1-0.2 2-0.3 1-0.1 2-0.2 1-0.2 2-0.2 0.9-0.1 1.9-0.2 4.1-0.3 8.4-0.3 1.6 0 3.1 0.1 1.6 0 3.1 0.1 1.4 0 2.9 0.2 0.6 0 1.2 0.1 0.3 0 0.6 0 2.1 0.2 4.3 0.5 0.5 0.1 1 0.1 0 0.1 0.1 0.1 1.2 0.1 2.3 0.3 0.1 0 0.1 0 3 0.5 5.9 1.2 1.5 0.3 2.9 0.7 1.5 0.3 2.9 0.7 1.5 0.4 2.9 0.9 1.3 0.4 2.5 0.8 1.1 0.4 2.2 0.8 0.8 0.3 1.5 0.5 0.2 0.1 0.3 0.1 0.9 0.4 1.7 0.7 0.7 0.3 1.3 0.6 1.3 0.5 2.6 1.1 0.3 0.1 0.6 0.3 0.6 0.2 1.2 0.5 0.7 0.4 1.5 0.7 0.7 0.4 1.4 0.8 0.8 0.3 1.5 0.7 0.7 0.4 1.4 0.8 2.9 1.6 5.6 3.4 1 0.7 1.9 1.3 0.8 0.6 1.6 1.1 0.8 0.6 1.5 1.1 0.9 0.7 1.7 1.3 1 0.8 2 1.6 0.6 0.5 1.2 1.1 0.2 0.1 0.3 0.3 0.1 0 0.2 0.1 0.7 0.6 1.3 1.2 0.3 0.2 0.4 0.4l1.3 1.2q0.6 0.6 1.2 1.2 0.5 0.5 1 1 0.7 0.7 1.4 1.5 0.9 1 1.7 1.9 0.6 0.8 1.3 1.6 1 1.3 2 2.5c3 4.1 5.5 8.3 7.6 12.8q0.1 0.3 0.2 0.6-0.7-1.2-1.5-2.2c-5.3-6.9-12.9-12.2-18.6-18.8-1.9-2.1-3.4-3.9-6.7-4.3-5-0.6-7.4 1.7-10.9-2.1-1-1.1-2.6-2-4-1.4q0.5 1.2 1.1 2.5c0 0.1 0.1 0.3 0.1 0.5-0.1 0.6-1.1 0.7-1.7 0.4-0.6-0.3-0.9-0.9-1.3-1.4-1.6-1.8-5.2-2-7.1-0.4-0.1-0.8-0.7-1.5-1.6-1.9-0.2 1.6-2.3 2.7-4.1 2.2-0.3-0.8 1.4-0.9 1.9-1.5 0.6-0.6-0.1-1.5-0.7-2-1.8-1.3-4.2-2-6.5-2.1-1.5 0-3.2 0.3-4.5-0.4-0.7-0.4-1.3-1-2.1-1.3-1.6-0.8-3.7-0.1-5.4 0.7-2.3 1-4.6 2.3-5.4 4.4-0.8 2 1 4.8 3.6 4.5 0.6 0 1.3-0.3 1.9-0.1 1 0.2 1.4 1 1.5 1.8 0 0.8-0.1 1.6 0.4 2.3 0.4 0.7 1.8 1.1 2.3 0.4 1.3-0.9 1.1-2.6 0.8-3.9-0.3-1.4-0.6-2.9 0.3-4 1-1.2 3.9-0.8 3.7 0.6-0.1 0.8-1.3 1.4-1.2 2.2 0 0.8 1.3 1.3 2.3 1.2 1 0 2-0.3 3-0.1 1 0.2 1.8 1.3 1.1 1.9-1.2 1.1-4.5-0.8-5.1 0.6-0.2 0.4 0 0.8-0.1 1.2-0.1 1.2-1.9 1.6-3.4 1.8-1.4 0.1-3 0.2-4.3-0.3-1.4-0.5-2.3-1.9-1.5-3-0.8-0.4-1.9 0-2.3 0.7-0.4 0.7-0.3 1.5-0.2 2.3-1.5-0.3-2.9 0.8-3.8 1.8-0.9 1.1-1.7 2.4-3.2 2.7-1.6 0.4-3.7-0.1-4.4 1-1.1 1.5 1.9 3.4 0.9 4.9-0.6 0.8-2.1 0.8-3.2 1-3 0.7-4 4.3-2 6.3 2 1.9 6.1 1.8 8.3-0.1 1.5-1.2 2.1-3 3.2-4.5 1.1-1.6 3.2-2.9 5.2-2.4 0.8 0.2 1.5 0.6 2.2 1.1q1.5 1 3 2c0.6 0.5 1.3 1 1.3 1.7-0.1 0.6-0.6 1-0.9 1.5-0.6 1.5 2 2.9 3.7 2.1 1.6-0.8 1.8-2.9 0.7-4.1-1.6-1.8-5.1-2.7-5-4.9 1.8-1.2 4.6 0.1 5.7 1.8 1 1.7 1 3.7 1.9 5.5 0.9 1.7 3.4 3.3 5.4 2.4q-0.8-2.3-1.6-4.5c1.3-0.8 2.9 1.5 4.4 1.1 1-0.2 1.1-1.3 0.7-2.1-0.4-0.8-1.2-1.4-1.3-2.2-0.3-1.5 1.7-2.9 3.5-2.6 1.8 0.2 3.2 1.7 3.5 3.1 0.2 0.6 0.2 1.3 0.5 1.8 0.7 1.2 2.5 1.5 3.9 2 1.5 0.5 3 1.7 2.4 2.9-0.3 0.6-0.9 1.1-0.7 1.6 0.2 0.5 1.1 0.7 1.1 1.2 0 0.4-0.5 0.6-0.8 0.7-1 0.4-2.1 0.5-3.1 0.9-0.9 0.3-1.8 1.1-1.7 2 0.1 1.2 1.9 1.8 2.7 2.8 0.8 1 0.7 2.3 1.2 3.4 0.5 1 1.5 1.8 2.3 2.7 2.5 2.7 3 6.3 4.2 9.6 0.6 1.5 1.6 3.2 3.4 3.4 1 0.2 2.1-0.1 3-0.4 2.7-0.9 5.5-1.8 7.3-3.6 1.9-1.8 2.5-4.7 0.6-6.5-0.2-0.2-0.5-0.4-0.9-0.5-0.5 0-0.9 0.3-1.4 0.4-1.4 0.5-3 0.1-4.2-0.7-1.1-0.8-1.8-2-2.4-3.1q-1.1-1.8-2.3-3.6c0.9-0.7 2.3-0.4 3.2 0.2 0.9 0.6 1.5 1.5 2.2 2.2 2.2 2.3 5.9 3.3 9.4 3.7 0.9 0 1.9 0.1 2.7 0.4 2.7 1 3.4 4.2 6.2 4.9 0.8 0.2 1.7 0.2 2.4 0.4 1.1 0.5 1.6 1.5 2 2.5 0.6 1.8 0.8 3.7 1.7 5.4 0.9 1.7 2.8 3.3 5.1 3.3z"/>
				</g>
				<g id="&lt;Group&gt;">
					<path id="&lt;Path&gt;" class="s1" d="m185.1 31.6c-1.9 1-2.8 2.7-4.3 4-1.4 1.4-4 2.3-5.7 1.2-0.8-0.5-1.2-1.4-1.3-2.3-0.1-1.2 0.2-2.5 1-3.5 0.8-1.1 2.1-2 2.8-3.1 0.6-1.2 0.5-2.8-0.9-3.4-0.8-0.3-1.7-0.2-2.4-0.6-1.2-0.7-0.4-2.5 1.1-2.9 1.4-0.4 2.9-0.1 4.5 0 5.4 0.3 9.4-2.7 13.6-5.1 3.2-1.9 10-4.2 13.7-2.2 1.5 0.7 2 2.7 0.6 3.6-0.6 0.4-1.4 0.5-2 0.9-0.7 0.6-0.8 1.4-1.2 2.1-1 1.8-4 2.5-5 4.3-0.6 1.2-0.3 2.5-1.2 3.5-0.7 0.8-1.9 1-3.1 1.3q-3.5 0.7-7.1 1.4c-1.1 0.2-2.1 0.4-3.1 0.8z"/>
				</g>
				<g id="&lt;Group&gt;">
					<path id="&lt;Path&gt;" class="s1" d="m248.9 127.3c-2.4 2.9-2.8 6.6-3.4 10.1-0.7 3.5-1.8 7.2-5.1 9.5-3.2 2.3-9.2 2.1-11-1.1-1-1.7-0.5-3.8-1-5.6-0.7-2.5-3-4.3-4.1-6.6-1-2-1-4.2-1.1-6.3-0.4-11.6-3.8-23.8-13.4-32.3-1.2-1-2.6-2-4.2-2.4-2-0.4-4.3 0.2-5.5 1.6-0.8 0.8-1.2 1.9-2.2 2.6-2 1.5-5.6 0.4-7-1.6-1.3-2-1.1-4.4-0.9-6.7q0.4-4.2 0.8-8.5c0.2-1.4 0.4-3 1.6-4.2 1.6-1.6 4.7-1.6 6.7-2.9 2.7-1.7 3-4.8 4.7-7.2 1.7-2.4 7.1-3.4 7.8-0.7 5.7-9.9 18.1 4.8 25.4 3.7 2.2-0.3 4.3-1.2 6.4-0.9 3.8 0.4 5.8 3.9 7.1 6.8q3.2 7.5 6.5 14.9c0.8 1.9 1.8 4 4.1 4.7 1.7 0.5 3.8 0.1 5.5 0.6 4.6 1.4 3.1 7.4-0.6 10.1-3.7 2.6-8.9 4.3-10.7 8.1-1.4 2.8-0.3 6.2-1.7 9-1.1 2-3.2 3.5-4.7 5.3z"/>
				</g>
				<g id="&lt;Group&gt;">
					<path id="&lt;Path&gt;" class="s1" d="m266.5 130.5c-1.5 0.2-3.3-0.4-4.5 0.4-0.7 0.5-0.8 1.3-1.1 2-0.3 1-1.1 1.9-2.1 2.4-1.1 0.5-2.6 0.6-3.5 0-1-0.6-1.3-2-0.5-2.7 0.3-0.4 0.9-0.6 1.3-0.9 2-1.6 0.6-4.5 2.2-6.4 0.9-1.1 2.3-2.2 3.3-3.3 0.7-0.9 1-1.5 2.4-1.8 6.2-1 9 9.6 2.5 10.3z"/>
				</g>
				<g id="&lt;Group&gt;" style="opacity: .6">
					<path id="&lt;Path&gt;" class="s2" d="m155.1 153.6q1.2 0.6 2.4 1.2 0.9 0.5 1.7 0.9-0.8-0.4-1.7-0.9-1.2-0.6-2.4-1.2z"/>
				</g>
				<g id="&lt;Group&gt;" style="opacity: .6">
					<path id="&lt;Path&gt;" class="s2" d="m113.4 85.8q-0.1 0.2-0.1 0.4 0 0.7 0 1.4 0-0.7 0-1.4 0-0.2 0.1-0.4z"/>
				</g>
				<g id="&lt;Group&gt;">
					<g id="&lt;Group&gt;">
						<path id="&lt;Path&gt;" class="s1" d="m131 117.7c8.8 9.7 13.7 21.3 18.8 32.7q-3.4-2.2-6.5-4.5-3.5-2.7-6.6-5.7-2.4-2.2-4.4-4.4-2.2-2.4-4.2-5-1.6-2-3-4.1-3.3-4.9-5.8-10.2c-3.5-7.7-5.6-16-6-24.7q0-0.2 0-0.5c1 0.3 2 0.7 2.9 1.2 1.9 0.8 3.9 2 4 3.7 0 0.3 0 0.6 0.2 0.9 0.2 0.2 0.6 0.3 0.9 0.3q2.4 0.5 4.8 0.6c0 1.5 0.2 3.2 0.1 4.7 0 2.3-0.9 4.5-0.6 6.7 0.4 3.2 3.1 5.8 5.4 8.3z"/>
					</g>
					<g id="&lt;Group&gt;">
						<path id="&lt;Path&gt;" class="s1" d="m126.1 98q-2.4-0.1-4.8-0.6c-0.3 0-0.7-0.1-0.9-0.3-0.2-0.3-0.2-0.6-0.2-0.9-0.1-1.7-2.1-2.9-4-3.7-0.9-0.5-1.9-0.9-2.9-1.2 0-0.4 0-1.2 0-1.6 0-0.3 0-0.3 0-0.7q0-0.7 0-1.4 0-0.7 0-1.4 0-0.2 0.1-0.4 0.3-0.3 0.7-0.6c1-0.8 2.9-4.2 4.6-2.6 0.4 0.5 0.4 1.1 0 1.6-0.5 0.5-1.6 0.7-2 1.3-0.5 0.7 0.2 1.6 1 2 0.8 0.5 1.8 0.8 2.4 1.5 1.1 1.3 0 3.2 1.1 4.5 0.9 1.2 2.8 1.2 4.5 1.4q0.3 0 0.6 0.1"/>
					</g>
					<g id="&lt;Group&gt;">
						<path id="&lt;Path&gt;" class="s1" d="m126.3 95c0.4-2.7 2-4.9 6.5-5.8 6.1-1.1 14.3 3.1 17.7 6.9 3.9 4.3 5.8 10.4 11.7 12.5 4.3 1.6 10.3 1 12.4 4.5 1.9 3-1.4 6.5-1.9 9.9-0.3 2.3 0.6 4.5 0.8 6.7 0.2 2.3-0.6 4.9-3.1 5.9-1.4 0.5-3.1 0.4-4.2 1.3-2 1.5-0.4 4.7-2.4 6.3-0.7 0.5-1.7 0.7-2.5 1.1-4.5 1.8-4.4 7.3-2.3 11q0.1 0.2 0.2 0.4-0.8-0.4-1.7-0.9-1.2-0.6-2.4-1.2-1.2-0.7-2.3-1.4-1.5-0.9-3-1.8c-5.1-11.4-10-23-18.8-32.7-2.3-2.5-5-5.1-5.4-8.3-0.3-2.2 0.6-4.4 0.6-6.7 0.1-1.5-0.1-3.2-0.1-4.7"/>
					</g>
					<g id="&lt;Group&gt;">
						<path id="&lt;Path&gt;" class="s1" d="m116.2 71.4c-0.3 1.4-0.8 3.3-1.7 4.9q0.6-2.9 1.4-5.8 0.9-2.8 2-5.6c2.1-5.3 4.8-10.3 8.2-15q1-1.5 2.2-3 1.1-1.4 2.4-2.8 0.3-0.1 0.7-0.1c1.3-0.1 2.7 0 4-0.5 1.1-0.5 1.9-1.3 2.9-1.9 2.6-1.5 6.8-1.8 7.5-4.4 0.3-0.8 0-1.8 0.4-2.6 0.7-1.5 3.2-1.7 5.2-1.7 0.9 0 1.9 0.1 2.3 0.7 0.2 0.4 0.1 1-0.1 1.4-1.3 2.9-3.7 5.4-6.9 7-2.6 1.3-6 2.3-6.7 4.7 0.4 0.8 2.2 0.8 2.3 1.6 0.1 0.7-0.9 1.1-1.3 1.7-0.6 0.9 0.7 2 1.9 1.9 1.3 0 2.3-0.7 3.2-1.4 2.7-2.1 5.6-4.4 6.6-7.3 0.4-1.2 0.5-2.7 1.7-3.5 1.5-0.9 4-0.3 4.5 1.2 1.2-0.5 3-0.9 3.6 0.1 0.2 0.3 0.2 0.7 0.3 1.1 0.4 1.6 3 2.3 3.2 3.9 0.4 1.8-2.5 2.8-4.7 3.1q-3.1 0.3-6.1 0.7c-0.9 0.2-1.8 0.3-2.5 0.7-0.7 0.5-1.2 1.3-0.7 1.9 0.2 0.4 0.7 0.6 1 0.9 1.7 1.4 0.3 4.2-2.1 4.3-0.8 0-1.6-0.2-2.4-0.2-2.3-0.1-4.2 1.6-5.4 3.3-1.1 1.8-2 3.8-3.9 4.9-3.1 1.9-8.4 1.5-9.9 4.4-0.6 1.2-0.2 2.5 0 3.8 0.2 1.3 0.3 2.7-0.6 3.7-0.8 1-3.1 1.3-3.8 0.1-0.3-0.5-0.2-1.1-0.1-1.6q0.6-2.8 1.1-5.5c0.2-1.3 0.4-2.9-0.5-4-1.4-1.5-4.4-1.4-6.2-0.1-1.7 1.2-2.5 3.2-3 5z"/>
					</g>
					<g id="&lt;Group&gt;">
						<path id="&lt;Path&gt;" class="s1" d="m301.9 94.1q-2.4 1.4-3.8 1.4c-2.3 0-4.2-1.6-5.1-3.3-0.9-1.7-1.1-3.6-1.7-5.4-0.4-1-0.9-2-2-2.5-0.7-0.2-1.6-0.2-2.4-0.4-2.8-0.7-3.5-3.9-6.2-4.9-0.8-0.3-1.8-0.4-2.7-0.4-3.5-0.4-7.2-1.4-9.4-3.7-0.7-0.7-1.3-1.6-2.2-2.2-0.9-0.6-2.3-0.9-3.2-0.2q1.2 1.8 2.3 3.6c0.6 1.1 1.3 2.3 2.4 3.1 1.2 0.8 2.8 1.2 4.2 0.7 0.5-0.1 0.9-0.4 1.4-0.4 0.4 0.1 0.7 0.3 0.9 0.5 1.9 1.8 1.3 4.7-0.6 6.5-1.8 1.8-4.6 2.7-7.3 3.6-0.9 0.3-2 0.6-3 0.4-1.8-0.2-2.8-1.9-3.4-3.4-1.2-3.3-1.7-6.9-4.2-9.6-0.8-0.9-1.8-1.7-2.3-2.7-0.5-1.1-0.4-2.4-1.2-3.4-0.8-1-2.6-1.6-2.7-2.8-0.1-0.9 0.8-1.7 1.7-2 1-0.4 2.1-0.5 3.1-0.9 0.3-0.1 0.8-0.3 0.8-0.7 0-0.5-0.9-0.7-1.1-1.2-0.2-0.5 0.4-1 0.7-1.6 0.6-1.2-0.9-2.4-2.4-2.9-1.4-0.5-3.2-0.8-3.9-2-0.3-0.5-0.3-1.2-0.5-1.8-0.3-1.4-1.7-2.9-3.5-3.1-1.8-0.3-3.8 1.1-3.5 2.6 0.1 0.8 0.9 1.4 1.3 2.2 0.4 0.8 0.3 1.9-0.7 2.1-1.5 0.4-3.1-1.9-4.4-1.1q0.8 2.2 1.6 4.5c-2 0.9-4.5-0.7-5.4-2.4-0.9-1.8-0.9-3.8-1.9-5.5-1.1-1.7-3.9-3-5.7-1.8-0.1 2.2 3.4 3.1 5 4.9 1.1 1.2 0.9 3.3-0.7 4.1-1.7 0.8-4.3-0.6-3.7-2.1 0.3-0.5 0.8-0.9 0.9-1.5 0-0.7-0.7-1.2-1.3-1.7q-1.5-1-3-2c-0.7-0.5-1.4-0.9-2.2-1.1-2-0.5-4.1 0.8-5.2 2.4-1.1 1.5-1.7 3.3-3.2 4.5-2.2 1.9-6.3 2-8.3 0.1-2-2-1-5.6 2-6.3 1.1-0.2 2.6-0.2 3.2-1 1-1.5-2-3.4-0.9-4.9 0.7-1.1 2.8-0.6 4.4-1 1.5-0.3 2.3-1.6 3.2-2.7 0.9-1 2.3-2.1 3.8-1.8-0.1-0.8-0.2-1.6 0.2-2.3 0.4-0.7 1.5-1.1 2.3-0.7-0.8 1.1 0.1 2.5 1.5 3 1.3 0.5 2.9 0.4 4.3 0.3 1.5-0.2 3.3-0.6 3.4-1.8 0.1-0.4-0.1-0.8 0.1-1.2 0.6-1.4 3.9 0.5 5.1-0.6 0.7-0.6-0.1-1.7-1.1-1.9-1-0.2-2 0.1-3 0.1-1 0.1-2.3-0.4-2.3-1.2-0.1-0.8 1.1-1.4 1.2-2.2 0.2-1.4-2.7-1.8-3.7-0.6-0.9 1.1-0.6 2.6-0.3 4 0.3 1.3 0.5 3-0.8 3.9-0.5 0.7-1.9 0.3-2.3-0.4-0.5-0.7-0.4-1.5-0.4-2.3-0.1-0.8-0.5-1.6-1.5-1.8-0.6-0.2-1.3 0.1-1.9 0.1-2.6 0.3-4.4-2.5-3.6-4.5 0.8-2.1 3.1-3.4 5.4-4.4 1.7-0.8 3.8-1.5 5.4-0.7 0.8 0.3 1.4 0.9 2.1 1.3 1.3 0.7 3 0.4 4.5 0.4 2.3 0.1 4.7 0.8 6.5 2.1 0.6 0.5 1.3 1.4 0.7 2-0.5 0.6-2.2 0.7-1.9 1.5 1.8 0.5 3.9-0.6 4.1-2.2 0.9 0.4 1.5 1.1 1.6 1.9 1.9-1.6 5.5-1.4 7.1 0.4 0.4 0.5 0.7 1.1 1.3 1.4 0.6 0.3 1.6 0.2 1.7-0.4 0-0.2-0.1-0.4-0.1-0.5q-0.6-1.3-1.1-2.5c1.4-0.6 3 0.3 4 1.4 3.5 3.8 5.9 1.5 10.9 2.1 3.3 0.4 4.8 2.2 6.7 4.3 5.7 6.6 13.3 11.9 18.6 18.8q0.8 1 1.5 2.2 0 0 0 0 0 0 0 0 0.7 1.4 1.3 2.9 0.6 1.5 1.1 3.1c0.9 2.6 1.7 4.8 2.3 7.6q0.6 4.4 0.8 5.8 0.2 1.6 0.3 3.3 0.1 1.7 0.1 3.3z"/>
					</g>
				</g>
			</g>
		</g>
		<g id="&lt;Group&gt;">
			<g id="&lt;Group&gt;">
				<path id="&lt;Path&gt;" class="s0" d="m22.8 75.8c-0.3-1.1 0.8-2.2 2-2.7 1.3-0.4 2.7-0.4 4.1-0.5 1.3-0.1 2.8-0.2 3.9-0.9 1.1-0.7 1.8-1.8 3-2.4 1.6-0.8 3.7-0.2 5.6-0.3 2.1-0.1 4.1-1.1 6-1.9 1.9-0.8 4.2-1.4 6.2-0.7 2.7 0.9 3.8 3.8 6.5 4.6 1.3 0.4 2.7 0.2 4 0.3 2.8 0.2 6.6 2 6.2 4.1z"/>
			</g>
		</g>
		<g id="&lt;Group&gt;">
			<g id="&lt;Group&gt;">
				<path id="&lt;Path&gt;" class="s1" d="m78.7 32.2c-0.2-1.1 0.8-2.2 2.1-2.7 1.2-0.4 2.6-0.4 4-0.5 1.4-0.1 2.8-0.2 3.9-0.9 1.2-0.7 1.8-1.8 3-2.4 1.7-0.8 3.7-0.2 5.6-0.3 2.2-0.1 4.1-1.1 6-1.9 2-0.8 4.3-1.4 6.3-0.7 2.6 0.9 3.7 3.8 6.5 4.6 1.2 0.4 2.6 0.2 4 0.3 2.8 0.2 6.5 2 6.1 4.1z"/>
			</g>
		</g>
		<g id="&lt;Group&gt;">
			<g id="&lt;Group&gt;">
				<path id="&lt;Path&gt;" class="s0" d="m313.5 66c-0.4-1.8 1.3-3.5 3.3-4.3 2-0.7 4.3-0.7 6.5-0.8 2.2-0.1 4.5-0.4 6.3-1.4 1.8-1.2 2.9-3 4.8-3.9 2.7-1.2 6-0.3 9-0.5 3.5-0.2 6.6-1.8 9.7-3.1 3.1-1.3 6.8-2.3 10-1.2 4.3 1.5 6.1 6.2 10.5 7.5 2 0.6 4.2 0.3 6.4 0.4 4.5 0.3 10.5 3.2 9.9 6.7z"/>
			</g>
		</g>
		<g id="&lt;Group&gt;">
			<path id="&lt;Path&gt;" class="s1" d="m331.4 36c-1.3 1.2-3.1 2.1-4.9 2.7q-3 1-6.5 2.5-3.3-2.2-5.8-4c-1.4-1-2.8-2.3-3.6-3.8-0.6-1.4-0.7-3.1-0.2-4.5 0.4-1.2 1.3-2.2 2.5-3 1.1-0.7 2.5-1.2 3.9-1.3 1.5-0.1 3.1 0.4 4.2 1.3 0.6 0.4 1 1 1.3 1.7 0.6-0.6 1.3-1.1 2.1-1.5 1.4-0.5 3.1-0.5 4.5-0.1 1.3 0.5 2.4 1.3 3.2 2.3 0.8 1 1.3 2.2 1.2 3.4-0.1 1.5-0.7 3.1-1.9 4.3z"/>
		</g>
		<g id="&lt;Group&gt;">
			<path id="&lt;Path&gt;" class="s1" d="m87.3 52.2c-0.1 1.3-0.8 2.5-1.7 3.5q-1.3 1.7-2.7 3.9-3.3-0.2-5.8-0.4c-1.5-0.2-3-0.5-4.3-1.2-1.2-0.6-2.1-1.7-2.5-2.8-0.4-0.8-0.3-1.8 0-2.7 0.3-0.9 0.9-1.7 1.8-2.3 0.9-0.5 2.1-0.8 3.3-0.6q0.9 0.1 1.7 0.5c0.1-0.5 0.3-1.1 0.6-1.6 0.6-0.8 1.6-1.5 2.8-1.7 1.1-0.2 2.2 0 3.2 0.3 1.1 0.4 2 1 2.6 1.8 0.7 0.9 1.1 2.2 1 3.3z"/>
		</g>
	</g>
	<g id="Table">
		<g id="&lt;Group&gt;">
			<path id="&lt;Path&gt;" class="s2" d="m393.1 213.6c0 0-84.2 0.1-188.1 0.1-103.9 0-188.1-0.1-188.1-0.1 0-0.1 84.2-0.1 188.1-0.1 103.9 0 188.1 0 188.1 0.1z"/>
		</g>
	</g>
	<g id="Speech Bubble">
		<g id="&lt;Group&gt;">
			<g id="&lt;Group&gt;">
				<g id="&lt;Group&gt;">
					<path id="&lt;Path&gt;" class="s3" d="m214.9 61.9l-3.2-4c-4-0.4-7.9-1.8-11-4.4-7.3-5.9-7.4-15.7-0.1-21.7 7.3-6.1 19.1-6.1 26.4-0.1 7.4 6 7.4 15.7 0.1 21.8-2.7 2.3-6.2 3.7-9.8 4.2z"/>
				</g>
				<g id="&lt;Group&gt;">
					<g id="&lt;Group&gt;">
						<path id="&lt;Path&gt;" class="s2" d="m217.3 57.7q-0.1 0.1-0.2 0.3-0.1 0.3-0.4 0.8-0.6 1.1-1.7 3.1l-0.1 0.2-0.1-0.1q-1.3-1.7-3.2-4.1l0.1 0.1c-2.8-0.3-6-1.1-8.9-2.9q-1.2-0.6-2.2-1.4c-0.6-0.6-1.3-1.2-1.9-1.9-1.2-1.3-2.2-2.8-2.8-4.5-1.3-3.4-1.2-7.5 0.8-11.1 2-3.7 5.9-6.8 10.9-8.2 2-0.6 4.1-0.9 6.2-0.9 2.1 0 4.2 0.3 6.1 0.8 1.9 0.5 3.7 1.3 5.3 2.3 1.5 0.9 2.9 2 4 3.3l0.4 0.5q0.2 0.2 0.3 0.5c0.3 0.3 0.5 0.6 0.7 0.9 0.4 0.7 0.8 1.4 1.1 2.1 0.3 0.6 0.4 1.3 0.7 2q0.1 0.5 0.2 1.1v0.5l0.1 0.5c0.1 1.3-0.1 2.7-0.3 3.9-0.3 1.2-0.7 2.4-1.4 3.5-1.1 2.1-2.8 3.7-4.4 5-1.6 1.2-3.3 2-4.7 2.6-1.4 0.5-2.6 0.8-3.4 1q-0.6 0.1-0.9 0.1-0.3 0.1-0.3 0 0 0 0.3 0 0.3-0.1 0.9-0.2c0.8-0.2 1.9-0.5 3.3-1 1.4-0.6 3.1-1.4 4.7-2.7 1.6-1.2 3.2-2.8 4.3-4.9 0.6-1.1 1-2.2 1.3-3.4 0.2-1.3 0.4-2.6 0.2-3.9v-0.5l-0.1-0.5q-0.1-0.5-0.2-1c-0.2-0.7-0.3-1.4-0.7-2-0.2-0.7-0.6-1.4-1-2-0.2-0.4-0.5-0.7-0.7-1q-0.2-0.2-0.3-0.5l-0.4-0.4c-1.1-1.2-2.4-2.3-4-3.3-1.5-0.9-3.2-1.7-5.1-2.2-1.9-0.5-3.9-0.8-6-0.8-2 0-4.1 0.3-6.1 0.9-4.9 1.4-8.7 4.4-10.7 8-2 3.6-2.1 7.6-0.8 10.9 0.6 1.7 1.6 3.2 2.8 4.5 0.5 0.6 1.2 1.2 1.8 1.8q1 0.8 2.1 1.4c2.9 1.8 6.1 2.6 8.8 2.9h0.1q1.8 2.4 3.2 4.1h-0.2q1.2-2 1.8-3.1 0.3-0.5 0.5-0.8 0.2-0.3 0.2-0.3z"/>
					</g>
				</g>
			</g>
			<g id="&lt;Group&gt;">
				<g id="&lt;Group&gt;">
					<g id="&lt;Group&gt;">
						<path id="&lt;Path&gt;" class="s4" d="m220.4 43.8c-0.6 0.8-1.7 1.5-2.8 2q-1.8 0.8-3.9 2-2.3-1.2-4-2.2c-1-0.5-2-1.3-2.6-2.2-0.6-0.8-0.8-1.9-0.6-2.8 0.1-0.8 0.6-1.5 1.3-2 0.6-0.6 1.4-1 2.4-1.1 0.9-0.2 1.9 0 2.7 0.5q0.7 0.4 1 1 0.5-0.6 1.2-1c0.9-0.5 1.9-0.6 2.8-0.4 0.9 0.2 1.7 0.7 2.3 1.3 0.6 0.5 1 1.3 1.1 2.1 0.1 0.9-0.2 2-0.9 2.8z"/>
					</g>
				</g>
			</g>
		</g>
	</g>
	<g id="Characters">
		<g id="&lt;Group&gt;">
			<path id="&lt;Path&gt;" class="s2" d="m125.7 213.5l3-18.5 65.4-2.6 4.6 21.2z"/>
			<path id="&lt;Path&gt;" class="s5" d="m207.9 131.3q19.1 13.9 21.2 17.4c3.4 5.2 1.9 9.4-0.5 11.8-1.7 1.8-8.6 1.5-11.9 0.7-4.6-1.1-6.9-3.8-10.2-6.7l-19.6-17.9z"/>
			<path id="&lt;Path&gt;" class="s4" d="m196.7 117.6q7.9 1.4 18.7 22.6l-16.8 9.1q-5.1-8.9-5.2-9.7z"/>
			<g id="&lt;Group&gt;">
				<g id="&lt;Group&gt;">
					<g id="&lt;Group&gt;">
						<g id="&lt;Group&gt;">
							<g id="&lt;Group&gt;">
								<g id="&lt;Group&gt;">
									<g id="&lt;Group&gt;">
										<g id="&lt;Group&gt;">
											<g id="&lt;Group&gt;">
												<path id="&lt;Path&gt;" class="s5" d="m225.5 128.4l-13.8 0.3-1.1-11.1q-6.1-3.5-7.1-5.3l-4-11q0.5-1.4 2.7-0.2 2.2 1.2 2.2 4.1l2.1 2.1 0.5-2.4-2.1-7.6q-1.7-5.4-0.4-5.2c1.2 0.1 2.3 1.5 3 3.8q0.7 2.4 1.6 5.4 0.4 0.9 0.6-0.9c0.1-1.8-2.1-8.3-2.2-9.3-0.1-0.9-1.1-3.1 0.5-3.6q1.5-0.4 2.2 2.7l3.5 9.5q-0.6-4.2-0.7-4.9c-0.1-0.7-0.7-2.8-0.8-4.1-0.1-1.2 0.4-2.1 1.1-2.3q1.2-0.3 1.7 0.6l2 8.5q0.7 4 0.9 4.2 0.2 0.1 0.8-2.1l-0.1-2.9q-1-3.9 0.1-4.5 1.1-0.5 1.5 0.2l1.7 7.1 0.5 8.6-0.2 6.8z"/>
											</g>
										</g>
									</g>
								</g>
							</g>
						</g>
					</g>
					<g id="&lt;Group&gt;">
						<g id="&lt;Group&gt;">
							<g id="&lt;Group&gt;">
								<g id="&lt;Group&gt;">
									<path id="&lt;Path&gt;" class="s6" d="m217.4 110.9c-0.1 0-0.7-0.5-1.9-1.3-1.1-0.7-2.8-1.8-5-1.7-0.9 0-1.8 0.3-2.5 0.7l-0.2 0.2-0.2-0.2c-0.9-1-1.8-1.8-2.4-2.4-0.6-0.6-0.9-1-0.8-1 0.1-0.1 0.4 0.3 1.1 0.8 0.6 0.6 1.6 1.3 2.6 2.3h-0.4c0.7-0.5 1.7-0.9 2.8-0.9 1.2 0 2.3 0.2 3.2 0.6 0.9 0.4 1.6 0.9 2.1 1.3 1.1 0.9 1.6 1.5 1.6 1.6z"/>
								</g>
							</g>
						</g>
					</g>
				</g>
				<path id="&lt;Path&gt;" class="s5" d="m213.8 153.4l-2.9-34.5 11.6-3 8.5 37.5z"/>
			</g>
			<g id="&lt;Group&gt;">
				<g id="&lt;Group&gt;">
					<g id="&lt;Group&gt;">
						<g id="&lt;Group&gt;">
							<path id="&lt;Path&gt;" class="s2" d="m166.2 61.8c-1.4-1.2-1.6-3.2-0.6-4.6 1-1.4 3.2-2.1 5.2-1.7 2.4-1.4 5.9-1.2 8 0.5 1.8-0.8 4.1-0.7 5.8 0.2 1.7 0.8 2.8 2.5 2.8 4.1 2-0.1 4.1 0.9 4.9 2.4 0.9 1.5 0.4 3.5-1.1 4.6 2.1 0.7 3.4 2.8 2.8 4.7-0.6 1.8-3.1 3.1-5.4 2.7"/>
						</g>
					</g>
				</g>
				<g id="&lt;Group&gt;">
					<g id="&lt;Group&gt;">
						<g id="&lt;Group&gt;">
							<path id="&lt;Path&gt;" class="s5" d="m177.7 106l-0.5 7.7c-3.9 6-13.6 7.4-19.8 2.9l-6.7-5 1.7-35.4c-0.3-9.2 5.9-17 17.1-17l1 0.1c10.4 0.5 18.6 7.5 18.8 16 0.2 8 0.3 16.8-0.1 21q-0.7 8.8-11.5 9.7z"/>
						</g>
						<g id="&lt;Group&gt;">
							<g id="&lt;Group&gt;">
								<g id="&lt;Group&gt;">
									<g id="&lt;Group&gt;">
										<g id="&lt;Group&gt;">
											<g id="&lt;Group&gt;">
												<path id="&lt;Path&gt;" class="s6" d="m177.6 108.1q-10.7 0.3-13.6-6.2 6.9 4.1 13.8 4z"/>
											</g>
										</g>
									</g>
								</g>
							</g>
						</g>
						<g id="&lt;Group&gt;">
							<g id="&lt;Group&gt;">
								<g id="&lt;Group&gt;">
									<g id="&lt;Group&gt;">
										<g id="&lt;Group&gt;">
											<g id="&lt;Group&gt;">
												<g id="&lt;Group&gt;">
													<g id="&lt;Group&gt;">
														<g id="&lt;Group&gt;">
															<ellipse id="&lt;Path&gt;" class="s2" cx="183" cy="82.7" rx="1.5" ry="1.2"/>
														</g>
													</g>
												</g>
											</g>
										</g>
									</g>
								</g>
							</g>
						</g>
						<g id="&lt;Group&gt;">
							<g id="&lt;Group&gt;">
								<g id="&lt;Group&gt;">
									<g id="&lt;Group&gt;">
										<g id="&lt;Group&gt;">
											<g id="&lt;Group&gt;">
												<g id="&lt;Group&gt;">
													<g id="&lt;Group&gt;">
														<g id="&lt;Group&gt;">
															<g id="&lt;Group&gt;">
																<path id="&lt;Path&gt;" class="s2" d="m186.7 79.5c-0.2 0.2-1.3-0.6-3-0.7-1.6-0.1-2.9 0.6-3 0.4-0.1-0.1 0.1-0.4 0.7-0.7 0.5-0.2 1.4-0.5 2.4-0.5 1 0.1 1.9 0.5 2.3 0.8 0.5 0.3 0.7 0.6 0.6 0.7z"/>
															</g>
														</g>
													</g>
												</g>
											</g>
										</g>
									</g>
								</g>
							</g>
						</g>
						<g id="&lt;Group&gt;">
							<g id="&lt;Group&gt;">
								<g id="&lt;Group&gt;">
									<g id="&lt;Group&gt;">
										<g id="&lt;Group&gt;">
											<g id="&lt;Group&gt;">
												<g id="&lt;Group&gt;">
													<g id="&lt;Group&gt;">
														<g id="&lt;Group&gt;">
															<ellipse id="&lt;Path&gt;" class="s2" cx="168" cy="82.7" rx="1.5" ry="1.2"/>
														</g>
													</g>
												</g>
											</g>
										</g>
									</g>
								</g>
							</g>
						</g>
						<g id="&lt;Group&gt;">
							<g id="&lt;Group&gt;">
								<g id="&lt;Group&gt;">
									<g id="&lt;Group&gt;">
										<g id="&lt;Group&gt;">
											<g id="&lt;Group&gt;">
												<g id="&lt;Group&gt;">
													<g id="&lt;Group&gt;">
														<g id="&lt;Group&gt;">
															<g id="&lt;Group&gt;">
																<path id="&lt;Path&gt;" class="s2" d="m170.5 79c-0.2 0.1-1.3-0.6-2.9-0.7-1.7-0.1-2.9 0.5-3.1 0.4-0.1-0.1 0.1-0.4 0.7-0.7 0.5-0.3 1.4-0.5 2.5-0.5 1 0.1 1.8 0.4 2.3 0.8 0.5 0.3 0.6 0.6 0.5 0.7z"/>
															</g>
														</g>
													</g>
												</g>
											</g>
										</g>
									</g>
								</g>
							</g>
						</g>
						<g id="&lt;Group&gt;">
							<g id="&lt;Group&gt;">
								<g id="&lt;Group&gt;">
									<g id="&lt;Group&gt;">
										<g id="&lt;Group&gt;">
											<g id="&lt;Group&gt;">
												<g id="&lt;Group&gt;">
													<g id="&lt;Group&gt;">
														<g id="&lt;Group&gt;">
															<path id="&lt;Path&gt;" class="s2" d="m175.8 89.3c0-0.1 1-0.2 2.7-0.3 0.4 0 0.8 0 0.9-0.3 0.1-0.2-0.1-0.6-0.2-1q-0.5-1.3-1.1-2.7c-1.4-3.8-2.5-7-2.3-7 0.2-0.1 1.5 3 3 6.8q0.5 1.4 1 2.7c0.1 0.4 0.4 0.9 0.1 1.4-0.1 0.3-0.4 0.4-0.7 0.5-0.3 0-0.5 0-0.7 0-1.7 0-2.7 0-2.7-0.1z"/>
														</g>
													</g>
												</g>
											</g>
										</g>
									</g>
								</g>
							</g>
						</g>
						<g id="&lt;Group&gt;">
							<g id="&lt;Group&gt;">
								<g id="&lt;Group&gt;">
									<g id="&lt;Group&gt;">
										<g id="&lt;Group&gt;">
											<g id="&lt;Group&gt;">
												<g id="&lt;Group&gt;">
													<g id="&lt;Group&gt;">
														<g id="&lt;Group&gt;">
															<path id="&lt;Path&gt;" class="s2" d="m170.9 90c0.2 0 0.1 1.5 1.6 2.6 1.4 1.1 3.3 1 3.3 1.2 0.1 0.1-0.4 0.3-1.2 0.3-0.8 0-1.9-0.3-2.8-1-0.9-0.7-1.2-1.5-1.3-2.2 0-0.6 0.2-0.9 0.4-0.9z"/>
														</g>
													</g>
												</g>
											</g>
										</g>
									</g>
								</g>
							</g>
						</g>
						<g id="&lt;Group&gt;">
							<g id="&lt;Group&gt;">
								<g id="&lt;Group&gt;">
									<g id="&lt;Group&gt;">
										<g id="&lt;Group&gt;">
											<path id="&lt;Path&gt;" class="s2" d="m171.3 73.7c-0.2 0.4-1.8 0.1-3.7 0.2-2 0.1-3.6 0.5-3.8 0.1-0.1-0.1 0.2-0.5 0.9-0.8 0.6-0.3 1.6-0.6 2.8-0.7 1.1 0 2.2 0.2 2.9 0.5 0.7 0.2 1 0.5 0.9 0.7z"/>
										</g>
									</g>
								</g>
							</g>
						</g>
						<g id="&lt;Group&gt;">
							<g id="&lt;Group&gt;">
								<g id="&lt;Group&gt;">
									<g id="&lt;Group&gt;">
										<g id="&lt;Group&gt;">
											<path id="&lt;Path&gt;" class="s2" d="m186.4 75.6c-0.4 0.3-1.5-0.1-2.8-0.2-1.4-0.1-2.5 0.1-2.8-0.2-0.1-0.2 0.1-0.5 0.6-0.8 0.5-0.2 1.4-0.4 2.3-0.4 1 0.1 1.8 0.4 2.2 0.8 0.5 0.3 0.6 0.6 0.5 0.8z"/>
										</g>
									</g>
								</g>
							</g>
						</g>
						<g id="&lt;Group&gt;">
							<g id="&lt;Group&gt;">
								<g id="&lt;Group&gt;">
									<g id="&lt;Group&gt;">
										<path id="&lt;Path&gt;" class="s2" d="m188.5 71.2q-2.4-5.6-5.5-7.1c-3.8-1.7-5.7 1.7-9.4 0.7-3.7-1-7.3-2.7-11.3-0.5-4.3 2.4-2.5 4.3-3 8.2-2.2 15.8-6 20.1-6.5 12.6-0.1-0.9-2.8-1.7-2.9-5.1-0.2-4.5 0-10 1.4-13.1 1.2-2.6 3.2-4.4 6.7-6.2 5.4-3 12.7-2.7 17.5-2.1 4.9 0.7 14 5.8 13 12.6z"/>
									</g>
								</g>
							</g>
						</g>
						<g id="&lt;Group&gt;">
							<g id="&lt;Group&gt;">
								<g id="&lt;Group&gt;">
									<g id="&lt;Group&gt;">
										<path id="&lt;Path&gt;" class="s5" d="m153.3 91.4c0 0.2-7.4 1.3-7.2-4.7 0.1-3.4 2.4-4.2 4.4-4.3 1.7-0.1 3 1.1 3 2.4-0.1 2.6-0.1 6.5-0.2 6.6z"/>
									</g>
								</g>
							</g>
						</g>
						<g id="&lt;Group&gt;">
							<g id="&lt;Group&gt;">
								<g id="&lt;Group&gt;">
									<g id="&lt;Group&gt;">
										<path id="&lt;Path&gt;" class="s6" d="m151.6 89.4c-0.3 0.2-0.7 0.3-1.2 0.2-1-0.3-1.8-1.5-1.8-2.7 0-0.6 0.2-1.2 0.5-1.6 0.3-0.5 0.8-0.9 1.4-0.9 0.3-0.1 0.5 0 0.7 0.1q0.2 0.2 0.3 0.4c0 0.3-0.1 0.4-0.1 0.4-0.1-0.1 0-0.2-0.1-0.4-0.1-0.1-0.4-0.3-0.8-0.3-0.4 0.1-0.7 0.4-1 0.8-0.2 0.5-0.4 1-0.4 1.5 0 1.1 0.7 2.1 1.4 2.4 0.4 0.1 0.8 0.1 1 0 0.2-0.1 0.3-0.2 0.3-0.2 0 0.1 0 0.2-0.2 0.3z"/>
									</g>
								</g>
							</g>
						</g>
					</g>
					<g id="&lt;Group&gt;">
						<g id="&lt;Group&gt;">
							<g id="&lt;Group&gt;">
								<path id="&lt;Path&gt;" class="s2" d="m154.9 73c-0.8 0.9-2.5 1.2-3.6 0.6-1.1-0.6-1.5-2-0.8-2.9-1.5 0.2-2.9-1.1-2.7-2.3 0.1-1.3 1.3-2.3 2.6-2.8-0.8-1.4-0.5-3.1 0.7-4.3 1.2-1.1 3.3-1.6 5.1-1.1 0.8-1.6 2.7-2.7 4.8-3 2-0.3 4.2 0.3 5.7 1.5 1.3-1.7 4-2.7 6.5-2.4 2.5 0.3 4.6 2 5.2 4 2-0.5 4.5 0.2 5.5 1.8 0.2 0.3 0.4 0.7 0.2 1.1-0.2 0.7-1.4 0.8-2.3 0.6-0.8-0.1-1.8-0.4-2.6 0-0.8 0.4-1 1.3-1.2 2-0.2 0.8-0.7 1.7-1.7 1.7-0.6 0.1-1-0.2-1.6-0.3-0.9-0.2-1.9 0.3-2.6 0.9-0.6 0.6-1.2 1.3-2.1 1.7-0.8 0.3-2.1 0.3-2.6-0.4-0.6 1.7-2.9 2.8-5 2.5-0.6 0-1.4-0.2-1.8 0.2-0.3 0.3-0.3 0.8-0.4 1.2-0.2 0.9-1.6 1.4-2.7 1.2-1.2-0.1-2.1-0.7-3-1.3"/>
							</g>
						</g>
					</g>
					<g id="&lt;Group&gt;">
						<g id="&lt;Group&gt;">
							<g id="&lt;Group&gt;">
								<g id="&lt;Group&gt;">
									<path id="&lt;Path&gt;" class="s7" d="m178.8 62.1q0 0 0 0.1 0 0.1-0.1 0.3c0 0.3-0.2 0.7-0.6 1.2-0.3 0.4-0.9 0.9-1.7 1.3-0.8 0.4-1.9 0.7-3 0.6l0.1-0.1c0.2 0.5 0.1 1.1-0.3 1.6-0.3 0.5-0.8 1-1.3 1.4-0.3 0.2-0.5 0.5-0.9 0.7q-0.5 0.2-1.2 0.3c-0.8 0-1.7-0.2-2.3-0.8l0.3-0.1c-0.3 1.2-1.2 2.4-2.5 3-0.8 0.4-1.6 0.6-2.5 0.6-0.8-0.1-1.6-0.3-2.3-0.6h0.2c-0.5 0.7-1.1 1.3-1.9 1.7-0.7 0.5-1.7 0.7-2.6 0.5-1.7-0.4-2.7-1.6-2.9-2.8l0.2 0.1c-0.9 0.3-1.8 0.3-2.6 0.2-0.7-0.2-1.3-0.5-1.7-0.7-0.4-0.3-0.6-0.6-0.7-0.8q-0.2-0.3-0.2-0.3c0-0.1 0.2 0.4 1 1 0.4 0.2 1 0.5 1.7 0.6 0.7 0.2 1.6 0.2 2.4-0.2h0.1v0.1c0.2 1.1 1.2 2.2 2.8 2.6 0.8 0.1 1.6-0.1 2.3-0.5 0.8-0.4 1.4-1 1.8-1.7l0.1-0.1 0.1 0.1c0.7 0.2 1.4 0.5 2.2 0.5 0.8 0 1.6-0.1 2.3-0.5 1.3-0.6 2.1-1.7 2.4-2.8l0.1-0.3 0.2 0.2c0.4 0.5 1.3 0.8 2 0.7q0.6 0 1.1-0.2c0.3-0.2 0.5-0.4 0.8-0.6 0.5-0.5 1-0.9 1.3-1.4 0.3-0.5 0.4-1 0.3-1.5l-0.1-0.1h0.2c1.1 0.1 2.1-0.1 2.9-0.5 0.8-0.4 1.3-0.9 1.7-1.3 0.7-0.9 0.8-1.5 0.8-1.5z"/>
								</g>
							</g>
						</g>
					</g>
				</g>
			</g>
			<g id="&lt;Group&gt;">
				<g id="&lt;Group&gt;">
					<path id="&lt;Path&gt;" class="s4" d="m194.9 185.2l2.8 18.5q-1 0.1-70.5 2.5l2.5-51.3 0.2-10.1 3.9-30.6q11.6-3.6 16.9-5 4.4 5.5 15 5.3 10.3-0.1 11.6-3.2l13.8 4.1q5.6 1.8 7 3l-2.7 23.5-0.8 6.4z"/>
					<path id="&lt;Path&gt;" class="s8" d="m191.4 133.6l-0.5 11.7-8.3 5.3-7.9-5.3v-12z"/>
				</g>
			</g>
			<path id="&lt;Path&gt;" class="s8" d="m194.7 161.6l-0.1 3.3q-5.1 2.6-14.6 5.7-7.6 2.6-51.5 9.1l0.2-4.2z"/>
			<path id="&lt;Path&gt;" class="s5" d="m135.7 131.9l5.5 25 43.8-2.4-2 11.8q-56.7 15.4-63 6.2c-5.5-7.9-1.5-37.3-0.2-44q2.1-10.4 11.9-11.7z"/>
			<path id="&lt;Path&gt;" class="s4" d="m118.1 129.9q2-13.7 17.9-16.3l7.6 38h-27.7q0.1-7.9 2.2-21.7z"/>
			<g id="&lt;Group&gt;">
				<path id="&lt;Path&gt;" class="s2" d="m119.4 151.6q0 0 0.1 0 0.2 0 0.4 0 0.5 0 1.4 0c1.2 0 3 0 5.1 0 4.4-0.1 10.5-0.1 17.2-0.1l-0.1 0.1q-0.1-0.4-0.1-0.9c-0.6-5.7-1.1-10.9-1.5-14.7-0.2-1.9-0.3-3.4-0.4-4.5q-0.1-0.7-0.1-1.2 0-0.2-0.1-0.3 0-0.1 0.1-0.1 0 0 0 0.1 0 0.1 0 0.3 0.1 0.5 0.2 1.2c0.1 1.1 0.3 2.6 0.5 4.5 0.4 3.8 0.9 9 1.6 14.7q0 0.5 0.1 0.9v0.2h-0.2c-6.7-0.1-12.8-0.1-17.2-0.1-2.1 0-3.9 0-5.1 0q-0.9 0-1.4 0-0.2 0-0.4-0.1-0.1 0-0.1 0z"/>
			</g>
			<g id="&lt;Group&gt;">
				<path id="&lt;Path&gt;" class="s2" d="m196.7 128.5q0 0 0 0.8 0 0.8-0.1 2.1c-0.1 1.8-0.3 4.3-0.6 7-0.4 2.7-0.7 5.1-1 6.9q-0.2 1.4-0.3 2.1-0.1 0.8-0.1 0.8-0.1 0 0-0.8 0.1-0.8 0.2-2.1c0.3-1.8 0.5-4.3 0.9-7 0.3-2.7 0.5-5.1 0.7-6.9q0.1-1.3 0.2-2.1 0.1-0.8 0.1-0.8z"/>
			</g>
			<g id="&lt;Group&gt;">
				<path id="&lt;Path&gt;" class="s2" d="m144.1 124.4q-0.1 0-0.4-0.5-0.3-0.4-0.7-1.1c-0.7-1-1.6-2.4-3-3.7-1.4-1.3-3.1-2.1-4.4-2.4-1.3-0.4-2.2-0.3-2.2-0.4q0 0 0.6 0c0.4 0 1 0.1 1.7 0.2 1.3 0.3 3.1 1.1 4.5 2.4 1.4 1.3 2.3 2.8 2.9 3.8q0.5 0.8 0.7 1.2 0.3 0.4 0.3 0.5z"/>
			</g>
			<path id="&lt;Path&gt;" class="s8" d="m140.1 151.6h3.5l-1.9-18.3 3.5 18.9q-4.8 0.9-4.7 1.2z"/>
		</g>
		<g id="&lt;Group&gt;">
			<path id="&lt;Path&gt;" class="s9" d="m228.1 155.1q-0.1 15.2-2.1 18.6-2.1 3.5-15.7 6.3l-11.6-0.7 9.6-10.5 3.9-4 0.9-9.7z"/>
			<g id="&lt;Group&gt;">
				<g id="&lt;Group&gt;">
					<g id="&lt;Group&gt;">
						<g id="&lt;Group&gt;">
							<path id="&lt;Path&gt;" class="s9" d="m246.5 123v-4.3c0-2.5 0.1-4.7 0-5q-10.5-0.9-11.1-9.5c-0.3-4.2-0.1-12.8 0.2-20.6 0.3-8.4 8.4-15.1 18.6-15.5l1-0.1c10.9 0.1 16.4 7.9 16 16.9l-0.7 37.8z"/>
						</g>
					</g>
				</g>
				<g id="&lt;Group&gt;">
					<g id="&lt;Group&gt;">
						<g id="&lt;Group&gt;">
							<path id="&lt;Path&gt;" class="s10" d="m246.5 113.7q6.6 0.1 13.5-3.8-3 6.4-13.5 6.1z"/>
						</g>
					</g>
				</g>
				<g id="&lt;Group&gt;">
					<g id="&lt;Group&gt;">
						<g id="&lt;Group&gt;">
							<path id="&lt;Path&gt;" class="s2" d="m253.2 87.5c0.4-0.3 1.2-0.6 2.3-0.8 1.1-0.2 2-0.2 2.6-0.2 0.6 0.1 0.9 0.2 0.8 0.3-0.1 0.1-1.5 0-3.2 0.3-1.7 0.3-2.8 1-3 0.9-0.1 0 0-0.2 0.5-0.5z"/>
						</g>
					</g>
				</g>
				<g id="&lt;Group&gt;">
					<g id="&lt;Group&gt;">
						<g id="&lt;Group&gt;">
							<ellipse id="&lt;Path&gt;" class="s2" cx="255.8" cy="90.7" rx="1.4" ry="1.1"/>
						</g>
					</g>
				</g>
				<g id="&lt;Group&gt;">
					<g id="&lt;Group&gt;">
						<g id="&lt;Group&gt;">
							<path id="&lt;Path&gt;" class="s2" d="m245.7 97.5c-0.2 0-0.4 0-0.7 0-0.2-0.1-0.6-0.2-0.7-0.5-0.2-0.5 0-0.9 0.1-1.3q0.5-1.3 1.1-2.7c1.4-3.7 2.8-6.7 3-6.6 0.2 0-0.9 3.1-2.4 6.8q-0.5 1.4-1 2.6c-0.2 0.4-0.4 0.8-0.3 1 0.1 0.3 0.5 0.3 0.9 0.3 1.7 0.2 2.7 0.3 2.7 0.3 0 0.1-1 0.1-2.7 0.1z"/>
						</g>
					</g>
				</g>
				<g id="&lt;Group&gt;">
					<g id="&lt;Group&gt;">
						<g id="&lt;Group&gt;">
							<path id="&lt;Path&gt;" class="s2" d="m254.8 81.4c0.6-0.2 1.5-0.4 2.5-0.3 1 0 1.9 0.3 2.5 0.6 0.5 0.3 0.8 0.6 0.7 0.8-0.2 0.3-1.6-0.1-3.3-0.2-1.7-0.1-3.1 0.1-3.2-0.2-0.1-0.2 0.2-0.4 0.8-0.7z"/>
						</g>
					</g>
				</g>
				<g id="&lt;Group&gt;">
					<g id="&lt;Group&gt;">
						<g id="&lt;Group&gt;">
							<path id="&lt;Path&gt;" class="s2" d="m238 83.8c0.6-0.2 1.5-0.4 2.5-0.4 1 0 1.9 0.1 2.4 0.4 0.6 0.2 0.9 0.4 0.8 0.5-0.2 0.3-1.6 0.1-3.2 0.1-1.7 0-3.1 0.3-3.2 0-0.1-0.1 0.2-0.4 0.7-0.6z"/>
						</g>
					</g>
				</g>
				<g id="&lt;Group&gt;">
					<g id="&lt;Group&gt;">
						<g id="&lt;Group&gt;">
							<path id="&lt;Path&gt;" class="s9" d="m270.7 91.5c0.1-0.1 7.5-2 7.4 4.2-0.1 6.2-7.6 4.8-7.6 4.7q-0.1-0.2 0.2-8.9z"/>
						</g>
					</g>
				</g>
				<g id="&lt;Group&gt;">
					<g id="&lt;Group&gt;">
						<g id="&lt;Group&gt;">
							<path id="&lt;Path&gt;" class="s10" d="m272.8 98c0 0 0.1 0.1 0.3 0.2 0.3 0.1 0.6 0.1 1 0 0.8-0.2 1.5-1.3 1.6-2.4 0-0.5-0.2-1.1-0.4-1.5-0.2-0.5-0.6-0.8-1-0.9-0.4 0-0.7 0.2-0.7 0.3-0.2 0.2-0.1 0.3-0.1 0.3-0.1 0.1-0.2-0.1-0.1-0.3q0-0.2 0.3-0.4c0.1-0.1 0.4-0.2 0.7-0.2 0.6 0.1 1.1 0.5 1.3 1 0.3 0.5 0.5 1.1 0.5 1.7-0.1 1.3-0.9 2.5-2 2.7-0.5 0.1-0.9 0-1.2-0.2-0.2-0.1-0.2-0.3-0.2-0.3z"/>
						</g>
					</g>
				</g>
				<g id="&lt;Group&gt;">
					<g id="&lt;Group&gt;">
						<g id="&lt;Group&gt;">
							<path id="&lt;Path&gt;" class="s2" d="m238.1 87.2c0.6-0.1 1.5 0 2.5 0.3 1.1 0.2 1.9 0.6 2.4 1 0.5 0.3 0.6 0.5 0.5 0.5-0.2 0-1.3-0.7-3-1.1-1.6-0.5-2.9-0.4-3.1-0.5-0.1-0.1 0.2-0.2 0.7-0.2z"/>
						</g>
					</g>
				</g>
				<g id="&lt;Group&gt;">
					<g id="&lt;Group&gt;">
						<g id="&lt;Group&gt;">
							<ellipse id="&lt;Path&gt;" class="s2" cx="240.8" cy="90.5" rx="1.4" ry="1.1"/>
						</g>
					</g>
				</g>
				<g id="&lt;Group&gt;">
					<g id="&lt;Group&gt;">
						<g id="&lt;Group&gt;">
							<path id="&lt;Path&gt;" class="s2" d="m221.7 75.6c0.1-0.4 0.4-0.6 0.8-0.8 0.8-0.4 1.8-0.3 2.7-0.3 2.2 0 4.5-0.4 6.6-1.2-0.7-0.3-1.4-0.7-1.9-1.2-1.2-0.9-1.8-2.4-1.2-3.7 0.1-0.2 0.3-0.5 0.6-0.5 0.4-0.1 0.8 0.3 1.1 0.6 1.1 1 2 1.4 3.6 1.3 1-0.1 2-0.2 2.8-0.6q0 0 0.1-0.1 0.5-0.4 1.1-0.9 0 0 0 0c2.7-2.1 5.1-3.6 7.5-4.3 3.5-1.1 9.4-1.4 13-0.6 3.6 0.9 6.8 3.4 7.2 6.5 2.1-1.4 5.1-1.3 7.6-0.5h0.1c2.7 0.9 4.2 3.3 4.9 5.7q0.1 0.1 0.2 0.3c0.9 1.3 2.1 2.3 3.6 3.1 0.2 0.1 0.5 0.3 0.6 0.6 0 0.2-0.3 0.4-0.5 0.6-0.7 0.3-1.5 0.6-2.3 0.7q0.4 0.8 0.9 1.6c0.3 0.4 0.6 1 0.4 1.4-0.3 0.4-0.8 0.5-1.3 0.4-0.4 0-0.9-0.3-1.3-0.5q0.5 0.9 0.9 1.9c-1 0.1-2 0-3-0.3-0.6 2.2-1.4 4.9-2.1 6.4-1.2 0-2.3-0.3-3 0.2-1 0.7-1.5 2.1-3.1 1.5-0.8-0.2-1.5-1.7-1.7-2.4-1.7-4.6-2.1-9.5-1.3-14.2-1.2-1-2.5-1.9-4-2.5l0.1 0.1c-2.9-0.9-6.2-1.8-9-0.7-2.2 0.8-3.5 2.6-5.1 4-3.2 2.8-6.9 4.2-11.4 4.2-0.5 2.6-0.3 5.9-0.5 8.3l-2.6-3.9q-0.3-0.4-0.5-0.9l-0.1-0.1c-0.2-0.4-0.5-0.9-0.8-1.4q0 0 0 0.1c-1.6 1.1-3.9-0.7-2.6-2.1q0.4-0.4 0.9-0.7c-0.8 0.5-1.9 0.8-2.8 0.5-1-0.3-1.7-1.1-1.6-1.9 0.1-0.6 0.6-1 1.2-1.3-1.3 0.1-2.6-0.2-3.7-0.7-0.7-0.4-1.4-1-1.1-1.7z"/>
						</g>
					</g>
				</g>
				<g id="&lt;Group&gt;">
					<g id="&lt;Group&gt;">
						<g id="&lt;Group&gt;">
							<path id="&lt;Path&gt;" class="s7" d="m263.5 71.4c0.6 0.6 1.3 1.6 1.6 2.9q0.2 1.1 0.2 2.3c0 0.8-0.1 1.6-0.2 2.5-0.1 0.9-0.2 1.8-0.1 2.8q0 0.7 0.2 1.5c0.1 0.5 0.2 1 0.6 1.3 0.3 0.3 0.8 0.5 1.2 0.4 0.5 0 0.9-0.2 1.2-0.5 0.7-0.6 0.9-1.4 1.1-2.1v-0.3l0.2 0.3c0.3 0.7 0.7 1.3 1.2 1.8 0.4 0.5 1.1 0.8 1.8 0.9q0.5 0 1-0.1c0.3-0.1 0.5-0.3 0.7-0.5 0.3-0.5 0.3-1-0.1-1.3l0.2-0.1c0.7 0.8 1.5 1.2 2.1 1.5q0.4 0.1 0.6 0.2 0.3 0.1 0.3 0.1 0 0-0.3 0-0.2-0.1-0.7-0.3c-0.5-0.2-1.4-0.6-2.2-1.4l0.2-0.1c0.1 0.2 0.3 0.4 0.3 0.7q0 0.4-0.3 0.7c-0.1 0.3-0.4 0.5-0.7 0.6q-0.5 0.2-1.1 0.2c-0.8-0.1-1.5-0.5-2-1-0.5-0.5-0.9-1.2-1.2-1.8h0.2c-0.2 0.7-0.4 1.5-1.1 2.1-0.3 0.3-0.8 0.5-1.3 0.6-0.6 0.1-1.1-0.1-1.5-0.4-0.4-0.5-0.6-1-0.7-1.5q-0.2-0.7-0.2-1.5c0-1 0.1-1.9 0.2-2.8 0.1-0.9 0.2-1.7 0.2-2.5q0-1.2-0.2-2.2c-0.3-1.4-0.9-2.3-1.5-2.9-0.6-0.6-1-0.8-1-0.8q0.4 0.2 1.1 0.7z"/>
						</g>
					</g>
				</g>
				<g id="&lt;Group&gt;">
					<g id="&lt;Group&gt;">
						<g id="&lt;Group&gt;">
							<path id="&lt;Path&gt;" class="s7" d="m231.2 79.1c1 0.3 2.5 0.7 4.4 0.6 1.9 0 4.2-0.5 6.3-1.8 2.1-1.1 3.9-2.9 5.5-4.9 0.8-1.1 1.4-2.1 2.1-3.1 0.8-1 1.5-1.9 2.5-2.6 0.9-0.7 2-1.2 3.2-1.5 0.5-0.1 1.1-0.1 1.6-0.1q0.8 0.1 1.5 0.3c0.9 0.3 1.7 0.7 2.2 1.2 0.5 0.4 0.9 0.9 1.1 1.3q0.3 0.6 0.4 1 0 0.2 0 0.3 0 0.1 0 0.1c0 0 0-0.5-0.5-1.4-0.2-0.3-0.6-0.8-1.1-1.2-0.5-0.5-1.3-0.9-2.1-1.2q-0.7-0.2-1.5-0.2c-0.5 0-1 0-1.6 0.1-1.1 0.2-2.1 0.7-3 1.4-1 0.7-1.8 1.6-2.5 2.6-0.7 1-1.3 2-2.1 3.1-1.6 2-3.5 3.8-5.6 5-2.1 1.2-4.4 1.7-6.4 1.8-1.9 0-3.5-0.4-4.4-0.8q-0.4-0.1-0.6-0.3-0.3-0.1-0.5-0.2-0.1-0.1-0.2-0.2-0.1 0-0.1 0c0-0.1 0.5 0.3 1.4 0.7z"/>
						</g>
					</g>
				</g>
				<g id="&lt;Group&gt;">
					<g id="&lt;Group&gt;">
						<g id="&lt;Group&gt;">
							<path id="&lt;Path&gt;" class="s7" d="m230.5 75.1q0.7 0.3 1.7 0.5 1 0.2 2.2 0.3 1.2 0 2.2-0.1 1.1-0.1 1.8-0.3c1-0.2 1.6-0.4 1.6-0.4q0 0-0.4 0.2-0.4 0.1-1.1 0.4-0.8 0.2-1.8 0.3-1.1 0.1-2.3 0.1-1.2-0.1-2.2-0.3-1.1-0.2-1.8-0.5-0.7-0.3-1.1-0.5-0.4-0.2-0.4-0.2c0.1-0.1 0.6 0.2 1.6 0.5z"/>
						</g>
					</g>
				</g>
				<g id="&lt;Group&gt;">
					<g id="&lt;Group&gt;">
						<g id="&lt;Group&gt;">
							<path id="&lt;Path&gt;" class="s10" d="m254 101.6c0.1 0.5-0.1 1.1-0.6 1.5q-0.4 0.4-0.9 0.5c-1.4 0.6-3 0-3.5-1.2l-0.6-1.4q1.4-0.4 5.2-1.3c0.2 0.6 0.4 1.2 0.4 1.9z"/>
						</g>
					</g>
				</g>
				<g id="&lt;Group&gt;">
					<g id="&lt;Group&gt;">
						<g id="&lt;Group&gt;">
							<g id="&lt;Group&gt;">
								<path id="&lt;Path&gt;" class="s2" d="m248.4 101c-0.1-0.1 2.2-0.8 5.2-1.5l0.2-0.1 0.1 0.2q0 0.1 0 0.1c0.2 0.7 0.4 1.3 0.4 1.8 0 0.6-0.2 1.2-0.6 1.5-0.7 0.7-1.5 0.8-1.4 0.7-0.1 0 0.6-0.2 1.1-0.8 0.6-0.7 0.4-1.8 0-3.1q0 0 0-0.1l0.3 0.2c-2.9 0.7-5.3 1.2-5.3 1.1z"/>
							</g>
						</g>
					</g>
				</g>
			</g>
			<g id="&lt;Group&gt;">
				<g id="&lt;Group&gt;">
					<g id="&lt;Group&gt;">
						<path id="&lt;Path&gt;" class="s7" d="m226.2 194.8l1.4-39.7-15.2 0.1q3.3-21 5.1-24.6 1.7-3.8 11.4-7.6l17.6-5.5q-0.3 3.6 10 3.8 10.6 0.1 14.8-6.2l16.5 3 4.4 28 0.3 15.5 4.1 52-74.2 0.3z"/>
					</g>
				</g>
			</g>
			<g id="&lt;Group&gt;">
				<path id="&lt;Path&gt;" class="s2" d="m228.1 136.7q0 0 0 0.2 0 0.3 0.1 0.8c0 0.7 0 1.7 0.1 2.9 0 2.4-0.1 5.8-0.2 9.5-0.2 3.8-0.4 7.1-0.5 9.6q-0.1 1.8-0.2 2.9 0 0.4-0.1 0.7 0 0.3 0 0.3 0 0 0-0.3 0-0.3 0-0.7 0-1.1 0.1-2.9c0.1-2.5 0.2-5.9 0.4-9.6 0.1-3.7 0.2-7.1 0.3-9.5 0-1.2 0-2.2 0-2.9q0-0.5 0-0.8 0-0.2 0-0.2z"/>
			</g>
			<path id="&lt;Path&gt;" class="s7" d="m287.3 118.4q7.5 0.7 11.5 5c3.7 4 10.8 16.4 10.6 16.7q-0.2 0.4-16.7 9.3l-4.1-6.2z"/>
			<g id="&lt;Group&gt;">
				<path id="&lt;Path&gt;" class="s2" d="m291 124.6q0 0 0 0.2 0 0.3 0.1 0.7 0.1 0.9 0.2 2.5c0.1 2.1 0.2 5 0.2 8.3 0.1 3.2 0.2 6.1 0.2 8.2q0.1 1.6 0.1 2.5 0 0.5 0 0.7 0 0.3 0 0.3 0 0 0-0.3 0-0.2-0.1-0.6-0.1-1-0.2-2.6c-0.1-2.1-0.2-5-0.2-8.2-0.1-3.3-0.2-6.2-0.2-8.3q-0.1-1.6-0.1-2.5 0-0.4 0-0.7 0-0.2 0-0.2z"/>
			</g>
		</g>
		<g id="&lt;Group&gt;">
			<g id="&lt;Group&gt;">
				<path id="&lt;Path&gt;" class="s11" d="m187.7 177.7v-1.2l17-3.2 15.3-2 1.8 8q-5.8 1.8-9.2 2.1c-3.4 0.4-11.6-0.7-12.9-1.6q-1.3-0.8-1.4-1.2-5.1 1.1-6.6 1.2-1.6 0.2-4-1.2z"/>
				<path id="&lt;Path&gt;" class="s9" d="m198.3 162.5h7.7l6.8 1.3 2.8 5.4q2.1 0.9 3 2c0.8 1.1-0.4 1.8-2.5 1.8q-2.7 0-4.6-2.3c-0.7 1.7-3.6 6.7-4.2 7.4-0.6 0.6-1.6 0.2-2.6-0.4q-1-0.6 0.8-4.8v-1.8l-0.8 1q-1.2 4-1.4 7.2-0.2 3.2-3.5 1.2-0.9 0.4-2.6 0-1.6-0.4-0.8-8.4l-0.6 1.2q-1 3.3-1.5 4.2c-0.5 1-1.4 0.8-2.1 0.1q-0.7-0.7 0.6-5.5z"/>
				<path id="&lt;Path&gt;" class="s12" d="m185.4 162.5l18.4 0.6 10.4 1.7q4.3 2.8 4.6 3.5 0.7 1.3-1.3 1.9l-5.4-2.8h-11.4q4.3 0.6 5.7 0.7c1.4 0.2 3.5 0.9 3.7 1.8 0.2 0.8-15.9 3.1-18.8 2.6q-3-0.6-9.5-3.8z"/>
			</g>
			<g id="&lt;Group&gt;">
				<path id="&lt;Path&gt;" class="s5" d="m187.9 154.4q18.4 2.5 18.8 3 0.4 0.4 5.2 4.8 7.1 2 6.1 3.3-0.9 1.3-2.9 0.5 2.8 3.7 1.5 4.5c-1.3 0.8-2.8 0.3-3.8-0.8q-1-1.2-4-5.2 2.4 8.3 1.2 8.5c-1.2 0.3-3.2 0.4-4-1.7q-0.8-2.2-1-3.3l-4-5.4q1.6 9.8 0.7 10.6-2.4 0.6-3.2-1.1-0.9-1.7-2-5.6l-2-4.2-0.2 2.7q1.7 5 0.7 5.3c-1.1 0.4-2.4 0-3.1-1.1-0.8-1.2-1.5-2.5-1.9-3.6q-0.2-0.7-1.3-2.9l-3.9-0.5z"/>
				<g id="&lt;Group&gt;">
					<path id="&lt;Path&gt;" class="s6" d="m210.6 160.9c0 0 1.1 1.1 2.4 2.6 1.3 1.6 2.3 2.8 2.2 2.8 0 0.1-1.1-1.1-2.4-2.6-1.3-1.5-2.3-2.8-2.2-2.8z"/>
				</g>
				<g id="&lt;Group&gt;">
					<path id="&lt;Path&gt;" class="s6" d="m204.4 158.1c0 0 0.4 0.3 0.9 0.8 0.5 0.6 1.1 1.4 1.7 2.3 0.6 0.9 1.1 1.8 1.4 2.4 0.4 0.6 0.5 1 0.5 1 0 0-0.3-0.3-0.6-0.9-0.4-0.7-0.9-1.5-1.5-2.4-0.6-0.9-1.2-1.7-1.7-2.3-0.4-0.5-0.7-0.9-0.7-0.9z"/>
				</g>
				<g id="&lt;Group&gt;">
					<path id="&lt;Path&gt;" class="s6" d="m199 158.5c0 0 0.3 0.1 0.6 0.5 0.4 0.3 0.8 0.8 1 1.4 0.3 0.6 0.4 1.2 0.4 1.6 0.1 0.4 0.1 0.7 0 0.7 0 0-0.1-0.3-0.2-0.7-0.1-0.4-0.2-0.9-0.5-1.5-0.2-0.6-0.5-1.1-0.8-1.4-0.3-0.4-0.5-0.5-0.5-0.6z"/>
				</g>
				<g id="&lt;Group&gt;">
					<path id="&lt;Path&gt;" class="s6" d="m192.4 159c0.1 0 0.3 0 0.7 0.3 0.4 0.2 0.8 0.6 1.1 1.1 0.4 0.5 0.5 1 0.4 1.4 0 0.4-0.1 0.6-0.1 0.6-0.1 0 0.1-0.9-0.5-1.9-0.6-1-1.6-1.5-1.6-1.5z"/>
				</g>
			</g>
		</g>
		<g id="&lt;Group&gt;">
			<path id="&lt;Path&gt;" class="s8" d="m226.8 176.1l64.6-17.1 4.4 16.1-17.7 3q-50.1 3-51.4 3z"/>
			<path id="&lt;Path&gt;" class="s11" d="m220 171.3l46.4-8.8q42.2-20.2 42.9-20.6 0.7-0.3-3.3 20.6-26.9 11.7-34.6 13.2-4.2 0.8-51 4z"/>
			<g id="&lt;Group&gt;">
				<g id="&lt;Group&gt;">
					<g id="&lt;Group&gt;">
						<g id="&lt;Group&gt;">
							<path id="&lt;Path&gt;" class="s2" d="m334.2 88c2.9-2.6 9.9-2.1 11.5-0.4 2.4-1 5.8-0.1 7 1.9q3.7 0.7 7.4 1.4c1.2 0.3 2.6 0.5 3.5 1.2 1 0.8 1.4 2.1 0.6 2.9 2.6 0.6 3.6 3.8 1.6 5.3 1.1 1 0.9 2.7-0.4 3.4 2 2 3.6 4.3 4.7 6.8 0.4 1.1 0.8 2.2 0.3 3.3-0.4 1-2.1 1.7-3.2 1 0.7 0.9 0.8 2.1 0.1 3 1.3 0 1.6 1.6 0.8 2.3-0.9 0.8-2.3 0.9-3.6 0.8-1.2 0-2.6-0.1-3.6 0.5q0.1 0.5 0.4 0.7c2.1 1.4 2.7 3.9 1.1 5.8q-0.3 0.2-0.4 0.4c-0.8 0.9-2.6 1.6-3.7 2.1-2.9 1.2-4.6 1-7.7 1.3 0.8 1.7-4.4 5.4-10.2 1.7-11.8 2.5-20.3 3.4-32.5 3.3-1.8 0-3.8-0.2-4.6-1.5-1.4 0.3-2.9-0.2-4-1.1-1-0.8-1.6-1.9-2.2-3-3-0.7-5.3-3.1-5.4-5.7-2.1-1.3-3.3-3.3-3.5-5.5-2.9-0.7-4.5-3.9-3.1-6.1 0.7-2.9 2-5.8 3.7-8.4-1.9-0.4-2.7-2.6-1.8-4.1 0.8-1.6 2.6-2.5 4.4-3.4-1.5 0.3-2.8-1.3-2.4-2.5 0.3-1.2 1.7-2.1 3-2.7 2-0.9 4.1-1.7 6.2-2.2 0.8-2.2 4.1-4.6 6.6-5.5 9.9-3.8 16.9-4.7 29.4 3z"/>
						</g>
					</g>
					<g id="&lt;Group&gt;">
						<g id="&lt;Group&gt;">
							<path id="&lt;Path&gt;" class="s11" d="m306.5 103.3c0.8-5.6 5.9-12.3 12.6-11.4l21 5.6c2 0.2 3.5 1.8 3.3 3.5l-3.5 37.5c-0.5 4.9-5.1 8.8-11 9.4-7.5 0.8-14.2-4.1-14-10.4 0-2.6 0.1-4.5 0.1-4.5q-8.7-1.7-9.8-11.1c-0.5-4.7 0.3-12.4 1.3-18.6z"/>
						</g>
					</g>
					<g id="&lt;Group&gt;">
						<g id="&lt;Group&gt;">
							<g id="&lt;Group&gt;">
								<g id="&lt;Group&gt;">
									<g id="&lt;Group&gt;">
										<g id="&lt;Group&gt;">
											<g id="&lt;Group&gt;">
												<g id="&lt;Group&gt;">
													<g id="&lt;Group&gt;">
														<g id="&lt;Group&gt;">
															<g id="&lt;Group&gt;">
																<g id="&lt;Group&gt;">
																	<g id="&lt;Group&gt;">
																		<g id="&lt;Group&gt;">
																			<g id="&lt;Group&gt;">
																				<g id="&lt;Group&gt;">
																					<g id="&lt;Group&gt;">
																						<g id="&lt;Group&gt;">
																							<g id="&lt;Group&gt;">
																								<path id="&lt;Path&gt;" class="s2" d="m311.9 109.9c0.8 0.1 1.4 0.6 1.3 1.3-0.1 0.6-0.8 1.1-1.6 1-0.8-0.1-1.4-0.7-1.3-1.3 0.1-0.6 0.8-1.1 1.6-1z"/>
																							</g>
																						</g>
																					</g>
																				</g>
																			</g>
																		</g>
																	</g>
																</g>
															</g>
														</g>
													</g>
												</g>
											</g>
										</g>
										<g id="&lt;Group&gt;">
											<g id="&lt;Group&gt;">
												<g id="&lt;Group&gt;">
													<g id="&lt;Group&gt;">
														<g id="&lt;Group&gt;">
															<g id="&lt;Group&gt;">
																<g id="&lt;Group&gt;">
																	<g id="&lt;Group&gt;">
																		<g id="&lt;Group&gt;">
																			<g id="&lt;Group&gt;">
																				<g id="&lt;Group&gt;">
																					<g id="&lt;Group&gt;">
																						<g id="&lt;Group&gt;">
																							<g id="&lt;Group&gt;">
																								<g id="&lt;Group&gt;">
																									<path id="&lt;Path&gt;" class="s2" d="m308.8 106.7c0.5-0.2 1.3-0.5 2.3-0.5 1 0.1 1.8 0.4 2.3 0.8 0.5 0.3 0.6 0.6 0.5 0.6-0.1 0.2-1.2-0.5-2.8-0.6-1.6-0.1-2.7 0.5-2.9 0.4-0.1-0.1 0.1-0.4 0.6-0.7z"/>
																								</g>
																							</g>
																						</g>
																					</g>
																				</g>
																			</g>
																		</g>
																	</g>
																</g>
															</g>
														</g>
													</g>
												</g>
											</g>
										</g>
									</g>
									<g id="&lt;Group&gt;">
										<g id="&lt;Group&gt;">
											<g id="&lt;Group&gt;">
												<g id="&lt;Group&gt;">
													<g id="&lt;Group&gt;">
														<g id="&lt;Group&gt;">
															<g id="&lt;Group&gt;">
																<g id="&lt;Group&gt;">
																	<g id="&lt;Group&gt;">
																		<g id="&lt;Group&gt;">
																			<g id="&lt;Group&gt;">
																				<g id="&lt;Group&gt;">
																					<g id="&lt;Group&gt;">
																						<g id="&lt;Group&gt;">
																							<g id="&lt;Group&gt;">
																								<path id="&lt;Path&gt;" class="s2" d="m326.3 110.4c0.8 0.1 1.4 0.6 1.3 1.3-0.1 0.6-0.8 1.1-1.6 1-0.8-0.1-1.4-0.7-1.3-1.3 0.1-0.6 0.8-1.1 1.6-1z"/>
																							</g>
																						</g>
																					</g>
																				</g>
																			</g>
																		</g>
																	</g>
																</g>
															</g>
														</g>
													</g>
												</g>
											</g>
										</g>
										<g id="&lt;Group&gt;">
											<g id="&lt;Group&gt;">
												<g id="&lt;Group&gt;">
													<g id="&lt;Group&gt;">
														<g id="&lt;Group&gt;">
															<g id="&lt;Group&gt;">
																<g id="&lt;Group&gt;">
																	<g id="&lt;Group&gt;">
																		<g id="&lt;Group&gt;">
																			<g id="&lt;Group&gt;">
																				<g id="&lt;Group&gt;">
																					<g id="&lt;Group&gt;">
																						<g id="&lt;Group&gt;">
																							<g id="&lt;Group&gt;">
																								<g id="&lt;Group&gt;">
																									<path id="&lt;Path&gt;" class="s2" d="m324.2 107.8c0.5-0.3 1.4-0.6 2.4-0.5 0.9 0 1.8 0.4 2.2 0.7 0.5 0.3 0.7 0.6 0.6 0.7-0.2 0.1-1.3-0.6-2.9-0.7-1.5 0-2.7 0.6-2.9 0.4-0.1-0.1 0.1-0.3 0.6-0.6z"/>
																								</g>
																							</g>
																						</g>
																					</g>
																				</g>
																			</g>
																		</g>
																	</g>
																</g>
															</g>
														</g>
													</g>
												</g>
											</g>
										</g>
									</g>
									<g id="&lt;Group&gt;">
										<g id="&lt;Group&gt;">
											<g id="&lt;Group&gt;">
												<g id="&lt;Group&gt;">
													<g id="&lt;Group&gt;">
														<g id="&lt;Group&gt;">
															<g id="&lt;Group&gt;">
																<g id="&lt;Group&gt;">
																	<g id="&lt;Group&gt;">
																		<g id="&lt;Group&gt;">
																			<g id="&lt;Group&gt;">
																				<g id="&lt;Group&gt;">
																					<g id="&lt;Group&gt;">
																						<g id="&lt;Group&gt;">
																							<g id="&lt;Group&gt;">
																								<path id="&lt;Path&gt;" class="s2" d="m314.6 117.6c-0.2 0-0.4-0.1-0.7-0.1-0.2-0.1-0.5-0.3-0.6-0.6-0.2-0.5 0.1-0.9 0.3-1.2q0.6-1.2 1.3-2.5c2-3.5 3.7-6.3 3.8-6.2 0.2 0-1.2 2.9-3.1 6.4q-0.8 1.3-1.4 2.5c-0.2 0.3-0.4 0.7-0.4 0.9 0.1 0.3 0.5 0.3 0.9 0.4 1.5 0.3 2.5 0.4 2.5 0.5 0 0.1-1 0-2.6-0.1z"/>
																							</g>
																						</g>
																					</g>
																				</g>
																			</g>
																		</g>
																	</g>
																</g>
															</g>
														</g>
													</g>
												</g>
											</g>
										</g>
									</g>
									<g id="&lt;Group&gt;">
										<g id="&lt;Group&gt;">
											<g id="&lt;Group&gt;">
												<g id="&lt;Group&gt;">
													<g id="&lt;Group&gt;">
														<g id="&lt;Group&gt;">
															<g id="&lt;Group&gt;">
																<g id="&lt;Group&gt;">
																	<g id="&lt;Group&gt;">
																		<g id="&lt;Group&gt;">
																			<g id="&lt;Group&gt;">
																				<g id="&lt;Group&gt;">
																					<g id="&lt;Group&gt;">
																						<g id="&lt;Group&gt;">
																							<path id="&lt;Path&gt;" class="s13" d="m315 133q7.6 0.8 15.5-2.6-4.2 6.3-15.6 4.8z"/>
																						</g>
																					</g>
																				</g>
																			</g>
																		</g>
																	</g>
																</g>
															</g>
														</g>
													</g>
												</g>
											</g>
										</g>
									</g>
								</g>
							</g>
						</g>
						<g id="&lt;Group&gt;">
							<g id="&lt;Group&gt;">
								<g id="&lt;Group&gt;">
									<g id="&lt;Group&gt;">
										<g id="&lt;Group&gt;">
											<g id="&lt;Group&gt;">
												<g id="&lt;Group&gt;">
													<g id="&lt;Group&gt;">
														<g id="&lt;Group&gt;">
															<g id="&lt;Group&gt;">
																<g id="&lt;Group&gt;">
																	<g id="&lt;Group&gt;">
																		<g id="&lt;Group&gt;">
																			<g id="&lt;Group&gt;">
																				<path id="&lt;Path&gt;" class="s2" d="m324.3 102.4c0.7-0.2 1.8-0.3 2.9-0.1 1.1 0.1 2 0.5 2.6 0.9 0.5 0.4 0.8 0.7 0.6 0.9-0.2 0.3-1.7-0.3-3.5-0.5-1.9-0.3-3.4-0.2-3.6-0.6 0-0.1 0.3-0.4 1-0.6z"/>
																			</g>
																		</g>
																	</g>
																</g>
															</g>
														</g>
													</g>
												</g>
											</g>
										</g>
									</g>
								</g>
							</g>
						</g>
						<g id="&lt;Group&gt;">
							<g id="&lt;Group&gt;">
								<g id="&lt;Group&gt;">
									<g id="&lt;Group&gt;">
										<g id="&lt;Group&gt;">
											<g id="&lt;Group&gt;">
												<g id="&lt;Group&gt;">
													<g id="&lt;Group&gt;">
														<g id="&lt;Group&gt;">
															<g id="&lt;Group&gt;">
																<g id="&lt;Group&gt;">
																	<g id="&lt;Group&gt;">
																		<g id="&lt;Group&gt;">
																			<g id="&lt;Group&gt;">
																				<path id="&lt;Path&gt;" class="s2" d="m309.6 102.2c0.5-0.3 1.3-0.5 2.2-0.5 0.9 0.1 1.7 0.3 2.1 0.6 0.5 0.3 0.6 0.6 0.5 0.8-0.3 0.3-1.4 0-2.7 0-1.3-0.1-2.4 0.2-2.6-0.2-0.1-0.1 0-0.4 0.5-0.7z"/>
																			</g>
																		</g>
																	</g>
																</g>
															</g>
														</g>
													</g>
												</g>
											</g>
										</g>
									</g>
								</g>
							</g>
						</g>
					</g>
					<g id="&lt;Group&gt;">
						<g id="&lt;Group&gt;">
							<path id="&lt;Path&gt;" class="s2" d="m301.2 107.7c0.2-1.4 0.8-2.9 2-4 0.7-0.6 1.6-1 2.2-1.6 1.3-1.4 1.1-3.3 1.7-5 0.8-2.2 2.9-4 5.5-4.7 2.1-0.6 4.5-0.5 6.6-1.3 1.5-0.7 2.6-1.8 4.2-2.3 3-1.1 6.4 0.2 9.2 1.6 0.5 1.9-1 3.4-2.3 4.9-1.4 1.5-3.7 2.5-6 2.6-1.8 0.1-3.8-0.3-5.1 0.7-1.3 1.1-0.9 3-2 4.3-1.6 1.8-5.1 1-7.4 2.1-1.8 0.9-2.6 2.6-3.6 4.1-0.9 1.6-2.5 3.1-4.5 3-0.3-1.4-0.6-2.9-0.5-4.4z"/>
						</g>
					</g>
					<g id="&lt;Group&gt;">
						<g id="&lt;Group&gt;">
							<path id="&lt;Path&gt;" class="s2" d="m328.1 93.7c5.2 0 10.4 0.9 15.2 2.5 1.4 0.5 2.9 1.1 3.7 2.2 0.7 0.9 0.8 2.1 0.7 3.2-0.1 3.6-1.9 7.8-3.6 11.1l-5.4 2.5c-4.1-0.8-2.1-6.6-1.8-9.6-2.9-1-4.8-3.6-4.8-6.1-2.3-1.3-3.9-3.5-4-5.8z"/>
						</g>
					</g>
					<g id="&lt;Group&gt;">
						<g id="&lt;Group&gt;">
							<g id="&lt;Group&gt;">
								<g id="&lt;Group&gt;">
									<g id="&lt;Group&gt;">
										<g id="&lt;Group&gt;">
											<g id="&lt;Group&gt;">
												<path id="&lt;Path&gt;" class="s11" d="m338.8 114c0.2-2 3.2-2.4 5.3-1.3 1.1 0.6 2 1.7 1.8 3.8-0.5 5.7-7.4 4.1-7.4 4 0-0.1 0.1-4.2 0.3-6.5z"/>
											</g>
										</g>
									</g>
								</g>
							</g>
						</g>
					</g>
					<g id="&lt;Group&gt;">
						<g id="&lt;Group&gt;">
							<g id="&lt;Group&gt;">
								<g id="&lt;Group&gt;">
									<g id="&lt;Group&gt;">
										<g id="&lt;Group&gt;">
											<g id="&lt;Group&gt;">
												<g id="&lt;Group&gt;">
													<path id="&lt;Path&gt;" class="s13" d="m340.9 118.4c0 0 0.1 0.1 0.3 0.2 0.2 0.1 0.5 0.2 0.9 0.1 0.7-0.2 1.4-1.1 1.5-2.1 0.1-0.6 0-1.1-0.2-1.5-0.1-0.4-0.4-0.7-0.8-0.8-0.4-0.1-0.6 0.1-0.7 0.2-0.1 0.2-0.1 0.3-0.2 0.3 0 0-0.1-0.1 0-0.3q0-0.2 0.3-0.4c0.2-0.1 0.4-0.1 0.7-0.1 0.5 0.1 0.9 0.5 1.1 1 0.3 0.4 0.4 1 0.3 1.6-0.1 1.1-0.9 2.2-2 2.3-0.5 0.1-0.9 0-1-0.2-0.2-0.1-0.3-0.3-0.2-0.3z"/>
												</g>
											</g>
										</g>
									</g>
								</g>
							</g>
						</g>
					</g>
					<g id="&lt;Group&gt;">
						<g id="&lt;Group&gt;">
							<path id="&lt;Path&gt;" class="s7" d="m342.5 121.7c-0.5-0.1-0.7-0.4-0.8-0.6-0.1-0.1-0.1-0.1-0.1-0.2q0-0.1 0-0.1c0 0 0 0.1 0.1 0.3 0.1 0.2 0.4 0.4 0.8 0.6q0.6 0.2 1.7 0.3 0.5 0 1.1-0.1c0.4 0 0.8-0.1 1.1-0.3h0.1v0.1c0.2 0.7 0.8 1.5 1.8 2 1 0.4 2.4 0.4 3.5-0.2v-0.1l0.1 0.1c0.3 0.5 1.1 0.6 1.8 0.4 0.7-0.2 1.1-0.8 1.2-1.4 0-0.7-0.2-1.3-0.7-1.8-0.5-0.6-1.1-1-1.8-1.5l-0.1-0.1h0.1c0.6-0.3 0.9-0.7 1.1-1.3 0.1-0.5 0-1-0.2-1.5-0.5-1.1-1.6-1.8-2.7-2.6h-0.1l0.1-0.1c0.4-0.4 0.6-1 0.6-1.5 0-0.6-0.3-1.2-0.7-1.6-0.8-0.9-2.1-1.5-3.2-2h-0.1v-0.1c0.4-1.1 0-2.4-1-3.3-0.9-0.9-2.3-1.3-3.7-1.2h-0.1v-0.1c0.3-1-0.1-1.9-0.8-2.6-0.7-0.8-1.7-1.2-2.8-1.2h-0.1v-0.1c0.1-1-0.6-1.9-1.4-2.4-0.8-0.6-1.8-0.8-2.8-0.7 0-0.6-0.3-1.1-0.5-1.5q-0.5-0.6-1-1c-0.8-0.6-1.6-0.8-2.3-0.9q-0.1 0-0.3 0-0.1 0-0.2 0-0.2 0-0.4 0c-0.3 0.1-0.5 0.1-0.7 0.2q-0.2 0-0.4 0.1-0.1 0-0.1 0 0 0 0.1 0 0.1-0.1 0.4-0.2c0.2 0 0.4-0.1 0.7-0.1q0.2 0 0.4-0.1 0.1 0 0.2 0 0.2 0 0.3 0c0.7 0.1 1.6 0.3 2.3 0.9q0.6 0.4 1.1 1.1c0.3 0.4 0.5 0.9 0.5 1.5l-0.1-0.1c1-0.1 2 0.1 2.9 0.7 0.9 0.6 1.5 1.5 1.5 2.5l-0.1-0.1c1.1 0 2.2 0.5 2.9 1.3 0.8 0.7 1.2 1.7 0.9 2.7l-0.1-0.1c1.4-0.1 2.9 0.4 3.9 1.3 1 0.9 1.4 2.2 1 3.5l-0.1-0.1c1.2 0.5 2.5 1 3.4 2 0.4 0.5 0.7 1.1 0.7 1.7 0.1 0.6-0.2 1.2-0.7 1.6v-0.1c0.6 0.4 1.1 0.7 1.6 1.2 0.5 0.4 0.9 0.9 1.2 1.4 0.2 0.5 0.3 1.1 0.2 1.7-0.2 0.5-0.6 1-1.2 1.3v-0.1c0.7 0.4 1.3 0.9 1.8 1.5 0.5 0.5 0.8 1.2 0.7 1.9q0 0.5-0.3 0.9c-0.2 0.3-0.6 0.5-0.9 0.6-0.4 0.1-0.8 0.1-1.2 0.1-0.3-0.1-0.7-0.3-0.9-0.5h0.2c-1.2 0.6-2.7 0.7-3.7 0.2-1-0.5-1.6-1.3-1.8-2.1h0.1c-0.4 0.2-0.8 0.3-1.2 0.3q-0.6 0.1-1.1 0.1"/>
						</g>
					</g>
					<g id="&lt;Group&gt;">
						<g id="&lt;Group&gt;">
							<path id="&lt;Path&gt;" class="s7" d="m368.3 114.8c0.1-0.3 0.3-0.7 0.3-1.2 0.1-0.4 0-1.1-0.5-1.7-0.5-0.6-1.3-1.1-2.4-1.3h-0.1c0.3-0.9 0.1-1.9-0.5-2.8q-0.5-0.7-1.3-1.1c-0.6-0.4-1.2-0.5-1.9-0.8q-0.5-0.2-0.9-0.4-0.5-0.4-0.7-0.8c-0.3-0.6-0.4-1.2-0.8-1.8-0.7-1.1-2.3-1.9-3.9-1.7h-0.2l0.1-0.1c0.2-1.2-0.3-2.6-1.4-3.6-1.1-1.1-2.9-1.6-4.5-1.4h-0.1v-0.1c0.3-1.6-0.8-3.2-2.4-3.9-1.5-0.7-3.4-0.5-4.8 0.2l-0.1-0.1c-0.6-0.5-1.5-0.9-2.3-1.2q-1.2-0.4-2.4-0.5c-1.6-0.2-3-0.1-4.1 0.1-1.1 0.2-1.9 0.5-2.4 0.8-0.6 0.3-0.8 0.4-0.8 0.4q0 0 0.2-0.1c0.1-0.1 0.3-0.2 0.5-0.3 0.5-0.3 1.4-0.6 2.5-0.8 1.1-0.2 2.5-0.4 4.1-0.2q1.2 0.1 2.5 0.5c0.8 0.3 1.7 0.6 2.4 1.2h-0.2c1.4-0.7 3.4-0.9 5-0.1 1.7 0.7 2.8 2.3 2.5 4l-0.1-0.1c1.7-0.2 3.5 0.4 4.7 1.5 1.1 1 1.6 2.5 1.4 3.8l-0.2-0.1c1.8-0.2 3.5 0.6 4.2 1.7 0.4 0.6 0.5 1.3 0.8 1.8q0.2 0.4 0.6 0.7 0.4 0.3 0.9 0.5c0.6 0.2 1.3 0.4 1.9 0.8q0.8 0.5 1.3 1.2c0.7 0.9 0.8 1.9 0.6 2.8l-0.1-0.1c1.1 0.2 2 0.7 2.5 1.4 0.5 0.6 0.6 1.2 0.5 1.8 0 0.5-0.2 0.8-0.4 1.1q-0.1 0.2-0.2 0.3c0 0 0.1-0.1 0.2-0.3z"/>
						</g>
					</g>
					<g id="&lt;Group&gt;">
						<g id="&lt;Group&gt;">
							<path id="&lt;Path&gt;" class="s7" d="m301.8 115.3q-0.1-0.2-0.4-0.5-0.3-0.2-0.8-0.3c-0.3-0.1-0.7-0.2-1.1-0.4-0.4-0.2-0.7-0.6-0.8-1-0.2-0.4-0.2-0.8-0.2-1.3 0-0.5 0.1-1 0.1-1.5 0.1-1-0.5-2.1-0.8-3.3-0.1-0.7-0.2-1.3-0.1-2q0.2-0.5 0.5-0.9c0.2-0.3 0.5-0.6 0.9-0.8 0.8-0.3 1.7-0.4 2.5-0.6 0.4-0.1 0.8-0.3 1.2-0.5 0.4-0.2 0.6-0.5 0.8-0.8 0.4-0.7 0.5-1.4 0.8-2.2 0.1-0.4 0.2-0.8 0.5-1.1 0.3-0.4 0.7-0.7 1.1-0.8 0.7-0.2 1.4-0.2 2-0.2 0.6 0 1.3-0.2 1.6-0.6 0.4-0.5 0.5-1 0.7-1.4 0.2-0.5 0.6-1 1-1.4 0.8-0.7 2-1.2 3.2-1.2 1.1 0 2.2 0.4 3 1h-0.1c0.9-1.6 2.6-2.5 4.3-2.9 0.8-0.2 1.6-0.2 2.3-0.1q1.1 0.1 2 0.5c1.1 0.5 1.6 1.1 2 1.6q0.2 0.3 0.3 0.5 0 0.1 0 0.2 0.1 0 0 0 0 0 0 0 0-0.1-0.1-0.2-0.1-0.1-0.3-0.5c-0.3-0.4-0.9-1.1-2-1.5q-0.8-0.4-1.9-0.5c-0.7-0.1-1.5-0.1-2.3 0.1-1.6 0.4-3.3 1.3-4.2 2.9v0.1l-0.1-0.1c-0.8-0.6-1.8-0.9-2.9-0.9-1.1 0-2.3 0.4-3.1 1.1q-0.6 0.6-0.9 1.3c-0.2 0.5-0.3 1-0.7 1.5q-0.3 0.3-0.8 0.5-0.5 0.1-1 0.2c-0.6 0-1.3 0-1.9 0.2-0.4 0.1-0.8 0.3-1 0.7-0.3 0.3-0.4 0.7-0.5 1-0.3 0.8-0.4 1.6-0.8 2.3-0.2 0.3-0.5 0.7-0.9 0.9-0.4 0.2-0.8 0.3-1.2 0.4-0.9 0.2-1.8 0.3-2.5 0.7-0.7 0.3-1.1 0.9-1.3 1.6-0.1 0.6-0.1 1.2 0.1 1.8 0.3 1.2 0.8 2.3 0.8 3.4 0 0.5-0.1 1-0.1 1.5q-0.1 0.7 0.1 1.3c0.1 0.4 0.4 0.7 0.8 0.9 0.3 0.2 0.7 0.3 1 0.4 0.4 0.1 0.7 0.2 0.9 0.4q0.3 0.2 0.4 0.5c0.1 0.3-0.1 0.4-0.1 0.4 0 0 0.2-0.1 0-0.4z"/>
						</g>
					</g>
					<g id="&lt;Group&gt;">
						<g id="&lt;Group&gt;">
							<path id="&lt;Path&gt;" class="s7" d="m288.6 106.6q0.1-0.1 0.2-0.3 0.3-0.5 0.7-1.3c0.3-0.5 0.7-1.2 1.2-1.9 0.5-0.7 1.2-1.5 2.4-2.1 0.6-0.2 1.2-0.4 1.9-0.6 0.6-0.2 1.2-0.6 1.5-1.1 0.4-0.6 0.4-1.2 0.7-1.9 0.1-0.3 0.4-0.6 0.7-0.8 0.4-0.2 0.8-0.3 1.2-0.5 0.4-0.1 0.8-0.1 1.2-0.3q0.6-0.3 0.9-0.7c0.4-0.7 0.4-1.4 0.6-2.2 0.1-0.4 0.2-0.8 0.5-1.1 0.3-0.3 0.7-0.6 1.2-0.7 1-0.1 2 0.2 2.9 0.1q0.8-0.1 1.3-0.6c0.3-0.2 0.6-0.6 0.8-0.9 0.3-0.3 0.5-0.7 0.8-1 0.3-0.3 0.7-0.6 1.1-0.7 0.5-0.2 1-0.2 1.4-0.2 0.5 0 0.9 0.1 1.4 0.2 0.8 0.2 1.7 0.4 2.5 0.3 0.8-0.2 1.6-0.5 2.3-0.8 0.7-0.4 1.3-0.7 2.1-1 1.4-0.4 2.9-0.3 4.2 0 1.2 0.3 2.2 0.8 3 1.4 0.8 0.6 1.3 1.2 1.7 1.7q0.5 0.8 0.6 1.2 0.1 0.3 0.1 0.4 0.1 0.1 0.1 0.1 0 0-0.1-0.1 0-0.1-0.1-0.3-0.2-0.5-0.7-1.3c-0.4-0.5-0.9-1.1-1.7-1.6-0.7-0.6-1.7-1.1-3-1.4-1.2-0.2-2.7-0.3-4.1 0.1-0.7 0.2-1.3 0.5-2 0.9-0.7 0.3-1.5 0.7-2.3 0.8-0.9 0.1-1.8 0-2.7-0.2-0.8-0.2-1.8-0.4-2.6-0.1-0.4 0.2-0.7 0.4-1 0.7-0.3 0.3-0.5 0.7-0.8 1-0.3 0.3-0.5 0.7-0.9 1-0.3 0.3-0.8 0.5-1.3 0.5-1 0.2-2-0.1-2.9 0-0.5 0.1-0.9 0.3-1.1 0.6-0.3 0.3-0.4 0.7-0.5 1-0.2 0.8-0.2 1.6-0.7 2.2-0.2 0.4-0.5 0.7-0.9 0.8-0.4 0.2-0.8 0.3-1.3 0.4-0.4 0.1-0.8 0.2-1.1 0.4-0.3 0.2-0.5 0.5-0.7 0.8-0.2 0.6-0.3 1.3-0.6 1.8q-0.3 0.5-0.7 0.8-0.5 0.3-1 0.4c-0.6 0.2-1.3 0.4-1.8 0.6-1.2 0.5-1.9 1.3-2.4 2.1-0.5 0.7-0.9 1.3-1.2 1.9q-0.5 0.8-0.7 1.2-0.2 0.2-0.2 0.3-0.1 0.1-0.1 0.1 0 0 0-0.1z"/>
						</g>
					</g>
					<g id="&lt;Group&gt;">
						<g id="&lt;Group&gt;">
							<path id="&lt;Path&gt;" class="s7" d="m295.6 100.9c-0.3 0.2-0.6 0.5-0.6 1-0.1 0.3 0 0.5 0.1 0.8 0.1 0.3 0.2 0.7 0.2 1.1 0 0.3-0.3 0.7-0.5 1.1-0.3 0.3-0.7 0.6-0.9 1-0.3 0.4-0.4 0.9-0.2 1.4 0.2 0.4 0.6 0.8 0.8 1.4 0.3 0.5 0.1 1.1-0.2 1.6-0.3 0.6-0.7 1.1-0.9 1.6q-0.2 0.4-0.3 0.9 0 0.4 0.3 0.9c0.3 0.5 0.8 1 1.2 1.6q0.4 0.4 0.6 0.9c0.2 0.3 0.2 0.7 0.2 1-0.1 0.7-0.6 1.3-0.9 2-0.2 0.3-0.3 0.6-0.3 0.9q0 0.5 0.3 1c0.4 0.6 0.9 1.1 1.4 1.6 0.5 0.5 1 1.1 1.2 1.7 0.3 0.6 0.4 1.2 0.7 1.7q0.2 0.4 0.6 0.7c0.3 0.2 0.6 0.3 1 0.4 0.3 0.1 0.6 0.2 0.9 0.3q0.5 0.2 0.9 0.5c0.4 0.4 0.8 0.8 1.1 1.3 0.3 0.4 0.6 0.8 0.9 1.2 0.6 0.7 1.5 1.2 2.3 1.5 0.8 0.2 1.6 0.3 2.2 0.2 1.2-0.1 1.8-0.5 1.8-0.4q-0.1 0-0.4 0.2c-0.3 0.1-0.8 0.2-1.4 0.3-0.6 0-1.4 0-2.3-0.2-0.8-0.3-1.7-0.8-2.3-1.5-0.4-0.4-0.6-0.8-1-1.3-0.3-0.4-0.6-0.8-1.1-1.2q-0.3-0.3-0.8-0.5-0.4-0.1-0.9-0.3c-0.3 0-0.7-0.2-1-0.4q-0.4-0.3-0.7-0.7c-0.3-0.6-0.4-1.2-0.6-1.8-0.3-0.6-0.7-1.1-1.2-1.6-0.5-0.5-1.1-1-1.5-1.6q-0.3-0.5-0.3-1.1c0-0.3 0.1-0.7 0.3-1 0.3-0.7 0.8-1.3 0.9-1.9 0.1-0.7-0.3-1.3-0.7-1.8-0.5-0.6-1-1.1-1.3-1.7q-0.2-0.4-0.2-0.9 0-0.5 0.2-0.9c0.3-0.6 0.7-1.1 0.9-1.6 0.3-0.5 0.5-1.1 0.3-1.6-0.2-0.5-0.7-0.9-0.9-1.4-0.2-0.5-0.1-1 0.2-1.4 0.3-0.4 0.7-0.8 0.9-1.1 0.3-0.3 0.5-0.7 0.6-1 0-0.4-0.1-0.7-0.2-1-0.1-0.3-0.2-0.6-0.1-0.9 0-0.5 0.4-0.9 0.7-1 0.1-0.1 0.3-0.1 0.3-0.1q0.2 0.1 0.2 0.1c0 0-0.2-0.1-0.5 0z"/>
						</g>
					</g>
					<g id="&lt;Group&gt;">
						<g id="&lt;Group&gt;">
							<path id="&lt;Path&gt;" class="s2" d="m368.4 114.9c0.4-0.1 0.9-0.2 1.5-0.6 0.5-0.3 1.1-0.8 1.4-1.6 0.3-0.7 0.2-1.8-0.5-2.6-0.4-0.4-0.9-0.8-1.4-1.2-0.5-0.4-1-0.8-1.3-1.4-0.3-0.6-0.1-1.3 0.2-1.9 0.2-0.6 0.7-1.2 0.9-1.8 0.5-1.4 0.4-2.9-0.4-4.3-0.9-1.3-2.5-2.4-4.4-2.7l-0.2-0.1 0.1-0.1q0.5-0.5 0.6-1.1 0.1-0.7-0.1-1.3-0.1-0.7-0.6-1.2-0.5-0.6-1.1-1c-1.3-0.9-2.9-1.3-4.4-1.6-1.6-0.2-3.1-0.3-4.6-0.2h-0.1v-0.1c-0.1-1.4-1.1-2.8-2.6-3.4-0.8-0.3-1.6-0.4-2.3-0.4-0.8 0-1.6 0.3-2.3 0.5q-0.5 0.1-1.1 0.1-0.6 0.1-1.1-0.1c-0.7-0.2-1.3-0.5-1.8-0.8-0.6-0.2-1.2-0.5-1.7-0.6q-0.9-0.3-1.7-0.3c-1.1 0-2.1 0.3-2.9 0.6-0.7 0.3-1.3 0.8-1.7 1.1-0.4 0.4-0.6 0.8-0.8 1q-0.2 0.3-0.2 0.3 0.1-0.1 0.2-0.3c0.1-0.3 0.4-0.6 0.8-1 0.3-0.4 0.9-0.8 1.7-1.2 0.7-0.3 1.7-0.6 2.9-0.6q0.8 0 1.7 0.2c0.6 0.2 1.2 0.4 1.7 0.7 0.6 0.3 1.2 0.6 1.9 0.8q0.5 0.1 1 0.1 0.5 0 1.1-0.2c0.7-0.2 1.4-0.4 2.2-0.4 0.9-0.1 1.7 0.1 2.5 0.4 1.5 0.6 2.6 2 2.7 3.5l-0.1-0.1c1.5-0.1 3 0 4.6 0.3 1.6 0.3 3.2 0.7 4.5 1.6q0.7 0.4 1.2 1 0.5 0.6 0.7 1.2 0.1 0.7 0 1.4-0.1 0.7-0.6 1.2l-0.1-0.1c2 0.4 3.7 1.5 4.6 2.9 0.8 1.4 0.9 3 0.4 4.3-0.3 0.7-0.7 1.3-1 1.9-0.3 0.6-0.4 1.2-0.1 1.8 0.2 0.5 0.8 1 1.2 1.3 0.5 0.4 1 0.8 1.4 1.2 0.7 0.9 0.8 2 0.5 2.7-0.3 0.8-0.9 1.4-1.5 1.7-0.6 0.3-1.1 0.4-1.5 0.5q-0.3 0-0.5 0c0 0 0.2 0 0.5 0z"/>
						</g>
					</g>
					<g id="&lt;Group&gt;">
						<g id="&lt;Group&gt;">
							<path id="&lt;Path&gt;" class="s2" d="m293.7 96.8q0-0.1 0-0.3 0.1-0.4 0.2-1.3c0-0.5 0.1-1.1 0.3-1.9 0.2-0.7 0.5-1.6 1-2.5 0.5-0.8 1.2-1.7 2.2-2.5q0.8-0.5 1.9-0.9c0.7-0.2 1.4-0.3 2.2-0.5 0.7-0.1 1.5-0.4 2.1-0.7 0.7-0.4 1.2-0.9 1.8-1.4 0.5-0.5 1-1.1 1.6-1.6 0.7-0.5 1.4-1 2.2-1.3 1.7-0.6 3.4-0.8 5.1-0.8q2.5 0 4.9 0.2c3 0.4 5.7 1.1 7.8 2 2.1 0.9 3.5 1.9 4.4 2.7q0.4 0.3 0.6 0.5 0.3 0.3 0.4 0.4 0.2 0.2 0.3 0.3 0 0.1 0 0.1 0 0-0.1-0.1-0.1-0.1-0.2-0.3-0.2-0.1-0.4-0.4-0.3-0.2-0.6-0.5c-0.9-0.7-2.4-1.7-4.5-2.6-2.1-0.8-4.7-1.6-7.8-1.9q-2.3-0.3-4.8-0.2c-1.6 0-3.4 0.2-5 0.8q-1.2 0.4-2.1 1.2c-0.6 0.5-1.1 1.1-1.7 1.6-0.5 0.5-1.1 1-1.8 1.4-0.7 0.4-1.4 0.6-2.2 0.8-0.7 0.1-1.5 0.2-2.1 0.4q-1.1 0.4-1.8 0.9c-1.1 0.7-1.8 1.6-2.3 2.5-0.5 0.8-0.8 1.7-1 2.4-0.2 0.8-0.3 1.4-0.3 2q-0.2 0.7-0.2 1.2 0 0.2-0.1 0.3 0 0.1 0 0.1 0 0 0-0.1z"/>
						</g>
					</g>
					<g id="&lt;Group&gt;">
						<g id="&lt;Group&gt;">
							<path id="&lt;Path&gt;" class="s13" d="m323.6 121.7c-0.2 0.3-0.7 0.5-1.2 0.5-0.5 0.1-1.1 0.1-1.6-0.1-0.4-0.2-0.8-0.4-1-0.7-0.5-0.6-0.5-1.5 0.1-2 0.6-0.6 1.7-0.8 2.6-0.5 0.8 0.3 1.4 1 1.5 1.8 0 0.4-0.1 0.7-0.4 1z"/>
						</g>
					</g>
					<g id="&lt;Group&gt;">
						<g id="&lt;Group&gt;">
							<g id="&lt;Group&gt;">
								<g id="&lt;Group&gt;">
									<g id="&lt;Group&gt;">
										<g id="&lt;Group&gt;">
											<g id="&lt;Group&gt;">
												<g id="&lt;Group&gt;">
													<g id="&lt;Group&gt;">
														<g id="&lt;Group&gt;">
															<g id="&lt;Group&gt;">
																<path id="&lt;Path&gt;" class="s2" d="m323.4 118.9c0 0.6-0.3 1.4-1.1 2.1-0.9 0.7-2 0.9-2.7 1-0.8 0-1.3-0.1-1.2-0.2-0.1-0.2 1.8-0.2 3.2-1.3 1.4-1.1 1.2-2.6 1.5-2.6 0.1 0 0.3 0.4 0.3 1z"/>
															</g>
														</g>
													</g>
												</g>
											</g>
										</g>
									</g>
								</g>
							</g>
						</g>
					</g>
				</g>
			</g>
			<path id="&lt;Path&gt;" class="s4" d="m355.4 157.4v56.2h-65l6.2-20.3-1.2-12.2q-3.3-8.4-3.3-10.6c0-5.3 0.3-11.3 1.7-16q2.3-7.8 13.6-15.5l7.5-1q0.5 2.6 6.7 3.4 7.9 1.1 18.3-4l13.4 4.2z"/>
			<path id="&lt;Path&gt;" class="s4" d="m280.6 175.1l-9.4-19.4 27-15.6 9.2-1.1-2.4 27.5z"/>
			<g id="&lt;Group&gt;">
				<path id="&lt;Path&gt;" class="s2" d="m294.7 178.8q0 0-0.1-0.3c-0.1-0.2-0.3-0.4-0.5-0.8-0.3-0.7-0.8-1.7-1.2-3-0.8-2.6-1.3-6.4-0.8-10.5 0.5-4.2 1.5-7.8 2.4-10.4 0.4-1.3 0.7-2.4 1-3.1q0.2-0.5 0.3-0.8 0.1-0.3 0.1-0.3 0 0-0.1 0.3-0.1 0.3-0.2 0.8-0.4 1.2-0.9 3.1c-0.8 2.6-1.9 6.3-2.3 10.4-0.5 4.1 0 7.8 0.7 10.4 0.4 1.4 0.8 2.4 1.1 3.1 0.2 0.4 0.3 0.6 0.4 0.8q0.2 0.3 0.1 0.3z"/>
			</g>
			<g id="&lt;Group&gt;" style="opacity: .3">
				<path id="&lt;Path&gt;" class="s14" d="m295.8 150c-2.4 5.5-3.6 11.8-3.6 17.7l-0.5 0.3c-2.2-5.9-0.3-12.7 4.1-18z"/>
			</g>
			<path id="&lt;Path&gt;" class="s8" d="m313.3 164.9l22.2 30.5 8.6-11.7 11 5q0.3 4.5-1.5 7.5c-1.8 2.9-4.7 10.6-12.8 10-8-0.5-10.8-2-16-7.2q-5.2-5.2-14.5-33.6z"/>
			<g id="&lt;Group&gt;">
				<g id="&lt;Group&gt;">
					<path id="&lt;Path&gt;" class="s11" d="m322.2 167.5l15 15.8 2.2-5.2 19.9 2.9q-6.3 14.7-10 19.6c-3.7 4.9-15.5 5.9-21.3-2.9q-6.8-10.5-16.3-28.6z"/>
					<path id="&lt;Path&gt;" class="s11" d="m326.6 169.9q-1.6 1.2-3.6 2.7l-9.1 0.2q-0.8 0-2.2-3.3-1.4-3.2-2.5-8.3l-0.6-7.6q0-2.2 2.1-1.6 1.2 0.4 2 6.2 0-7.1 0.9-7.9 0.9-0.9 2.1-0.4 0.9-1.9 1.9-1.9 0.9 0 1.2 2.5 0.9-0.7 1.5-0.2 1.8 1.4 3.9 14.4-0.5-2.6 0.6-3.9 1-1.3 1.7 0.2l1.5 5.4c0.3 1.3-0.2 2.6-1.4 3.5z"/>
					<g id="&lt;Group&gt;">
						<path id="&lt;Path&gt;" class="s13" d="m343.3 190.6q0 0-0.1-0.2-0.2-0.3-0.4-0.7-0.3-0.4-0.7-1-0.5-0.6-1-1.3c-1.6-1.9-4-4.3-6.7-7-2.7-2.7-5.1-5.2-6.9-6.9-0.9-0.9-1.6-1.7-2-2.2q-0.3-0.3-0.5-0.6-0.2-0.2-0.2-0.2 0 0 0.2 0.2 0.2 0.2 0.6 0.6c0.5 0.5 1.2 1.2 2.1 2.1 1.7 1.7 4.3 4.1 7 6.8 2.7 2.7 5 5.2 6.5 7.1q0.6 0.8 1 1.4 0.4 0.6 0.7 1 0.2 0.4 0.3 0.7 0.1 0.2 0.1 0.2z"/>
					</g>
					<g id="&lt;Group&gt;">
						<path id="&lt;Path&gt;" class="s4" d="m351.1 141.1q10.8 1.8 13.5 11.9 2.6 9.3 1.8 29l-29.5-4.3 7.2-33.6z"/>
						<g id="&lt;Group&gt;">
							<path id="&lt;Path&gt;" class="s2" d="m341.1 157.2q0 0 0 0.1 0 0.1-0.1 0.3-0.1 0.5-0.2 1.2c-0.2 1.1-0.5 2.6-0.8 4.4-0.8 3.7-1.8 8.9-3 14.6l-0.1-0.2q0.5 0.1 1 0.2c7.1 1 13.6 2 18.3 2.7 2.3 0.3 4.2 0.6 5.5 0.8q1 0.2 1.5 0.3 0.3 0 0.4 0.1 0.1 0 0.1 0 0 0-0.1 0-0.1 0-0.4-0.1-0.5 0-1.5-0.2c-1.3-0.2-3.2-0.4-5.6-0.7-4.7-0.7-11.1-1.7-18.3-2.7q-0.5-0.1-0.9-0.1l-0.2-0.1 0.1-0.1c1.1-5.7 2.2-10.8 3-14.5 0.4-1.9 0.7-3.4 0.9-4.4q0.2-0.8 0.3-1.2 0-0.2 0-0.3 0.1-0.1 0.1-0.1z"/>
						</g>
						<g id="&lt;Group&gt;">
							<path id="&lt;Path&gt;" class="s2" d="m342.7 154q0-0.1 0.3-0.6 0.2-0.6 0.7-1.6c0.7-1.2 1.7-3 3.5-4.6 1-0.7 2-1.3 3.1-1.7 1-0.4 2-0.6 2.8-0.7 0.8-0.2 1.5-0.2 2-0.2q0.7 0 0.7 0c0.1 0.1-1 0-2.7 0.3-1.6 0.3-3.8 1-5.7 2.5-1.8 1.5-2.8 3.3-3.5 4.5q-0.5 0.9-0.8 1.5-0.3 0.6-0.4 0.6z"/>
						</g>
					</g>
				</g>
				<g id="&lt;Group&gt;">
					<path id="&lt;Path&gt;" class="s13" d="m315.5 159.3c0 0-0.1-0.5-0.1-1.4-0.1-0.8-0.1-2-0.1-3.3 0-1.3 0-2.5 0.1-3.3 0.1-0.9 0.3-1.4 0.3-1.4 0 0 0 0.5-0.1 1.4 0 0.8-0.1 2 0 3.3 0 1.3 0 2.4 0 3.3 0 0.9 0 1.4-0.1 1.4z"/>
				</g>
				<g id="&lt;Group&gt;">
					<path id="&lt;Path&gt;" class="s13" d="m318.5 150.6c0.1 0 0.1 0.4 0.1 1.1 0 0.7 0.1 1.7 0.1 2.7 0.1 1.1 0.2 2 0.3 2.7 0 0.7 0 1.2 0 1.2 0 0-0.1-0.5-0.2-1.2-0.2-0.6-0.3-1.6-0.3-2.7-0.1-1-0.1-2-0.1-2.7 0-0.7 0.1-1.1 0.1-1.1z"/>
				</g>
			</g>
		</g>
		<g id="&lt;Group&gt;">
			<g id="&lt;Group&gt;">
				<path id="&lt;Path&gt;" class="s4" d="m114.4 117.2c-1 3.5-1.8 10.6-3.5 13.9-1.7 3.3-0.6 1.1-4.6 2.4-1-4 0-8.1 1.3-12 1.4-3.9 3.1-7.7 3.9-11.7 1.2-6.1 0.1-12.6-3.7-18-3.7-5.4-10.1-9.5-17.4-11l2.3-1.7c3.5 0.3 6.4 0.9 9.6 2.5 3 1.5 5.3 3.2 7.6 5.4 3.2 3.1 4.5 7.5 5.2 11.5 1 5.5 0.9 13-0.7 18.7z"/>
				<g id="&lt;Group&gt;">
					<g id="&lt;Group&gt;">
						<path id="&lt;Path&gt;" class="s2" d="m109.2 129.9c-0.6 1.4-3 5.6-3 6.2h-33.8l-5.2-1.6q-4.8-23.5-3.5-31.1c2.1-12.1 5.9-25.4 26.9-24.2q14.4 2.5 20.5 10.3c3.7 4.7 1.2 27.8-1.9 40.4z"/>
						<path id="&lt;Path&gt;" class="s2" d="m112.1 131.1q0 0 0 0 0 0 0 0z"/>
					</g>
					<path id="&lt;Path&gt;" class="s12" d="m109.7 97.5c0.3 6.2 0.5 12.5-0.6 17.1q-2.4 9.2-11.1 10c0 0-0.1 1.4-0.4 4.7q0 2.7-0.4 5.8c0 0.3-0.1 0.5-0.2 0.8q-0.1 0.4-0.5 1c-3.6 5.5-13 5.9-17.6 0.9l-2-2.1c-1.9-2.1-2.5-4.3-2.5-6.9l-0.1-38.2c0.1-1.7 1.7-3.1 3.8-3.2l14.2-4.7 1.3 1.1c8.4-0.1 15.6 5.1 16.1 13.7z"/>
					<g id="&lt;Group&gt;">
						<g id="&lt;Group&gt;">
							<g id="&lt;Group&gt;">
								<g id="&lt;Group&gt;">
									<g id="&lt;Group&gt;">
										<g id="&lt;Group&gt;">
											<g id="&lt;Group&gt;">
												<g id="&lt;Group&gt;">
													<g id="&lt;Group&gt;">
														<g id="&lt;Group&gt;">
															<g id="&lt;Group&gt;">
																<g id="&lt;Group&gt;">
																	<g id="&lt;Group&gt;">
																		<g id="&lt;Group&gt;">
																			<g id="&lt;Group&gt;">
																				<ellipse id="&lt;Path&gt;" class="s2" cx="89.6" cy="103.2" rx="1.4" ry="1.1"/>
																			</g>
																		</g>
																	</g>
																</g>
															</g>
														</g>
													</g>
												</g>
											</g>
										</g>
									</g>
								</g>
							</g>
						</g>
						<g id="&lt;Group&gt;">
							<g id="&lt;Group&gt;">
								<g id="&lt;Group&gt;">
									<g id="&lt;Group&gt;">
										<g id="&lt;Group&gt;">
											<g id="&lt;Group&gt;">
												<g id="&lt;Group&gt;">
													<g id="&lt;Group&gt;">
														<g id="&lt;Group&gt;">
															<g id="&lt;Group&gt;">
																<g id="&lt;Group&gt;">
																	<g id="&lt;Group&gt;">
																		<g id="&lt;Group&gt;">
																			<g id="&lt;Group&gt;">
																				<ellipse id="&lt;Path&gt;" class="s2" cx="103.9" cy="103.6" rx="1.4" ry="1.1"/>
																			</g>
																		</g>
																	</g>
																</g>
															</g>
														</g>
													</g>
												</g>
											</g>
										</g>
									</g>
								</g>
							</g>
						</g>
						<g id="&lt;Group&gt;">
							<g id="&lt;Group&gt;">
								<g id="&lt;Group&gt;">
									<g id="&lt;Group&gt;">
										<g id="&lt;Group&gt;">
											<g id="&lt;Group&gt;">
												<g id="&lt;Group&gt;">
													<g id="&lt;Group&gt;">
														<g id="&lt;Group&gt;">
															<g id="&lt;Group&gt;">
																<g id="&lt;Group&gt;">
																	<g id="&lt;Group&gt;">
																		<g id="&lt;Group&gt;">
																			<g id="&lt;Group&gt;">
																				<g id="&lt;Group&gt;">
																					<path id="&lt;Path&gt;" class="s2" d="m108.2 100c-0.2 0.1-1.3-0.6-2.8-0.7-1.6 0-2.8 0.6-2.9 0.4-0.1-0.1 0.1-0.3 0.6-0.6 0.5-0.3 1.4-0.5 2.4-0.5 0.9 0 1.7 0.4 2.2 0.7 0.4 0.3 0.6 0.6 0.5 0.7z"/>
																				</g>
																			</g>
																		</g>
																	</g>
																</g>
															</g>
														</g>
													</g>
												</g>
											</g>
										</g>
									</g>
								</g>
							</g>
						</g>
					</g>
					<g id="&lt;Group&gt;">
						<g id="&lt;Group&gt;">
							<g id="&lt;Group&gt;">
								<g id="&lt;Group&gt;">
									<g id="&lt;Group&gt;">
										<g id="&lt;Group&gt;">
											<g id="&lt;Group&gt;">
												<g id="&lt;Group&gt;">
													<g id="&lt;Group&gt;">
														<g id="&lt;Group&gt;">
															<g id="&lt;Group&gt;">
																<g id="&lt;Group&gt;">
																	<g id="&lt;Group&gt;">
																		<g id="&lt;Group&gt;">
																			<g id="&lt;Group&gt;">
																				<g id="&lt;Group&gt;">
																					<path id="&lt;Path&gt;" class="s2" d="m92.4 100.1c-0.2 0.1-1.2-0.7-2.7-0.9-1.6-0.2-2.8 0.3-2.9 0.2-0.1-0.1 0.1-0.4 0.7-0.6 0.5-0.2 1.4-0.4 2.3-0.3 1 0.1 1.8 0.5 2.2 0.9 0.4 0.3 0.5 0.6 0.4 0.7z"/>
																				</g>
																			</g>
																		</g>
																	</g>
																</g>
															</g>
														</g>
													</g>
												</g>
											</g>
										</g>
									</g>
								</g>
							</g>
						</g>
					</g>
					<g id="&lt;Group&gt;">
						<g id="&lt;Group&gt;">
							<g id="&lt;Group&gt;">
								<g id="&lt;Group&gt;">
									<g id="&lt;Group&gt;">
										<g id="&lt;Group&gt;">
											<g id="&lt;Group&gt;">
												<g id="&lt;Group&gt;">
													<g id="&lt;Group&gt;">
														<g id="&lt;Group&gt;">
															<g id="&lt;Group&gt;">
																<g id="&lt;Group&gt;">
																	<g id="&lt;Group&gt;">
																		<g id="&lt;Group&gt;">
																			<g id="&lt;Group&gt;">
																				<path id="&lt;Path&gt;" class="s2" d="m97.8 109.4c0-0.1 1-0.1 2.6-0.2 0.4-0.1 0.8-0.1 0.8-0.3 0.1-0.3 0-0.6-0.2-1q-0.5-1.2-1-2.6c-1.4-3.6-2.4-6.5-2.2-6.6 0.1 0 1.4 2.9 2.9 6.5q0.5 1.3 0.9 2.5c0.2 0.4 0.4 0.8 0.2 1.3-0.2 0.3-0.5 0.4-0.7 0.5-0.3 0-0.5 0-0.7 0-1.6 0-2.6 0-2.6-0.1z"/>
																			</g>
																		</g>
																	</g>
																</g>
															</g>
														</g>
													</g>
												</g>
											</g>
										</g>
									</g>
								</g>
							</g>
						</g>
					</g>
					<g id="&lt;Group&gt;">
						<g id="&lt;Group&gt;">
							<g id="&lt;Group&gt;">
								<g id="&lt;Group&gt;">
									<g id="&lt;Group&gt;">
										<g id="&lt;Group&gt;">
											<g id="&lt;Group&gt;">
												<g id="&lt;Group&gt;">
													<g id="&lt;Group&gt;">
														<g id="&lt;Group&gt;">
															<g id="&lt;Group&gt;">
																<g id="&lt;Group&gt;">
																	<g id="&lt;Group&gt;">
																		<g id="&lt;Group&gt;">
																			<path id="&lt;Path&gt;" class="s15" d="m97.8 126.9q-11.3 0.4-14.7-6.2 7.3 4 14.9 3.9z"/>
																		</g>
																	</g>
																</g>
															</g>
														</g>
													</g>
												</g>
											</g>
										</g>
									</g>
								</g>
							</g>
						</g>
					</g>
					<g id="&lt;Group&gt;">
						<g id="&lt;Group&gt;">
							<g id="&lt;Group&gt;">
								<g id="&lt;Group&gt;">
									<g id="&lt;Group&gt;">
										<g id="&lt;Group&gt;">
											<g id="&lt;Group&gt;">
												<g id="&lt;Group&gt;">
													<g id="&lt;Group&gt;">
														<g id="&lt;Group&gt;">
															<g id="&lt;Group&gt;">
																<g id="&lt;Group&gt;">
																	<g id="&lt;Group&gt;">
																		<g id="&lt;Group&gt;">
																			<path id="&lt;Path&gt;" class="s15" d="m97 112.5c0.2 0.2 0.1 0.4 0 0.5-0.1 0.2-0.3 0.3-0.4 0.4-0.7 0.3-1.3 0.7-2.1 0.9-0.8 0.1-1.6 0-2-0.5-0.4-0.5-0.2-1.1 0.2-1.6 0.4-0.4 1.1-0.6 1.8-0.7 1 0 2 0.4 2.5 1"/>
																		</g>
																	</g>
																</g>
															</g>
														</g>
													</g>
												</g>
											</g>
										</g>
									</g>
								</g>
							</g>
						</g>
					</g>
					<g id="&lt;Group&gt;">
						<g id="&lt;Group&gt;">
							<g id="&lt;Group&gt;">
								<g id="&lt;Group&gt;">
									<g id="&lt;Group&gt;">
										<g id="&lt;Group&gt;">
											<g id="&lt;Group&gt;">
												<g id="&lt;Group&gt;">
													<g id="&lt;Group&gt;">
														<g id="&lt;Group&gt;">
															<g id="&lt;Group&gt;">
																<g id="&lt;Group&gt;">
																	<g id="&lt;Group&gt;">
																		<g id="&lt;Group&gt;">
																			<g id="&lt;Group&gt;">
																				<path id="&lt;Path&gt;" class="s2" d="m93.2 110.1c0.2 0 0.2 1.4 1.6 2.5 1.3 1 3.1 0.9 3.1 1.1 0.1 0.1-0.4 0.3-1.1 0.3-0.8-0.1-1.9-0.3-2.7-0.9-0.8-0.7-1.2-1.5-1.2-2.1 0-0.6 0.2-0.9 0.3-0.9z"/>
																			</g>
																		</g>
																	</g>
																</g>
															</g>
														</g>
													</g>
												</g>
											</g>
										</g>
									</g>
								</g>
							</g>
						</g>
					</g>
					<g id="&lt;Group&gt;">
						<g id="&lt;Group&gt;">
							<g id="&lt;Group&gt;">
								<g id="&lt;Group&gt;">
									<g id="&lt;Group&gt;">
										<g id="&lt;Group&gt;">
											<g id="&lt;Group&gt;">
												<g id="&lt;Group&gt;">
													<g id="&lt;Group&gt;">
														<g id="&lt;Group&gt;">
															<g id="&lt;Group&gt;">
																<path id="&lt;Path&gt;" class="s2" d="m93.9 95.1c-0.2 0.3-1.7 0-3.6-0.1-1.8-0.1-3.4 0.2-3.5-0.1-0.1-0.2 0.2-0.5 0.8-0.8 0.7-0.2 1.7-0.4 2.8-0.4 1.1 0.1 2.1 0.3 2.7 0.6 0.6 0.3 0.9 0.6 0.8 0.8z"/>
															</g>
														</g>
													</g>
												</g>
											</g>
										</g>
									</g>
								</g>
							</g>
						</g>
					</g>
					<g id="&lt;Group&gt;">
						<g id="&lt;Group&gt;">
							<g id="&lt;Group&gt;">
								<g id="&lt;Group&gt;">
									<g id="&lt;Group&gt;">
										<g id="&lt;Group&gt;">
											<g id="&lt;Group&gt;">
												<g id="&lt;Group&gt;">
													<g id="&lt;Group&gt;">
														<g id="&lt;Group&gt;">
															<g id="&lt;Group&gt;">
																<path id="&lt;Path&gt;" class="s2" d="m108 94.5c-0.3 0.2-1.4-0.1-2.7-0.2-1.3-0.1-2.4 0.1-2.6-0.2-0.1-0.1 0.1-0.4 0.6-0.7 0.5-0.2 1.3-0.4 2.2-0.4 0.8 0.1 1.6 0.4 2 0.7 0.5 0.3 0.6 0.6 0.5 0.8z"/>
															</g>
														</g>
													</g>
												</g>
											</g>
										</g>
									</g>
								</g>
							</g>
						</g>
					</g>
					<path id="&lt;Path&gt;" class="s2" d="m72.4 92.6q3.7-6.5 3.9-6.7 0.3-0.2 16-3.8l2.6 0.6q-6.3 4.5-7.8 10-4.5 16.2-12.5 14.2z"/>
					<g id="&lt;Group&gt;">
						<g id="&lt;Group&gt;">
							<g id="&lt;Group&gt;">
								<path id="&lt;Path&gt;" class="s12" d="m75.8 113.2c0 0.2-7.9 1.1-7.4-5.2 0.3-4.6 4.3-4.6 6.5-4.2 0.8 0.1 1.7 1.8 1.7 2.5-0.2 2.4-0.8 6.8-0.8 6.9z"/>
							</g>
						</g>
					</g>
					<g id="&lt;Group&gt;">
						<g id="&lt;Group&gt;">
							<g id="&lt;Group&gt;">
								<g id="&lt;Group&gt;">
									<path id="&lt;Path&gt;" class="s15" d="m73.3 111c-0.2 0.2-0.7 0.3-1.2 0.1-1.1-0.3-1.8-1.5-1.8-2.8 0-0.6 0.3-1.3 0.6-1.7 0.3-0.5 0.9-0.9 1.5-1 0.3 0 0.5 0.1 0.7 0.2q0.3 0.2 0.3 0.5c0 0.2-0.1 0.3-0.1 0.3-0.1 0 0-0.1-0.1-0.3-0.1-0.2-0.4-0.4-0.8-0.3-0.4 0-0.8 0.3-1.1 0.8-0.2 0.4-0.4 0.9-0.4 1.5-0.1 1.2 0.5 2.3 1.3 2.5 0.4 0.2 0.8 0.1 1 0.1 0.3-0.1 0.4-0.2 0.4-0.2 0 0 0 0.2-0.3 0.3z"/>
								</g>
							</g>
						</g>
					</g>
					<path id="&lt;Path&gt;" class="s2" d="m80 103.8c0 0 0.4 0 1.1-0.2 0.8-0.2 1.8-0.6 2.8-1.3q0.7-0.6 1.4-1.4 0.7-0.8 1.2-1.8c0.7-1.4 1.1-3 1.6-4.6 0.6-1.7 1.2-3.2 1.8-4.6 0.6-1.4 1.3-2.6 2-3.6 0.7-1 1.3-1.7 1.8-2.2q0.3-0.4 0.5-0.6 0.2-0.2 0.2-0.2 0 0-0.2 0.2-0.1 0.2-0.5 0.6c-0.4 0.5-1 1.3-1.7 2.3-0.6 0.9-1.3 2.1-1.9 3.5-0.7 1.4-1.2 3-1.8 4.6-0.5 1.7-1 3.3-1.7 4.6q-0.5 1.1-1.1 1.9-0.7 0.8-1.5 1.4c-1 0.7-2.1 1.1-2.8 1.3q-0.8 0.1-1.2 0.1z"/>
					<path id="&lt;Path&gt;" class="s7" d="m68.1 130q0-0.1 0-0.4 0.1-0.6 0.1-1.6c0-1.5-0.3-3.5-0.8-6q-0.4-1.9-0.9-4.1c-0.4-1.5-0.6-3.1-0.8-4.8-0.1-1.7 0-3.5 0.5-5.3q0.4-1.3 1.1-2.6c0.5-0.9 1.1-1.7 1.8-2.5 1.5-1.5 3.2-2.8 4.9-4 1.7-1.2 3.3-2.4 4.7-3.6 2.9-2.4 5.2-4.8 7-6.9 1.7-2.1 3-3.9 3.8-5.1q0.6-1 0.9-1.5 0.1-0.2 0.2-0.4 0.1-0.1 0.1-0.1 0 0-0.1 0.1-0.1 0.2-0.2 0.4-0.3 0.5-0.9 1.5c-0.8 1.3-2 3.1-3.7 5.2-1.8 2.1-4 4.5-6.9 6.9-1.5 1.2-3.1 2.4-4.8 3.6-1.6 1.2-3.4 2.5-4.8 4q-1.1 1.2-1.8 2.5-0.7 1.2-1.1 2.6c-0.5 1.8-0.6 3.5-0.5 5.2 0.1 1.7 0.4 3.3 0.7 4.8q0.5 2.2 0.9 4.1c0.6 2.5 0.8 4.5 0.8 6q0 1.4-0.2 2.2 0 0 0-0.2z"/>
					<path id="&lt;Path&gt;" class="s7" d="m65.6 130.6q0-0.1 0.1-0.4 0-0.6 0-1.6c0-1.5-0.2-3.5-0.8-6q-0.4-1.9-0.9-4.1c-0.3-1.5-0.6-3.1-0.7-4.8-0.1-1.7-0.1-3.5 0.4-5.3q0.4-1.3 1.1-2.6c0.5-0.9 1.1-1.7 1.9-2.5 1.4-1.5 3.2-2.8 4.8-4 1.7-1.2 3.3-2.4 4.8-3.6 2.8-2.4 5.1-4.8 6.9-6.9 1.8-2.1 3-3.9 3.8-5.1q0.6-1 0.9-1.5 0.1-0.2 0.2-0.4 0.1-0.1 0.1-0.1 0 0-0.1 0.1 0 0.2-0.2 0.4-0.2 0.5-0.8 1.5c-0.8 1.3-2 3.1-3.8 5.2-1.7 2.1-4 4.5-6.9 6.9-1.4 1.2-3 2.4-4.7 3.6-1.7 1.2-3.4 2.5-4.9 4q-1.1 1.2-1.8 2.4-0.7 1.3-1.1 2.7c-0.5 1.8-0.5 3.5-0.4 5.2 0.1 1.7 0.3 3.3 0.7 4.8q0.4 2.2 0.9 4.1c0.5 2.5 0.7 4.5 0.7 6q0 1.4-0.2 2.2 0 0 0-0.2z"/>
				</g>
				<path id="&lt;Path&gt;" class="s2" d="m54.5 213.5q-0.7-5.2 3.4-14 3.3-7.3 7.3-11.2l53-2.9 4.1 28.1z"/>
				<g id="&lt;Group&gt;">
					<path id="&lt;Path&gt;" class="s1" d="m122.2 209.3q-25.3 5.7-66.3-5.9 1.2-7.1 9.5-20.9l-4.2-16.6-1-3.5-3.4 2.6-17.2 15 14.9 20.1-5.8 8.1-0.9 1.4c-11-6.8-25.3-23.7-25.8-24.8-0.9-1.2-2.5-4.2-0.7-8q2.2-5.1 17.7-23.7c2.2-2.8 10.1-12.8 14.9-16.5 4.6-3.7 19.3-6.2 20.3-6.2q6.7 10.2 17 8.3 6.1-1.1 6.1-7.7l11.5 1.5 8.8 12.1q0.8 14.7 0 24.4-0.8 9.7 4.6 40.3z"/>
					<g id="&lt;Group&gt;">
						<g id="&lt;Group&gt;">
							<g id="&lt;Group&gt;">
								<g id="&lt;Group&gt;">
									<path id="&lt;Path&gt;" class="s12" d="m70.8 199l6.6 1.4q-0.1 0.9-1.8 1.7l1.5 0.3c0.2 0.4-0.7 1.2-1.4 1.3q-0.6 0.1-7.7-0.2l-5.1 1.1 2.9-0.2 7.4 1.2v0.6q-0.7 1.9-8.2 1l-2.1 0.3q-8.3 2.9-9.8 2.9-1.5 0.1-4.4-2.2l4.8-6.9q0.7 0.2 2 0.1 1.2 0 3-1.4 0.8-0.6 2.4-2.2 5.2-2.2 5.9-2.5 0.7-0.4 7.6 1.2 0.6 1.2-3.6 2.5z"/>
								</g>
							</g>
						</g>
						<g id="&lt;Group&gt;">
							<g id="&lt;Group&gt;">
								<g id="&lt;Group&gt;">
									<g id="&lt;Group&gt;">
										<path id="&lt;Path&gt;" class="s15" d="m76.4 202q-0.1 0.1-0.6-0.1-0.6-0.1-1.7-0.3c-1.3-0.3-3.3-0.7-5.4-1.1q-0.4-0.1-0.8-0.1-0.3 0-0.7 0c-0.5 0.1-0.9 0.3-1.4 0.4q-1.3 0.4-2.3 0.7-1 0.4-1.5 0.6c-0.4 0.2-0.5 0.3-0.6 0.3 0 0 0.2-0.2 0.5-0.4q0.5-0.3 1.5-0.6 1-0.4 2.3-0.8 0.7-0.2 1.4-0.4 0.4-0.1 0.9-0.1c0.3 0 0.5 0.1 0.8 0.2 2.1 0.3 4 0.7 5.4 1.1q1 0.2 1.6 0.4 0.6 0.2 0.6 0.2z"/>
									</g>
								</g>
							</g>
						</g>
						<g id="&lt;Group&gt;">
							<g id="&lt;Group&gt;">
								<g id="&lt;Group&gt;">
									<g id="&lt;Group&gt;">
										<path id="&lt;Path&gt;" class="s15" d="m71 199.2c-0.1 0.1-0.6-0.1-1.4-0.4-0.9-0.2-2.2-0.4-3.6-0.2-1.3 0.2-2.5 0.6-3.2 1.1-0.8 0.4-1.2 0.7-1.2 0.7-0.1 0 0.3-0.4 1-0.9 0.8-0.5 2-1 3.4-1.2 1.4-0.1 2.8 0.1 3.6 0.4 0.9 0.2 1.4 0.5 1.4 0.5z"/>
									</g>
								</g>
							</g>
						</g>
					</g>
					<path id="&lt;Path&gt;" class="s1" d="m186.4 162.4l-0.5 9.4-37-2.5-30.1-10.8h-7.1l-3.1-26 7.4 1.2 10.1 5.5 27.1 16.6z"/>
					<g id="&lt;Group&gt;">
						<path id="&lt;Path&gt;" class="s2" d="m118.1 180.4q0 0-0.1-0.4 0-0.4 0-1.1c-0.1-0.9-0.1-2.3-0.2-4 0-1.8 0-3.8 0-6.1 0-2.3 0-4.8-0.1-7.4 0-5.2-1.2-9.9-2.1-13.2-0.5-1.7-0.9-3-1.2-4q-0.2-0.6-0.3-1-0.1-0.4-0.1-0.4 0 0 0.2 0.3 0.1 0.4 0.3 1.1c0.3 0.9 0.8 2.3 1.3 3.9 1 3.4 2.2 8.1 2.2 13.3 0.1 2.6 0 5.1 0 7.4 0 2.3 0 4.3 0 6 0.1 1.7 0.1 3.1 0.1 4.1q0 0.7 0 1.1 0 0.4 0 0.4z"/>
					</g>
					<g id="&lt;Group&gt;" style="opacity: .3">
						<path id="&lt;Path&gt;" class="s14" d="m117.9 158.9c2.3-6.7 0-14.3-5.8-19.3 3.1 6 5 12.4 5.9 19"/>
					</g>
				</g>
				<path id="&lt;Path&gt;" class="s4" d="m95.6 79.4c-17 1.3-17.6 18.3-19.9 31.8q-3.2 19.2 13.9 23.3l-21.2-3.2q-11.6-3.9-11.6-14.5c0.1-10.6 2.2-23.6 15.7-33.5 11.6-8.5 22-4.4 23.1-3.9z"/>
				<path id="&lt;Path&gt;" class="s4" d="m113 132.6c-0.4 1.5-3.4-0.3-4.3 1-1.7 2.5-3.5 4.8-5.6 8-2.3 3.5-8.7 6.5-12.1 6.6-3.4 0.1-7.9-2.7-12.8-6.3-4.2-3-6.1-7.2-10.7-9.8-0.8-0.5-5.1 1.2-5.7 0.5-0.1-0.2-0.2-0.5-0.2-1-0.1-2.1 1-4 3-5.3l9.9-6.8c2 3.7 4.2 7.5 8.3 9.7 3.4 1.9 7.8 2.4 12 1.9 4.1-0.4 8.7-2.6 12.8-2.3 3.7 0.3 3.2 0.7 4.5 1.6 0.7 0.5 1 1.4 0.9 2.2z"/>
				<g id="&lt;Group&gt;">
					<path id="&lt;Path&gt;" class="s2" d="m56.8 150.4q0.1 0 0.2 0.4 0.1 0.3 0.3 0.9c0.2 0.8 0.6 2 1 3.4 0.8 2.9 2 6.9 3.2 11.3 1.2 4.5 2.2 8.5 2.9 11.4 0.4 1.5 0.6 2.6 0.8 3.5q0.1 0.5 0.2 0.9 0 0.3 0 0.3 0 0-0.1-0.3-0.1-0.3-0.2-0.9c-0.2-0.9-0.5-2-0.9-3.5-0.7-2.9-1.8-6.9-3-11.3-1.2-4.4-2.3-8.4-3.1-11.4-0.4-1.4-0.7-2.6-0.9-3.4q-0.2-0.6-0.3-0.9-0.1-0.4-0.1-0.4z"/>
				</g>
				<g id="&lt;Group&gt;">
					<path id="&lt;Path&gt;" class="s2" d="m112.1 132.2q0 0-0.1 0-0.2 0.1-0.4 0.2c-0.3 0.1-0.7 0.4-1.3 0.6-1.2 0.4-3 1-5.3 1.4-2.3 0.5-5.1 0.7-8.2 0.8-3.1 0.1-6.5-0.1-10.1-0.3q-2.7-0.1-5.2-0.4-2.5-0.3-4.7-0.8c-3-0.7-5.7-1.5-7.8-2.4-2.1-0.8-3.7-1.6-4.8-2.3-0.5-0.3-0.9-0.5-1.2-0.7q-0.2-0.1-0.3-0.2-0.1-0.1-0.1-0.1 0 0 0.1 0.1 0.1 0 0.3 0.2c0.3 0.1 0.7 0.4 1.3 0.7 1.1 0.6 2.7 1.4 4.8 2.2 2.1 0.8 4.7 1.6 7.7 2.3q2.3 0.4 4.8 0.8 2.5 0.3 5.2 0.4c3.5 0.2 6.9 0.3 10 0.3 3.1-0.1 5.9-0.3 8.2-0.7 2.3-0.4 4.1-1 5.2-1.4 0.7-0.2 1.1-0.4 1.4-0.6q0.2 0 0.4-0.1 0.1 0 0.1 0z"/>
				</g>
				<g id="&lt;Group&gt;">
					<path id="&lt;Path&gt;" class="s2" d="m79.6 134q0 0-0.1-0.1-0.2 0-0.3-0.1-0.5-0.3-1.2-0.7-0.7-0.5-1.7-1.2-0.5-0.4-1.1-0.8-0.6-0.4-1.2-0.9c-1.5-1.2-3.4-2.8-4.9-4.9-1.5-2.1-2.6-4.7-2.8-7.5-0.1-2.8 0.6-5.4 1.3-7.7 0.8-2.4 1.6-4.4 2.3-6.2 0.6-1.7 1.1-3.1 1.5-4.1q0.3-0.7 0.4-1.1 0.1-0.2 0.1-0.3 0.1-0.1 0.1-0.1 0 0 0 0.1-0.1 0.1-0.1 0.3-0.2 0.4-0.4 1.1c-0.3 1-0.8 2.4-1.4 4.2-0.7 1.7-1.5 3.8-2.2 6.1-0.7 2.3-1.4 5-1.3 7.7 0.1 2.8 1.2 5.3 2.7 7.4 1.5 2 3.3 3.6 4.9 4.9q0.6 0.5 1.1 0.9 0.6 0.4 1.1 0.8 1 0.7 1.7 1.2 0.7 0.5 1.1 0.7 0.2 0.1 0.3 0.2 0.1 0.1 0.1 0.1z"/>
				</g>
				<g id="&lt;Group&gt;">
					<path id="&lt;Path&gt;" class="s2" d="m95.6 79.4c0 0.1-0.9 0.1-2.3 0.4-0.6 0.2-1.4 0.5-2.3 0.8q-1.2 0.5-2.6 1.3c-1.8 1-3.2 2.1-4.2 2.9-1 0.9-1.6 1.4-1.6 1.4q0 0 0.3-0.4 0.4-0.4 1.2-1.1c0.9-0.9 2.3-2 4.1-3q1.4-0.8 2.7-1.3c0.9-0.3 1.7-0.6 2.4-0.7q0.5-0.1 0.9-0.2 0.5 0 0.8 0 0.6-0.1 0.6-0.1z"/>
				</g>
				<g id="&lt;Group&gt;" style="opacity: .3">
					<path id="&lt;Path&gt;" class="s14" d="m67.7 110c-1.5 5.4-1.4 11.5 2.6 16.1l1.6 2.2c-5.3-2.7-7.3-8.5-7.2-13.6 0.1-5.2 2.3-10.1 4.5-15q1.7-3.6 3.4-7.3c0.4-0.8 1.8-0.5 1.6 0.3q-0.1 0.7-0.3 1.3c-1.7 5.4-4.6 10.5-6.2 16z"/>
				</g>
				<g id="&lt;Group&gt;">
					<path id="&lt;Path&gt;" class="s2" d="m112.4 133.4c0 0 0.1-0.2 0.2-0.6 0.2-0.4 0.2-1-0.1-1.7-0.3-0.6-1.1-1.3-2.1-1.7-1.1-0.4-2.4-0.5-3.7-0.4-1.4 0-2.6 0.3-3.8 0.5q-1.7 0.3-3 0.6-1.3 0.4-2 0.6-0.7 0.2-0.7 0.2 0-0.1 0.7-0.3 0.7-0.3 1.9-0.6 1.3-0.4 3.1-0.7c1.1-0.2 2.4-0.5 3.8-0.6 1.3-0.1 2.7 0.1 3.8 0.5 1.1 0.4 1.8 1.2 2.2 1.9 0.3 0.7 0.2 1.3 0 1.7q-0.1 0.3-0.2 0.5-0.1 0.1-0.1 0.1z"/>
				</g>
			</g>
			<g id="&lt;Group&gt;" style="opacity: .3">
				<path id="&lt;Path&gt;" class="s14" d="m106.8 134.2c-6.5 2.4-13.8 3.3-20.8 2.5-7.1-0.7-12.9-2.4-18.5-6.1q8.9 4.2 22.5 4.3 11.4 0.1 16.8-0.7z"/>
			</g>
		</g>
	</g>
</svg>