<svg width="75" height="77" viewBox="0 0 75 77" fill="none" xmlns="http://www.w3.org/2000/svg">
<g clip-path="url(#clip0_208_85)">
<path d="M33.4167 37.5373C33.4167 37.5373 26.3169 34.2884 21.765 33.8762C17.2131 33.4639 10.1912 33.8181 8.36983 35.7082C6.54846 37.5983 0.0463081 46.5547 0.306933 49.2515C0.567557 51.9482 2.38752 54.6583 3.1679 59.1812C3.94828 63.704 13.8325 77.2725 19.6845 74.4285C25.5366 71.5844 22.8061 67.063 25.667 64.3499C28.5279 61.6368 39.7107 46.2794 33.4167 37.5373Z" stroke="#E2ECDF" stroke-linecap="round" stroke-linejoin="round"/>
<path d="M18.5146 74.8137C18.5146 74.8137 32.0221 76.7856 34.4022 50.7261" stroke="#E2ECDF" stroke-linecap="round" stroke-linejoin="round"/>
<path d="M14.5815 33.8759C14.5815 33.8759 7.58964 29.9737 6.02889 28.5524C4.46813 27.1311 2.38764 24.6755 4.46814 21.4459C6.54865 18.2164 8.11387 17.0526 9.08747 11.6234C10.0611 6.19416 20.9849 3.61202 25.5368 6.06617C30.0888 8.52032 34.9882 11.4939 35.7222 15.8887C36.4561 20.2836 36.3213 33.0634 36.6523 36.6233" stroke="#E2ECDF" stroke-linecap="round" stroke-linejoin="round"/>
<path d="M20.9849 5.13745C20.9849 5.13745 28.4157 5.28628 31.3979 6.45605C34.3802 7.62583 37.945 11.1084 37.945 11.1084" stroke="#E2ECDF" stroke-linecap="round" stroke-linejoin="round"/>
<path d="M36.0981 19.8997C36.0981 19.8997 38.673 2.70875 43.4181 0.899015C48.1633 -0.910719 50.2423 1.9408 54.0139 1.9408C57.7855 1.9408 61.1661 1.03594 63.8997 4.39645C66.6332 7.75695 71.0892 11.2633 71.4427 12.9242C72.2231 16.5422 71.5745 19.9072 71.5745 19.9072" stroke="#E2ECDF" stroke-linecap="round" stroke-linejoin="round"/>
<path d="M36.6553 34.1914C36.6553 34.1914 37.4462 23.2541 40.9197 17.4394C44.3932 11.6248 51.6652 7.5752 56.0989 10.1053C64.683 14.9897 65.6221 20.3252 68.844 23.2601C71.9655 26.1026 71.7048 33.3803 71.0548 38.4657C70.4047 43.5511 65.5128 47.8418 62.4721 46.3059C56.2291 43.1582 46.4063 41.0062 40.9137 41.8247" stroke="#E2ECDF" stroke-linecap="round" stroke-linejoin="round"/>
<path d="M52.9771 9.33448C55.219 8.99864 57.5104 9.26481 59.6139 10.1054C62.9946 11.5014 67.1406 16.0585 69.3679 17.575C71.5952 19.0916 75.8701 25.4628 74.3108 30.7551C73.2524 34.3496 71.9029 37.853 70.2755 41.231" stroke="#E2ECDF" stroke-linecap="round" stroke-linejoin="round"/>
<path d="M69.1734 43.1523C69.1734 43.1523 75.367 46.7242 74.642 51.1443C73.9171 55.5645 70.5348 56.7655 67.674 61.784C64.8131 66.8024 58.9596 62.2795 56.7488 67.0599C54.538 71.8402 51.1573 75.8406 47.6463 76.1056C44.1354 76.3705 39.8202 71.1943 37.9449 67.0599C36.0696 62.9255 38.5125 62.1575 36.7061 59.6334C34.8997 57.1093 32.8836 51.8944 36.1069 44.3623" stroke="#E2ECDF" stroke-linecap="round" stroke-linejoin="round"/>
<path d="M45.5 75.6726C45.5 75.6726 49.2057 77.6565 54.0602 76.1191C62.7043 73.3747 60.0201 70.998 66.5372 66.9246C74.6016 61.8853 74.8458 56.8043 74.6421 51.1489" stroke="#E2ECDF" stroke-linecap="round" stroke-linejoin="round"/>
<path d="M33.8886 43.4739C32.8952 45.9624 31.0095 47.9973 28.5952 49.1858" stroke="#E2ECDF" stroke-linecap="round" stroke-linejoin="round"/>
<path d="M33.8754 41.938C32.5814 44.0326 30.5545 45.5786 28.1836 46.2793" stroke="#E2ECDF" stroke-linecap="round" stroke-linejoin="round"/>
<path d="M32.915 41.3948C31.2419 42.4412 29.3993 43.1924 27.4687 43.6153" stroke="#E2ECDF" stroke-linecap="round" stroke-linejoin="round"/>
<path d="M32.9105 39.9971C30.935 41.0123 28.6963 41.4092 26.4893 41.1356" stroke="#E2ECDF" stroke-linecap="round" stroke-linejoin="round"/>
<path d="M32.5034 38.9287C30.2916 39.3614 27.9991 39.0971 25.9458 38.1726" stroke="#E2ECDF" stroke-linecap="round" stroke-linejoin="round"/>
<path d="M33.9832 36.7572C32.1941 35.6619 30.6558 34.2063 29.4673 32.4844" stroke="#E2ECDF" stroke-linecap="round" stroke-linejoin="round"/>
<path d="M34.1014 34.4311C33.2752 32.1016 33.2067 29.573 33.9053 27.2026" stroke="#E2ECDF" stroke-linecap="round" stroke-linejoin="round"/>
<path d="M36.0981 37.1397C36.1446 34.3016 37.8417 29.8472 39.5537 28.5271" stroke="#E2ECDF" stroke-linecap="round" stroke-linejoin="round"/>
<path d="M37.3892 35.5665C37.5547 34.5982 37.9263 33.676 38.479 32.8617C39.0318 32.0474 39.7529 31.3596 40.5945 30.8442" stroke="#E2ECDF" stroke-linecap="round" stroke-linejoin="round"/>
<path d="M38.3555 35.976C39.3935 34.6597 40.8895 33.7768 42.5494 33.501" stroke="#E2ECDF" stroke-linecap="round" stroke-linejoin="round"/>
<path d="M38.5649 38.1727C40.4208 37.5997 43.4374 36.7573 44.107 37.3318" stroke="#E2ECDF" stroke-linecap="round" stroke-linejoin="round"/>
<path d="M38.2236 39.9599C39.8069 39.9107 41.6686 39.6533 42.8444 39.5625" stroke="#E2ECDF" stroke-linecap="round" stroke-linejoin="round"/>
<path d="M38.0273 40.8723C38.6714 41.9711 39.5476 42.9182 40.5953 43.6483C41.6431 44.3785 42.8376 44.8744 44.0967 45.102" stroke="#E2ECDF" stroke-linecap="round" stroke-linejoin="round"/>
<path d="M38.5649 43.4529C38.9312 44.3971 39.5053 45.248 40.2452 45.9432C40.9851 46.6385 41.8721 47.1606 42.8413 47.4712" stroke="#E2ECDF" stroke-linecap="round" stroke-linejoin="round"/>
<path d="M37.1195 43.8892C37.0592 45.003 37.3157 46.1113 37.8594 47.0871C38.4032 48.063 39.2124 48.8672 40.1944 49.4076" stroke="#E2ECDF" stroke-linecap="round" stroke-linejoin="round"/>
<path d="M34.5867 43.1523C34.5867 45.4115 33.4528 48.1857 32.3594 49.86" stroke="#E2ECDF" stroke-linecap="round" stroke-linejoin="round"/>
<path d="M30.64 37.7603C30.3404 38.4062 29.8237 38.9404 29.5137 39.5849C29.2036 40.2293 29.1483 41.094 29.68 41.5747C30.0754 41.9334 30.6925 41.984 31.0535 42.3769C31.7904 43.1805 30.8737 44.5959 31.4474 45.5216C31.7889 46.0707 32.5259 46.2211 33.1745 46.1972C33.823 46.1734 34.4865 46.0291 35.1126 46.1972C35.9798 46.4339 36.8996 47.239 37.6306 46.7211C37.9541 46.4934 38.0799 46.0782 38.3435 45.785C39.0744 44.9769 40.5903 45.3222 41.2763 44.4709C41.8095 43.8026 41.4935 42.8219 41.101 42.0643C40.7086 41.3068 40.2457 40.4466 40.5528 39.6519C40.776 39.0759 41.3677 38.68 41.5129 38.0802C41.8125 36.8569 40.1648 36.0398 39.8248 34.8284C39.702 34.3923 39.7544 33.9086 39.5492 33.5038C39.2332 32.8802 38.4318 32.6778 37.7293 32.6912C37.0268 32.7046 36.3093 32.8609 35.6323 32.6749C35.4357 32.622 35.2519 32.5304 35.0917 32.4055C34.8005 32.1795 34.4332 32.0729 34.0654 32.1078C33.6976 32.1427 33.3573 32.3163 33.1145 32.593C32.797 32.9517 32.4989 33.3103 32.2578 33.6006C31.1763 34.9028 31.332 36.2988 30.64 37.7603Z" fill="#E2ECDF"/>
<path d="M34.8251 27.9808C34.8251 28.7214 34.2209 29.3218 33.4755 29.3218C32.7302 29.3218 32.126 28.7214 32.126 27.9808C32.126 27.2402 32.7302 26.6399 33.4755 26.6399C34.2209 26.6399 34.8251 27.2402 34.8251 27.9808Z" fill="#E2ECDF"/>
<path d="M40.5022 29.4648C39.981 29.9826 39.136 29.9826 38.6148 29.4647C38.0936 28.9469 38.0937 28.1074 38.6149 27.5895C39.1361 27.0717 39.981 27.0716 40.5022 27.5894C41.0234 28.1073 41.0234 28.9469 40.5022 29.4648Z" fill="#E2ECDF"/>
<path d="M41.2491 32.3282C41.4609 32.3282 41.668 32.2658 41.8441 32.1488C42.0203 32.0319 42.1576 31.8657 42.2386 31.6713C42.3197 31.4768 42.3408 31.2629 42.2995 31.0565C42.2582 30.8501 42.1563 30.6604 42.0065 30.5116C41.8567 30.3628 41.6659 30.2615 41.4581 30.2204C41.2504 30.1793 41.0351 30.2004 40.8394 30.281C40.6437 30.3615 40.4764 30.4979 40.3587 30.6729C40.241 30.8479 40.1782 31.0536 40.1782 31.2641C40.1782 31.5463 40.291 31.817 40.4918 32.0165C40.6927 32.2161 40.9651 32.3282 41.2491 32.3282V32.3282Z" fill="#E2ECDF"/>
<path d="M43.4251 35.3982C42.6241 35.5861 41.8214 35.0931 41.6323 34.2971C41.4432 33.5011 41.9393 32.7036 42.7404 32.5157C43.5415 32.3278 44.3442 32.8208 44.5333 33.6168C44.7223 34.4128 44.2262 35.2103 43.4251 35.3982Z" fill="#E2ECDF"/>
<path d="M44.4215 37.9817C43.7959 38.1284 43.1691 37.7435 43.0215 37.1219C42.8738 36.5003 43.2612 35.8774 43.8868 35.7307C44.5124 35.584 45.1392 35.969 45.2869 36.5906C45.4345 37.2122 45.0471 37.8349 44.4215 37.9817Z" fill="#E2ECDF"/>
<path d="M43.8874 39.9506C43.4329 40.4022 42.696 40.4022 42.2415 39.9506C41.7869 39.499 41.787 38.7668 42.2415 38.3152C42.696 37.8637 43.4328 37.8636 43.8874 38.3152C44.3419 38.7668 44.3419 39.499 43.8874 39.9506Z" fill="#E2ECDF"/>
<path d="M46.1382 45.3268C46.1382 46.221 45.4086 46.946 44.5086 46.946C43.6085 46.946 42.8789 46.221 42.8789 45.3268C42.8789 44.4325 43.6085 43.7075 44.5086 43.7075C45.4086 43.7075 46.1382 44.4325 46.1382 45.3268Z" fill="#E2ECDF"/>
<path d="M43.4374 47.6857C43.4374 48.2989 42.9372 48.7959 42.32 48.7959C41.7029 48.7959 41.2026 48.2989 41.2026 47.6857C41.2026 47.0725 41.7029 46.5754 42.32 46.5754C42.9372 46.5754 43.4374 47.0725 43.4374 47.6857Z" fill="#E2ECDF"/>
<path d="M40.119 51.5322C39.3235 51.7187 38.5265 51.2293 38.3387 50.4389C38.151 49.6485 38.6436 48.8566 39.4391 48.67C40.2346 48.4835 41.0316 48.973 41.2193 49.7633C41.4071 50.5537 40.9144 51.3456 40.119 51.5322Z" fill="#E2ECDF"/>
<path d="M32.5416 50.9498C31.941 51.0907 31.3391 50.7211 31.1974 50.1243C31.0556 49.5275 31.4276 48.9296 32.0282 48.7887C32.6288 48.6479 33.2306 49.0175 33.3724 49.6142C33.5142 50.211 33.1422 50.809 32.5416 50.9498Z" fill="#E2ECDF"/>
<path d="M29.7081 49.3048C29.7081 50.3035 28.8933 51.1131 27.8882 51.1131C26.8831 51.1131 26.0684 50.3035 26.0684 49.3048C26.0684 48.3062 26.8831 47.4966 27.8882 47.4966C28.8933 47.4966 29.7081 48.3062 29.7081 49.3048Z" fill="#E2ECDF"/>
<path d="M29.1537 46.7685C28.9175 47.335 28.2639 47.604 27.6937 47.3694C27.1236 47.1347 26.8528 46.4853 27.089 45.9188C27.3252 45.3523 27.9788 45.0833 28.5489 45.3179C29.1191 45.5526 29.3898 46.202 29.1537 46.7685Z" fill="#E2ECDF"/>
<path d="M28.4004 43.7074C28.4004 44.3461 27.8793 44.8638 27.2366 44.8638C26.5938 44.8638 26.0728 44.3461 26.0728 43.7074C26.0728 43.0688 26.5938 42.551 27.2366 42.551C27.8793 42.551 28.4004 43.0688 28.4004 43.7074Z" fill="#E2ECDF"/>
<path d="M27.5617 41.2101C27.5617 41.8997 26.9991 42.4587 26.305 42.4587C25.611 42.4587 25.0483 41.8997 25.0483 41.2101C25.0483 40.5205 25.611 39.9614 26.305 39.9614C26.9991 39.9614 27.5617 40.5205 27.5617 41.2101Z" fill="#E2ECDF"/>
<path d="M27.2351 38.2499C27.2351 38.9395 26.6724 39.4985 25.9784 39.4985C25.2843 39.4985 24.7217 38.9395 24.7217 38.2499C24.7217 37.5603 25.2843 37.0012 25.9784 37.0012C26.6724 37.0012 27.2351 37.5603 27.2351 38.2499Z" fill="#E2ECDF"/>
<path d="M27.7013 35.7974C27.904 35.7977 28.1022 35.7383 28.2709 35.6266C28.4395 35.5149 28.571 35.356 28.6488 35.1701C28.7266 34.9841 28.7471 34.7793 28.7078 34.5818C28.6684 34.3842 28.5709 34.2027 28.4277 34.0602C28.2844 33.9176 28.1019 33.8205 27.9031 33.7811C27.7043 33.7417 27.4983 33.7618 27.311 33.8388C27.1237 33.9158 26.9636 34.0463 26.851 34.2137C26.7383 34.3812 26.6782 34.5781 26.6782 34.7795C26.6782 35.0492 26.7858 35.3079 26.9776 35.4987C27.1695 35.6896 27.4298 35.797 27.7013 35.7974V35.7974Z" fill="#E2ECDF"/>
<path d="M31.3332 32.4664C31.3332 33.2588 30.6867 33.9011 29.8892 33.9011C29.0918 33.9011 28.4453 33.2588 28.4453 32.4664C28.4453 31.6741 29.0918 31.0317 29.8892 31.0317C30.6867 31.0317 31.3332 31.6741 31.3332 32.4664Z" fill="#E2ECDF"/>
</g>
<defs>
<clipPath id="clip0_208_85">
<rect width="77" height="75" fill="white" transform="matrix(-4.37114e-08 1 1 4.37114e-08 0 0)"/>
</clipPath>
</defs>
</svg>
