<svg id="Layer_1" data-name="Layer 1" xmlns="http://www.w3.org/2000/svg" viewBox="0 0 1627.24 1260.5"><defs><style>.cls-1{fill:#6c808d;}.cls-2{fill:#adeee7;}.cls-3{fill:#fff;}.cls-4{fill:#ffbc8d;}.cls-5{fill:#103041;}.cls-6{fill:#ffa128;}.cls-7{fill:#00ada1;}.cls-8{fill:#ffb47f;}.cls-9{fill:#ff9751;}.cls-10{fill:#ddd;}.cls-11{fill:#f88b45;}.cls-12{fill:#ff7721;}.cls-13{fill:#ff7c00;}.cls-14{fill:#63ccbf;}.cls-15{fill:#008979;}.cls-16{fill:#ffd155;}</style></defs><title>team2</title><path class="cls-1" d="M1696.19,405.66q-6.57,99.65-13.07,199.3c-.81,12.59-20.32,11.42-19.51-1.16q6.29-94.75,12.44-189.46-95.93-6.35-191.95-12.52c-12.58-.87-11.35-20.37,1.17-19.57q99.65,6.57,199.37,13.08a3.5,3.5,0,0,1,1.41.26h.06C1691.33,395.52,1696.65,398.94,1696.19,405.66Z" transform="translate(-146.76 -329.17)"/><path class="cls-1" d="M329.71,1580.4q-2.49-99.83-5-199.67c-.34-12.61,19.2-13.22,19.53-.61q2.32,94.93,4.77,189.81,96.11-2.36,192.29-4.92c12.6-.27,13.15,19.26.61,19.6q-99.83,2.49-199.73,5a3.5,3.5,0,0,1-1.43-.13h-.06C335.46,1590.06,329.86,1587.13,329.71,1580.4Z" transform="translate(-146.76 -329.17)"/><path class="cls-2" d="M1370.27,667.41c-16.76.34-29.51-19.31-25.78-35.85,3.82-16.94,20.05-28.83,37-32.77s34.56-1.48,51.75,1c-11.77-21.9-23.81-44.79-24.86-69.64s12.44-52.21,36.5-58.58c19.28-5.14,40.07,4.56,53.59,19.22s21.28,33.64,28.74,52.12c2.77-17.5,5.61-35.18,12.41-51.53s18.08-31.54,33.91-39.49c30.71-15.43,70.94,2.25,87.45,32.37s12.88,68.1-1.32,99.43c11.21-25.81,42.51-41.06,69.73-34s47.16,35.61,44.39,63.64-27.88,54.21-56,55.81h0l-347.47-1.76Z" transform="translate(-146.76 -329.17)"/><path class="cls-2" d="M318.78,806.33c-8.07.34-16.39.46-23.9-2.49-7.89-3.11-14.72-10.6-14.29-19.07.52-9.52,9.46-16.26,18-20.39a106,106,0,0,1,64.78-8.56c-12.44-10.1-23.9-22.08-30.12-36.84s-6.47-32.74,2.46-46c7.64-11.4,21-18,34.59-19.9s27.41.55,40.63,4.25a215.92,215.92,0,0,1,77.34,39.95c-14.88-23.19-12.32-56.18,6-76.85S545,593.22,569.85,605.2s39.95,41.43,35.21,68.6c24.86-27.44,50.85-55.69,85.07-69.77,11.09-4.56,23.66-7.52,35-3.63,12.11,4.1,20.58,15.31,25.26,27.2,12.38,31.57-.18,71-28.55,89.63,20.73-7.55,43.43-11.77,64.93-6.75s41.43,20.76,46.7,42.2-8,47.06-29.66,51.19h0l-485,2.46Z" transform="translate(-146.76 -329.17)"/><path class="cls-3" d="M1675.12,587.22c-27.37-8.5-55.51,12.49-73.32,35.55a179.47,179.47,0,0,0,7.57-55.18c-.34-14.86-2.17-43.48-23-43.6-18.78-.11-28.79,24.83-33.58,39.31a123.36,123.36,0,0,0-6.2,38.17,109.26,109.26,0,0,0-16.21-25.63c-11.35-13.3-30.16-28.33-48.57-19.67-13.69,6.44-18.9,23.29-16.91,37.41a45.43,45.43,0,0,0,7.25,18.57c-12.58-4.72-25.52-3.8-35.29,10.13-12.72,18.13,9.62,40.39,27.92,29.08,2.86-1.77-.11-6.06-3-4.3-10.47,6.47-25.65-3.18-23.44-15.6,1.93-10.85,14.51-16.2,24.23-16.19a32.79,32.79,0,0,1,14.67,3.65c7.62,8.92,17.51,16.34,26.42,23a2.61,2.61,0,0,0,3.4-4,117.75,117.75,0,0,0-24.24-20.47,53,53,0,0,1-10.92-17.27c-5.29-14.42-1.19-36.65,16.08-40.5,19.18-4.29,35.87,14.69,45.51,28.89a105.73,105.73,0,0,1,14.19,30.8,135.58,135.58,0,0,0,3.7,18.13c.78,2.83,5.43,1.84,5.06-1.08a124.27,124.27,0,0,0-3.63-17.87,119,119,0,0,1,1.1-39.29,116.83,116.83,0,0,1,8.39-26.09c3.74-8.12,14.1-28.5,26.57-23.75,19,7.26,16.09,40.51,14.76,56.51a180.36,180.36,0,0,1-15,57.84c-1.35,3.07,3.24,5.33,4.7,2.29,11.46-24,33.11-46.92,59.69-53.6,16-4,38,1.46,33.92,22.81-3.55,18.39-22.92,26-38.41,31.89-3.13,1.19-1.39,6.12,1.76,4.92,16.32-6.21,35.18-14,40.84-32.25C1695.4,606,1689.39,591.65,1675.12,587.22Z" transform="translate(-146.76 -329.17)"/><path class="cls-3" d="M755.85,746.51c-5.83-15-24.87-14.26-37.92-13.14a180.27,180.27,0,0,0-58,15.25c8.49-21.63,18.13-43.31,24.76-65.47,4-13.47-.41-28.47-17.29-26.54-17.2,2-34.05,21.56-45.08,33.61A212.68,212.68,0,0,0,589.24,739a164.07,164.07,0,0,0-16.56-44.6c-5.35-9.67-14.21-26.75-28-24.61-10.54,1.64-14.34,14-17,22.68a196.52,196.52,0,0,0-8.15,57,117.82,117.82,0,0,0-32.86-26.29c-11.58-6.15-32.33-15.93-45.61-10.76-9.73,3.79-11.69,14.94-7.95,23.88,2.74,6.54,7.95,10.5,14,13.07-10.82.57-21.57,2-31.8,5.54-9.18,3.21-21.24,8.46-21.78,19.75-.46,9.53,7.36,18.2,16,21.18,13.33,4.62,27.45-3,38.84-9.12,3-1.59,0-5.88-3-4.3-10.47,5.64-24.68,13.49-36.57,7.46-7.58-3.84-9.64-8.92-7.15-16.85,2.66-8.5,4.92-9.22,13.38-12.44,17-6.46,35.57-6.39,53.44-6.43,2.93,0,3.23-4.79.31-5.17-11.16-1.43-27.17-3.28-31.4-15.89-3.46-10.34,8.91-16.17,17.35-15.88,5.41.19,11.87,3,16.76,4.84a113.08,113.08,0,0,1,48.54,35.92,2.63,2.63,0,0,0,4.75-1.68,197,197,0,0,1,3.24-43.59c2-10.28,3.69-26.38,11.35-33.92,14.84-14.61,31.34,22.64,34.69,30.15a162.84,162.84,0,0,1,11.46,38.2c.42,2.38,3.78,3.49,5,.95,13.24-28.76,32.39-54.39,57-74.45,2.74-2.24,5.52-4.56,8.47-6.51l6.81-3.9q11.89-6.36,13.73,6.82c5,9.78,3.6,10.63.15,20.06-1.47,4-3,8-4.57,12l-19.21,50.43c-.71,1.87,1,4.69,3.23,3.6a184,184,0,0,1,38.3-13.79c12.28-2.86,42.9-10.43,52.21,1.09q6.78,3.37,1.43,10.65,1.36,7.34-4.44,9.21c-2.43,1.83-6.19,2.78-9,3.61-6.68,2-13.59,3.31-20.35,4.93l-46.54,11.12c-3.26.78-1.48,5.69,1.76,4.92,23.07-5.51,47.76-9.18,70.14-17.05C750,767.14,760.66,758.85,755.85,746.51Z" transform="translate(-146.76 -329.17)"/><path class="cls-1" d="M1711.56,1570.76q-99.84,2.09-199.69,4.24c-12.61.29-13.14-19.25-.53-19.54q94.94-1.94,189.82-4-2-96.12-4.15-192.31c-.22-12.6,19.31-13.07,19.6-.53q2.09,99.84,4.24,199.75a3.5,3.5,0,0,1-.14,1.43v.06C1721.24,1565,1718.29,1570.64,1711.56,1570.76Z" transform="translate(-146.76 -329.17)"/><path class="cls-1" d="M291,375.34q99.83-2.49,199.67-5c12.61-.34,13.22,19.2.61,19.53q-94.93,2.32-189.81,4.77,2.36,96.11,4.92,192.29c.27,12.6-19.26,13.15-19.6.61q-2.49-99.83-5-199.73a3.5,3.5,0,0,1,.13-1.43v-.06C281.36,381.09,284.29,375.49,291,375.34Z" transform="translate(-146.76 -329.17)"/><g id="_Group_" data-name="&lt;Group&gt;"><path class="cls-4" d="M1354.27,914.62c.59,7.1.65,15.25,4,21.51a346.21,346.21,0,0,0,22.22-83.55l1.5.2q64-.78,128.13-1.63c3.32-.07,6.58-.07,9.91-.13h.07c-.33,37.41-.78,74.88-6.19,111.9-1.82,12.32-4.43,25.09-12.06,34.87-6.26,8.08-15.38,13.49-25,16.88-8.67,3.06-17.79,4.56-26.92,6l.39,2.41q8,28.94,15.9,57.94c.33,1.24.72,2.48,1,3.71l-2.35.65a393.92,393.92,0,0,1-67.91,60.41l-.78,1q-37.15-30.89-76.51-59l-.2-.59c.13-1,.26-1.89.39-2.87q8.8-59.73,12.38-120l-1-.07c-8.15-4.56-15.25-11.27-19.29-19.68s-4.89-18.57-1.24-27.18a27.24,27.24,0,0,1,12.84-13.75,23.27,23.27,0,0,1,8.28-2.41C1341.23,900.28,1351,905.82,1354.27,914.62Z" transform="translate(-146.76 -329.17)"/><path class="cls-5" d="M1358.24,936.13c-3.32-6.26-3.39-14.4-4-21.51-3.26-8.8-13-14.34-22.35-13.43a23.27,23.27,0,0,0-8.28,2.41l-.65-1.5c.65-24.7,1.37-49.4,2-74.1.26-8,.78-16.68,6.19-22.55,4.24-4.5,10.62-6.32,16.81-6.65s12.38.65,18.57.72c24.57.26,47.32-13.56,64.65-30.89,5.34-5.41,10.49-11.21,17-15.12s15-5.54,21.7-1.89c7.36,3.91,11.08,13.16,18.9,16s16.23-2,23.53-6.06a47.66,47.66,0,0,1,6.65-3.13c5.8-2.28,12.12-3,16.94.52,4.5,3.39,6,9.71,5.15,15.25s-3.71,10.62-6.45,15.51c5.8-2.54,12.84,2.28,14.6,8.34s-.33,12.64-3.13,18.38a72.38,72.38,0,0,1-36,34v.72q-64,.78-128.13,1.63l-1.5-.2A346.21,346.21,0,0,1,1358.24,936.13Z" transform="translate(-146.76 -329.17)"/><path class="cls-2" d="M1321,1306.11c5.08,24.37,9.32,48.94,13,73.58,2.74,18.25,5.15,36.5,7.36,54.74,1.24,10.36,2.09,22-4.63,30-5,6-13.23,8.41-21,8.08s-15.19-3.13-22.42-6.06a456.39,456.39,0,0,1-146.7-96c5.28-4.69,7-12.45,8.28-19.55,4-23.4,7-47.25,4.5-70.91-.33-3.39-.85-6.91-2.67-9.84s-5.34-5-8.73-4.24c-2.8.65-4.82,3.19-6.39,5.74a46.37,46.37,0,0,0-5.93,15.45l4.43-66.74-209.79,11.27v61.91h-.07a45.15,45.15,0,0,0-5.47-13.36c-1.5-2.54-3.52-5-6.32-5.74-3.39-.78-6.91,1.37-8.73,4.24s-2.35,6.45-2.67,9.84c-2.54,23.66.46,47.51,4.5,70.91,1.3,7.56,3.13,15.84,9.32,20.53a19.84,19.84,0,0,0,11.6,3.71c-.07,2-.07,4.11-.13,6.19q-17.5,23-35.84,45.56c-11.8,14.73-23.92,29.33-36.17,43.73-7.23,8.54-16.75,17.79-27.7,15.84-7.63-1.37-13.36-8.15-15.77-15.51s-2-15.25-1.5-23a1111.26,1111.26,0,0,1,25.94-180.07q7.92-34.9,18.12-69.28c1-3.52,2.09-7,3.19-10.43l.72.2q57.58-20.92,115-41.91,23.76-8.6,47.45-17.27c0,.26-.07.59-.07.85L1025,1141c8.86,10.23,16,22,25.74,31.35s23.07,16.49,36.37,14.21c9.38-1.56,17.47-7.49,23.53-14.79s10.23-15.84,14.4-24.37h.39c0-2.8,0-5.67-.07-8.47h2.8c7.36,1.24,17.66,3.78,29.59,7,49.66,13.56,126.5,39.82,126.5,39.82s8.93,16.1,11.8,24.83A883.44,883.44,0,0,1,1321,1306.11Z" transform="translate(-146.76 -329.17)"/><path class="cls-6" d="M1142.72,1046.07c.65-1.37,1.24-2.8,1.76-4.24l3.85,1.3c4.5,4.11,9.06,8.28,14.53,11s11.93,3.91,17.66,1.76c11.14-4.17,14.27-18,20.59-28.09,8.28-13.16,23.14-20.86,32.39-33.37,11.21-15.12,12.38-37,2.93-53.31-7-12.06-19.42-21.44-22.35-35.13-2.8-13.36,4.24-26.79,5-40.41.78-15.64-7.49-31.28-20.46-40.08s-30.17-10.82-45.1-5.93-27.37,16.29-34.28,30.37l-.33,1.76c-14.73-2.41-29.65,6.45-44.77,9.38-14.21,2.74-28.81.07-42.95-3.58,4.37-12.32,8.21-24.64,10.36-37.47.52-3.06.91-6.13,1.24-9.25q80.46-44.68,164.82-81.86c.39-.13.72-.33,1.11-.46l1.3.91c6.26,6.52,12.58,13,20.07,18.05s16.42,8.41,25.42,8c10.82-.59,20.72-6.78,28.09-14.73s12.51-17.6,17.6-27.18l1.76-.72c-.2-1.3-.39-2.61-.65-3.91l2.09-.33q98-17,194.73-40.47c21.25-62.7,39.36-126.5,54.35-191l10.88.46V472a268.19,268.19,0,0,1,34.67,2.67v.2Q1587.65,591,1576.31,707c-18.44,18.18-38.39,34-57.29,51.42a47.66,47.66,0,0,0-6.65,3.13c-7.3,4.11-15.64,8.93-23.53,6.06s-11.54-12.06-18.9-16c-6.71-3.65-15.19-2-21.7,1.89s-11.67,9.71-17,15.12c-17.34,17.34-40.08,31.15-64.65,30.89-6.19-.07-12.38-1-18.57-.72s-12.58,2.15-16.81,6.65c-5.41,5.87-5.93,14.6-6.19,22.55-.65,24.7-1.37,49.4-2,74.1l.65,1.5a27.24,27.24,0,0,0-12.84,13.75c-3.65,8.6-2.8,18.77,1.24,27.18s11.14,15.12,19.29,19.68l1,.07q-3.62,60.32-12.38,120h-.2L1214.08,1105c-12.64,2.41-25.48,5-36.56,11.6-10.49,6.32-19.16,17.14-19.81,29.33-11.93-3.19-22.22-5.74-29.59-7h-2.8q-.1-40.18-.26-80.29C1132.55,1058.52,1139.33,1052.85,1142.72,1046.07Z" transform="translate(-146.76 -329.17)"/><path class="cls-7" d="M1319.92,1084.26c-.13,1-.26,1.89-.39,2.87l.2.59q39.3,28.15,76.51,59l.78-1a393.92,393.92,0,0,0,67.91-60.41l2.35-.65c-.33-1.24-.72-2.48-1-3.71a710.86,710.86,0,0,1,139.21,41l4.63-.65q28.15,203.44,63,406H1205v-2.93q5.38-47.51,10.88-95l1.56-2.41a448.28,448.28,0,0,0,75.86,39.49c7.23,2.93,14.66,5.74,22.42,6.06s16-2.09,21-8.08c6.71-8,5.87-19.62,4.63-30-2.22-18.25-4.63-36.5-7.36-54.74l5.67-.78q54.65-15.35,109.42-30.7l1.5,5a158.27,158.27,0,0,0,46.34,8.93c4,.13,8.47,0,11.34-2.87s3.06-7,3.13-10.95q.68-26,1.37-52.14c.13-5.21.13-10.82-2.87-15.12-4.3-6.19-13.23-7-20.66-5.8s-15.05,3.71-22.48,2.22h-.59a540.38,540.38,0,0,0-4.89-59.83c-.39-2.61-.78-5.34-2.28-7.49s-4.37-3.65-6.84-2.61c-2.87,1.17-3.58,4.82-3.91,8a491,491,0,0,0-.91,85.9q-63.15,2.35-126.3,4.76a883.44,883.44,0,0,0-25-95.54c-2.87-8.73-11.8-24.83-11.8-24.83s-76.84-26.26-126.5-39.82c.65-12.19,9.32-23,19.81-29.33,11.08-6.58,23.92-9.19,36.56-11.6l105.64-20.72Z" transform="translate(-146.76 -329.17)"/><path class="cls-8" d="M1564.45,453.27c-.07-.26-.07-.52-.13-.78v.85a87.7,87.7,0,0,1-9.25.13,45.82,45.82,0,0,1-7.82-1c-7.43-1.63-14.66-5.87-18-12.77-3.13-6.39-2.35-13.95-1.37-21.05.65-4.89,1.5-10.1,4.82-13.75,3.45-3.85,8.86-5.21,13.95-6.13,5.47-1,11-1.89,16.62-2.41,3.45-.39,7-.65,10.43-.85,4.43-.26,8.8-.33,13.16-.26,6,.13,12.77.91,16.29,5.74,2.87,3.91,2.54,9.19,2.15,14.08q-2.64,29.82-5.28,59.7c-.33-.07-.72-.07-1-.13a268.19,268.19,0,0,0-34.67-2.67V453.33A.23.23,0,0,0,1564.45,453.27Z" transform="translate(-146.76 -329.17)"/><path class="cls-5" d="M1321.62,452.75c-24.77,44-70.19,73.06-117.57,90.39l-.13-.26c-10.62-3-22.81,2.41-28.35,11.93s-4.5,22.29,1.89,31.28c5.93,8.41,16,13.49,26.33,13.95q1.86,64.42,3.78,128.91-84.27,37.25-164.82,81.86c-.33,3.13-.72,6.19-1.24,9.25-11.41,2.35-26.46-8.73-28.48-20.2s2.35-23,7-33.69,10-21.64,9.78-33.3a38.25,38.25,0,0,0-.59-6.13c-4.5-26.26-33.82-45.56-36.5-72.93-2.35-24.37,17.6-45.23,38.45-58s45-21.9,60.74-40.67c16.49-19.62,21.05-46.27,28.74-70.78,7.17-22.75,17.66-44.77,33.24-62.83s36.43-32.13,59.76-37c43.4-8.86,89.22,16.42,112.29,54.22s23.59,89,14.14,132.3A678.76,678.76,0,0,0,1321.62,452.75Z" transform="translate(-146.76 -329.17)"/><path class="cls-9" d="M203.91,730.71c1.3.72,2.61,1.43,3.85,2.22-12.58,24.31-29.78,57.61-42.69,82.51-.85-.46-1.69-1-2.48-1.5-3.06-1.82-6.13-3.78-9.06-5.8a20.93,20.93,0,0,1-4.56-11c-.91-8,2-16,5.41-23.27,6.26-13.62,14.14-26.39,22-39.17,2.15-3.45,4.56-7.17,8.34-8.8,3.19-1.43,7-1.11,10.23.07a37.52,37.52,0,0,1,8.73,5Z" transform="translate(-146.76 -329.17)"/><path class="cls-3" d="M931.43,1302.46a37.8,37.8,0,0,0-1.24-8.93h.07v-61.91L1140,1220.34l-4.43,66.74a46.92,46.92,0,0,0-.78,6.78c-9.84-.26-19.68.39-29.13,3.06-10.69,3.06-20.79,9-27.31,18s-9,21.31-4.82,31.61c3.45,8.67,11,15.12,19.42,19.16s17.6,6,26.72,7.82a56.42,56.42,0,0,0,14,1.63s-.52,82.18,3.39,105.19H935.6s-3.85-50-3.32-90.46c1.63-2.09,3.26-4.17,4.82-6.26a90.51,90.51,0,0,0,9.52-1.56c9.12-1.82,18.38-3.78,26.72-7.82s16-10.49,19.42-19.16c4.17-10.3,1.69-22.55-4.82-31.54s-16.62-15-27.31-18.05C951.18,1302.72,941.27,1302.14,931.43,1302.46Z" transform="translate(-146.76 -329.17)"/><path class="cls-9" d="M924.72,1280.17a45.15,45.15,0,0,1,5.47,13.36,37.8,37.8,0,0,1,1.24,8.93c9.84-.33,19.75.26,29.2,3,10.69,3.06,20.79,9,27.31,18.05s9,21.25,4.82,31.54c-3.45,8.67-11,15.12-19.42,19.16s-17.6,6-26.72,7.82a90.51,90.51,0,0,1-9.52,1.56c-1.56.07-3.13.13-4.69.07a19.84,19.84,0,0,1-11.6-3.71c-6.19-4.69-8-13-9.32-20.53-4-23.4-7-47.25-4.5-70.91.33-3.39.85-6.91,2.67-9.84s5.34-5,8.73-4.24C921.2,1275.15,923.22,1277.63,924.72,1280.17Z" transform="translate(-146.76 -329.17)"/><path class="cls-7" d="M600.62,813.28c-5.47-1-11.86.2-15.19,4.5l-6.45-4.3q17.21-25.61,34.48-51.29a779.09,779.09,0,0,1,127.74-39c.52.65,1.11,1.24,1.63,1.82a385.84,385.84,0,0,0,71.82,62.43c20.53-29.2,43.34-54.48,63.87-83.62-.07-.39-.13-.85-.2-1.24,44.45,7.76,106.43,19.68,150.94,24.18a38.25,38.25,0,0,1,.59,6.13c.2,11.67-5,22.61-9.78,33.3s-9.06,22.22-7,33.69,17.08,22.55,28.48,20.2c-2.15,12.84-6,25.16-10.36,37.47-1.63-.39-3.32-.85-5-1.3-15.64-4.24-31.48-9.06-47.64-8.28s-33.17,8.54-40.08,23.2c-7.69,16.36-1.3,37-9.84,53.05-5.87,10.88-17.86,18-22,29.65-3.32,9.65-.07,21.05,7.3,28.15a32.66,32.66,0,0,0,22.61,8.8c5.08,17.6,5.74,36.24,9.84,54.16,4.3,19,13.88,38.45,31.41,46.92,16.1,7.82,35,4.69,52.53,1.17-1.56,14.92-3.06,29.78-4.63,44.64q-23.66,8.7-47.45,17.27l-3.13-8.6c-3.71-9.91-7.43-19.75-11.14-29.65l-3.71-4.24q-76.45-17.5-152.83-35.06l-.52-1.5c0-.33-.07-.72-.07-1Q802.2,1020,797.7,965.26l-.52-1.17a48.11,48.11,0,0,0,15.77-33c.46-7.36-1.3-15.51-7-19.94l.2-.26c-2.48-22.22-4.89-44.51-7.36-66.8-.78-7.23-1.82-15.05-6.91-20.27-6.78-7-17.92-6.78-27.63-6l-90.07,7c-19,1.5-39,2.87-56.57-4.69C612,817.78,606.61,814.39,600.62,813.28Z" transform="translate(-146.76 -329.17)"/><path class="cls-10" d="M1553.44,477.12l-50.57-2.28,9.32-125.2q31.58.1,63.15.33l1.43.13c-1.11,14.6-2.15,29.13-3.19,43.73l.13,1.69c-3.45.2-7,.46-10.43.85l-.13-1.11V364L1522,361.51l-7.3,99.39,40.41,3.45V453.46a87.7,87.7,0,0,0,9.25-.13v24.24Z" transform="translate(-146.76 -329.17)"/><path class="cls-3" d="M1563.15,395.26l.13,1.11c-5.6.52-11.14,1.37-16.62,2.41-5.08.91-10.49,2.28-13.95,6.13-3.32,3.65-4.17,8.86-4.82,13.75-1,7.1-1.76,14.66,1.37,21.05,3.32,6.91,10.56,11.14,18,12.77a45.82,45.82,0,0,0,7.82,1v10.88l-40.41-3.45,7.3-99.39,41.19,2.48Z" transform="translate(-146.76 -329.17)"/><path class="cls-4" d="M1466.1,1277.44h.59c7.43,1.5,15-1,22.48-2.22s16.36-.39,20.66,5.8c3,4.3,3,9.91,2.87,15.12q-.68,26.1-1.37,52.14c-.07,3.91-.39,8.21-3.13,10.95s-7.3,3-11.34,2.87a158.27,158.27,0,0,1-46.34-8.93l-1.5-5,1.56-1.56c-.91-13.75-1.76-27.44-2.67-41.25h-.33c-.13-1.37-.2-2.67-.33-4a491,491,0,0,1,.91-85.9c.33-3.13,1-6.78,3.91-8,2.48-1,5.34.39,6.84,2.61s1.89,4.89,2.28,7.49A540.38,540.38,0,0,1,1466.1,1277.44Z" transform="translate(-146.76 -329.17)"/><path class="cls-7" d="M1447.92,1305.39c.91,13.82,1.76,27.5,2.67,41.25l-1.56,1.56q-54.74,15.35-109.42,30.7l-5.67.78c-3.65-24.64-7.89-49.21-13-73.58q63.15-2.44,126.3-4.76c.13,1.37.2,2.67.33,4Z" transform="translate(-146.76 -329.17)"/><path class="cls-8" d="M1287.79,646.7a508.86,508.86,0,0,1,14.47,62.17c.26,1.3.46,2.61.65,3.91l-1.76.72c-5.08,9.58-10.23,19.23-17.6,27.18s-17.27,14.14-28.09,14.73c-9,.46-17.86-2.93-25.42-8s-13.82-11.54-20.07-18.05l-1.3-.91c-.39.13-.72.33-1.11.46q-1.86-64.42-3.78-128.91c-10.3-.46-20.4-5.54-26.33-13.95-6.39-9-7.43-21.7-1.89-31.28s17.73-14.92,28.35-11.93l.13.26c47.38-17.34,92.81-46.4,117.57-90.39a678.76,678.76,0,0,1,18.51,118.35c.78,11.73,1.24,23.46,1.43,35.19.13,10.49-.26,21.9-6.65,30.24-5.28,6.91-14,10.56-22.61,11.54C1304.15,649,1295.94,647.94,1287.79,646.7Z" transform="translate(-146.76 -329.17)"/><path class="cls-5" d="M1236.44,941.15c9.45,16.29,8.28,38.19-2.93,53.31-9.25,12.51-24.11,20.2-32.39,33.37-6.32,10.1-9.45,23.92-20.59,28.09-5.74,2.15-12.25,1-17.66-1.76s-10-6.91-14.53-11l-3.85-1.3c2.09-6.19,2.48-12.9,2.87-19.55,2.22-38.58,4.5-77.23,2.74-115.81-.52-10.82-1.37-21.77-5.41-31.8s-11.8-19.1-22.16-22.16a24.33,24.33,0,0,0-3.65-.78l.33-1.76c6.91-14.08,19.36-25.48,34.28-30.37s32.13-2.93,45.1,5.93S1219.82,850,1219,865.61c-.72,13.62-7.76,27-5,40.41C1217,919.71,1229.4,929.09,1236.44,941.15Z" transform="translate(-146.76 -329.17)"/><path class="cls-2" d="M1217.41,1426.94l-1.56,2.41q-5.47,47.51-10.88,95v2.93H913.05v-.07q-8.31-45.95-16.62-91.83,18.38-22.58,35.84-45.56c-.52,40.47,3.32,90.46,3.32,90.46h201.51c-3.91-23-3.39-105.19-3.39-105.19a19.53,19.53,0,0,0,11.8-3.71,4.9,4.9,0,0,0,1-1A451.59,451.59,0,0,0,1217.41,1426.94Z" transform="translate(-146.76 -329.17)"/><path class="cls-9" d="M1146.57,1370.44a4.9,4.9,0,0,1-1,1,19.53,19.53,0,0,1-11.8,3.71,56.42,56.42,0,0,1-14-1.63c-9.12-1.82-18.38-3.78-26.72-7.82s-16-10.49-19.42-19.16c-4.17-10.3-1.69-22.55,4.82-31.61s16.62-14.92,27.31-18c9.45-2.67,19.29-3.32,29.13-3.06a46.92,46.92,0,0,1,.78-6.78,46.37,46.37,0,0,1,5.93-15.45c1.56-2.54,3.58-5.08,6.39-5.74,3.39-.78,6.84,1.3,8.73,4.24s2.35,6.45,2.67,9.84c2.54,23.66-.46,47.51-4.5,70.91C1153.6,1358,1151.84,1365.74,1146.57,1370.44Z" transform="translate(-146.76 -329.17)"/><path class="cls-5" d="M1058.39,924.4c-8-8.54-21.64-10.49-32.85-6.84-12,3.91-21.51,13-29.33,22.94S982,961.28,973.66,970.73s-18.9,17.66-31.35,19.62a33.5,33.5,0,0,1-5.74.46A32.66,32.66,0,0,1,914,982c-7.36-7.1-10.62-18.51-7.3-28.15,4.11-11.67,16.1-18.77,22-29.65,8.54-16,2.15-36.69,9.84-53.05,6.91-14.66,23.85-22.42,40.08-23.2s32,4,47.64,8.28c1.63.46,3.32.91,5,1.3,14.14,3.65,28.74,6.32,42.95,3.58,15.12-2.93,30-11.8,44.77-9.38a24.33,24.33,0,0,1,3.65.78c10.36,3.06,18.12,12.12,22.16,22.16s4.89,21,5.41,31.8c1.76,38.58-.52,77.23-2.74,115.81-.39,6.65-.78,13.36-2.87,19.55-.52,1.43-1.11,2.87-1.76,4.24-3.39,6.78-10.17,12.45-17.66,12.58-.07-16.1-.07-32.13-.13-48.23,0-5.6-.07-11.34-2-16.55s-6-10.1-11.47-11.21c-5.28-1.11-10.82,1.5-14.4,5.41s-5.6,9.19-7,14.34l-.39.2C1065.62,985.33,1052.91,953.53,1058.39,924.4Z" transform="translate(-146.76 -329.17)"/><path class="cls-9" d="M1025.74,1137.71c1.56-14.86,3.06-29.72,4.63-44.64-17.53,3.52-36.43,6.65-52.53-1.17-17.53-8.47-27.11-28-31.41-46.92-4.11-17.92-4.76-36.56-9.84-54.16a33.5,33.5,0,0,0,5.74-.46c12.45-2,23.07-10.17,31.35-19.62s14.79-20.33,22.55-30.24,17.34-19,29.33-22.94c11.21-3.65,24.9-1.69,32.85,6.84-5.47,29.13,7.23,60.94,31.28,78.21l.39-.2c1.43-5.15,3.39-10.36,7-14.34s9.12-6.52,14.4-5.41c5.47,1.11,9.58,5.93,11.47,11.21s2,10.95,2,16.55c.07,16.1.07,32.13.13,48.23q.1,40.18.26,80.29c.07,2.8.07,5.67.07,8.47H1125c-4.17,8.54-8.34,17.08-14.4,24.37s-14.14,13.23-23.53,14.79c-13.3,2.28-26.66-4.82-36.37-14.21s-16.88-21.12-25.74-31.35l.72-2.48C1025.67,1138.29,1025.74,1138,1025.74,1137.71Z" transform="translate(-146.76 -329.17)"/><path class="cls-6" d="M862.54,1196.69c-1.11,3.45-2.15,6.91-3.19,10.43H784.08v-1A115.77,115.77,0,0,0,702.81,1227c-9.38,6.78-18.12,15.71-21,27-1.11,4.56-.13,10.88,4.5,11.67,2.54.46,4.89-1,7-2.48,9.52-6.45,19.1-12.9,28.55-19.42l.39.59c.65,14.08,11.08,27.11,24.64,30.89s29.2-2,37-13.75l.39-1.37c19,5.41,38,10.82,57,16.29a1111.26,1111.26,0,0,0-25.94,180.07c-.46,7.76-.85,15.64,1.5,23s8.15,14.14,15.77,15.51c10.95,2,20.46-7.3,27.7-15.84,12.25-14.4,24.37-29,36.17-43.73q8.31,45.85,16.62,91.83v.07H482.85V1425.77a71.29,71.29,0,0,0,57.55-35.91H797.7v-21.18H656.8l-67.58-194H516.55A439.21,439.21,0,0,0,538,1128.32c22.81-6.84,46-14,69-21.83,21.38-7.17,42.62-14.86,63.22-23.2-.13.65-.33,1.24-.46,1.89l.65.2A632.19,632.19,0,0,0,742.56,1137l.13.2A482.49,482.49,0,0,0,805.32,1075l1.56-.13c0,.33.07.72.07,1l.52,1.5q76.45,17.5,152.83,35.06l3.71,4.24c3.71,9.91,7.43,19.75,11.14,29.65l3.13,8.6q-57.48,21-115,41.91Z" transform="translate(-146.76 -329.17)"/><path class="cls-9" d="M860.52,587.52l.07.13q7,57.78,17.73,114.9c.07.39.13.85.2,1.24-20.53,29.13-43.34,54.42-63.87,83.62A385.84,385.84,0,0,1,742.82,725c.2-.78.33-1.5.52-2.28a637.51,637.51,0,0,0,10.3-69.34V653c-11.67,0-23.4-.2-34.8-2.74-11.86-2.74-23.4-8.34-31.09-17.79-8.08-9.91-11.14-23-13.1-35.65-5.47-35.26-4.63-71.1-3.78-106.82.26.33.59.59.85.91l.78.2c46.34-3,92.94-4.11,139.4-3.45v.65a353.07,353.07,0,0,0,12.84,63.22c.78,2.54,1.56,5.15,3.32,7.1s4.56,3.26,7,2.35,3.65-3.39,4.63-5.74A74,74,0,0,0,845,532.78c2.22-5.47,8.47-8.86,14.4-8.41a17.18,17.18,0,0,1,8.73,3.19,22.72,22.72,0,0,1,6.78,7.3c3.26,5.6,4.3,12.25,4.3,18.7a45.24,45.24,0,0,1-4.89,20.86A29.27,29.27,0,0,1,860.52,587.52Z" transform="translate(-146.76 -329.17)"/><path class="cls-5" d="M845,532.78a74,74,0,0,1-5.28,22.42c-1,2.35-2.28,4.82-4.63,5.74s-5.34-.33-7-2.35-2.54-4.56-3.32-7.1a353.07,353.07,0,0,1-12.84-63.22v-.65c-46.47-.65-93.07.46-139.4,3.45l-.78-.2c-.26-.33-.59-.59-.85-.91-9.58-10.56-15.58-25-13.1-39.1,2.61-14.4,15.9-27.11,30.5-26.13,13.43.91,24.77,12.19,38.19,12,15.19-.2,27.76-14.92,42.88-13.56,11.21,1,20.07,10.75,31.28,12s21.83-6.32,33-5.28,19.94,10.49,25.09,20.53c12,23.14,11,50.51,9.78,76.51l-.39.65a17.18,17.18,0,0,0-8.73-3.19C853.49,523.91,847.23,527.3,845,532.78Z" transform="translate(-146.76 -329.17)"/><path class="cls-6" d="M784.86,1207.11h74.49q-10.17,34.31-18.12,69.28c-19-5.47-38-10.88-57-16.29-.72-.26-1.5-.46-2.22-.65h-.13C782.9,1242,783.88,1224.52,784.86,1207.11Z" transform="translate(-146.76 -329.17)"/><path class="cls-8" d="M769.48,934.69c2.48-7.69,5.74-15.45,11.6-20.86,6.45-5.93,16.88-8.41,24-3.39a4.13,4.13,0,0,1,.85.72c5.67,4.43,7.43,12.58,7,19.94a48.11,48.11,0,0,1-15.77,33l.52,1.17q4.59,54.84,9.19,109.62l-1.56.13a482.49,482.49,0,0,1-62.63,62.17l-.13-.2a632.19,632.19,0,0,1-72.21-51.62l-.65-.2c.13-.65.33-1.24.46-1.89a491.7,491.7,0,0,0,11.47-59.83c-11.67-1.3-23.66-.91-35.19-3.06-12-2.22-24.11-7.76-30.5-18.05-5.54-8.93-6.06-20.07-6.39-30.57-1.17-38.84-2.35-77.82-3.45-116.66,48.75-1.89,97.63-2,146.31-.26v.65q2.44,38.32,5.74,76.58c.26,3,1.11,6.78,4.11,7.49,2,.46,4-.78,5.08-2.48a10.21,10.21,0,0,0,1.17-2.74Z" transform="translate(-146.76 -329.17)"/><path class="cls-5" d="M768.5,934.37a10.21,10.21,0,0,1-1.17,2.74c-1.11,1.69-3.13,2.93-5.08,2.48-3-.72-3.85-4.5-4.11-7.49q-3.32-38.22-5.74-76.58v-.65c-48.68-1.76-97.56-1.63-146.31.26a3.17,3.17,0,0,1-.07-.78h-.72a36.83,36.83,0,0,1-21-22.75c-1.3-4-1.82-8.6.13-12.32a7.4,7.4,0,0,1,1-1.5c3.32-4.3,9.71-5.54,15.19-4.5,6,1.11,11.34,4.5,17,6.91,17.53,7.56,37.54,6.19,56.57,4.69l90.07-7c9.71-.78,20.86-1,27.63,6,5.08,5.21,6.13,13,6.91,20.27,2.48,22.29,4.89,44.58,7.36,66.8l-.2.26a4.13,4.13,0,0,0-.85-.72c-7.17-5-17.6-2.54-24,3.39-5.87,5.41-9.12,13.16-11.6,20.86Z" transform="translate(-146.76 -329.17)"/><polygon class="cls-10" points="650.94 1039.51 650.94 1060.69 393.64 1060.69 275.22 1060.69 200.6 1060.69 134.97 845.49 369.79 845.49 442.45 845.49 510.04 1039.51 650.94 1039.51"/><path class="cls-8" d="M781.93,1259.45h.13c.72.2,1.5.39,2.22.65l-.39,1.37c-7.82,11.73-23.46,17.53-37,13.75s-24-16.81-24.64-30.89l-.39-.59c-9.45,6.52-19,13-28.55,19.42-2.09,1.43-4.43,2.93-7,2.48-4.63-.78-5.6-7.1-4.5-11.67,2.87-11.27,11.6-20.2,21-27a115.77,115.77,0,0,1,81.27-20.92v1h.78C783.88,1224.52,782.9,1242,781.93,1259.45Z" transform="translate(-146.76 -329.17)"/><path class="cls-7" d="M490.67,944.86Q534.86,879.17,579,813.47l6.45,4.3a7.4,7.4,0,0,0-1,1.5c-2,3.71-1.43,8.28-.13,12.32a36.83,36.83,0,0,0,21,22.75H606a3.17,3.17,0,0,0,.07.78c1.11,38.84,2.28,77.82,3.45,116.66.33,10.49.85,21.64,6.39,30.57,6.39,10.3,18.51,15.84,30.5,18.05,11.54,2.15,23.53,1.76,35.19,3.06a491.7,491.7,0,0,1-11.47,59.83c-20.59,8.34-41.84,16-63.22,23.2l-.07-.26a452.32,452.32,0,0,0,10.62-70.06h-.13a1522.14,1522.14,0,0,1-143.51,63.61l-.2.2A2532.33,2532.33,0,0,1,233.31,828c7.36-14.73,14.79-29.39,22.29-44.12a27.77,27.77,0,0,0,2.41-4.82c.07-.13.13-.33.2-.46a1.53,1.53,0,0,0,.13-.52A2518.69,2518.69,0,0,0,490.67,944.86Z" transform="translate(-146.76 -329.17)"/><path class="cls-8" d="M422,1389.86H540.4A69.84,69.84,0,0,1,422,1395.92Z" transform="translate(-146.76 -329.17)"/><path class="cls-8" d="M264.85,716A51.94,51.94,0,0,1,225.1,700.6c10.56-5,21.05-9.91,31.61-14.79l.26.59c3,9.84,5.93,19.75,8.86,29.59A4.93,4.93,0,0,1,264.85,716Z" transform="translate(-146.76 -329.17)"/><path class="cls-6" d="M225.1,700.6A51.94,51.94,0,0,0,264.85,716c-2.28,5.08-10.1,20.92-19.94,40.8a418.85,418.85,0,0,0-37.15-23.92c8.47-16.36,14.92-28.68,16.55-31.67l-.07-.2A5.39,5.39,0,0,0,225.1,700.6Z" transform="translate(-146.76 -329.17)"/><path class="cls-9" d="M258.33,778.09a1.53,1.53,0,0,1-.13.52c-.07.13-.13.33-.2.46-.85,1.63-1.63,3.19-2.41,4.82-7.49,14.73-14.92,29.39-22.29,44.12-.85,1.69-1.69,3.32-2.54,5-1.63,4-7.49,4.17-11.86,4.43s-8.67-1.11-12.77-2.61l-.07-.07c11.73-23.66,26.79-53.77,38.84-77.95,2.22,1.56,4.37,3.13,6.52,4.76,2.74,2.09,5.6,4.37,6.91,7.56A13.13,13.13,0,0,1,258.33,778.09Z" transform="translate(-146.76 -329.17)"/><path class="cls-9" d="M244.91,756.84c-12.06,24.18-27.11,54.29-38.84,77.95a235.64,235.64,0,0,1-41-19.36c12.9-24.9,30.11-58.2,42.69-82.51A418.85,418.85,0,0,1,244.91,756.84Z" transform="translate(-146.76 -329.17)"/><path class="cls-6" d="M206.07,834.79,200,846.91l-.2-.13c-13.1-7.49-26.13-15-39.23-22.55l4.5-8.8A235.64,235.64,0,0,0,206.07,834.79Z" transform="translate(-146.76 -329.17)"/><path class="cls-10" d="M199.81,846.78l.2.13c-2,4-3.85,7.76-5.47,11.08h-.07a265,265,0,0,1-39.89-22.22c1.76-3.39,3.78-7.3,6-11.54C173.67,831.79,186.71,839.28,199.81,846.78Z" transform="translate(-146.76 -329.17)"/><path class="cls-11" d="M194.46,858h.07c-3.06,6.26-5.41,11.08-6.71,13.82a46.09,46.09,0,0,1-41.06-22.09l.65-.39c1-1.76,3.52-6.58,7.17-13.56A265,265,0,0,0,194.46,858Z" transform="translate(-146.76 -329.17)"/></g><path class="cls-11" d="M1239.4,567.15a22,22,0,0,0-5.39,3.29,3.19,3.19,0,0,0-1.68.88c-7.91,8-9.32,21.24-1.72,30,6.72,7.73,18.77,10.1,27.62,4.68C1280.2,592.52,1263.45,557.18,1239.4,567.15Z" transform="translate(-146.76 -329.17)"/><path class="cls-11" d="M1312.61,560.57l-4-28.14c-.59-4.13-7.09-3.67-6.5.49l3.72,26.13c1.38,9.72,6.75,26.54-11.44,24.21-4.15-.53-5.42,5.86-1.25,6.4,8.69,1.11,19.45.5,21.44-10.06C1315.71,573.56,1313.46,566.53,1312.61,560.57Z" transform="translate(-146.76 -329.17)"/><path class="cls-11" d="M1459.71,931.7l-1.12-29.78c-.16-4.19-6.66-3.7-6.5.49l1,27.49c.35,9.21,3.94,31.93-13.84,26.07-4-1.31-5.19,5.1-1.25,6.4,9.36,3.09,19.47,3.1,22-8.27C1461.5,947.12,1460,938.71,1459.71,931.7Z" transform="translate(-146.76 -329.17)"/><path class="cls-11" d="M1382.85,942.76c-11.89,6.44-13.35,24.46-2.94,32.55a19.71,19.71,0,0,0,4.46,5.1c14.28,11.14,31.66-3.09,30.64-19.11C1414,945.46,1397.23,935,1382.85,942.76Z" transform="translate(-146.76 -329.17)"/><path class="cls-11" d="M667,962.13c-9.09,1.83-18.81,4.66-21-13-.49-4,1-10.16,1.46-14.13l2.92-28.26c.43-4.14-6-5.43-6.4-1.25l-3.16,30.62c-.7,6.81-2.75,14.83-1.17,21.7,3,13.21,17.17,13,27.82,10.84C671.58,967.82,671.14,961.31,667,962.13Z" transform="translate(-146.76 -329.17)"/><path class="cls-11" d="M731.32,946.15a22.63,22.63,0,0,0-12.19,0,2.94,2.94,0,0,0-2.7.42c-.51.35-1,.77-1.43,1.15a16.76,16.76,0,0,0-7,6.66,14.35,14.35,0,0,0-.82,12,18.82,18.82,0,0,0,1,4A19.67,19.67,0,0,0,728.31,983C748.81,980.75,750.89,951.91,731.32,946.15Z" transform="translate(-146.76 -329.17)"/><path class="cls-5" d="M634.65,893a25.69,25.69,0,0,0-29.88,2.31c-3.2,2.66.47,8,3.7,5.36,7-5.79,15.51-6.43,23.32-1.81C635.41,901,638.24,895.08,634.65,893Z" transform="translate(-146.76 -329.17)"/><path class="cls-5" d="M705.4,889.94a29.41,29.41,0,0,0-33.81,2.7c-3.22,2.64.45,8,3.7,5.36,8.14-6.66,18.11-7.45,27.25-2.21C706.19,897.89,709,892,705.4,889.94Z" transform="translate(-146.76 -329.17)"/><path class="cls-5" d="M696.76,910.54c-.3-4.34-3.11-8.81-7.77-9.27-10.24-1-11.23,15-7.36,21.19,2.24,3.57,6.78,4.81,10.13,1.88.13-.11.17-.28.29-.4a6.88,6.88,0,0,0,.75-.44C696.4,920.8,697.05,914.71,696.76,910.54Z" transform="translate(-146.76 -329.17)"/><path class="cls-5" d="M627.65,909.13c-2-4.61-7.63-6.75-11.42-2.64-.11.12-.19.28-.3.42a3.11,3.11,0,0,0-.5.7c-1.7,2.64-2.1,6.4-1.68,9.87a15.46,15.46,0,0,0,1.9,8.32c2.8,4.5,8.8,4.27,11.62-.12S629.7,913.77,627.65,909.13Z" transform="translate(-146.76 -329.17)"/><path class="cls-5" d="M809.83,900.08c-27.73,3-55.41,6.69-83.1,10.07,1.15-13-2.82-26.53-12.5-35.25-14.54-13.11-36.68-11-46.42,5.32a50.35,50.35,0,0,0-10,24.1c-.09,0-.16,0-.26,0l-7.8.84c-1.72-13.65-9.9-26.94-21.67-33.37-15.06-8.23-33.73-3.43-40.85,10.82a3.34,3.34,0,0,0-.76,1.35c-.05.18-.09.37-.14.55a28.46,28.46,0,0,0-1.88,7.55,3.32,3.32,0,0,0,.09,1c-2.52,17.47,1.75,36.51,18.13,46.06,17.32,10.11,38.75,2.52,45.42-16.42a36.47,36.47,0,0,0,2-11l7.48-.81a37.2,37.2,0,0,0,10.21,24.45c13.73,14.64,37.91,14.33,50.26-1.81a43.42,43.42,0,0,0,7.54-16.64l49.58-6c13-1.58,51.94-12.58,52.76,9.16.16,4.19,6.66,3.7,6.5-.49C833.8,902.62,825.85,898.33,809.83,900.08Zm-170.75,26.1c-10.41,16.21-32.47,12.95-42.58-1.77-7.76-11.29-7.4-24.9-4-37.56,6.75-17.46,31.34-14.86,42.52-.63C643.69,897.29,647,913.88,639.09,926.18Zm70.41,6.87c-12.85,11.44-32.33,6.82-41-7.48-7.15-11.84-5.4-25,1-36.1a2.72,2.72,0,0,0,1.84-1.75,28.31,28.31,0,0,1,1.72-3.58c.94-1.23,1.88-2.47,2.93-3.62a3.22,3.22,0,0,0,.72-1.23c11.82-12.17,33.26-5.68,40.66,10.84C723.44,903.66,720.83,923,709.5,933.05Z" transform="translate(-146.76 -329.17)"/><path class="cls-5" d="M713.82,520.58c-11.85-7.81-26.07-6.53-36.16,3.56-3,3,2,7.2,4.94,4.25a21.07,21.07,0,0,1,27-2.87C713,527.8,717.32,522.88,713.82,520.58Z" transform="translate(-146.76 -329.17)"/><path class="cls-5" d="M798.11,519.46a40.66,40.66,0,0,0-42.62,3.38c-3.39,2.46.3,7.84,3.7,5.36a34.06,34.06,0,0,1,36.06-2.88C799,527.22,801.85,521.36,798.11,519.46Z" transform="translate(-146.76 -329.17)"/><path class="cls-5" d="M697.1,532.85a7.13,7.13,0,0,0-10.29,1.55c-2.82,3.93-3,10.32-2.11,14.88a12.41,12.41,0,0,0,1.65,4.14c1.72,4.36,5,7.12,11,4.62C706.7,554.05,703.93,538,697.1,532.85Z" transform="translate(-146.76 -329.17)"/><path class="cls-5" d="M792,548.59c-.35-5.25-1.49-13-5.66-16.69-3.82-3.42-9.3-2.11-12.21,1.78a13,13,0,0,0-.62,1.18,3.2,3.2,0,0,0-.87,1.48c0,.08,0,.18-.05.27a18.26,18.26,0,0,0-.09,13.41l.1.23c1.35,7.18,5,13.54,12.5,11.37C790.79,560,792.36,553.78,792,548.59Z" transform="translate(-146.76 -329.17)"/><path class="cls-3" d="M751.91,602.95l-42.18,1.62a3,3,0,0,0-1.59.53,3.48,3.48,0,0,0-2.51,4.18c3.36,13.76,13,26.29,28.57,24.5,12.86-1.48,21-12.94,20.36-25.33C756.14,606.59,755.12,602.83,751.91,602.95Z" transform="translate(-146.76 -329.17)"/><path class="cls-12" d="M737.43,583.95c-7.8,2.65-14.09,3.37-17.22-5.62-1.26-3.62.72-11.85,1-15.92l1.7-25c.28-4.14-6.11-5.43-6.4-1.25l-1.83,26.94c-.39,5.78-2.2,14.09-.49,19.86,3.5,11.78,16.07,10.33,25.44,7.14C743.6,588.73,741.41,582.59,737.43,583.95Z" transform="translate(-146.76 -329.17)"/><path class="cls-12" d="M809.08,583.37A19.11,19.11,0,0,0,785,575.88c-7.14,3.39-11.32,11.52-9.34,19A17,17,0,0,0,780,605a18.64,18.64,0,0,0,24.42,2A18.88,18.88,0,0,0,809.08,583.37Z" transform="translate(-146.76 -329.17)"/><path class="cls-5" d="M1335,511.46a19.37,19.37,0,0,0-23.34,3.48c-3,3,2,7.22,4.94,4.25a12.78,12.78,0,0,1,15.54-1.87C1335.84,519.4,1338.67,513.52,1335,511.46Z" transform="translate(-146.76 -329.17)"/><path class="cls-5" d="M1276.26,519.22a31.12,31.12,0,0,0-32.37,2.26c-3.43,2.41.26,7.78,3.7,5.36a24.51,24.51,0,0,1,25.81-1.76C1277.14,527,1280,521.14,1276.26,519.22Z" transform="translate(-146.76 -329.17)"/><path class="cls-5" d="M1265.75,533a7.14,7.14,0,0,0-8.31-2.35,2.72,2.72,0,0,0-2.8,1.81c-.09.23-.18.55-.27.81a10.13,10.13,0,0,0-1.39,6.35c-.72,6.46.44,13.88,7.37,13.91C1270,553.58,1270.08,538.6,1265.75,533Z" transform="translate(-146.76 -329.17)"/><path class="cls-5" d="M1332.39,530.59a7.08,7.08,0,0,0-7.42-3.09,3.16,3.16,0,0,0-4.42,2.24c-1.22,5.87-3.5,20.5,6.33,20.3C1336,549.87,1336.22,536.26,1332.39,530.59Z" transform="translate(-146.76 -329.17)"/><path class="cls-5" d="M1431.69,882.65c-11.68-9.8-27.86-9.95-39.41.2-3.11,2.73.55,8.14,3.7,5.36,9.34-8.21,21.82-8.7,31.46-.62C1430.66,890.29,1434.91,885.35,1431.69,882.65Z" transform="translate(-146.76 -329.17)"/><path class="cls-5" d="M1508.87,885.11c-12.26-8.27-27.31-8.17-38.91,1.31-3.22,2.64.45,8,3.7,5.36,9.14-7.47,21-8.46,31-1.73C1508.06,892.37,1512.35,887.46,1508.87,885.11Z" transform="translate(-146.76 -329.17)"/><path class="cls-5" d="M1491.84,894.05c-6.74-2.35-9.08,5-8.9,11.58,0,0,0,.06,0,.1s0,.21,0,.31a19.71,19.71,0,0,0,1,6.85c1.3,3.75,5,6.46,8.87,4.5,4.32-2.17,4.75-8.16,4.57-12.42C1497.18,900.92,1496.21,895.58,1491.84,894.05Z" transform="translate(-146.76 -329.17)"/><path class="cls-5" d="M1415.14,890c-4.41-1.4-7,.48-8.38,3.63a2.83,2.83,0,0,0-1.35,2.15c-.74,5.2-.59,11.24,2,16,2,3.7,6.35,5.4,9.94,2.59C1423.6,909.47,1423.68,892.74,1415.14,890Z" transform="translate(-146.76 -329.17)"/><path class="cls-5" d="M1457.94,976c-7.21,9.34-20.19,9.54-27.29-.06-2.49-3.36-7.87.32-5.36,3.7,9.5,12.84,27.74,13.38,37.6.61C1465.44,977,1460.51,972.72,1457.94,976Z" transform="translate(-146.76 -329.17)"/><path class="cls-12" d="M999.68,1041.39c-7.71,2.63-14.08,3-15.16-6.49-.46-4-.57-8-.85-12l-2-28c-.3-4.18-6.8-3.7-6.5.49l2,28c.44,6.25-.24,13.88,2.53,19.62,4.29,8.88,14.46,7.17,22.18,4.53C1005.85,1046.17,1003.66,1040,999.68,1041.39Z" transform="translate(-146.76 -329.17)"/><path class="cls-3" d="M1023.61,1057.6a3,3,0,0,0-3.35-2.83l-41,3.79a3,3,0,0,0-2.47,1.67,2.81,2.81,0,0,0-.86,2.51c1.58,13.26,12.14,23.65,25.94,22.67s22.75-12.81,22.44-26.14A2.94,2.94,0,0,0,1023.61,1057.6Z" transform="translate(-146.76 -329.17)"/><path class="cls-12" d="M1040.37,1013.21a16.49,16.49,0,0,0-8.07,18.89,15.09,15.09,0,0,0,7.37,12c11.23,6.9,25.5-1.32,26.19-14.23C1066.56,1016.67,1052.25,1006.93,1040.37,1013.21Z" transform="translate(-146.76 -329.17)"/><path class="cls-5" d="M1035,966.54c-10.46-9.24-25.37-9.6-36.06-.5-3.16,2.69.5,8.09,3.7,5.36,8.52-7.25,19.65-7.39,28.1.08C1033.87,974.27,1038.12,969.32,1035,966.54Z" transform="translate(-146.76 -329.17)"/><path class="cls-5" d="M1019.67,974.61c-2.85-2.5-7.21-2.41-9.45.82a11,11,0,0,0-1.61,6.44,15.59,15.59,0,0,0,1,8.4c1.62,3.71,5.34,7,9.65,5.65C1027.57,993.26,1024.68,979,1019.67,974.61Z" transform="translate(-146.76 -329.17)"/><path class="cls-5" d="M961.25,981.4a8.07,8.07,0,0,0-8.86-2.52c-1.76-.86-4.22-.35-4.62,2.14-1.07,6.63-1.08,23.95,9.63,22.6C967.34,1002.36,966,987.14,961.25,981.4Z" transform="translate(-146.76 -329.17)"/><path class="cls-5" d="M677.11,980c-5,11.21-18.27,13.8-27.28,5.39-3.07-2.87-7.31,2.08-4.25,4.94A23.17,23.17,0,0,0,683,982.85C684.69,979,678.83,976.16,677.11,980Z" transform="translate(-146.76 -329.17)"/><path class="cls-3" d="M1327.88,602.24a3,3,0,0,0-3.35-2.83l-41,3.79a3,3,0,0,0-2.47,1.67,2.81,2.81,0,0,0-.86,2.51c1.58,13.26,12.14,23.65,25.94,22.67s22.75-12.81,22.44-26.14A2.94,2.94,0,0,0,1327.88,602.24Z" transform="translate(-146.76 -329.17)"/><path class="cls-6" d="M1482.28,362.87l-26.35-15c-3.66-2.08-6.49,3.8-2.86,5.86l26.35,15C1483.08,370.81,1485.91,364.94,1482.28,362.87Z" transform="translate(-146.76 -329.17)"/><path class="cls-6" d="M1478,388.75l-55.24,8.66c-4.12.65-3.66,7.15.49,6.5l55.24-8.66C1482.63,394.6,1482.17,388.09,1478,388.75Z" transform="translate(-146.76 -329.17)"/><path class="cls-6" d="M1477.45,410.72l-20.15,11.54c-3.64,2.08.08,7.44,3.7,5.36l20.15-11.54C1484.79,414,1481.07,408.64,1477.45,410.72Z" transform="translate(-146.76 -329.17)"/><path class="cls-6" d="M1480.84,441.56l-11.39,12.33c-2.85,3.09,2.1,7.33,4.94,4.25l11.39-12.33C1488.63,442.72,1483.68,438.48,1480.84,441.56Z" transform="translate(-146.76 -329.17)"/><path class="cls-6" d="M1498,348.78l-7-17.57c-1.55-3.88-7.7-1.71-6.14,2.2l7,17.57C1493.46,354.86,1499.6,352.69,1498,348.78Z" transform="translate(-146.76 -329.17)"/><path class="cls-13" d="M852.38,1201l-66.81,1.77c-4.2.11-3.69,6.61.49,6.5l66.81-1.77C857.07,1207.34,856.57,1200.84,852.38,1201Z" transform="translate(-146.76 -329.17)"/><path class="cls-13" d="M838.49,1273.87,785,1261c-4.09-1-5.32,5.42-1.25,6.4l53.47,12.87C841.32,1281.25,842.56,1274.85,838.49,1273.87Z" transform="translate(-146.76 -329.17)"/><path class="cls-13" d="M1157.44,778.43c-.52-4.15-7-3.68-6.5.49l2.45,19.36c.52,4.15,7,3.68,6.5-.49Z" transform="translate(-146.76 -329.17)"/><path class="cls-13" d="M1229.64,783.66c-.83-4.05-7.34-3.61-6.5.49L1226.4,800c.83,4.05,7.34,3.61,6.5-.49Z" transform="translate(-146.76 -329.17)"/><path class="cls-13" d="M1297.88,767.91c-.6-4.13-7.1-3.67-6.5.49l3.2,22c.6,4.13,7.1,3.67,6.5-.49Z" transform="translate(-146.76 -329.17)"/><path class="cls-13" d="M1361.81,751.13c-.51-4.15-7-3.68-6.5.49l2.81,22.93c.51,4.15,7,3.68,6.5-.49Z" transform="translate(-146.76 -329.17)"/><path class="cls-13" d="M1423.55,739.79c-.34-4.18-6.84-3.7-6.5.49l1.48,18.48c.34,4.18,6.84,3.7,6.5-.49Z" transform="translate(-146.76 -329.17)"/><path class="cls-13" d="M1266.39,853.1l-5.63-25.6c-.9-4.08-7-1.85-6.14,2.2l5.63,25.6C1261.15,859.38,1267.28,857.15,1266.39,853.1Z" transform="translate(-146.76 -329.17)"/><path class="cls-13" d="M1237.26,899.72c-.48-4.16-7-3.69-6.5.49l2.41,21.11c.48,4.16,7,3.69,6.5-.49Z" transform="translate(-146.76 -329.17)"/><path class="cls-13" d="M1291.62,875.13c-.53-4.14-7-3.68-6.5.49l3.39,26.38c.53,4.14,7,3.68,6.5-.49Z" transform="translate(-146.76 -329.17)"/><path class="cls-13" d="M1274.8,942.8c-.47-4.16-7-3.69-6.5.49l2.88,25.46c.47,4.16,7,3.69,6.5-.49Z" transform="translate(-146.76 -329.17)"/><path class="cls-13" d="M1311.07,989.35c-.2-4.19-6.7-3.7-6.5.49l.87,18.45c.2,4.19,6.7,3.7,6.5-.49Z" transform="translate(-146.76 -329.17)"/><path class="cls-13" d="M1232,1021.86c-.36-4.18-6.86-3.7-6.5.49l1.76,20.21c.36,4.18,6.86,3.7,6.5-.49Z" transform="translate(-146.76 -329.17)"/><path class="cls-13" d="M1279.24,1064.06l-4.39-20.21c-.89-4.08-7-1.85-6.14,2.2l4.39,20.21C1274,1070.35,1280.12,1068.12,1279.24,1064.06Z" transform="translate(-146.76 -329.17)"/><path class="cls-13" d="M1169.06,1075.43c-.4-4.17-6.9-3.69-6.5.49l1.69,17.58c.4,4.17,6.9,3.69,6.5-.49Z" transform="translate(-146.76 -329.17)"/><path class="cls-13" d="M1396.7,709.85c-.61-4.13-7.11-3.67-6.5.49l2.34,15.86c.61,4.13,7.11,3.67,6.5-.49Z" transform="translate(-146.76 -329.17)"/><path class="cls-13" d="M1490.26,711.66l-5.17-18.48c-1.13-4-7.26-1.83-6.14,2.2l5.17,18.48C1485.26,717.9,1491.39,715.69,1490.26,711.66Z" transform="translate(-146.76 -329.17)"/><path class="cls-13" d="M1546.92,704.46l-6.83-18.53c-1.45-3.93-7.59-1.75-6.14,2.2l6.83,18.53C1542.23,710.59,1548.37,708.41,1546.92,704.46Z" transform="translate(-146.76 -329.17)"/><path class="cls-13" d="M1533.35,616.77c-.44-4.16-6.95-3.69-6.5.49l2.16,20.26c.44,4.16,6.95,3.69,6.5-.49Z" transform="translate(-146.76 -329.17)"/><path class="cls-13" d="M1575.68,587.76c-.32-4.18-6.81-3.7-6.5.49l1.53,20.23c.32,4.18,6.81,3.7,6.5-.49Z" transform="translate(-146.76 -329.17)"/><path class="cls-13" d="M1552.41,545.21,1551,570.66c-.23,4.17,6.27,3.64,6.5-.49l1.42-25.45C1559.15,540.54,1552.65,541.07,1552.41,545.21Z" transform="translate(-146.76 -329.17)"/><path class="cls-2" d="M904.84,707.27C878,738.8,852.1,771.6,824.08,802.1c-11.93,13-24.33,4.46-34.92-5.32q-9.8-9-19.21-18.52A639.77,639.77,0,0,1,725.19,728c-2.61-3.25-8,.42-5.36,3.7a654.28,654.28,0,0,0,48,53.62c10.25,10.21,28.36,35.13,45.35,32.24,6.87-1.17,11.39-6.3,15.88-11.2,9.1-9.92,17.52-20.57,26.25-30.82l54.51-64C912.5,708.32,907.56,704.07,904.84,707.27Z" transform="translate(-146.76 -329.17)"/><path class="cls-14" d="M1216.58,1425.81a618.1,618.1,0,0,0-67.72-57.3c-3.37-2.46-7.64,2.46-4.25,4.94a618.1,618.1,0,0,1,67.72,57.3C1215.34,1433.69,1219.57,1428.73,1216.58,1425.81Z" transform="translate(-146.76 -329.17)"/><path class="cls-14" d="M929.33,1381.46l-37.66,52.81c-2.42,3.39,2.5,7.67,4.94,4.25l37.66-52.81C936.69,1382.31,931.77,1378,929.33,1381.46Z" transform="translate(-146.76 -329.17)"/><path class="cls-14" d="M1295.2,1370.92a206.47,206.47,0,0,0-84.46-51.31,3,3,0,0,0,3.27-3.34l-8.36-75.52c-.46-4.16-7-3.69-6.5.49l8.36,75.52a3.1,3.1,0,0,0,1.26,2.26,208.59,208.59,0,0,0-39.3-7.92c-4.14-.42-5.43,6-1.25,6.4a201,201,0,0,1,122.73,58.36C1293.92,1378.84,1298.15,1373.88,1295.2,1370.92Z" transform="translate(-146.76 -329.17)"/><path class="cls-14" d="M898.93,1329.42l-52,46.4c-3.09,2.76.57,8.16,3.7,5.36l52-46.4C905.72,1332,902.06,1326.63,898.93,1329.42Z" transform="translate(-146.76 -329.17)"/><path class="cls-15" d="M1445.59,1294l-121.3,9.23c-4.18.32-3.7,6.82.49,6.5l121.3-9.23C1450.27,1300.21,1449.78,1293.71,1445.59,1294Z" transform="translate(-146.76 -329.17)"/><path class="cls-15" d="M1450,1352.17l-112.12,36.17c-4,1.29-1.8,7.43,2.2,6.14l112.12-36.17C1456.16,1357,1454,1350.89,1450,1352.17Z" transform="translate(-146.76 -329.17)"/><path class="cls-15" d="M1548.87,1158.75c-1.18-4-7.31-1.82-6.14,2.2q52.57,180,87.44,364.44c.77,4.08,7.28,3.63,6.5-.49Q1601.71,1339.78,1548.87,1158.75Z" transform="translate(-146.76 -329.17)"/><path class="cls-15" d="M1605.87,1139.78c-27.53,36.29-77.27-5.52-113,3-17.25,4.13-30.24,17.05-46.55,23.24-20.64,7.83-38-3.1-56.61-10.69-12.25-5-23.83-7.25-37-4.72-9.83,1.89-19.18,6.15-29.23,7-13.37,1.09-26-3.53-38.47-7.65-24.28-8-55.89-14.71-70.66,12.46-2,3.7,3.86,6.53,5.86,2.86,21.25-39.09,77.09,3.74,109.72-2,9.85-1.75,19.19-6.09,29.19-7.11,10.67-1.09,20.16,2,29.89,6,13.06,5.4,25.71,12.9,40.19,13.5,12.74.53,24-5,34.74-11.34,21.45-12.62,38.4-19.32,63.6-13.15,27.65,6.77,62.23,20.62,83.24-7.08C1613.34,1140.7,1608.41,1136.43,1605.87,1139.78Z" transform="translate(-146.76 -329.17)"/><path class="cls-15" d="M1440.33,1233.82c-36.63,34.56-100.82-28.94-131.67,20.72-2.22,3.57,3.67,6.39,5.86,2.86,18.62-30,57.22-10.85,83.62-7.12,17.36,2.45,34,.14,47.14-12.21C1448.33,1235.19,1443.36,1231,1440.33,1233.82Z" transform="translate(-146.76 -329.17)"/><path class="cls-15" d="M1630.43,1223c-23.75-18.64-46.72,5.38-69.71,11.86-32.4,9.14-62.75-22.68-94.57-4.22-3.63,2.1.09,7.46,3.7,5.36,26.73-15.51,53.73,8.35,81.24,7,24.38-1.18,51.71-33.43,75.08-15.09C1629.48,1230.49,1633.74,1225.56,1630.43,1223Z" transform="translate(-146.76 -329.17)"/><path class="cls-15" d="M1634,1304.95c-25.69,19.88-49.33,9.68-78.27,7.34-14.72-1.19-28.34,1.79-38.75,12.68-2.9,3,2,7.27,4.94,4.25,19.18-20.06,47.13-5.89,70.31-4.49,16.93,1,32.1-4.06,45.46-14.41C1641,1307.75,1637.3,1302.37,1634,1304.95Z" transform="translate(-146.76 -329.17)"/><path class="cls-15" d="M1647.84,1394.52c-31.91,14.32-63.07-5.74-95-8.72-24.26-2.26-43.48,8.77-63.32,21.15-11.91,7.43-24.11,15.08-38.11,17.6-17.57,3.16-34.39-3-51.54-5.9-19.24-3.25-40.19-1.47-53,14.87-2.58,3.3,2.35,7.56,4.94,4.25,20.81-26.63,56.78-7.84,83.7-5.88,21.79,1.58,39.78-8.41,57.67-19.56,10.8-6.74,21.68-13.93,34-17.68,16.76-5.11,33.65-1.67,50.13,2.75,24.25,6.5,48.6,14.11,72.76,3.27C1653.84,1399,1651.68,1392.8,1647.84,1394.52Z" transform="translate(-146.76 -329.17)"/><path class="cls-15" d="M1665.21,1476.15c-34-19.33-70.84-17.64-105.17-.45-24.59,12.31-44,19.46-71.59,12.27-19.09-5-38-13.08-58.09-11.8-18.25,1.16-34,10.54-50.31,17.87-24.33,10.95-46.85,10.07-72.42,3.88-33.26-8.06-72.56-18.64-98.81,10.57-2.81,3.13,2.14,7.37,4.94,4.25,31.9-35.49,82-6.66,120.59-3.34,17.17,1.48,32.34-2.22,47.9-9.23,18.26-8.22,35.29-18.48,56-17.41,36,1.85,66.3,24.48,102.61,9.53,19.09-7.86,35.79-19.81,56.65-23,22.66-3.48,45,1.46,64.81,12.72C1666,1484.09,1668.84,1478.22,1665.21,1476.15Z" transform="translate(-146.76 -329.17)"/><path class="cls-16" d="M573,1136c-12.59,0-11.05,19.5,1.47,19.5S585.56,1136,573,1136Z" transform="translate(-146.76 -329.17)"/><path class="cls-16" d="M628.11,1132.45c-12.59,0-11.05,19.5,1.47,19.5S640.63,1132.45,628.11,1132.45Z" transform="translate(-146.76 -329.17)"/><path class="cls-16" d="M700.75,1138.31c-12.59,0-11.05,19.5,1.47,19.5S713.27,1138.31,700.75,1138.31Z" transform="translate(-146.76 -329.17)"/><path class="cls-16" d="M786.28,1134.8c-12.59,0-11.05,19.5,1.47,19.5S798.8,1134.8,786.28,1134.8Z" transform="translate(-146.76 -329.17)"/><path class="cls-16" d="M841.34,1135.38c-12.59,0-11.05,19.5,1.47,19.5S853.87,1135.38,841.34,1135.38Z" transform="translate(-146.76 -329.17)"/><path class="cls-16" d="M927.46,1132.45c-12.59,0-11.05,19.5,1.47,19.5S940,1132.45,927.46,1132.45Z" transform="translate(-146.76 -329.17)"/><path class="cls-16" d="M814.4,1100.23c-12.59,0-11.05,19.5,1.47,19.5S826.92,1100.23,814.4,1100.23Z" transform="translate(-146.76 -329.17)"/><path class="cls-16" d="M892.31,1104.92c-12.59,0-11.05,19.5,1.47,19.5S904.83,1104.92,892.31,1104.92Z" transform="translate(-146.76 -329.17)"/><path class="cls-16" d="M874.73,1169.94c-12.59,0-11.05,19.5,1.47,19.5S887.26,1169.94,874.73,1169.94Z" transform="translate(-146.76 -329.17)"/><path class="cls-16" d="M802.68,1172.87c-12.59,0-11.05,19.5,1.47,19.5S815.2,1172.87,802.68,1172.87Z" transform="translate(-146.76 -329.17)"/><path class="cls-16" d="M735.31,1168.77c-12.59,0-11.05,19.5,1.47,19.5S747.83,1168.77,735.31,1168.77Z" transform="translate(-146.76 -329.17)"/><path class="cls-16" d="M667.35,1175.22c-12.59,0-11.05,19.5,1.47,19.5S679.88,1175.22,667.35,1175.22Z" transform="translate(-146.76 -329.17)"/><path class="cls-16" d="M618.15,1195.72c-12.59,0-11.05,19.5,1.47,19.5S630.67,1195.72,618.15,1195.72Z" transform="translate(-146.76 -329.17)"/><path class="cls-16" d="M649.19,1251.37c-12.59,0-11.05,19.5,1.47,19.5S661.72,1251.37,649.19,1251.37Z" transform="translate(-146.76 -329.17)"/><path class="cls-16" d="M668.53,1215.05c-12.59,0-11.05,19.5,1.47,19.5S681.05,1215.05,668.53,1215.05Z" transform="translate(-146.76 -329.17)"/><path class="cls-16" d="M671.46,1296.48c-12.59,0-11.05,19.5,1.47,19.5S684,1296.48,671.46,1296.48Z" transform="translate(-146.76 -329.17)"/><path class="cls-16" d="M715.39,1267.19c-12.59,0-11.05,19.5,1.47,19.5S727.92,1267.19,715.39,1267.19Z" transform="translate(-146.76 -329.17)"/><path class="cls-16" d="M697.23,1328.7c-12.59,0-11.05,19.5,1.47,19.5S709.76,1328.7,697.23,1328.7Z" transform="translate(-146.76 -329.17)"/><path class="cls-16" d="M751.13,1291.21c-12.59,0-11.05,19.5,1.47,19.5S763.65,1291.21,751.13,1291.21Z" transform="translate(-146.76 -329.17)"/><path class="cls-16" d="M799.75,1283.59c-12.59,0-11.05,19.5,1.47,19.5S812.27,1283.59,799.75,1283.59Z" transform="translate(-146.76 -329.17)"/><path class="cls-16" d="M773.39,1328.12c-12.59,0-11.05,19.5,1.47,19.5S785.91,1328.12,773.39,1328.12Z" transform="translate(-146.76 -329.17)"/><path class="cls-16" d="M510.94,1486.87c-12.59,0-11.05,19.5,1.47,19.5S523.47,1486.87,510.94,1486.87Z" transform="translate(-146.76 -329.17)"/><path class="cls-16" d="M540.82,1432.39c-12.59,0-11.05,19.5,1.47,19.5S553.34,1432.39,540.82,1432.39Z" transform="translate(-146.76 -329.17)"/><path class="cls-16" d="M599.69,1404.27c-12.59,0-11.05,19.5,1.47,19.5S612.22,1404.27,599.69,1404.27Z" transform="translate(-146.76 -329.17)"/><path class="cls-16" d="M599.69,1457c-12.59,0-11.05,19.5,1.47,19.5S612.22,1457,599.69,1457Z" transform="translate(-146.76 -329.17)"/><path class="cls-16" d="M566.3,1498.29c-12.59,0-11.05,19.5,1.47,19.5S578.83,1498.29,566.3,1498.29Z" transform="translate(-146.76 -329.17)"/><path class="cls-16" d="M662.08,1492.14c-12.59,0-11.05,19.5,1.47,19.5S674.61,1492.14,662.08,1492.14Z" transform="translate(-146.76 -329.17)"/><path class="cls-16" d="M663,1423.6c-12.59,0-11.05,19.5,1.47,19.5S675.49,1423.6,663,1423.6Z" transform="translate(-146.76 -329.17)"/><path class="cls-16" d="M741.17,1406c-12.59,0-11.05,19.5,1.47,19.5S753.69,1406,741.17,1406Z" transform="translate(-146.76 -329.17)"/><path class="cls-16" d="M707.78,1458.75c-12.59,0-11.05,19.5,1.47,19.5S720.3,1458.75,707.78,1458.75Z" transform="translate(-146.76 -329.17)"/><path class="cls-16" d="M763.14,1492.14c-12.59,0-11.05,19.5,1.47,19.5S775.66,1492.14,763.14,1492.14Z" transform="translate(-146.76 -329.17)"/><path class="cls-16" d="M784.23,1436.78c-12.59,0-11.05,19.5,1.47,19.5S796.75,1436.78,784.23,1436.78Z" transform="translate(-146.76 -329.17)"/><path class="cls-16" d="M805.31,1499.17c-12.59,0-11.05,19.5,1.47,19.5S817.84,1499.17,805.31,1499.17Z" transform="translate(-146.76 -329.17)"/><path class="cls-16" d="M873.86,1486.87c-12.59,0-11.05,19.5,1.47,19.5S886.38,1486.87,873.86,1486.87Z" transform="translate(-146.76 -329.17)"/></svg>