<svg id="Layer_1" data-name="Layer 1" xmlns="http://www.w3.org/2000/svg" viewBox="0 0 1614.8 1310.08"><defs><style>.cls-1{fill:#cfd4de;}.cls-2,.cls-4{fill:none;}.cls-2,.cls-4,.cls-7,.cls-8,.cls-9{stroke:#2f4a77;}.cls-2,.cls-7,.cls-8,.cls-9{stroke-linecap:round;stroke-linejoin:round;}.cls-3{fill:#2f4a77;}.cls-4{stroke-miterlimit:10;stroke-width:2px;}.cls-5,.cls-8{fill:#d3f398;}.cls-6,.cls-9{fill:#fff;}.cls-7{fill:#5c7093;}.cls-7,.cls-8,.cls-9{stroke-width:1.1px;}</style></defs><title>team</title><path class="cls-1" d="M1767.5,1451.68V1615H152.69s146.62-195.47,752.81-226.64C905.5,1388.36,1412.61,1385.79,1767.5,1451.68Z" transform="translate(-152.69 -304.92)"/><path class="cls-2" d="M1292.5,1238.81s-4.58,9.17-12.84,14.67-72.44,78.86-84.36,111.87-8.25,49.52-5.5,55.94,13.8,19.56,27.51,21.09c11.92,1.33,51,1.33,51,1.33" transform="translate(-152.69 -304.92)"/><path class="cls-2" d="M1318,1297.5s-46.46,84-51.18,98.12c-9.17,27.51-.37,47.85,7.34,57.61,9.17,11.62,32.68,13.91,43.85,13.91s145.05-37.6,165.23-38.51,42.18,0,45.85-2.75,11-27.51,0-43.56c0,0-25.68-6-46.77-10.55s-50.43-4.58-61.44,0-22.52,18.34-20.43,10.55,36-61,39.69-75.65,9.17-35.76,4.59-46.77" transform="translate(-152.69 -304.92)"/><path class="cls-2" d="M1531.73,1421.34s20.51-4.08,37.71,0" transform="translate(-152.69 -304.92)"/><path class="cls-2" d="M1531.73,1387.19s5.38-1,8.13-4.41" transform="translate(-152.69 -304.92)"/><path class="cls-3" d="M1544.22,1363.52s-8.48,12.84-6.42,16,17.88,12.84,22.47,13.3,14.21-3.21,19.72,0-8.71,14.21-10.55,19.26.46,18.34,5,18.8,28-2.29,49.06,6,38.49,9.18,38.51,0c0-4.13-11-10.91-20.17-15.54s-30.75-23-33.94-23.89-12.37,6-13.74,2.29,1.83-6.77-2.29-12.55-8.25-12.66-22.47-20.92S1544.22,1363.52,1544.22,1363.52Z" transform="translate(-152.69 -304.92)"/><path class="cls-2" d="M1544.22,1363.52s-3.21-11,1.83-14.67,17.88-6,34.85,0,21.09,15.59,21.55,21.55-1.86,11,5.49,10.09,11.48-1.55,18.81,4.5,36.22,32.27,39.43,36.35,4.13,12.33-4.13,15.54" transform="translate(-152.69 -304.92)"/><path class="cls-2" d="M1519.44,1380.1l-13.74-12.91s-30.26-17-55-19.72-32.7,2.6-32.7,2.6" transform="translate(-152.69 -304.92)"/><path class="cls-3" d="M1512.12,1355.72l-4,13.7,13.67,10.68,7.34,2.22a22.48,22.48,0,0,1,3.32,6.41s7.86-4.35,8.92-6c0,0-5.84-2.88-3.85-6.88s5.74-12.51,5.74-12.51S1527.25,1354.35,1512.12,1355.72Z" transform="translate(-152.69 -304.92)"/><path class="cls-2" d="M1551.89,1346.29s-5.85-8.91-26.25-11.2-20.4,7.6-19.25,11.59,5.3,10.49,5.3,10.49" transform="translate(-152.69 -304.92)"/><path class="cls-4" d="M1373.77,1391c-2.58,7.41-3.19,15.57-1,17.88,8.25,8.63,40.54-24.39,87.3-20.18s75.71,7.8,75.71,7.8" transform="translate(-152.69 -304.92)"/><path class="cls-2" d="M1282,1058.85s6.19,7.57,0,7.57-9.63.69-4.81,6.19-4.13,51.58-7.57,66-13.07,63.27-11.69,71.53,8.25,21.55,44.7,28.66,90.78,5.73,112.1-4.58" transform="translate(-152.69 -304.92)"/><path class="cls-2" d="M1389.93,1064.35s5.27,4.13,9.17,5.5c0,0-5.5,3.44-4.58,7.57s11.23,27.51,13.3,34.39,5.5,13.07,18.57,8.25,49.52-22.7,53.64-35.76-8.94-15.82-17.88-25.45-26.82-38.51-50.21-49.52-40.45-8.94-40.45-8.94-7.13,23.38-35.27,22.7-26.07-13.76-26.07-13.76-23.38,4.13-37.83,16.51c0,0-26.61,29.57-32.56,33s-10.76,8.94-14.89,9.63-6.88,6.88,0,13.07,29.57,22.7,48.83,26.82" transform="translate(-152.69 -304.92)"/><path class="cls-2" d="M1422.26,1121.77s22.7,40.93,23.38,45.06-37.14,79.55-42.64,93.07-17.19,46.54-24.76,50.66-20.63,6.19-19.94,10.32.69,4.81,4.81,4.81,14.44-.69,13.75,0-18.59,44-18.59,44-2.78,5.5,0,6.53,5.53.34,8.28-5.85,14.44-28.2,16.51-27.17-12.72,37.14-13.41,39.55-1.13,5.72,1.84,6,6.07-3.4,8.47-8.63,14.1-27.24,14.1-27.24" transform="translate(-152.69 -304.92)"/><path class="cls-2" d="M1375.49,1388.74s-.69,4,2.75,4.35,8.94-9.28,11.35-14.44,12.72-23.44,13.76-23.07-7,26.47-2.89,26.74,7.8-11,10.85-20.6,8.55-37.06,8.55-42.91-2.75-19.26,4.13-31.64,47.45-66,58.46-91.81,9.28-31.29,7.22-38.17-18.15-52.57-23.34-58.27" transform="translate(-152.69 -304.92)"/><path class="cls-3" d="M1342.35,973.85s13.91,15.45,18.61,21.87c0,0,27.37-13.21,34.7-19.17s8.71-5,8.71-12.38,2.75-8.25,6-3.21,4.13,6.42,10.09,2.75,15.13-7.79,6.42-27.51-22.57-42.64-25.5-54.56c0,0-8.06,13.3-14.66,14.67,0,0-10.39-2.75-11.25-8.25,0,0,13.35-21.09,17.94-22.92,0,0-9.17-29.34-23.38-40.35s-32.55-19.72-54.1-17-46.57,13.76-58.13,23.84-22.56,28.88-14.77,48.6l1.31,18.31L1254,905l.92-12.84s5,7.79,6.88,7.34,12.84-3.21,14.67-6.42,3.21-10.54,4.59-8.25.46,7.33,4.58,7.33,19.38.46,32.39-.46,23.09-3.67,24-6.88,4.13-14.67,5-10.55a79.91,79.91,0,0,0,3.68,10.55,64.59,64.59,0,0,0,6.29-2.75c1.49-.92,7.45,18.8,8.37,28S1366.19,953.22,1342.35,973.85Z" transform="translate(-152.69 -304.92)"/><path class="cls-3" d="M1252.61,917.86h-7.34s-.19,33.47-4.91,48.6-3.67,26.59,6.12,31.18,15.29,8.71,18.5,6.42,1.83-7.34,5.5-6.42,1.38,9.63,7.79,10.55,25.68.92,32.09-2.29c0,0-.46-18.34-4.13-22,0,0-24.76-2.29-36.22-17S1255.82,936.2,1252.61,917.86Z" transform="translate(-152.69 -304.92)"/><path class="cls-2" d="M1254,905s-17.42-13.75-25.68-10.55,1.83,20.63,24.3,23.38Z" transform="translate(-152.69 -304.92)"/><path class="cls-2" d="M1375.43,888.06s13.71-25.68,25.91-25.22-1.64,28.43-14.66,33.47C1386.68,896.31,1378.59,894.48,1375.43,888.06Z" transform="translate(-152.69 -304.92)"/><path class="cls-2" d="M1300.87,986.35s29.57,3.49,49.88-16.68" transform="translate(-152.69 -304.92)"/><path class="cls-5" d="M1261.54,935.25c.67,3.1,5.51.28,11.95-1.1s12-.79,11.35-3.9-7.32-8.72-13.76-7.34S1260.88,932.14,1261.54,935.25Z" transform="translate(-152.69 -304.92)"/><path class="cls-5" d="M1342.35,928.37c-.1,3.17-5.37,1.27-11.95,1.07s-12,1.38-11.86-1.8,5.64-9.9,12.21-9.7S1342.44,925.19,1342.35,928.37Z" transform="translate(-152.69 -304.92)"/><path class="cls-2" d="M1324.6,894s16,3.69,18.34,5.53,7.79-1.89,3.21-5.53a90.13,90.13,0,0,1-7.31-6.39Z" transform="translate(-152.69 -304.92)"/><path class="cls-2" d="M1261.78,899.52s-4.36,4.56-2.29,6.41,16-5,17-6.41.51-6.44-.76-5.53S1266.6,899.29,1261.78,899.52Z" transform="translate(-152.69 -304.92)"/><path class="cls-3" d="M1265.08,914.18a8.68,8.68,0,0,1,4-3.18,10.08,10.08,0,0,1,5.16-.65,13.51,13.51,0,0,1,4.86,1.75c.72.45,1.41,1,2.09,1.47s1.24,1.15,1.82,1.76c-.75-.4-1.45-.84-2.16-1.27l-2.19-1.12-1.13-.46-.56-.24-.58-.16c-.39-.1-.76-.24-1.15-.34l-1.17-.2a11.22,11.22,0,0,0-4.68.34A12,12,0,0,0,1265.08,914.18Z" transform="translate(-152.69 -304.92)"/><path class="cls-3" d="M1334.68,911.93a12,12,0,0,0-4.28-2.3,11.22,11.22,0,0,0-4.68-.34l-1.17.2c-.39.1-.76.23-1.15.34l-.58.16-.56.24-1.12.46-2.19,1.12c-.7.43-1.41.87-2.16,1.27.58-.61,1.2-1.18,1.82-1.76s1.36-1,2.09-1.47a13.5,13.5,0,0,1,4.86-1.75,10.08,10.08,0,0,1,5.16.65A8.68,8.68,0,0,1,1334.68,911.93Z" transform="translate(-152.69 -304.92)"/><path class="cls-2" d="M1292.27,915.33l-1.38,21.32s0,4.59,3.09,4.59,8.6.34,8.6-2.75-2.41-23.17-2.41-23.17S1295.37,910,1292.27,915.33Z" transform="translate(-152.69 -304.92)"/><path class="cls-3" d="M1300.87,958.09a47.89,47.89,0,0,0,6.44-1.39,30,30,0,0,0,6-2.43,18.08,18.08,0,0,0,5-4,17.35,17.35,0,0,0,3.2-5.64,12.93,12.93,0,0,1-2.41,6.27,15.75,15.75,0,0,1-5.16,4.46,22.8,22.8,0,0,1-6.38,2.27A23.47,23.47,0,0,1,1300.87,958.09Z" transform="translate(-152.69 -304.92)"/><path class="cls-2" d="M1367.05,1008.71s41,1.76,59.33,32.94a507.62,507.62,0,0,1,30.91,63.17" transform="translate(-152.69 -304.92)"/><path class="cls-2" d="M1311.19,1013.89s-29.88,10.35-52.25,36.94-29.45,34.52-29.45,34.52" transform="translate(-152.69 -304.92)"/><path class="cls-2" d="M1237.65,1091.24s-47,78-50.62,77.69" transform="translate(-152.69 -304.92)"/><line class="cls-2" x1="1120.54" y1="816.22" x2="1089.26" y2="864"/><path class="cls-2" d="M1310.38,1011.84s3.24-17.14-1.3-24.29" transform="translate(-152.69 -304.92)"/><path class="cls-2" d="M1346.28,975.82s11.09,21.82,29.15,24.42" transform="translate(-152.69 -304.92)"/><path class="cls-2" d="M1011.91,651.87S967.07,618,957,615.26s47.57-26.59,65.91-33.93,56-32.09,90.8-37.6c15.48-2.44,41.11-10.09,41.11-10.09s2.14,50.43,53,45.85S1254,533.64,1254,533.64s48.82,7.34,67.51,16.51,44.24,45.85,53.93,65.11,25.62,67.86,25.91,72.44-41,38.87-91,37.77" transform="translate(-152.69 -304.92)"/><path class="cls-2" d="M1296.74,643.68s-4,15.59,0,18.34,10.42.92,5.85,9.17,1.82,26.59,3.67,38.51,9.63,98.12,9.63,98.12" transform="translate(-152.69 -304.92)"/><path class="cls-2" d="M1311.19,746.61s12.93,38.51,14.55,44-4.23,17.19-4.23,17.19" transform="translate(-152.69 -304.92)"/><path class="cls-2" d="M1377.95,706.9s20.94,63.1,18.19,81.67-16.23,47.58-16.23,47.58" transform="translate(-152.69 -304.92)"/><path class="cls-2" d="M1071.23,900s.68,13.77,0,22.69,11.07,4.51,17.59,4.42,28.16,10,77.86,9.53,78.22-6.47,78.22-6.47" transform="translate(-152.69 -304.92)"/><path class="cls-2" d="M1082.74,929.67s-.19,104.65,0,112,3,43.94,0,57.27,6.33,23.3,8.09,31.15-8.79,25.81-8.09,38.84-1.33,35.69-1.33,35.69" transform="translate(-152.69 -304.92)"/><path class="cls-2" d="M1112.05,1436.88s14.94,1.83,23.65,0" transform="translate(-152.69 -304.92)"/><path class="cls-2" d="M1114.77,1419.52s15.34,7.86,21.81,0" transform="translate(-152.69 -304.92)"/><path class="cls-2" d="M1183.1,1000.24s16.34,3.76,12.21,13.65,1.34,15.39.67,23.64-.59,27.51.06,38.51.13,64.62.13,64.62" transform="translate(-152.69 -304.92)"/><path class="cls-2" d="M1071.49,844.08s7.08-37.92,7.37-48.41" transform="translate(-152.69 -304.92)"/><path class="cls-2" d="M1172.09,508.89s-3.57,29.34-14,34.85" transform="translate(-152.69 -304.92)"/><path class="cls-2" d="M1230.16,497s3.46,41.26,23.28,46.77" transform="translate(-152.69 -304.92)"/><path class="cls-3" d="M1125.85,423.74s.69,21-3.44,25.77-3.21,6.19,1.83,10.32,7.1,11,5.73,15.13,2.06,11,9.63,13.75S1165,510,1182.93,513.47s33.7,1.15,37.14-4.58,9.63-14,17.19-19.49,13.77-8.25,16.17-22.7-1.71-22,0-29.57,1-15.13,0-17.19-.35-17.19,5.84-21.32c0,0,7.57-32.32,7.57-38.51s-3.42-26.13-13.4-34.39-22.36-13.07-32-13.07-13.61,7.57-24.69,2.06-20.9-14.44-38.68-6.88-10.91,13.75-15,17.88-26.82,9.63-20.63,23.38,10.09,11.69,13.3,11.69,21.78-5.5,32.78-8.94,18-5.5,28.27-3.44,33.63,7.57,41.88,8.94,10.32,8.25,10.32,16.51-2.06,33.09-2.75,36.15-18.42,24.38-49.44,20.25c0,0-2.14,7.57-12.11,7.91s-14.11-6.53-12.56-7.91c0,0-12.55-.34-20.11-4.81s-10.33-3.09-14.45-4.81-5.16-11.31-6.88-10.62S1125.45,420.38,1125.85,423.74Z" transform="translate(-152.69 -304.92)"/><path class="cls-2" d="M1186,385c-2.93,0-6.36,0-7.45,5.33-1.3,6.43-6.48,39.89-6.48,39.89s1.2,6.5,10.83,7.89,13.83-7.89,13.83-7.89l-3.43-40.92S1192.56,384.94,1186,385Z" transform="translate(-152.69 -304.92)"/><path class="cls-2" d="M1137.53,379c-1.38,2.81-8.43,34.71-7.06,35.86" transform="translate(-152.69 -304.92)"/><path class="cls-2" d="M1259.27,398.62s8.48-14.9,19-8.48-7.24,28.7-24,33.6C1254.28,423.74,1250.79,403.43,1259.27,398.62Z" transform="translate(-152.69 -304.92)"/><path class="cls-2" d="M1148.2,375.23s-9.51,3.78-12.49,4.13-8.29-6.53-5.29-11.35,18.13-6.88,23.63-6.53,8.94,3.09,8.6,7.22S1148.2,375.23,1148.2,375.23Z" transform="translate(-152.69 -304.92)"/><path class="cls-2" d="M1232.79,368.36s-14.44-5.58-21.32-6.91-10.49,7.26-6.69,10.68c2.31,2.08,24.22,5.18,28,8.62S1242.82,372,1232.79,368.36Z" transform="translate(-152.69 -304.92)"/><path class="cls-3" d="M1141.47,394.07a11.61,11.61,0,0,1,4.44-3.72,14.94,14.94,0,0,1,5.69-1.51,18,18,0,0,1,5.82.74,28,28,0,0,1,2.73,1c.86.45,1.71.91,2.52,1.41-.93-.26-1.83-.57-2.73-.86s-1.82-.5-2.74-.66a22.32,22.32,0,0,0-2.76-.38,19.06,19.06,0,0,0-2.76-.07A17.22,17.22,0,0,0,1141.47,394.07Z" transform="translate(-152.69 -304.92)"/><path class="cls-3" d="M1228.06,397.12a17.22,17.22,0,0,0-9.63-5.23,19.06,19.06,0,0,0-2.75-.27,22.32,22.32,0,0,0-2.79,0c-.93.05-1.86.23-2.8.33s-1.86.38-2.81.53c.87-.4,1.77-.76,2.67-1.1a27.94,27.94,0,0,1,2.83-.68,18,18,0,0,1,5.86,0,14.94,14.94,0,0,1,5.47,2.18A11.61,11.61,0,0,1,1228.06,397.12Z" transform="translate(-152.69 -304.92)"/><path class="cls-5" d="M1140.43,411.71c.67,3.1,5.51.28,11.95-1.09s12-.79,11.35-3.9-7.32-8.72-13.76-7.34S1139.77,408.6,1140.43,411.71Z" transform="translate(-152.69 -304.92)"/><path class="cls-5" d="M1229.78,413.42c-.65,3.11-5.51.31-12-1s-12-.74-11.36-3.84,7.28-8.76,13.72-7.41S1230.43,410.31,1229.78,413.42Z" transform="translate(-152.69 -304.92)"/><path class="cls-6" d="M1184.31,461.55a45.33,45.33,0,0,0,4.75,0,46.38,46.38,0,0,0,4.7-.42,43.12,43.12,0,0,0,9.1-2.22,30.14,30.14,0,0,0,4.26-1.9,28.82,28.82,0,0,0,3.95-2.5,27.68,27.68,0,0,0,3.52-3.1,33.45,33.45,0,0,0,3.07-3.61,24.48,24.48,0,0,1-6,7.44,27.83,27.83,0,0,1-8.38,4.79,37,37,0,0,1-19,1.52Z" transform="translate(-152.69 -304.92)"/><path class="cls-2" d="M1253.57,547.86s60.71,9.63,76.88,35.07,38.81,70.51,56.72,118.13" transform="translate(-152.69 -304.92)"/><path class="cls-2" d="M1157.68,547.86s-47.57,6.19-89.56,28.2-94.7,48.4-94.7,48.4" transform="translate(-152.69 -304.92)"/><path class="cls-2" d="M966.06,619.84s-47.68,51.35-55.94,69.69-3.67,22,0,26.59,15.17,16.51,29.59,21.09,102.45,1.83,128.13,0,43.1-3.67,43.1-3.67,3.67-11,7.34-11" transform="translate(-152.69 -304.92)"/><path class="cls-2" d="M966.06,655.6s42.18-11,77,4.58,77,39.43,90.78,43.1,33,10.09,37.6,16.51,3.67,9.6,13.76,19.93,12.84,15.83,11,19.5-7.34,3.67-11.92,0l-4.59-3.67s2.75,20.17,1.83,27.51-9.63,16-9.63,16" transform="translate(-152.69 -304.92)"/><path class="cls-2" d="M1169.64,762.89a48,48,0,0,1,2.29,18.8c-.92,10.09-3.67,32.55-4.13,35.53s-.92,12.15-7.34,12.61-7.34-5.5-6.88-12.61,3.21-31.41,3.21-36,.72-15.59-3.31-18.34" transform="translate(-152.69 -304.92)"/><path class="cls-2" d="M1110.95,733.55s-4.13,17,0,31.64,9.63,32.09,7.34,36.68-5.5,16-2.29,17.88,10.09,3.67,11.92-2.52,7.79-16.73,7.79-25.9V762.89" transform="translate(-152.69 -304.92)"/><path class="cls-2" d="M1135.16,796.37s-4,28.46-3.12,33.48,11,7.77,12.84,5.48,8-29.41,10.82-40.45" transform="translate(-152.69 -304.92)"/><path class="cls-3" d="M586.66,747.3a2.75,2.75,0,0,1-2.55-1.73c-4.52-11.29-6.39-70.77-6.39-74.61,0-2.43-.64-3-2-4.13a10.81,10.81,0,0,1-3.55-4.47c-1.14-2.84-.2-5.8.63-8.41.34-1.1,1-3.13.76-3.64-3.78-3.41-2.08-8.57-.49-11.09a2.75,2.75,0,0,1,4.66,2.93h0s-1.71,3-.49,4.06c3,2.66,1.71,6.55.8,9.4-.55,1.73-1.17,3.68-.77,4.68a5.7,5.7,0,0,0,2,2.3,9.52,9.52,0,0,1,4,8.36c0,8.7,2.24,63.17,6,72.57a2.75,2.75,0,0,1-2.55,3.77Z" transform="translate(-152.69 -304.92)"/><path class="cls-3" d="M771.66,731.48a2.74,2.74,0,0,1-2-.91c-15.14-16.76-24.81-49.31-30-66.8-1.53-5.15-2.73-9.21-3.47-10.79-1.26-2.73-7.39-16.74-4.16-24.48.57-1.37-3.29-4.5-6.88-6.18a2.75,2.75,0,0,1,2.32-5c1.3.6,12.63,6.11,9.63,13.28-1.42,3.41.3,11.85,4.09,20a116.73,116.73,0,0,1,3.75,11.53c5.07,17.07,14.51,48.85,28.81,64.68a2.75,2.75,0,0,1-2,4.59Z" transform="translate(-152.69 -304.92)"/><path class="cls-3" d="M598.35,561.15s-13.12,0-18,8.25-24.62,14.67-29.43,28.43-4.81,63.07-36,54-26.37-46.66-16.4-80.59a405.74,405.74,0,0,0,16.4-95.37c1.83-32.09,14.67-65.57,25.68-81.39s38.51-34.38,57.77-17.88c0,0,7.57-18,28.89-15.17s51.58,35.15,59.15,62.3c0,0-10.66,5.48-14.1,12.36,0,0-7.22-15.13-17.88-18.23s-38.86-8.25-49.86-23.38a29.47,29.47,0,0,1-15.87,28.89c-18.52,10-24.36,23.38-26.77,28.89s-4.81,10.32-8.6,5.85-12-10.32-17.54-10.66-18.23,0-10.66,9.63,20.29,10,20.29,10-5.16,47.11,4.47,47.11S554,468.77,554,468.77s2.75,31.64,17.88,47.11a63.52,63.52,0,0,0,34.39,17.77S605.57,551.07,598.35,561.15Z" transform="translate(-152.69 -304.92)"/><path class="cls-3" d="M555.88,479.79a2.75,2.75,0,0,1-2.73-2.54c-.23-2.92-1.11-5-2.63-6.21a7,7,0,0,0-4.71-1.27c-.87-.09-14.6-.48-22.86-11-2.89-3.68-3.65-6.9-2.26-9.56,2.3-4.38,9.57-4.86,15.25-4.52,6.63.41,15.57,7,19.47,11.63a2.73,2.73,0,0,0,.89.8c.68-.48,2.49-4.62,3.08-6,2.6-5.94,8.66-19.8,28-30.21a26.55,26.55,0,0,0,14.45-26.09,2.75,2.75,0,0,1,4.95-2c8.82,12.13,30,17.58,42.68,20.83,2.21.57,4.15,1.07,5.73,1.53,11.71,3.4,19.28,19,19.6,19.68a2.75,2.75,0,0,1-5,2.37c-.06-.14-6.83-14.06-16.17-16.77-1.53-.44-3.41-.93-5.56-1.48-11.54-3-29.79-7.65-41-17.7A31.89,31.89,0,0,1,590,425.8c-17.66,9.51-23.18,22.14-25.54,27.54-2.15,4.93-4.07,8.72-7.58,9.23-2,.3-3.9-.61-5.65-2.68-3.6-4.26-11.2-9.42-15.61-9.69-6.08-.37-9.58.72-10,1.58-.12.24-.06,1.35,1.71,3.6,6.64,8.46,18.09,8.92,18.2,8.92a11.84,11.84,0,0,1,8.46,2.44c2.76,2.2,4.34,5.59,4.69,10.09a2.75,2.75,0,0,1-2.53,3Z" transform="translate(-152.69 -304.92)"/><path class="cls-3" d="M689.82,435.76S686,446.42,677.1,448.13c0,0,19.6,33.7,12.72,41.26S670.91,455,670.91,455s5.5,26.48-5.16,45.73-20.29,24.76-20.29,24.76l9.28,25.79s11.35-7.91,18.91,0,17.19,38.78,40.58,34.86,9.63-42.08,22-45.18,19.6,3.44,19.6,3.44-2.75-30.74-25.1-37.38-28.89-12.14-30.09-23.15S702.54,447.79,689.82,435.76Z" transform="translate(-152.69 -304.92)"/><path class="cls-3" d="M617.82,538.14a39.69,39.69,0,0,1-12.18-1.8,66,66,0,0,1-35.74-18.54c-15.69-16-16.73-39.66-16.77-40.66a2.75,2.75,0,0,1,2.65-2.85,2.78,2.78,0,0,1,2.85,2.65c0,.22,1,22.52,15.2,37a61,61,0,0,0,32.75,17,2.7,2.7,0,0,1,.54.12c17.1,5.65,39-4.92,43.34-8.92a2.75,2.75,0,1,1,3.74,4C650.22,529.85,634.09,538.14,617.82,538.14Z" transform="translate(-152.69 -304.92)"/><path class="cls-3" d="M677.21,485a2.75,2.75,0,0,1-2.66-2c-1.35-5.13-8.11-30.92-8.11-34.86a4.24,4.24,0,0,1,1.94-3.69c2.43-1.54,6.34-.35,8.95.77,7.65-2.44,17.84-14.18,18.06-19.63,0-1-.21-1.36-1.13-1.65-6.68-2.16-16.73,9.51-19.73,13.75a2.75,2.75,0,0,1-4.49-3.18c1.42-2,14.21-19.51,25.89-15.82a6.75,6.75,0,0,1,5,7.12c-.34,8.52-13.55,22.78-23.17,25a2.86,2.86,0,0,1-1.8-.2,18.48,18.48,0,0,0-3.84-1.32c.73,4.51,4.31,19.12,7.8,32.3a2.75,2.75,0,0,1-2,3.36A2.79,2.79,0,0,1,677.21,485Z" transform="translate(-152.69 -304.92)"/><path class="cls-3" d="M572.68,456.48a4.16,4.16,0,0,1-2.57-.87c-4.36-3.27-.59-10.09.56-11.94a17.51,17.51,0,0,1,10.65-9.87c4.12-1.47,8.85-1.66,11-.43,2,1.12,5.24,5.05,4.6,8.91-.27,1.61-1.46,4.46-6.36,5.35-3.17.58-6.69,2.94-9.8,5S575.07,456.48,572.68,456.48Zm.9-5h0ZM588.37,438c-3,0-10.07,1.29-12.69,7.9a2.6,2.6,0,0,1-.24.47,14.32,14.32,0,0,0-1.84,4.23,44.34,44.34,0,0,0,4.12-2.56c3.38-2.26,7.59-5.07,11.87-5.85,1.33-.24,1.89-.64,1.92-.84.16-.85-1.13-2.78-1.86-3.22A4.74,4.74,0,0,0,588.37,438Zm-15.24,6.89h0Z" transform="translate(-152.69 -304.92)"/><path class="cls-3" d="M656.88,442.59a5.74,5.74,0,0,1-2.78-.76c-3.33-1.85-11.63-3.87-17.94-5-3.34-.58-5.72-2.39-6.53-5-.55-1.73-.83-5.27,3.45-9.55,4.82-4.82,11-2.49,13.79-.43,1.48.68,8.13,3.79,12,6.73a9,9,0,0,1,2.22,11.52A5,5,0,0,1,656.88,442.59Zm-17-17.58a4,4,0,0,0-2.9,1.23c-1.77,1.76-2.33,3.28-2.1,4,.17.53,1,1,2.24,1.21,2.33.41,14.21,2.57,19.61,5.55a7.76,7.76,0,0,0,.11-1.49,3.4,3.4,0,0,0-1.22-2.46c-3.83-2.88-11.2-6.2-11.27-6.23a2.6,2.6,0,0,1-.56-.34A7.16,7.16,0,0,0,639.87,425Z" transform="translate(-152.69 -304.92)"/><path class="cls-3" d="M577.26,469.45a7.6,7.6,0,0,1,2.59-5.62,12.84,12.84,0,0,1,16.69-.65,24.68,24.68,0,0,1-5.2,2.18c-1.59.6-3.14.87-4.59,1.34s-2.9.74-4.42,1.12A51.88,51.88,0,0,0,577.26,469.45Z" transform="translate(-152.69 -304.92)"/><path class="cls-3" d="M636.18,457.76a8,8,0,0,1,2.94-5.09,11.74,11.74,0,0,1,5.27-2.55c3.87-.66,8,.33,10.58,3.59a32.75,32.75,0,0,1-5.13,1.47c-1.53.34-2.92.61-4.3.89Z" transform="translate(-152.69 -304.92)"/><path class="cls-3" d="M606.37,505.69c6,0,10.74.21,15.35-.62a34.23,34.23,0,0,0,6.86-1.72c2.38-.74,4.67-1.91,7.59-2.95a14.76,14.76,0,0,1-5,7.4,17.2,17.2,0,0,1-8.42,3.78,18.94,18.94,0,0,1-9.1-.81A15.1,15.1,0,0,1,606.37,505.69Z" transform="translate(-152.69 -304.92)"/><path class="cls-3" d="M621.82,497.75c-4.85,0-7.46-2.5-8.28-4.13a2.85,2.85,0,0,1-.26-.84c-.15-1-3.68-25.31-4.14-29.51-.54-5,3.37-7.38,5.85-8.08,3.64-1.87,7.46,0,9.18,1.37a2.74,2.74,0,0,1,.92,1.44c1.78,6.93,7.62,29.66,7.86,31.53a6,6,0,0,1-1.27,4.45c-1.54,2-4.23,3.21-8,3.66A15.36,15.36,0,0,1,621.82,497.75Zm-3.19-6.43c.4.37,1.6,1.18,4.38.85,3.16-.38,4.11-1.31,4.33-1.58-.09-1.89-4.44-19-7.31-30.19a2.76,2.76,0,0,0-2.63-.26,2.83,2.83,0,0,1-.77.31c-.52.13-2.18.66-2,2.23C615,466.39,618,487.29,618.63,491.32ZM616,457.76h0Z" transform="translate(-152.69 -304.92)"/><path class="cls-5" d="M571.64,491.11c.82,3.83,6.81.35,14.75-1.35s14.83-1,14-4.81-9-10.77-17-9.07S570.82,487.28,571.64,491.11Z" transform="translate(-152.69 -304.92)"/><path class="cls-5" d="M638,478.46c.82,3.83,6.81.35,14.75-1.35s14.83-1,14-4.81-9-10.77-17-9.07S637.15,474.63,638,478.46Z" transform="translate(-152.69 -304.92)"/><path class="cls-3" d="M628.84,589c-10.7,0-19.19-3-25.3-9-10.24-10.08-9.77-24.72-9.75-25.34a2.75,2.75,0,0,1,5.5.21c0,.13-.37,12.9,8.14,21.24,5.58,5.47,13.81,8,24.48,7.34,8.6-.49,14.84-3.47,18.56-8.86,8.51-12.34,1.94-33.44,1.88-33.65a2.75,2.75,0,1,1,5.24-1.67c.31,1,7.43,23.91-2.58,38.44-4.73,6.87-12.4,10.65-22.78,11.23Q630.5,589,628.84,589Z" transform="translate(-152.69 -304.92)"/><path class="cls-3" d="M569.29,718.71c-17.37,0-40.71-6.8-58.12-15.17-15.06-7.24-18.46-17-19.14-22.11-.75-5.65,1-11.21,4.36-14.15,3.09-2.68,6-17.33,7.06-26.88a2.79,2.79,0,0,1,3-2.43,2.75,2.75,0,0,1,2.43,3c-.47,4.2-3.12,25.4-8.93,30.43-1.62,1.4-3.09,4.9-2.51,9.27.54,4.05,3.35,11.76,16.08,17.88,22.14,10.65,53.63,18.35,68,12.81a2.75,2.75,0,1,1,2,5.13A40.22,40.22,0,0,1,569.29,718.71Z" transform="translate(-152.69 -304.92)"/><path class="cls-3" d="M512.37,703.81a2.75,2.75,0,0,1-2.7-2.24c-2.63-13.76,14.2-47.23,16.13-51a2.75,2.75,0,1,1,4.9,2.5c-5,9.78-17.55,37.38-15.62,47.46a2.75,2.75,0,0,1-2.19,3.22A2.84,2.84,0,0,1,512.37,703.81Z" transform="translate(-152.69 -304.92)"/><path class="cls-3" d="M779.74,662c-23.16,0-37.64-2.79-43.05-8.29a2.75,2.75,0,0,1,3.92-3.86c2.57,2.61,11.57,6.92,42.05,6.63,1-3.91,1.15-17.36,1.26-27.41.13-12.67.28-25.78,1.52-33.56a55.77,55.77,0,0,1,5.64-16.38c1.26-2.45,2.71-4.95,4.31-7.43a93.7,93.7,0,0,1,6.33-8.61c-3.39-2.69-14.27-9.32-30.62-12.59-21.28-4.26-29.36-12.93-29.7-13.3a2.75,2.75,0,0,1,4.06-3.72c.07.08,7.41,7.76,26.71,11.62,19.77,4,34.38,13.29,35.75,17.06a2.74,2.74,0,0,1-.56,2.8,82.34,82.34,0,0,0-7.36,9.73,79.09,79.09,0,0,0-4,6.94,49.94,49.94,0,0,0-5.1,14.74c-1.18,7.38-1.32,20.28-1.46,32.75-.3,27.46-.76,32.84-5.38,32.84h-1.16Zm4.3-5.53h0Z" transform="translate(-152.69 -304.92)"/><path class="cls-3" d="M805.36,563.16a83.14,83.14,0,0,0-7.64,10.09,80.76,80.76,0,0,0-4.18,7.19l11.82,6.06S811,567.79,805.36,563.16Z" transform="translate(-152.69 -304.92)"/><path class="cls-3" d="M861.65,677.46a16.59,16.59,0,0,1-4-.5c-14.45-3.56-70-25.27-72.4-26.19a2.75,2.75,0,1,1,2-5.13c.57.23,57.61,22.51,71.71,26a10,10,0,0,0,8.15-1.34c6.27-4,11.6-15,14.63-30.12,1.89-9.43,3.15-47.07,4.28-80.29,1-29.76,1.67-48.44,2.55-53.13.12-3.92,2.74-11.18,12-12.51,7.87-1.12,23.3-19.66,26.62-32,.82-3.05,1.77-6.11,2.69-9,1.22-3.92,3.07-9.83,3.39-13.12-1.07,2.19-2.32,5.34-3.19,7.53-2.61,6.57-3.67,9-5.32,10a5.36,5.36,0,0,1-6-.07c-2.21-1.56-3.06-4.65-2.29-8.25,4-18.54,6.78-32.71,6.82-34.45a6.51,6.51,0,0,0-.32-2c-1.46,2-4.28,8.33-7.73,19.07-2.11,6.58-7.12,16.09-7.33,16.5a2.75,2.75,0,0,1-4.87-2.57c0-.09,5-9.49,7-15.61,6.45-20.1,9.37-21.88,10.47-22.55a4.79,4.79,0,0,1,4.95-.24c2.48,1.39,3.36,4.87,3.36,7.42,0,2.8-4.35,23.5-6.94,35.6-.37,1.72,0,2.5.11,2.62.29-.7,1.91-4.76,3-7.46,3.45-8.68,5.74-14.4,10-12.86,6.39,2.36,3.67,11.08.23,22.12-.89,2.86-1.83,5.85-2.63,8.83-3.69,13.72-20.08,34.42-31.15,36-6.95,1-7.25,6.73-7.26,7.38a3.33,3.33,0,0,1-.06.57c-.85,3.87-1.64,27.46-2.49,52.43-1.13,33.42-2.4,71.31-4.38,81.18s-6.77,27.13-17.07,33.68A15.5,15.5,0,0,1,861.65,677.46Z" transform="translate(-152.69 -304.92)"/><path class="cls-3" d="M835.28,602.19H835a2.75,2.75,0,0,1-2.46-3c1-10.21,18.85-72.32,26.26-84.07,6.13-9.72,6.08-24.49,6.06-31.58v-1.22c0-5.67-9.68-23.45-13.16-27.83-.48-.6-1-1.2-1.48-1.79-2.56-3.06-5-6-4.66-9.26a6.22,6.22,0,0,1,2.42-4.28c5.31-4.35,9.9-.13,13.93,3.59l1.07,1a43.19,43.19,0,0,1,5.79,7.08c1.11,1.58,2.79,4,3.52,4.32a62.08,62.08,0,0,0,3.57-6.35l1-1.91c1.83-3.4,5.74-15.87,8.33-24.12L887,417c3.78-11.8,11.85-10.24,14.49-9.73a3.48,3.48,0,0,1,2.43,1.8c1.64,3-.59,9.66-6.53,24.4-1.26,3.11-2.44,6.06-2.69,7-.08.31-.14.6-.19.87,1.4-2.31,3.58-7.76,5.1-11.59,3.76-9.43,6.25-15.3,9.1-17.24,5.56-3.78,9.74-2.17,10.19-2a2.75,2.75,0,0,1-2.08,5.09c-.19-.06-2.07-.57-5,1.43-1.66,1.13-5.06,9.64-7.08,14.73-3.32,8.31-5.3,13.09-7.57,14.85-2.94,2.28-5,1.81-6.22,1-2.06-1.35-2.63-4.38-1.57-8.53.32-1.27,1.27-3.64,2.92-7.73,1.9-4.71,6.09-15.08,6.64-19-2.25-.2-4.83.46-6.68,6.25l-1.78,5.64c-3,9.46-6.66,21.23-8.73,25.08l-1,1.85c-2.5,4.79-5,9.75-9.36,9.21-2.73-.34-4.66-3.08-7.11-6.55a39,39,0,0,0-5-6.18l-1.09-1c-4.63-4.26-5.39-4.45-6.72-3.37-.12.1-.41.35-.43.53-.1,1,2,3.54,3.41,5.21.52.63,1.05,1.26,1.56,1.9,3.47,4.37,14.35,23.54,14.35,31.26v1.2c0,7.62.08,23.47-6.9,34.54-6.58,10.44-24.38,71-25.44,81.68A2.75,2.75,0,0,1,835.28,602.19Zm57.64-159.32Z" transform="translate(-152.69 -304.92)"/><path class="cls-3" d="M841.47,605.63a2.73,2.73,0,0,1-1-.2c-12-4.8-46.65-21.8-48.12-22.53a2.75,2.75,0,1,1,2.43-4.94c.35.17,35.93,17.63,47.73,22.35a2.75,2.75,0,0,1-1,5.31Z" transform="translate(-152.69 -304.92)"/><path class="cls-3" d="M884.11,479.79a2.75,2.75,0,0,1-2-4.67c.48-.5,12.09-12.27,26.14-11.66a2.75,2.75,0,0,1,2.65,2.85,2.66,2.66,0,0,1-2.85,2.64c-11.91-.37-21.89,9.89-22,10A2.75,2.75,0,0,1,884.11,479.79Z" transform="translate(-152.69 -304.92)"/><path class="cls-3" d="M651.12,846.83h-.23c-.14,0-14.51-1.19-39.2-2.55-9-.49-15.4-3.36-19-8.53-5.14-7.29-2.55-16.27-2.44-16.65a2.75,2.75,0,0,1,5.28,1.56c0,.07-1.92,6.87,1.69,12,2.62,3.7,7.61,5.77,14.82,6.17,24.77,1.36,39.21,2.55,39.35,2.56a2.75,2.75,0,0,1-.22,5.49Z" transform="translate(-152.69 -304.92)"/><path class="cls-2" d="M769.53,832" transform="translate(-152.69 -304.92)"/><path class="cls-3" d="M592.21,974.72a2.75,2.75,0,0,1-2.65-2c-20.65-74.05,11.83-133.19,12.16-133.78a2.75,2.75,0,0,1,4.8,2.69c-.32.57-31.67,57.82-11.66,129.61a2.75,2.75,0,0,1-1.91,3.39A2.67,2.67,0,0,1,592.21,974.72Z" transform="translate(-152.69 -304.92)"/><path class="cls-3" d="M604.11,974.72a2.75,2.75,0,0,1-2.71-2.3c-12.12-72.41,13.1-131.11,13.36-131.69a2.75,2.75,0,0,1,5,2.21c-.25.57-24.81,57.85-13,128.58a2.75,2.75,0,0,1-2.26,3.17A2.59,2.59,0,0,1,604.11,974.72Z" transform="translate(-152.69 -304.92)"/><path class="cls-3" d="M546,786.09a2.75,2.75,0,0,1-2.69-2.22,63.33,63.33,0,0,1,0-21.48c1.32-7.1-9.26-36.42-16.24-53.24a2.75,2.75,0,1,1,5.08-2.11c1.91,4.6,18.61,45.32,16.56,56.35a59,59,0,0,0,0,19.42,2.75,2.75,0,0,1-2.17,3.23A2.85,2.85,0,0,1,546,786.09Z" transform="translate(-152.69 -304.92)"/><path class="cls-3" d="M575.35,972.42a2.86,2.86,0,0,1-.84-.13,2.75,2.75,0,0,1-1.78-3.46,15.74,15.74,0,0,0-1.2-10.56c-3.3-6.73-13.34-36.94-13.76-38.23a2.75,2.75,0,1,1,5.22-1.73c.1.31,10.34,31.14,13.48,37.54a21.08,21.08,0,0,1,1.5,14.66A2.76,2.76,0,0,1,575.35,972.42Z" transform="translate(-152.69 -304.92)"/><path class="cls-3" d="M769.53,834.73a2.75,2.75,0,0,1-1.68-4.93c4.92-3.8,10.74-8.6,11.54-9.72a2.69,2.69,0,0,1,3.68-1.09,2.81,2.81,0,0,1,1.12,3.78c-.8,1.52-5.16,5.34-13,11.38A2.74,2.74,0,0,1,769.53,834.73Z" transform="translate(-152.69 -304.92)"/><path class="cls-3" d="M802.89,1320.89a2.75,2.75,0,0,1-2.75-2.67c-.11-4-2.79-98.94-1.33-116.38.55-6.64-1.27-22.26-3.39-40.35-3.28-28-7.36-62.86-4.61-82.6,4.24-30.53,10.21-128.44,7.13-169.89-3-40-24.44-75.23-24.65-75.58a2.75,2.75,0,1,1,4.68-2.89c.91,1.48,22.38,36.7,25.46,78.06,3.11,41.76-2.91,140.34-7.17,171.05-2.65,19,1.39,53.51,4.63,81.21,2.15,18.39,4,34.26,3.4,41.45-1.43,17.12,1.32,114.77,1.35,115.76a2.75,2.75,0,0,1-2.67,2.83Z" transform="translate(-152.69 -304.92)"/><path class="cls-3" d="M726.27,1171.68a2.75,2.75,0,0,1-2.73-2.53c-.06-.71-1.38-17.64,0-31,1.33-12.83-6.79-74.84-6.87-75.46a2.75,2.75,0,1,1,5.46-.72c.34,2.58,8.27,63.29,6.88,76.75-1.33,12.9,0,29.86,0,30a2.74,2.74,0,0,1-2.52,3Z" transform="translate(-152.69 -304.92)"/><path class="cls-3" d="M650.24,1442.5a2.75,2.75,0,0,1-.69-5.41c.53-.15,13.36-3.39,36.89-3,20.48.35,21-14.07,21-14.69a2.75,2.75,0,0,1,5.5.16c0,.2-.8,20-25.7,20h-.93c-22.66-.44-35.27,2.75-35.39,2.79A2.78,2.78,0,0,1,650.24,1442.5Z" transform="translate(-152.69 -304.92)"/><path class="cls-3" d="M797.72,576h0c-.5,0-12.38-.31-27.23-10.58-13.87-9.59-44.78-20.57-45.09-20.68a2.75,2.75,0,1,1,1.84-5.18c1.3.46,31.92,11.34,46.38,21.34,13.37,9.25,24.09,9.6,24.2,9.6a2.75,2.75,0,0,1-.05,5.5Z" transform="translate(-152.69 -304.92)"/><path class="cls-3" d="M651.31,1171.68a2.75,2.75,0,0,1-2.67-2.1c-2.05-8.4-9.57-45.69-9.89-47.27a2.75,2.75,0,1,1,5.39-1.09c.08.39,7.81,38.76,9.83,47.05a2.75,2.75,0,0,1-2,3.33A2.69,2.69,0,0,1,651.31,1171.68Z" transform="translate(-152.69 -304.92)"/><path class="cls-3" d="M710.8,1171.68a2.75,2.75,0,0,1-2.75-2.58c-2.12-34.25-13.89-68.94-14-69.28a2.75,2.75,0,1,1,5.2-1.78c.12.35,12.13,35.72,14.3,70.72a2.75,2.75,0,0,1-2.57,2.92Z" transform="translate(-152.69 -304.92)"/><path class="cls-5" d="M458.9,921.62c1.9,3.34,6.47-1.68,13.39-5.61s13.58-5.28,11.68-8.63-11.62-7.41-18.55-3.47S457,918.28,458.9,921.62Z" transform="translate(-152.69 -304.92)"/><path class="cls-5" d="M523.81,894.82c1.34,3.6,6.65-.63,14.11-3.4s14.24-3.05,12.9-6.66-10.3-9.16-17.76-6.38S522.47,891.22,523.81,894.82Z" transform="translate(-152.69 -304.92)"/><path class="cls-3" d="M455.3,1425.77a2.72,2.72,0,0,1-1.31-.33c-.2-.11-20.58-11.12-54.14-29.93-32.5-18.22-127.1-100.84-135.09-120.83-8.32-20.79,3.14-48.23,11.23-61.16,9.5-15.21,39.57-28.91,40.84-29.48a2.75,2.75,0,0,1,2.26,5c-.3.13-29.82,13.58-38.44,27.38-9.77,15.63-17.31,39.89-10.78,56.21,6.95,17.37,98.7,99,132.67,118.07,30.09,16.87,49.56,27.46,53.38,29.52,4.08-.31,25.23-2.81,39.28-21.17-5.9-12.13-47.37-95.11-88-117.49a2.75,2.75,0,1,1,2.65-4.81c45.2,24.9,89.18,117.5,91,121.43a2.75,2.75,0,0,1-.25,2.78c-17.11,23.83-44.12,24.78-45.27,24.81Z" transform="translate(-152.69 -304.92)"/><path class="cls-3" d="M541.49,1468.06a2.73,2.73,0,0,1-1.42-.39l-9.16-5.5c-6.6-4-12.57-33.94-20.59-103.49-.39-3.35-.69-6-.9-7.65a45.94,45.94,0,0,0-25.13-35.83c-15.81-8.22-48.63-10.79-49-10.82a2.75,2.75,0,0,1,.42-5.49c1.39.11,34.27,2.69,51.08,11.43a51.87,51.87,0,0,1,28.05,40c.21,1.68.52,4.33.91,7.7,9,78.12,14.75,97.18,18,99.41l9.16,5.5a2.75,2.75,0,0,1-1.41,5.11Z" transform="translate(-152.69 -304.92)"/><path class="cls-3" d="M384.16,1276.52c-5.49,0-9.13-6.83-12.65-13.46-1.24-2.33-2.49-4.68-3.8-6.71-1.06-1.64-2.5-3.93-4.16-6.58-3.63-5.8-9.38-15-13.73-21.12l.37,1,.85,2.25c2.8,7.47,11.31,23.79,13.58,26.07,1.46,1.46,2.21,4.21-.45,7.18-2.94,3.29-9.69,6-14.21,2.41-5.56-4.44-25.54-42.76-32-57-3.74-8.3-3.89-32.24.93-42.75,13.34-29.06,38.3-32,39.35-32.11a2.75,2.75,0,0,1,.58,5.47c-.93.1-23,2.83-34.93,28.94-4.44,9.68-3.79,31.8-.91,38.19,8,17.8,26.6,52,30.39,55,1,.78,2.49.48,3.32.24a7.57,7.57,0,0,0,3.53-2.2c-3.58-4.34-11.72-20.49-14.35-27.47l-.84-2.22c-3.18-8.36-4.63-12.18-1.95-14.13,1.45-1.06,3.22-.77,5.25.85,3.69,3,11.18,14.66,19.86,28.53,1.64,2.62,3.07,4.9,4.12,6.52,1.39,2.15,2.72,4.65,4,7.12,2.48,4.65,5.86,11,8.16,10.49,3.65-.84,4.55-2,4.77-2.4a2.52,2.52,0,0,0-.25-2.06c-.44-1-2.15-4.37-4.45-8.95-17.55-34.84-20.37-41.83-20.07-44.32a2.75,2.75,0,0,1,5.48.43c.6,3.89,13.83,30.15,19.5,41.41,2.37,4.7,4.11,8.16,4.57,9.19a7.66,7.66,0,0,1,.14,6.75c-1.27,2.54-4,4.28-8.46,5.3A7,7,0,0,1,384.16,1276.52Zm-39.78-54.28Z" transform="translate(-152.69 -304.92)"/><path class="cls-3" d="M396.81,1270.93c-4.66,0-7.09-2.7-7.8-4.53a2.75,2.75,0,0,1,5.13-2c.06.11,1.12,1.93,5.67.5a2.8,2.8,0,0,0,1.93-1.54c1-2.12-.26-5.8-.75-6.93l-16.58-46.11a2.75,2.75,0,0,1,4.93-2.37c.79,1.29,19.45,31.61,22.72,41,1.74,5,3.05,6.53,3.46,6.92a5.76,5.76,0,0,0,4.53-.94,2.3,2.3,0,0,0,.87-1.4c-.28-2.82-11.32-46.78-14-53-2.83-6.6-5.12-17.95-5.21-18.43a2.75,2.75,0,0,1,3.3-3.22c3.33.74,12.16,4,19.25,6.69l5.39,2h0c.64,0,1.14-.77,1.21-2.37.1-2.26-.73-4.68-1.9-5.5-4.07-2.85-13.08-7.26-21.42-10.5-4.86-1.88-12.11-8.66-19.8-15.84-5.4-5.05-11-10.27-14.61-12.55a11.67,11.67,0,0,0-12.93-.12,2.75,2.75,0,0,1-3.3-4.41,17.11,17.11,0,0,1,19.17-.12c4.06,2.56,9.58,7.72,15.42,13.18,6.64,6.21,14.17,13.23,18,14.74,7.46,2.9,17.62,7.65,22.59,11.13,4.38,3.06,5.31,10.52,3.16,14.65a5.78,5.78,0,0,1-7.51,2.9l-5.43-2c-4.28-1.6-10.08-3.76-14.22-5.16a88.19,88.19,0,0,0,3.87,12.8c2.82,6.58,14.43,52.2,14.43,55.19a7.59,7.59,0,0,1-2.79,5.58,10.91,10.91,0,0,1-8.76,2.23h-.05c-2.83,0-5.5-3.55-8-10.57-1.06-3-4-8.63-7.38-14.71l6.6,18.37c.22.47,2.81,6.49.67,11.23a8.31,8.31,0,0,1-5.31,4.55A15.62,15.62,0,0,1,396.81,1270.93Zm17.63-15.11h0Z" transform="translate(-152.69 -304.92)"/><path class="cls-3" d="M376.16,1140.67l-3.12-4.54s7.31-5,11.88-8.29c2.56-1.83,5.07-9.11,6-13.69a2.75,2.75,0,1,1,5.38,1.13c-.28,1.35-2.92,13.26-8.23,17C383.52,1135.61,376.16,1140.67,376.16,1140.67Z" transform="translate(-152.69 -304.92)"/><path class="cls-3" d="M616.28,1241.56a2.75,2.75,0,0,1-1.58-.5c-.23-.16-23-16.08-39.53-17.24-3.2-.23-7.3-.42-12-.64-21.66-1-54.4-2.58-75.57-10.2-25.33-9.12-55.05-23.82-55.35-24a2.75,2.75,0,0,1,2.44-4.93c.3.14,29.75,14.71,54.77,23.72,20.39,7.34,52.63,8.88,74,9.89,4.76.23,8.89.42,12.13.65,18.05,1.27,41.33,17.54,42.32,18.23a2.75,2.75,0,0,1-1.58,5Z" transform="translate(-152.69 -304.92)"/><path class="cls-3" d="M426.37,1177.57a2.7,2.7,0,0,1-1.28-.32,2.75,2.75,0,0,1-1.14-3.72c.23-.43,23.19-43.94,25-60.63.58-5.5,1.67-12.29,2.83-19.48,2.14-13.27,5.07-31.44,3-35.35-.85-1.59-1.4-1.81-1.41-1.82a4.18,4.18,0,0,1-3.11-1.15c-1.07-1.43-.66-2.53.7-6.15,2.77-7.4,4.72-12,4.72-12a2.75,2.75,0,0,1,5.07,2.14s-1.92,4.56-4.64,11.82l-.19.49a9.18,9.18,0,0,1,3.7,4.1c2.76,5.17.94,18.11-2.4,38.82-1.15,7.11-2.23,13.84-2.79,19.18-1.87,17.74-24.59,60.81-25.56,62.63A2.76,2.76,0,0,1,426.37,1177.57Z" transform="translate(-152.69 -304.92)"/><path class="cls-3" d="M446.94,1132.83h-.18c-2.09-.13-51.16-3.58-73.87-31.63a8,8,0,0,1-3.61-3.76c-2.11-4.38-1.16-11,2.82-19.69,7.39-16.1,46.28-82.9,69.07-92.72,21.32-9.18,51.76-15.06,53-15.31a2.76,2.76,0,0,1,3.16,1.94c.39,1.37,10,33.51,44.18,34.3l1.17,0c32.8,0,38.92-32.62,39.16-34a2.75,2.75,0,0,1,2.36-2.26c2-.25,48.81-5.81,69.19,26.48a2.75,2.75,0,1,1-4.65,2.93c-16.32-25.85-53.2-24.79-62-24.12-2.12,8.15-11.78,37.28-45.4,36.48-32.5-.75-45.31-27.57-48.5-35.87-7.58,1.57-32.14,7-49.58,14.49-20.07,8.65-57.5,70.9-66.24,90-4.16,9.07-3.64,13.17-3,14.81a2.43,2.43,0,0,0,1.24,1.44,2.43,2.43,0,0,1,1.38.93c21,26.66,69.86,30.08,70.35,30.11a2.75,2.75,0,0,1-.17,5.5Z" transform="translate(-152.69 -304.92)"/><path class="cls-3" d="M638,1126.09a6.89,6.89,0,0,1-1.51-.17c-3.76-.88-6.61-4.78-8.72-12a298.53,298.53,0,0,0-11-29.58c-1.34-3.26-2.46-5.95-3.15-7.85a9.2,9.2,0,0,1-.7-4.68l-.58-.39c-1.74-1.16-2.65-.94-3.31-.77a3.21,3.21,0,0,1-3.32-.76c-1.26-1.36-.83-2.68,0-5.3a2.75,2.75,0,0,1,5.34.51,10.43,10.43,0,0,1,4.3,1.74c2.89,1.92,3.66,2.44,3.76,4a3.41,3.41,0,0,1-.79,2.17,7.38,7.38,0,0,0,.43,1.56c.67,1.85,1.76,4.46,3.07,7.62a302.63,302.63,0,0,1,11.15,30.15c2.11,7.17,4.26,8,4.66,8.14.81.2,1.69-.66,1.7-.68a2.78,2.78,0,0,1,2.3-.84c30,3.41,55.56-24,64-33,1-1.09,1.81-1.92,2.34-2.43-.18-2.41-5.13-10.24-11-17.26a2.75,2.75,0,0,1,4.23-3.51c16.4,19.79,12.07,23.43,10.65,24.62-.41.34-1.17,1.17-2.26,2.34-8.76,9.38-35.13,37.66-67.4,34.83A7.43,7.43,0,0,1,638,1126.09Z" transform="translate(-152.69 -304.92)"/><path class="cls-3" d="M379.9,1107.43a2.82,2.82,0,0,1-.84-.13,2.76,2.76,0,0,1-1.79-3.46c10.51-32.93,50.08-93.52,59.79-104.58,10.3-11.72,55.5-20.35,60.62-21.29a2.75,2.75,0,1,1,1,5.41c-13.39,2.48-49.83,10.8-57.49,19.52-10,11.35-48.8,71.66-58.68,102.62A2.75,2.75,0,0,1,379.9,1107.43Z" transform="translate(-152.69 -304.92)"/><path class="cls-3" d="M651.31,1012.77a2.75,2.75,0,0,1-2.21-1.11c-22.9-30.75-65.23-28.28-65.65-28.25a2.75,2.75,0,1,1-.38-5.49c1.86-.1,45.76-2.68,70.44,30.45a2.75,2.75,0,0,1-2.21,4.39Z" transform="translate(-152.69 -304.92)"/><path class="cls-3" d="M701.88,1096.71a2.74,2.74,0,0,1-2.27-1.2l-20.13-29.38A2.75,2.75,0,0,1,684,1063l20.13,29.38a2.75,2.75,0,0,1-2.27,4.3Z" transform="translate(-152.69 -304.92)"/><path class="cls-3" d="M458.15,1432.29s-3.08,18.34-13.51,22.92-24.42,19.26,0,22.92,58.36,10.08,62.93-11-.92-16.5,4.58-21.09,10.09-13.75,10.09-13.75l-4.09-32.94s-16.44-4.18-19.76,0-1.33,12.9-.2,20.17,5.71,25.4.2,18.17-2.15-11.89-15.6-14.68S456.41,1420.37,458.15,1432.29Z" transform="translate(-152.69 -304.92)"/><path class="cls-3" d="M474.7,1497.55c-17.59,0-35.61-4.24-42.15-7-4-1.7-6.26-4.14-6.69-7.26-.79-5.68,5.19-10.69,5.87-11.24a2.75,2.75,0,0,1,3.46,4.28c-1.39,1.13-4.17,4.14-3.88,6.2.19,1.34,2,2.35,3.4,3,10.89,4.6,51.11,11.87,67.86.27,8.93-6.18,11.19-14.21,13.38-22,1.93-6.84,3.75-13.3,10.17-16.68a2.75,2.75,0,0,1,2.57,4.87c-4.33,2.28-5.71,7.15-7.44,13.31-2.22,7.88-5,17.69-15.54,25C497.88,1495.68,486.38,1497.55,474.7,1497.55Z" transform="translate(-152.69 -304.92)"/><path class="cls-3" d="M498.47,979.09a4.5,4.5,0,0,1-.78-.06,2.75,2.75,0,0,1,.82-5.44c1.18-.09,4.49-3.28,4.94-16.61a2.82,2.82,0,0,1,2.84-2.66,2.75,2.75,0,0,1,2.66,2.84c-.35,10.46-2.43,17.3-6.2,20.32A6.8,6.8,0,0,1,498.47,979.09Z" transform="translate(-152.69 -304.92)"/><path class="cls-3" d="M583.26,980.21a2.76,2.76,0,0,1-.66-.08c-19-4.64-33.65-40.9-34.26-42.45a2.75,2.75,0,0,1,5.1-2c3.91,9.77,17,35.85,30.47,39.15a2.75,2.75,0,0,1-.66,5.42Z" transform="translate(-152.69 -304.92)"/><path class="cls-3" d="M458.15,918.26a26.64,26.64,0,1,1,26.64-26.64A26.68,26.68,0,0,1,458.15,918.26Zm0-47.79a21.14,21.14,0,1,0,21.14,21.14A21.16,21.16,0,0,0,458.15,870.47Z" transform="translate(-152.69 -304.92)"/><path class="cls-3" d="M522.09,898.55a26.64,26.64,0,1,1,26.64-26.64A26.68,26.68,0,0,1,522.09,898.55Zm0-47.78a21.14,21.14,0,1,0,21.14,21.14A21.16,21.16,0,0,0,522.09,850.77Z" transform="translate(-152.69 -304.92)"/><path class="cls-3" d="M499.74,921.94a8.79,8.79,0,0,1-8-5.39L482,887.79a2.7,2.7,0,0,1-.14-1c.21-5,2.37-7.38,4.14-8.49,4.37-2.73,10.07-.38,10.71-.1a2.72,2.72,0,0,1,1.25,1.1c.55.9,13.36,22.12,15.45,26,2.6,4.86,1.45,7.86,1.2,8.41a2.73,2.73,0,0,1-.5.74A28.91,28.91,0,0,1,503,921.4,10.84,10.84,0,0,1,499.74,921.94Zm-12.31-35.39,9.46,28.08c.3.63,1.49,2.48,4.49,1.53a23.16,23.16,0,0,0,8.27-5,7.56,7.56,0,0,0-1-3.27c-1.8-3.36-12.37-20.91-14.81-24.95-1.3-.4-3.53-.83-4.85,0C488.08,883.53,487.57,884.72,487.42,886.55Z" transform="translate(-152.69 -304.92)"/><path class="cls-3" d="M514.9,928.87c3.38-3.12,6-5,8.08-7.11a26,26,0,0,0,3.09-3.33c1.09-1.26,2-2.8,3.5-4.69a8.94,8.94,0,0,1,1.29,6.6,11,11,0,0,1-3.32,6.18,12.46,12.46,0,0,1-6.06,3.13A9.88,9.88,0,0,1,514.9,928.87Z" transform="translate(-152.69 -304.92)"/><path class="cls-3" d="M451.4,896.77a7.19,7.19,0,0,1,1.17-5.23,10.38,10.38,0,0,1,3.87-3.57c3.15-1.57,7-1.8,10.09.55a26.6,26.6,0,0,1-3.92,2.87c-1.18.73-2.27,1.35-3.36,1.94s-2.19,1.13-3.46,1.64S453.21,896.08,451.4,896.77Z" transform="translate(-152.69 -304.92)"/><path class="cls-3" d="M514.9,875a6.59,6.59,0,0,1,1.68-4.69,9.76,9.76,0,0,1,3.87-2.78c3-1,6.43-1,9.12,1.52a19,19,0,0,1-3.72,2.61,26.18,26.18,0,0,1-3.24,1.53A36.36,36.36,0,0,1,514.9,875Z" transform="translate(-152.69 -304.92)"/><path class="cls-3" d="M505.58,956.18c-8.41,0-17.65-1.69-28.88-5.81-24.33-8.95-34.25-37-34.66-38.15a2.75,2.75,0,0,1,5.2-1.8c.09.27,9.51,26.75,31.36,34.78,23.74,8.74,37.24,5.51,50.09,1.12,14.06-4.8,31.38-20,33.91-47.11,2.6-27.81-5.5-38.3-5.58-38.41a2.78,2.78,0,0,1-.22-3.16c5.12-8.47,12.54-24.33,10.67-30.81a3.12,3.12,0,0,0-1.62-2.11,3.65,3.65,0,0,0-3.47-.17c-4.17,2-7.61,11.4-8.8,16.86a2.75,2.75,0,1,1-5.37-1.16c.37-1.71,3.84-16.85,11.79-20.66a9.16,9.16,0,0,1,8.31.21,8.63,8.63,0,0,1,4.44,5.5c2.79,9.67-7.08,28-10.36,33.66,2.48,4.16,8,16.41,5.68,40.75-2.78,29.7-22,46.47-37.61,51.8C522.21,954.35,514.34,956.18,505.58,956.18Z" transform="translate(-152.69 -304.92)"/><path class="cls-3" d="M434.26,894.36a2.72,2.72,0,0,1-.79-.12c-9.5-2.85-31.73-10.55-33-20.29-.29-2.28.38-5.61,5.24-8.59,15.26-9.3,33.05,11.72,33.8,12.62a2.75,2.75,0,0,1-4.23,3.52c-.15-.19-15.51-18.31-26.71-11.45-1.29.79-2.81,2-2.65,3.19.45,3.51,10.81,10.21,29.11,15.72a2.75,2.75,0,0,1-.79,5.38Z" transform="translate(-152.69 -304.92)"/><path class="cls-3" d="M463.9,780.31s-14.1-1.72-23.38,4.13c-9.13,5.75-26.48,25.79-27.17,43.67s8.84,39.35,11.35,40.91,6.51,6.87,12.71,0,16.52-29.91,16.52-29.91-9,28.44-1,28.6,34-21.89,35.76-41.41c0,0-8.94,30.69,0,31s28.2-29.35,27.85-40.12c0,0-8.59,32.14,0,30.8s19.6-19.22,19.6-19.22-.69,17.54,5.85,17.54,8.94-8.94,8.94-8.94,7.89-16.77,12-15.95c0,0-3.09-28.07-23.38-44.23S485.56,760.37,463.9,780.31Z" transform="translate(-152.69 -304.92)"/><path class="cls-7" d="M740.07,1469.73l-13.48-52.2H656.14l-8.24,31-24.11,21.16H542.52l89.32-279.65L656,1168.93h98.68l90.44,279.65L821,1469.73Zm-4.73-135.07-11.8-45.72q-4.12-15.24-10-39.44t-7.77-34.67q-1.68,9.71-6.65,32t-22,87.82Z" transform="translate(-152.69 -304.92)"/><path class="cls-8" d="M740.07,1469.73l-13.48-52.2H637.65l-13.86,52.2H542.52l89.32-279.65h98.68L821,1469.73Zm-28.83-113.92-11.8-45.72q-4.12-15.24-10-39.44T681.65,1236q-1.68,9.71-6.65,32t-22,87.82Z" transform="translate(-152.69 -304.92)"/><path class="cls-7" d="M999.63,1469.73l-34.12-244h-1.87q4.36,55.79,4.36,86.69v131.68l-27.88,25.6H867.54V1166.55l27.88-25.6h109.08l63.25,215.26h1.66l34.12-189.66,27.88-25.6h109.28v303.18l-27.88,25.6h-75.28l27.88-158.53q0-10.37.31-23t2.8-62h-1.86l-61.18,217.95-27.88,25.6Z" transform="translate(-152.69 -304.92)"/><path class="cls-8" d="M999.63,1469.73l-62-218.37h-1.87q4.36,55.79,4.36,86.69v131.68H867.54V1166.55H976.62l63.25,215.26h1.66l62-215.26h109.28v303.18h-75.28V1336.8q0-10.37.31-23t2.8-62h-1.86l-61.18,217.95Z" transform="translate(-152.69 -304.92)"/><path class="cls-7" d="M769.53,1039.19l-34.59,23.47H651.11V821H575.36V752.42l34.59-23.47H845.07v68.54L810.48,821h-41Z" transform="translate(-152.69 -304.92)"/><path class="cls-8" d="M734.94,1062.66H651.11V821H575.36V752.42H810.48V821H734.94Z" transform="translate(-152.69 -304.92)"/><path class="cls-7" d="M1078.85,1036.68l-30.51,26H865.63V754.93l30.51-26H923.6s14.24,10.78,59.89,10.78c28.41,0,95.37-3.33,95.37-3.33v59.27l-30.51,26h-69v22.43h92.19v66.72l-30.51,26H979.29V968.9h99.56Z" transform="translate(-152.69 -304.92)"/><path class="cls-8" d="M1048.34,1062.66H865.63V754.93h182.71v66.73H948.78v48.41H1041v66.72H948.78v58.1h99.56Z" transform="translate(-152.69 -304.92)"/><path class="cls-9" d="M1094.49,1191.28s-14.39,12-19,22.55-1.07,18.54,2.44,21.55,24.05,13.53,29.07,15,7-1,5.51-3.51c-.64-1.06-4.87-4.37-9.53-7.83-6.36-4.71-13.52-9.71-13.52-9.71l13.52,9.71s13.54,7.83,16.55,7.33,4.51-5.85,2.51-6.18-23.55-19.15-23.55-19.15l22.53,15.44s8.25,0,5.5-4.58-18.8-21.09-18.8-21.09,17.17,15.13,19.36,14.21,2.19-8.25-1.94-11.46-19.26-15.59-19.26-15.59,1.08-19.29-5-22.48S1097.58,1188.53,1094.49,1191.28Z" transform="translate(-152.69 -304.92)"/></svg>