<svg id="Layer_1" data-name="Layer 1" xmlns="http://www.w3.org/2000/svg" viewBox="0 0 1926.37 1207.64"><defs><style>.cls-1{fill:#82ff00;}.cls-2{font-size:487.63px;fill:#107c04;font-family:TimesNewRomanPS-BoldMT, Times New Roman;font-weight:700;}</style></defs><title>Thebridge</title><circle class="cls-1" cx="1818.89" cy="908.55" r="22.76"/><circle class="cls-1" cx="1497.05" cy="1157.25" r="22.76"/><circle class="cls-1" cx="847.28" cy="1154.81" r="22.76"/><circle class="cls-1" cx="794.86" cy="1154.81" r="22.76"/><circle class="cls-1" cx="159.31" cy="1154.81" r="22.76"/><polygon class="cls-1" points="1720.69 1101.14 1661.69 1101.14 1661.69 879.3 1720.55 879.3 1720.69 1101.14"/><polygon class="cls-1" points="948.87 1098.73 949.69 1058.14 1528.69 1058.14 1527.69 1100.14 948.87 1098.73"/><rect class="cls-1" x="1475.69" y="953.66" width="54.68" height="146.29"/><polygon class="cls-1" points="225.61 1102.19 360.52 1057.8 885.13 1056.7 884.69 1101.14 225.61 1102.19"/><rect class="cls-1" x="829.69" y="957.76" width="59.45" height="143.85"/><path class="cls-1" d="M284.84,936.77c-5.69-1.63-9.56,20.33-14.84,39.23-1.47,5.27,14.82,5.06,25,12,35.76,24.38,42.88,47.56,38,63H249s2,26.18,2,40c0,5.17,92.36,2.63,66.35,2.63-42.26,0,65.65,2.44,65.65-1.63,0-22.2,10.09-81.32-33.14-120.28C331.63,955.29,297,940.23,284.84,936.77Z" transform="translate(-20.31 7.14)"/><path class="cls-1" d="M134.52,1168.8c3.73,10.25,1.22,31.7-2.84,31.7-10.45,0-59.12.72-80.46-31.7-3.75-5.7-13.28-26.06-7.72-49.58,6.14-26,28.87-38.54,34.13-41.45C105.38,1062.43,136,1058,172,1051c0-10.57.72-27.67-7.82-43.93-12.21-23.26-32.89-26-50-26.82-26-1.22-37.21,1.94-43.89,0-4.32-1.25-1.63-15-1.63-30.48,0-4.47,75.31-5.77,99.56,7.72,9.38,5.22,39.75,24.51,43.48,64.2,3.59,38.2-.73,45.95-.73,71.3,0,3-74-5-107.77,10-8.83,3.91-19.23,9-23.23,23-2.44,8.53.86,23.4,12,32C108.42,1170.68,132.89,1164.33,134.52,1168.8Z" transform="translate(-20.31 7.14)"/><path class="cls-1" d="M904.17,1144.83c-2.57-1.29-2.2,12.31-5.28,34.54-.72,5.19,73.08,6.61,92.24-20.72C1007,1136,1005.41,1123.23,1005,1096c-1.15-77.29,4-146.63,1.16-146.63-16.65,0-43.85,1.63-56.16,1.63-4.06,0-2,88.43-2,112,0,22,7,57-4,73C937.74,1145.11,918,1151.73,904.17,1144.83Z" transform="translate(-20.31 7.14)"/><path class="cls-1" d="M1824.84,936.77c-5.69-1.63-9.56,20.33-14.84,39.23,0,0,14.82,5.06,25,12,35.76,24.38,44.88,47.56,40,63h-82s-2,29.18-2,43c21,0,132,3.06,132-1,0-22.2,10.09-82.32-33.14-121.28C1871.63,955.29,1837,940.23,1824.84,936.77Z" transform="translate(-20.31 7.14)"/><text class="cls-2" transform="translate(0 801.12)">BRIDGE</text><text class="cls-2" transform="translate(5 405.25)">THE </text><path class="cls-1" d="M1148.41,372.28c-1.72,15.46,147.26-173.5,343.61-173.5,182,0,329.16,182.19,330.91,173.5,3.4-16.92-126.1-231.89-330.07-231.89C1278.74,140.39,1151.79,341.81,1148.41,372.28Z" transform="translate(-20.31 7.14)"/><circle class="cls-1" cx="1177.18" cy="129.14" r="49.09"/><circle class="cls-1" cx="1753.72" cy="129.14" r="49.09"/><path class="cls-1" d="M1106.94,357.28c5.92-2.54,24.54-94.79,133.72-171,104-72.54,168.27-74.71,208.2-88,15.23-5.08-127.09-4.58-258.13,60.94-100.31,50.15-163.58,117.4-160.8,120.18,5.5,5.5,82.94-49.09,89.71-42.32S1096.72,361.66,1106.94,357.28Z" transform="translate(-20.31 7.14)"/><path class="cls-1" d="M1864.59,357.28c-5.92-2.54-24.54-94.79-133.72-171-104-72.54-168.27-74.71-208.2-88-15.23-5.08,127.09-4.58,258.13,60.94,100.31,50.15,163.58,117.4,160.8,120.18-5.5,5.5-82.94-49.09-89.71-42.32S1874.81,361.66,1864.59,357.28Z" transform="translate(-20.31 7.14)"/></svg>