<svg id="Layer_1" data-name="Layer 1" xmlns="http://www.w3.org/2000/svg" viewBox="0 0 2177.5 1876"><defs><style>.cls-1{fill:#fff;}.cls-2{fill:#82ff00;}.cls-3{font-size:487.63px;fill:#107c04;font-family:TimesNewRomanPS-BoldMT, Times New Roman;font-weight:700;}</style></defs><title>thebridge-bg</title><polygon class="cls-1" points="1088.75 0 0 335 0 1557.75 1072 1876 2177.5 1557.75 2177.5 335 1088.75 0"/><circle class="cls-2" cx="1948.45" cy="1254.42" r="22.76"/><circle class="cls-2" cx="1626.61" cy="1503.11" r="22.76"/><circle class="cls-2" cx="976.84" cy="1500.67" r="22.76"/><circle class="cls-2" cx="924.42" cy="1500.67" r="22.76"/><circle class="cls-2" cx="288.88" cy="1500.67" r="22.76"/><polygon class="cls-2" points="1850.25 1447 1791.25 1447 1791.25 1225.16 1850.11 1225.16 1850.25 1447"/><polygon class="cls-2" points="1078.43 1444.59 1079.25 1404 1658.25 1404 1657.25 1446 1078.43 1444.59"/><rect class="cls-2" x="1605.25" y="1299.52" width="54.68" height="146.29"/><polygon class="cls-2" points="355.18 1448.06 490.09 1403.66 1014.7 1402.56 1014.25 1447 355.18 1448.06"/><rect class="cls-2" x="959.25" y="1303.62" width="59.45" height="143.85"/><path class="cls-2" d="M433.34,1329.77c-5.69-1.63-9.56,20.33-14.84,39.23-1.47,5.27,14.82,5.06,25,12,35.76,24.38,42.88,47.56,38,63h-84s2,26.18,2,40c0,5.17,92.36,2.63,66.35,2.63-42.26,0,65.65,2.44,65.65-1.63,0-22.2,10.09-81.32-33.14-120.28C480.13,1348.29,445.45,1333.23,433.34,1329.77Z" transform="translate(-39.25 -40)"/><path class="cls-2" d="M283,1561.8c3.73,10.25,1.22,31.7-2.84,31.7-10.45,0-59.12.72-80.46-31.7-3.75-5.7-13.28-26.06-7.72-49.58,6.14-26,28.87-38.54,34.13-41.45,27.75-15.35,58.37-19.78,94.37-26.78,0-10.57.72-27.67-7.82-43.93-12.21-23.26-32.89-26-50-26.82-26-1.22-37.21,1.94-43.89,0-4.32-1.25-1.63-15-1.63-30.48,0-4.47,75.31-5.77,99.56,7.72,9.38,5.22,39.75,24.51,43.48,64.2,3.59,38.2-.73,45.95-.73,71.3,0,3-74-5-107.77,10-8.83,3.91-19.23,9-23.23,23-2.44,8.53.86,23.4,12,32C256.92,1563.68,281.39,1557.33,283,1561.8Z" transform="translate(-39.25 -40)"/><path class="cls-2" d="M1052.67,1537.83c-2.57-1.29-2.2,12.31-5.28,34.54-.72,5.19,73.08,6.61,92.24-20.72,15.87-22.64,14.28-35.42,13.87-62.64-1.15-77.29,4-146.63,1.16-146.63-16.65,0-43.85,1.63-56.16,1.63-4.06,0-2,88.43-2,112,0,22,7,57-4,73C1086.24,1538.11,1066.48,1544.73,1052.67,1537.83Z" transform="translate(-39.25 -40)"/><path class="cls-2" d="M1973.34,1329.77c-5.69-1.63-9.56,20.33-14.84,39.23,0,0,14.82,5.06,25,12,35.76,24.38,44.88,47.56,40,63h-82s-2,29.18-2,43c21,0,132,3.06,132-1,0-22.2,10.09-82.32-33.14-121.28C2020.13,1348.29,1985.45,1333.23,1973.34,1329.77Z" transform="translate(-39.25 -40)"/><text class="cls-3" transform="translate(129.56 1146.98)">BRIDGE</text><text class="cls-3" transform="translate(134.56 751.11)">THE </text><path class="cls-2" d="M1296.91,765.28c-1.72,15.46,147.26-173.5,343.61-173.5,182,0,329.16,182.19,330.91,173.5,3.4-16.92-126.1-231.89-330.07-231.89C1427.24,533.39,1300.29,734.81,1296.91,765.28Z" transform="translate(-39.25 -40)"/><circle class="cls-2" cx="1306.74" cy="475" r="49.09"/><circle class="cls-2" cx="1883.28" cy="475" r="49.09"/><path class="cls-2" d="M1255.44,750.28c5.92-2.54,24.54-94.79,133.72-171,104-72.54,168.27-74.71,208.2-88,15.23-5.08-127.09-4.58-258.13,60.94-100.31,50.15-163.58,117.4-160.8,120.18,5.5,5.5,82.94-49.09,89.71-42.32S1245.22,754.66,1255.44,750.28Z" transform="translate(-39.25 -40)"/><path class="cls-2" d="M2013.09,750.28c-5.92-2.54-24.54-94.79-133.72-171-104-72.54-168.27-74.71-208.2-88-15.23-5.08,127.09-4.58,258.13,60.94,100.31,50.15,163.58,117.4,160.8,120.18-5.5,5.5-82.94-49.09-89.71-42.32S2023.31,754.66,2013.09,750.28Z" transform="translate(-39.25 -40)"/></svg>